<svg width="225" height="129" viewBox="0 0 225 129" version="1.1" xmlns="http://www.w3.org/2000/svg" xmlns:xlink="http://www.w3.org/1999/xlink">
<title>Layer 2</title>
<desc>Created using Figma</desc>
<g id="Canvas" transform="translate(-34351 4606)">
<g id="Layer 2">
<g id="Layer 1">
<g id="Vector">
<use xlink:href="#path0_fill" transform="translate(34353.5 -4601.12)" fill="#FFFFFF"/>
<use xlink:href="#path0_fill" transform="translate(34353.5 -4601.12)" fill="#F99531"/>
<use xlink:href="#path0_fill" transform="translate(34353.5 -4601.12)" fill="#F99531"/>
</g>
<g id="Vector">
<use xlink:href="#path1_fill" transform="translate(34351 -4606)" fill="#FFFFFF"/>
<use xlink:href="#path1_fill" transform="translate(34351 -4606)" fill="#F99531"/>
<use xlink:href="#path1_fill" transform="translate(34351 -4606)" fill="#F99531"/>
</g>
<g id="Vector">
<use xlink:href="#path2_fill" transform="translate(34373.3 -4579.31)" fill="#FFFFFF"/>
<use xlink:href="#path2_fill" transform="translate(34373.3 -4579.31)" fill="#F99531"/>
<use xlink:href="#path2_fill" transform="translate(34373.3 -4579.31)" fill="#F99531"/>
</g>
<g id="Vector">
<use xlink:href="#path3_fill" transform="translate(34380.4 -4553.06)" fill="#FFFFFF"/>
<use xlink:href="#path3_fill" transform="translate(34380.4 -4553.06)" fill="#F99531"/>
<use xlink:href="#path3_fill" transform="translate(34380.4 -4553.06)" fill="#F99531"/>
</g>
<g id="Vector">
<use xlink:href="#path4_fill" transform="translate(34392.8 -4548.5)" fill="#FFFFFF"/>
<use xlink:href="#path4_fill" transform="translate(34392.8 -4548.5)" fill="#F99531"/>
<use xlink:href="#path4_fill" transform="translate(34392.8 -4548.5)" fill="#F99531"/>
</g>
<g id="Vector">
<use xlink:href="#path5_fill" transform="translate(34487.8 -4601.13)" fill="#FFFFFF"/>
<use xlink:href="#path5_fill" transform="translate(34487.8 -4601.13)" fill="#F99531"/>
<use xlink:href="#path5_fill" transform="translate(34487.8 -4601.13)" fill="#F99531"/>
</g>
<g id="Vector">
<use xlink:href="#path6_fill" transform="translate(34479.8 -4606)" fill="#FFFFFF"/>
<use xlink:href="#path6_fill" transform="translate(34479.8 -4606)" fill="#F99531"/>
<use xlink:href="#path6_fill" transform="translate(34479.8 -4606)" fill="#F99531"/>
</g>
<g id="Vector">
<use xlink:href="#path7_fill" transform="translate(34510.6 -4579.86)" fill="#FFFFFF"/>
<use xlink:href="#path7_fill" transform="translate(34510.6 -4579.86)" fill="#F99531"/>
<use xlink:href="#path7_fill" transform="translate(34510.6 -4579.86)" fill="#F99531"/>
</g>
<g id="Vector">
<use xlink:href="#path8_fill" transform="translate(34519.2 -4554.09)" fill="#FFFFFF"/>
<use xlink:href="#path8_fill" transform="translate(34519.2 -4554.09)" fill="#F99531"/>
<use xlink:href="#path8_fill" transform="translate(34519.2 -4554.09)" fill="#F99531"/>
</g>
<g id="Vector">
<use xlink:href="#path9_fill" transform="translate(34532.7 -4549.12)" fill="#FFFFFF"/>
<use xlink:href="#path9_fill" transform="translate(34532.7 -4549.12)" fill="#F99531"/>
<use xlink:href="#path9_fill" transform="translate(34532.7 -4549.12)" fill="#F99531"/>
</g>
<g id="Vector">
<use xlink:href="#path10_fill" transform="translate(34453.2 -4534)" fill="#FFFFFF"/>
<use xlink:href="#path10_fill" transform="translate(34453.2 -4534)" fill="#F99531"/>
<use xlink:href="#path10_fill" transform="translate(34453.2 -4534)" fill="#F99531"/>
</g>
<g id="Vector">
<use xlink:href="#path11_fill" transform="translate(34458.8 -4523.15)" fill="#FFFFFF"/>
<use xlink:href="#path11_fill" transform="translate(34458.8 -4523.15)" fill="#F99531"/>
<use xlink:href="#path11_fill" transform="translate(34458.8 -4523.15)" fill="#F99531"/>
</g>
<g id="Vector">
<use xlink:href="#path11_fill" transform="translate(34458.8 -4515.15)" fill="#FFFFFF"/>
<use xlink:href="#path11_fill" transform="translate(34458.8 -4515.15)" fill="#F99531"/>
<use xlink:href="#path11_fill" transform="translate(34458.8 -4515.15)" fill="#F99531"/>
</g>
<g id="Vector">
<use xlink:href="#path11_fill" transform="translate(34458.8 -4508.15)" fill="#FFFFFF"/>
<use xlink:href="#path11_fill" transform="translate(34458.8 -4508.15)" fill="#F99531"/>
<use xlink:href="#path11_fill" transform="translate(34458.8 -4508.15)" fill="#F99531"/>
</g>
<g id="Vector">
<use xlink:href="#path12_fill" transform="translate(34459.3 -4491.08)" fill="#FFFFFF"/>
<use xlink:href="#path12_fill" transform="translate(34459.3 -4491.08)" fill="#F99531"/>
<use xlink:href="#path12_fill" transform="translate(34459.3 -4491.08)" fill="#F99531"/>
</g>
</g>
</g>
</g>
<defs>
<path id="path0_fill" d="M 83.11 1.14441e-07L 82.75 1.14441e-07L 1.87 13C 1.34804 13.0854 0.873416 13.3535 0.530875 13.7565C 0.188335 14.1595 0.000177855 14.6711 -4.44089e-15 15.2L -4.44089e-15 91.8C 0.00200072 92.3502 0.207342 92.8803 0.576538 93.2882C 0.945734 93.6962 1.45272 93.9533 2 94.01L 82.88 102.7L 83.12 102.7C 83.7097 102.697 84.2743 102.461 84.6904 102.043C 85.1064 101.625 85.34 101.06 85.34 100.47L 85.34 2.23C 85.34 1.63857 85.1051 1.07136 84.6869 0.653152C 84.2686 0.234946 83.7014 1.14441e-07 83.11 1.14441e-07ZM 84.33 100.47C 84.33 100.794 84.2018 101.106 83.9733 101.336C 83.7448 101.567 83.4345 101.697 83.11 101.7L 82.98 101.7L 2.1 93.01C 1.79766 92.9801 1.51735 92.8385 1.31391 92.6129C 1.11046 92.3872 0.998527 92.0938 1 91.79L 1 15.19C 0.997648 14.9029 1.09664 14.6241 1.27955 14.4028C 1.46246 14.1815 1.71758 14.0318 2 13.98L 82.88 0.98L 83.08 0.98C 83.4045 0.982638 83.7148 1.11339 83.9433 1.34378C 84.1718 1.57416 84.3 1.88551 84.3 2.21L 84.33 100.47Z"/>
<path id="path1_fill" d="M 94.36 0.89L 92.67 0L 0 15.83L 0 102.66L 47.66 108.32L 49.06 111.86L 49 112L 27.5 120.33C 27.3797 120.378 27.2764 120.46 27.2033 120.567C 27.1303 120.674 27.0908 120.801 27.09 120.93L 27.09 122.71C 27.0887 122.856 27.1377 122.999 27.2287 123.113C 27.3197 123.228 27.4472 123.308 27.59 123.34L 46.91 128C 47.1228 128.052 47.341 128.079 47.56 128.08C 47.8695 128.08 48.1768 128.029 48.47 127.93L 76 117.74C 76.2441 117.652 76.4666 117.513 76.6525 117.333C 76.8385 117.152 76.9838 116.933 77.0785 116.692C 77.1731 116.45 77.2151 116.191 77.2016 115.932C 77.1881 115.673 77.1193 115.42 77 115.19L 74.87 111.56L 91.62 113.56L 92.62 113.68L 93.98 113.18C 94.5087 112.984 94.9646 112.631 95.2864 112.167C 95.6082 111.704 95.7805 111.154 95.78 110.59L 95.78 3.33C 95.7849 2.83313 95.6555 2.34416 95.4056 1.9147C 95.1556 1.48524 94.7944 1.13122 94.36 0.89ZM 48.79 108.46L 70.43 111L 72.7 115.09L 50 111.79C 49.9965 111.692 49.9797 111.594 49.95 111.5L 48.79 108.46ZM 49.36 112.94C 49.4774 112.892 49.5857 112.825 49.68 112.74L 71.58 116L 48.13 124.93C 47.8034 125.024 47.4566 125.024 47.13 124.93L 29.26 120.7L 49.36 112.94ZM 28.08 122.44L 28.08 121.44L 46.9 125.89C 46.99 125.89 47.08 125.89 47.16 125.89L 47.16 127L 28.08 122.44ZM 76.15 115.66C 76.1978 115.765 76.2225 115.879 76.2225 115.995C 76.2225 116.111 76.1978 116.225 76.15 116.33C 76.1033 116.439 76.0335 116.537 75.9455 116.616C 75.8574 116.695 75.7532 116.755 75.64 116.79L 48.17 127L 48.17 126L 48.48 125.92L 73.35 116.44C 73.468 116.4 73.5762 116.336 73.6675 116.252C 73.7589 116.167 73.8313 116.064 73.88 115.95C 73.9339 115.832 73.9618 115.704 73.9618 115.575C 73.9618 115.446 73.9339 115.318 73.88 115.2L 71.69 111.2L 73.69 111.44L 76.15 115.66ZM 74.27 110.48L 47.27 107.25L 1 101.78L 1 16.68L 91.66 1.19L 91.66 112.54L 74.27 110.48ZM 94.83 110.58C 94.8298 110.94 94.7195 111.29 94.5139 111.585C 94.3083 111.88 94.0173 112.105 93.68 112.23L 92.68 112.61L 92.68 1.13L 93.91 1.78C 94.1933 1.92791 94.4306 2.15056 94.5963 2.4238C 94.762 2.69704 94.8498 3.01044 94.85 3.33L 94.83 110.58Z"/>
<path id="path2_fill" d="M 42.878 5.34058e-07L 42.728 5.34058e-07L 9.41799 3.31L 9.29799 3.31L 8.93799 3.31L 8.81799 3.31C 8.7422 3.32476 8.66838 3.34825 8.59799 3.38C 8.52495 3.4287 8.45783 3.48576 8.39799 3.55C 8.36299 3.5745 8.32958 3.60122 8.29799 3.63L 8.06799 3.91L 7.98799 4L 0.477994 13L 0.357993 13.14L 0.167994 13.36C 0.167994 13.36 0.167994 13.42 0.167994 13.44C 0.112192 13.5143 0.0652093 13.5948 0.0279929 13.68C 0.023721 13.7433 0.023721 13.8067 0.0279929 13.87C 0.0237619 13.9266 0.0237619 13.9834 0.0279929 14.04L 0.0279929 14.48C 0.0279929 14.55 0.0279929 14.6 0.0279929 14.6L 0.0279929 60.1C -0.00312471 60.2287 -0.00835907 60.3624 0.0125911 60.4931C 0.0335413 60.6239 0.0802596 60.7492 0.150035 60.8618C 0.21981 60.9744 0.31125 61.0719 0.419049 61.1489C 0.526848 61.2258 0.648857 61.2806 0.777993 61.31L 42.778 64.45L 42.858 64.45C 42.9936 64.4502 43.1279 64.4227 43.2526 64.3694C 43.3773 64.316 43.4898 64.2379 43.5834 64.1397C 43.6769 64.0414 43.7495 63.9252 43.7967 63.7981C 43.8439 63.6709 43.8648 63.5355 43.858 63.4L 43.858 1.03C 43.862 0.897841 43.8397 0.766205 43.7925 0.642705C 43.7453 0.519204 43.6741 0.406294 43.5829 0.310505C 43.4918 0.214717 43.3826 0.137952 43.2616 0.0846544C 43.1406 0.0313567 43.0102 0.00258462 42.878 5.34058e-07ZM 8.42799 5.09L 8.42799 13.09C 8.42799 13.14 8.42799 13.18 8.42799 13.18L 1.30799 13.65L 4.93799 9.31L 5.02799 9.21L 8.42799 5.09ZM 42.898 63.38C 42.898 63.38 42.898 63.43 42.848 63.43L 0.917994 60.31C 0.912474 60.287 0.912474 60.263 0.917994 60.24L 0.917994 14.66L 8.51799 14.15C 8.78036 14.1155 9.02062 13.985 9.19237 13.7836C 9.36413 13.5823 9.4552 13.3245 9.44799 13.06L 9.44799 4.31L 42.888 1.02L 42.898 63.38Z"/>
<path id="path3_fill" d="M 26.8614 -1.37329e-06L 26.8614 0.999999C 26.8614 0.999999 26.8614 1 26.8614 1.08L 26.8614 18.51L 20.6714 13.41C 20.577 13.3082 20.4625 13.2272 20.3351 13.1721C 20.2077 13.117 20.0702 13.0891 19.9314 13.09C 19.7967 13.0905 19.6635 13.1182 19.5398 13.1715C 19.416 13.2248 19.3044 13.3025 19.2114 13.4L 15.0914 16.66C 14.9092 16.846 14.6617 16.9536 14.4014 16.96C 14.266 16.9582 14.1323 16.9289 14.0086 16.8739C 13.8848 16.8189 13.7735 16.7393 13.6814 16.64L 7.53141 9.98C 7.44604 9.884 7.3413 9.80717 7.2241 9.75455C 7.1069 9.70193 6.97988 9.67473 6.85141 9.67473C 6.72294 9.67473 6.59592 9.70193 6.47872 9.75455C 6.36152 9.80717 6.25679 9.884 6.17141 9.98L 0.971411 14.25L 0.971411 1.79C 0.968175 1.77349 0.968175 1.75651 0.971411 1.74L 26.8514 0.999999L 26.8514 -1.37329e-06L 0.921412 0.74C 0.670297 0.760153 0.436042 0.874343 0.265476 1.05974C 0.0949109 1.24514 0.000604181 1.48808 0.00141152 1.74L 0.00141152 20.18C -0.0124347 20.4404 0.0760027 20.696 0.247868 20.8921C 0.419733 21.0883 0.661426 21.2095 0.921412 21.23L 26.8314 22.06C 27.0458 22.0734 27.2588 22.0175 27.4389 21.9004C 27.619 21.7833 27.7567 21.6114 27.8314 21.41C 27.885 21.2765 27.9122 21.1339 27.9114 20.99L 27.9114 1.06C 27.9114 0.780595 27.8011 0.512482 27.6045 0.313979C 27.4079 0.115475 27.1408 0.00263453 26.8614 -1.37329e-06Z"/>
<path id="path4_fill" d="M 2.75223 0.0400009L 2.75223 0.5L 2.75223 0C 1.99086 0.0363387 1.27468 0.371988 0.759626 0.933868C 0.244569 1.49575 -0.0276535 2.23836 0.00222537 3C -0.00843006 3.37168 0.0542629 3.74182 0.186723 4.08925C 0.319183 4.43669 0.518812 4.75462 0.774202 5.02486C 1.02959 5.29511 1.33573 5.51238 1.67513 5.66426C 2.01453 5.81614 2.38054 5.89964 2.75223 5.91C 3.13311 5.89843 3.50791 5.81139 3.85491 5.65392C 4.20192 5.49645 4.51421 5.27168 4.77372 4.99265C 5.03323 4.71361 5.23478 4.38584 5.3667 4.02834C 5.49861 3.67085 5.55828 3.29072 5.54222 2.91C 5.54751 2.53835 5.47954 2.1693 5.34219 1.82392C 5.20483 1.47854 5.00079 1.1636 4.7417 0.897091C 4.48262 0.630579 4.17358 0.417714 3.83222 0.270653C 3.49086 0.123592 3.12388 0.0452168 2.75223 0.0400009Z"/>
<path id="path5_fill" d="M 85.33 91.8L 85.33 15.2C 85.3298 14.6711 85.1417 14.1595 84.7991 13.7565C 84.4566 13.3535 83.982 13.0854 83.46 13L 2.58 -1.14441e-07L 2.22 -1.14441e-07C 1.6303 0.0026443 1.06566 0.238757 0.649611 0.656677C 0.233565 1.0746 -7.1498e-06 1.6403 -1.22059e-06 2.23L -1.22059e-06 100.47C -7.1498e-06 101.06 0.233565 101.625 0.649611 102.043C 1.06566 102.461 1.6303 102.697 2.22 102.7L 2.46001 102.7L 83.34 94.01C 83.8855 93.951 84.39 93.6929 84.7572 93.2852C 85.1243 92.8774 85.3283 92.3487 85.33 91.8ZM 2.33 101.71L 2.22 101.71C 1.89552 101.707 1.58523 101.577 1.35672 101.346C 1.12821 101.116 0.999988 100.804 0.999999 100.48L 0.999999 2.24C 0.999988 1.91551 1.12821 1.60416 1.35672 1.37378C 1.58523 1.14339 1.89552 1.01264 2.22 1.01L 2.42 1.01L 83.3 14.01C 83.5824 14.0618 83.8375 14.2115 84.0204 14.4328C 84.2034 14.6541 84.3024 14.9329 84.3 15.22L 84.3 91.82C 84.3015 92.1238 84.1895 92.4172 83.9861 92.6429C 83.7827 92.8685 83.5023 93.0101 83.2 93.04L 2.33 101.71Z"/>
<path id="path6_fill" d="M 95.83 102.67L 95.83 15.83L 3.16 0L 1.47 0.89C 1.02627 1.1246 0.654908 1.47576 0.395889 1.9057C 0.13687 2.33564 -3.95776e-06 2.82807 -2.31115e-07 3.33L -2.31115e-07 110.58C -0.000477618 111.144 0.171782 111.694 0.493591 112.157C 0.8154 112.62 1.27132 112.974 1.8 113.17L 3.16 113.67L 4.16 113.55L 20.91 111.55L 18.76 115.22C 18.6486 115.452 18.5876 115.704 18.581 115.961C 18.5743 116.218 18.6222 116.474 18.7214 116.711C 18.8206 116.948 18.9689 117.161 19.1565 117.337C 19.3441 117.513 19.5669 117.647 19.81 117.73L 47.36 127.91C 47.6473 128.004 47.9478 128.051 48.25 128.05C 48.4691 128.049 48.6872 128.022 48.9 127.97L 68.22 123.35C 68.3628 123.318 68.4903 123.238 68.5813 123.123C 68.6723 123.009 68.7213 122.866 68.72 122.72L 68.72 120.94C 68.7192 120.811 68.6797 120.684 68.6067 120.577C 68.5336 120.47 68.4303 120.388 68.31 120.34L 46.83 112L 46.77 111.86L 48.17 108.32L 95.83 102.67ZM 2.14999 112.23C 1.81271 112.105 1.5217 111.88 1.3161 111.585C 1.1105 111.29 1.00019 110.94 1 110.58L 1 3.33C 1.00023 3.01044 1.08795 2.69704 1.25366 2.4238C 1.41937 2.15056 1.65673 1.92791 1.94 1.78L 3.17 1.13L 3.17 112.6L 2.14999 112.23ZM 4.14999 112.54L 4.14999 1.19L 94.81 16.68L 94.81 101.78L 48.57 107.27L 21.57 110.5L 4.14999 112.54ZM 20.15 116.79C 20.0383 116.754 19.9358 116.694 19.8494 116.615C 19.7631 116.536 19.6951 116.438 19.65 116.33C 19.6059 116.229 19.5832 116.12 19.5832 116.01C 19.5832 115.9 19.6059 115.791 19.65 115.69L 22.16 111.41L 24.16 111.17L 21.95 115.17C 21.8992 115.283 21.873 115.406 21.873 115.53C 21.873 115.654 21.8992 115.777 21.95 115.89C 21.9971 116.001 22.0668 116.101 22.1546 116.184C 22.2424 116.266 22.3464 116.33 22.46 116.37L 47.36 125.86L 47.65 125.93L 47.65 126.93L 20.15 116.79ZM 48.69 127L 48.69 125.93C 48.78 125.93 48.87 125.93 48.95 125.93L 67.77 121.48L 67.77 122.48L 48.69 127ZM 66.56 120.71L 48.69 124.94C 48.3634 125.034 48.0166 125.034 47.69 124.94L 24.22 116L 46.22 112.77C 46.3144 112.855 46.4226 112.922 46.54 112.97L 66.56 120.71ZM 45.84 111.49C 45.8103 111.584 45.7935 111.682 45.79 111.78L 23.14 115.11L 25.41 111.02L 47.05 108.45L 45.84 111.49Z"/>
<path id="path7_fill" d="M 42.9745 3.32L 11.3445 -6.10352e-07L 11.2245 -6.10352e-07L 10.7945 -6.10352e-07L 10.6845 -6.10352e-07L 10.5545 -6.10352e-07L 10.3845 -6.10352e-07C 10.3244 0.0270753 10.2674 0.0606059 10.2145 0.0999998C 10.1652 0.12566 10.1183 0.155786 10.0745 0.19L 9.80452 0.44L 9.71451 0.53L 0.624511 9.15L 0.474517 9.29L 0.234511 9.52C 0.212902 9.54889 0.192875 9.57894 0.174514 9.61C 0.106809 9.68527 0.0496229 9.76937 0.00451551 9.86C -0.000429552 9.92657 -0.000429552 9.99343 0.00451551 10.06C -0.00150273 10.1265 -0.00150273 10.1935 0.00451551 10.26L 0.00451551 10.86C 0.00451551 10.93 0.00451551 10.98 0.00451551 10.98L 0.00451551 63.67C 0.000521349 63.8109 0.024662 63.9511 0.0755147 64.0826C 0.126367 64.214 0.202905 64.3339 0.300673 64.4354C 0.398442 64.5369 0.515475 64.6179 0.644912 64.6736C 0.774348 64.7294 0.9136 64.7587 1.05452 64.76L 1.12451 64.76L 43.1245 62.13C 43.3847 62.1022 43.6235 61.9735 43.7899 61.7716C 43.9563 61.5697 44.0369 61.3107 44.0145 61.05L 44.0145 4.45C 44.0228 4.16322 43.9186 3.88457 43.7243 3.67347C 43.5301 3.46237 43.261 3.33553 42.9745 3.32ZM 5.86452 5.52L 10.3445 1.28L 10.3445 10.68L 1.09451 9.99L 5.86452 5.52ZM 42.8645 61.05C 42.8717 61.0796 42.8717 61.1104 42.8645 61.14L 0.914519 63.76C 0.914519 63.76 0.864516 63.69 0.864516 63.67L 0.864516 11.03L 10.2745 11.73L 10.3545 11.73C 10.6197 11.73 10.8741 11.6246 11.0616 11.4371C 11.2492 11.2496 11.3545 10.9952 11.3545 10.73L 11.3545 0.999999L 42.8345 4.31C 42.847 4.35243 42.847 4.39757 42.8345 4.44L 42.8645 61.05Z"/>
<path id="path8_fill" d="M 27.0305 1.01L 1.09048 0.00999817L 1.09048 1.01L 26.9705 2.01C 26.9781 2.03951 26.9781 2.07048 26.9705 2.1L 26.9705 18.56L 21.5705 13.86C 21.486 13.7626 21.3816 13.6844 21.2642 13.6309C 21.1469 13.5773 21.0194 13.5496 20.8905 13.5496C 20.7615 13.5496 20.634 13.5773 20.5167 13.6309C 20.3994 13.6844 20.295 13.7626 20.2105 13.86L 16.2105 17.2C 16.1195 17.2981 16.0099 17.377 15.8879 17.432C 15.766 17.4869 15.6342 17.5169 15.5005 17.52C 15.3703 17.5189 15.2417 17.4908 15.1229 17.4375C 15.0041 17.3841 14.8977 17.3066 14.8105 17.21L 8.46048 10.31C 8.36698 10.2064 8.25284 10.1235 8.12539 10.0667C 7.99795 10.0099 7.86001 9.98033 7.72047 9.98C 7.58504 9.9818 7.4514 10.0111 7.32763 10.0661C 7.20387 10.1211 7.09256 10.2007 7.00047 10.3L 1.00047 15.07L 1.00047 1.09C 0.994124 1.07585 0.990841 1.06051 0.990841 1.045C 0.990841 1.02949 0.994124 1.01415 1.00047 1L 1.00047 -1.52588e-07C 0.724604 0.0155162 0.465701 0.138136 0.278912 0.341736C 0.0921233 0.545335 -0.00778636 0.813821 0.000469531 1.09L 0.000469531 21.52C -0.00352528 21.6618 0.020472 21.8031 0.0710872 21.9356C 0.121702 22.0682 0.19794 22.1895 0.295452 22.2926C 0.392965 22.3957 0.509836 22.4785 0.639386 22.5364C 0.768935 22.5943 0.908628 22.6261 1.05047 22.63L 27.0305 22.09C 27.1619 22.0811 27.2903 22.0464 27.4083 21.9877C 27.5262 21.9291 27.6314 21.8477 27.7178 21.7483C 27.8043 21.6489 27.8702 21.5333 27.9118 21.4083C 27.9535 21.2834 27.97 21.1514 27.9605 21.02L 27.9605 2.09C 27.9714 1.95781 27.9559 1.82477 27.9149 1.69863C 27.8739 1.57249 27.8082 1.45576 27.7216 1.35526C 27.6351 1.25475 27.5294 1.17246 27.4107 1.11319C 27.2921 1.05391 27.1628 1.01883 27.0305 1.01Z"/>
<path id="path9_fill" d="M 2.75364 5.94C 3.49741 5.90374 4.19637 5.57374 4.697 5.02249C 5.19763 4.47124 5.45897 3.74381 5.42364 3C 5.4465 2.25013 5.17987 1.52022 4.67903 0.961663C 4.17818 0.403103 3.48157 0.0587456 2.73365 1.06812e-06L 2.67364 1.06812e-06L 2.67364 0.500001L 2.67364 1.06812e-06C 2.30493 0.0166568 1.94315 0.106046 1.60911 0.263028C 1.27507 0.42001 0.975353 0.641484 0.727214 0.914716C 0.479075 1.18795 0.287395 1.50754 0.163219 1.85512C 0.039042 2.20269 -0.0151882 2.57139 0.00364232 2.94C -0.018447 3.69957 0.256444 4.43784 0.769923 4.998C 1.2834 5.55816 1.99502 5.89608 2.75364 5.94Z"/>
<path id="path10_fill" d="M 10.0901 0C 6.4601 0 0.420103 0.490003 0.0101033 2.3C -0.00336613 2.36599 -0.00336613 2.43401 0.0101033 2.5L 0.0101033 51.32C 0.0101033 53.01 5.0101 54.67 10.1401 54.67C 15.2701 54.67 20.2701 53.01 20.2701 51.32L 20.2701 2.5C 20.2836 2.43401 20.2836 2.36599 20.2701 2.3C 19.7901 0.490003 13.7201 0 10.0901 0ZM 10.0901 1C 15.7401 1 18.9501 2 19.2101 2.5C 18.9501 3 15.7901 4 10.0901 4C 4.39011 4 1.1701 3 0.970102 2.52C 1.1801 2 4.39011 1 10.0901 1ZM 10.0901 53.67C 4.60011 53.67 1.0901 51.88 0.970102 51.32L 0.970102 3.69C 2.9101 4.69 7.2501 5 10.1001 5C 12.9501 5 17.2901 4.7 19.2301 3.69L 19.2301 51.31C 19.1001 51.88 15.5801 53.67 10.0901 53.67Z"/>
<path id="path11_fill" d="M 7.84812 0.150345L 0.428125 5.35034C 0.210942 5.50175 0.0626595 5.7331 0.0157948 5.99367C -0.0310699 6.25424 0.0273082 6.52275 0.178125 6.74034C 0.32953 6.95752 0.560876 7.10581 0.821444 7.15267C 1.08201 7.19954 1.35053 7.14116 1.56812 6.99034L 8.98812 1.79034C 9.19063 1.63337 9.32515 1.40465 9.36393 1.15138C 9.40272 0.898114 9.34281 0.639615 9.19657 0.42923C 9.05032 0.218844 8.82891 0.072623 8.578 0.0207292C 8.32709 -0.0311646 8.06582 0.0152309 7.84812 0.150345Z"/>
<path id="path12_fill" d="M 6.46 -1.83105e-06L 1.54 -1.83105e-06C 1.13156 -1.83105e-06 0.73986 0.16225 0.451054 0.451056C 0.162248 0.739862 -3.66211e-06 1.13157 -3.66211e-06 1.54C -3.66211e-06 1.94843 0.162248 2.34014 0.451054 2.62894C 0.73986 2.91775 1.13156 3.08 1.54 3.08L 6.46 3.08C 6.86844 3.08 7.26014 2.91775 7.54895 2.62894C 7.83775 2.34014 8 1.94843 8 1.54C 8 1.13157 7.83775 0.739862 7.54895 0.451056C 7.26014 0.16225 6.86844 -1.83105e-06 6.46 -1.83105e-06Z"/>
</defs>
</svg>
