<svg width="52" height="42" viewBox="0 0 52 42" version="1.1" xmlns="http://www.w3.org/2000/svg" xmlns:xlink="http://www.w3.org/1999/xlink">
<title>Vector 8</title>
<desc>Created using Figma</desc>
<g id="Canvas" transform="translate(-29877 -483)">
<g id="Vector 8">
<use xlink:href="#path0_stroke" transform="translate(29879 485)" fill="#FFFFFF"/>
</g>
</g>
<defs>
<path id="path0_stroke" d="M 1.41617 18.8544C 0.636209 18.0723 -0.63012 18.0705 -1.41225 18.8505C -2.19438 19.6305 -2.19614 20.8968 -1.41617 21.6789L 1.41617 18.8544ZM 17.6842 38L 16.268 39.4123C 16.6704 39.8157 17.2258 40.0284 17.7948 39.9969C 18.3637 39.9654 18.8923 39.6927 19.2476 39.2473L 17.6842 38ZM 49.5634 1.24728C 50.2523 0.38382 50.1107 -0.874575 49.2473 -1.56343C 48.3838 -2.25228 47.1254 -2.11073 46.4366 -1.24728L 49.5634 1.24728ZM -1.41617 21.6789L 16.268 39.4123L 19.1004 36.5877L 1.41617 18.8544L -1.41617 21.6789ZM 19.2476 39.2473L 49.5634 1.24728L 46.4366 -1.24728L 16.1208 36.7527L 19.2476 39.2473Z"/>
</defs>
</svg>
