<svg width="40" height="38" viewBox="0 0 40 38" version="1.1" xmlns="http://www.w3.org/2000/svg" xmlns:xlink="http://www.w3.org/1999/xlink">
<title>Union</title>
<desc>Created using Figma</desc>
<g id="Canvas" transform="translate(-28272 -505)">
<g id="Union">
<use xlink:href="#path0_fill" transform="translate(28272.4 505.342)" fill="#FFFFFF"/>
</g>
</g>
<defs>
<path id="path0_fill" fill-rule="evenodd" d="M 38.6668 3.45442C 39.4715 2.69621 39.5067 1.4304 38.7489 0.627145C 37.9911 -0.176077 36.7254 -0.212607 35.9227 0.545602L 19.6473 15.908L 3.37192 0.545602C 2.56918 -0.212607 1.30356 -0.176077 0.545746 0.627145C -0.212067 1.4304 -0.176911 2.69621 0.627777 3.45442L 16.7332 18.658L 0.627777 33.8607C -0.174957 34.6188 -0.212067 35.8847 0.545746 36.6879C 1.30551 37.4912 2.57114 37.5277 3.37387 36.7695L 19.6473 21.408L 35.9207 36.7695C 36.7235 37.5277 37.9891 37.4912 38.7489 36.6879C 39.5067 35.8847 39.4696 34.6188 38.6668 33.8607L 22.5614 18.658L 38.6668 3.45442Z"/>
</defs>
</svg>
