<svg width="14" height="30" viewBox="0 0 14 30" version="1.1" xmlns="http://www.w3.org/2000/svg" xmlns:xlink="http://www.w3.org/1999/xlink">
<title>&#208;&#171;&#208;&#146;&#208;&#164;&#208;&#159;&#208;&#154;&#208;&#164;</title>
<desc>Created using Figma</desc>
<g id="Canvas" transform="translate(-10264 -961)">
<g id="&#208;&#171;&#208;&#146;&#208;&#164;&#208;&#159;&#208;&#154;&#208;&#164;">
<g id="Vector 6">
<use xlink:href="#path0_stroke" transform="matrix(6.12323e-17 -1 1 6.12323e-17 10271 990)" fill="#FFFFFF"/>
</g>
<g id="Vector">
<use xlink:href="#path1_stroke" transform="matrix(6.12323e-17 1 -1 6.12323e-17 10277 984)" fill="#FFFFFF"/>
</g>
</g>
</g>
<defs>
<path id="path0_stroke" d="M 0 -0.5C -0.276142 -0.5 -0.5 -0.276142 -0.5 0C -0.5 0.276142 -0.276142 0.5 0 0.5L 0 -0.5ZM 28.5 0.5C 28.7761 0.5 29 0.276142 29 0C 29 -0.276142 28.7761 -0.5 28.5 -0.5L 28.5 0.5ZM 0 0.5L 28.5 0.5L 28.5 -0.5L 0 -0.5L 0 0.5Z"/>
<path id="path1_stroke" d="M 0.353553 -0.353553C 0.158291 -0.548816 -0.158291 -0.548816 -0.353553 -0.353553C -0.548816 -0.158291 -0.548816 0.158291 -0.353553 0.353553L 0.353553 -0.353553ZM 6 6L 6.35355 6.35355C 6.54882 6.15829 6.54882 5.84171 6.35355 5.64645L 6 6ZM -0.353553 11.6464C -0.548816 11.8417 -0.548816 12.1583 -0.353553 12.3536C -0.158291 12.5488 0.158291 12.5488 0.353553 12.3536L -0.353553 11.6464ZM -0.353553 0.353553L 5.64645 6.35355L 6.35355 5.64645L 0.353553 -0.353553L -0.353553 0.353553ZM 5.64645 5.64645L -0.353553 11.6464L 0.353553 12.3536L 6.35355 6.35355L 5.64645 5.64645Z"/>
</defs>
</svg>
