<svg width="33" height="54" viewBox="0 0 33 54" version="1.1" xmlns="http://www.w3.org/2000/svg" xmlns:xlink="http://www.w3.org/1999/xlink">
<title>Arrow &#62;</title>
<desc>Created using Figma</desc>
<g id="Canvas" transform="translate(-10246 -890)">
<g id="Arrow &#62;">
<g id="Vector 6">
<use xlink:href="#path0_stroke" transform="matrix(6.12323e-17 1 -1 6.12323e-17 10262.5 902)" fill="#FFFFFF"/>
</g>
<g id="Rectangle 20">
<mask id="mask0_outline_ins">
<use xlink:href="#path1_fill" fill="white" transform="matrix(6.12323e-17 1 -1 6.12323e-17 10278.5 890)"/>
</mask>
<g mask="url(#mask0_outline_ins)">
<use xlink:href="#path2_stroke_2x" transform="matrix(6.12323e-17 1 -1 6.12323e-17 10278.5 890)" fill="#FFFFFF"/>
</g>
</g>
<g id="Vector">
<use xlink:href="#path3_stroke" transform="matrix(-1.83697e-16 -1 1 -1.83697e-16 10256.5 908)" fill="#FFFFFF"/>
</g>
</g>
</g>
<defs>
<path id="path0_stroke" d="M 0 -0.5C -0.276142 -0.5 -0.5 -0.276142 -0.5 0C -0.5 0.276142 -0.276142 0.5 0 0.5L 0 -0.5ZM 28.5 0.5C 28.7761 0.5 29 0.276142 29 0C 29 -0.276142 28.7761 -0.5 28.5 -0.5L 28.5 0.5ZM 0 0.5L 28.5 0.5L 28.5 -0.5L 0 -0.5L 0 0.5Z"/>
<path id="path1_fill" d="M 0 16C 0 7.16344 7.16344 0 16 0L 38 0C 46.8366 0 54 7.16344 54 16C 54 24.8366 46.8366 32 38 32L 16 32C 7.16344 32 0 24.8366 0 16Z"/>
<path id="path2_stroke_2x" d="M 16 1L 38 1L 38 -1L 16 -1L 16 1ZM 38 31L 16 31L 16 33L 38 33L 38 31ZM 16 -1C 6.61116 -1 -1 6.61116 -1 16L 1 16C 1 7.71573 7.71573 1 16 1L 16 -1ZM 38 1C 46.2843 1 53 7.71573 53 16L 55 16C 55 6.61116 47.3888 -1 38 -1L 38 1ZM 53 16C 53 24.2843 46.2843 31 38 31L 38 33C 47.3888 33 55 25.3888 55 16L 53 16ZM 16 31C 7.71573 31 1 24.2843 1 16L -1 16C -1 25.3888 6.61116 33 16 33L 16 31Z"/>
<path id="path3_stroke" d="M 0.353553 -0.353553C 0.158291 -0.548816 -0.158291 -0.548816 -0.353553 -0.353553C -0.548816 -0.158291 -0.548816 0.158291 -0.353553 0.353553L 0.353553 -0.353553ZM 6 6L 6.35355 6.35355C 6.54882 6.15829 6.54882 5.84171 6.35355 5.64645L 6 6ZM -0.353553 11.6464C -0.548816 11.8417 -0.548816 12.1583 -0.353553 12.3536C -0.158291 12.5488 0.158291 12.5488 0.353553 12.3536L -0.353553 11.6464ZM -0.353553 0.353553L 5.64645 6.35355L 6.35355 5.64645L 0.353553 -0.353553L -0.353553 0.353553ZM 5.64645 5.64645L -0.353553 11.6464L 0.353553 12.3536L 6.35355 6.35355L 5.64645 5.64645Z"/>
</defs>
</svg>
