<svg width="181" height="181" viewBox="0 0 181 181" version="1.1" xmlns="http://www.w3.org/2000/svg" xmlns:xlink="http://www.w3.org/1999/xlink">
<title>Vector</title>
<desc>Created using Figma</desc>
<g id="Canvas" transform="translate(-32415 4342)">
<g id="Vector">
<use xlink:href="#path0_fill" transform="translate(32415 -4342)" fill="#F7931E"/>
</g>
</g>
<defs>
<path id="path0_fill" fill-rule="evenodd" d="M 161.303 35.3356C 148.997 97.5275 91.5888 140.451 35.3026 161.666C 113.43 89.5762 102.279 55.8903 3.29931 70.8361C 43.0889 40.0536 95.6799 36.2924 129.927 51.6012C 129.927 51.6012 148.964 38.041 161.303 35.3356ZM 90.5 2.84312e-29C 108.399 -1.53845e-14 125.896 5.30773 140.779 15.252C 155.662 25.1963 167.261 39.3304 174.111 55.8671C 180.961 72.4038 182.753 90.6004 179.261 108.156C 175.769 125.711 167.15 141.836 154.493 154.493C 141.836 167.15 125.711 175.769 108.156 179.261C 90.6004 182.753 72.4038 180.961 55.8671 174.111C 39.3304 167.261 25.1963 155.662 15.252 140.779C 5.30773 125.896 9.52371e-15 108.399 0 90.5C 7.32593e-15 66.4979 9.53479 43.4789 26.5068 26.5068C 43.4789 9.53479 66.4979 2.71059e-14 90.5 2.93037e-15L 90.5 2.84312e-29Z"/>
</defs>
</svg>
