<svg width="14" height="8" viewBox="0 0 14 8" version="1.1" xmlns="http://www.w3.org/2000/svg" xmlns:xlink="http://www.w3.org/1999/xlink">
<title>Vector</title>
<desc>Created using Figma</desc>
<g id="Canvas" transform="translate(-9551 -778)">
<g id="Vector">
<use xlink:href="#path0_stroke" transform="matrix(5.90838e-17 1 -1 6.3459e-17 9564.05 779)" fill="#222328"/>
</g>
</g>
<defs>
<path id="path0_stroke" d="M 0.347185 -0.359809C 0.148467 -0.551554 -0.168065 -0.545902 -0.359809 -0.347185C -0.551554 -0.148467 -0.545902 0.168065 -0.347185 0.359809L 0.347185 -0.359809ZM 6 5.78947L 6.34718 6.14928C 6.44484 6.05505 6.5 5.92518 6.5 5.78947C 6.5 5.65377 6.44484 5.52389 6.34718 5.42967L 6 5.78947ZM -0.347185 11.2191C -0.545902 11.4109 -0.551554 11.7274 -0.359809 11.9261C -0.168065 12.1249 0.148467 12.1305 0.347185 11.9388L -0.347185 11.2191ZM -0.347185 0.359809L 5.65282 6.14928L 6.34718 5.42967L 0.347185 -0.359809L -0.347185 0.359809ZM 5.65282 5.42967L -0.347185 11.2191L 0.347185 11.9388L 6.34718 6.14928L 5.65282 5.42967Z"/>
</defs>
</svg>
