<svg width="193" height="126" viewBox="0 0 193 126" version="1.1" xmlns="http://www.w3.org/2000/svg" xmlns:xlink="http://www.w3.org/1999/xlink">
<title>Layer 2</title>
<desc>Created using Figma</desc>
<g id="Canvas" transform="translate(-7328 -863)">
<g id="Layer 2">
<g id="Layer 1">
<g id="Vector">
<use xlink:href="#path0_fill" transform="translate(7338.19 914)" fill="#FFFFFF"/>
</g>
<g id="Vector">
<use xlink:href="#path1_fill" transform="translate(7353.77 918.8)" fill="#FFFFFF"/>
</g>
<g id="Vector">
<use xlink:href="#path2_fill" transform="translate(7328 863)" fill="#FFFFFF"/>
</g>
<g id="Vector">
<use xlink:href="#path3_fill" transform="translate(7487.43 909.8)" fill="#FFFFFF"/>
</g>
<g id="Vector">
<use xlink:href="#path4_fill" transform="translate(7497.02 908.6)" fill="#FFFFFF"/>
</g>
<g id="Vector">
<use xlink:href="#path5_fill" transform="translate(7480.84 930.2)" fill="#FFFFFF"/>
</g>
<g id="Vector">
<use xlink:href="#path5_fill" transform="translate(7480.84 933.8)" fill="#FFFFFF"/>
</g>
<g id="Vector">
<use xlink:href="#path6_fill" transform="translate(7480.84 937.4)" fill="#FFFFFF"/>
</g>
<g id="Vector">
<use xlink:href="#path7_fill" transform="translate(7392.87 886.396)" fill="#FFFFFF"/>
</g>
<g id="Vector">
<use xlink:href="#path8_fill" transform="translate(7412.51 927.8)" fill="#FFFFFF"/>
</g>
<g id="Vector">
<use xlink:href="#path8_fill" transform="translate(7412.51 931.4)" fill="#FFFFFF"/>
</g>
<g id="Vector">
<use xlink:href="#path9_fill" transform="translate(7414.41 901.316)" fill="#FFFFFF"/>
</g>
</g>
</g>
</g>
<defs>
<path id="path0_fill" d="M 32.3665 0L 1.19876 0C 0.880827 0 0.575919 0.126427 0.351108 0.351471C 0.126298 0.576515 0 0.88174 0 1.2L 0 22.8C 0 23.1183 0.126298 23.4235 0.351108 23.6485C 0.575919 23.8736 0.880827 24 1.19876 24L 32.3665 24C 32.6844 24 32.9893 23.8736 33.2141 23.6485C 33.4389 23.4235 33.5652 23.1183 33.5652 22.8L 33.5652 1.2C 33.5652 0.88174 33.4389 0.576515 33.2141 0.351471C 32.9893 0.126427 32.6844 0 32.3665 0ZM 25.4256 14.652C 25.201 14.4285 24.8972 14.3031 24.5805 14.3031C 24.2638 14.3031 23.96 14.4285 23.7354 14.652L 18.8325 18.36C 18.6079 18.5835 18.3041 18.709 17.9874 18.709C 17.6707 18.709 17.3668 18.5835 17.1422 18.36L 9.62603 10.836C 9.40142 10.6125 9.09759 10.4871 8.7809 10.4871C 8.46421 10.4871 8.16038 10.6125 7.93578 10.836L 1.19876 15.9L 1.19876 1.2L 32.3665 1.2L 32.3665 20.064L 25.4256 14.652Z"/>
<path id="path1_fill" d="M 3.29658 6.6C 5.11724 6.6 6.59317 5.12254 6.59317 3.3C 6.59317 1.47746 5.11724 0 3.29658 0C 1.47593 0 0 1.47746 0 3.3C 0 5.12254 1.47593 6.6 3.29658 6.6Z"/>
<path id="path2_fill" d="M 191.202 23.4L 181.012 23.4L 181.012 3.6C 181.012 2.64522 180.634 1.72955 179.959 1.05442C 179.285 0.379285 178.37 7.66054e-16 177.416 1.9984e-16L 15.5839 0C 14.6301 8.65974e-16 13.7153 0.379285 13.0409 1.05442C 12.3665 1.72955 11.9876 2.64522 11.9876 3.6L 11.9876 23.4L 12.551 23.4C 12.4911 23.3955 12.431 23.3955 12.3712 23.4L 12.1194 23.4C 12.0246 23.4442 11.9359 23.5007 11.8557 23.568L 11.7358 23.652L 11.4122 24L 11.3043 24.096L 1.3546 34.008L 1.19876 34.224L 0.947019 34.476C 0.925542 34.507 0.90554 34.5391 0.887081 34.572C 0.814522 34.6403 0.750154 34.7168 0.695279 34.8C 0.689832 34.8719 0.689832 34.9441 0.695279 35.016C 0.689495 35.0839 0.689495 35.1521 0.695279 35.22L 0.695279 35.772C 0.695279 35.844 0.695279 35.892 0.695279 35.892L 0.695279 90.6C 0.695279 90.9183 0.821577 91.2235 1.04639 91.4485C 1.2712 91.6736 1.57611 91.8 1.89404 91.8L 11.9876 91.8L 11.9876 118.8L 1.19876 118.8C 0.880827 118.8 0.575919 118.926 0.351108 119.151C 0.126297 119.377 3.24404e-16 119.682 0 120L 2.32905e-16 124.8C 4.07585e-16 125.118 0.126297 125.423 0.351108 125.649C 0.575919 125.874 0.880827 126 1.19876 126L 191.801 126C 192.119 126 192.424 125.874 192.649 125.649C 192.874 125.423 193 125.118 193 124.8L 193 120C 193 119.682 192.874 119.377 192.649 119.151C 192.424 118.926 192.119 118.8 191.801 118.8L 181.012 118.8L 181.012 91.8L 191.202 91.8C 191.52 91.8 191.825 91.6736 192.05 91.4485C 192.274 91.2235 192.401 90.9183 192.401 90.6L 192.401 24.6C 192.401 24.2817 192.274 23.9765 192.05 23.7515C 191.825 23.5264 191.52 23.4 191.202 23.4ZM 13.1863 3.6C 13.1863 2.96348 13.4389 2.35303 13.8886 1.90294C 14.3382 1.45286 14.948 1.2 15.5839 1.2L 177.416 1.2C 178.052 1.2 178.662 1.45286 179.111 1.90294C 179.561 2.35303 179.814 2.96348 179.814 3.6L 179.814 23.4L 175.019 23.4L 175.019 7.2C 175.019 6.88174 174.892 6.57652 174.668 6.35147C 174.443 6.12643 174.138 6 173.82 6L 19.1801 6C 18.8622 6 18.5573 6.12643 18.3325 6.35147C 18.1077 6.57652 17.9814 6.88174 17.9814 7.2L 17.9814 23.4L 13.1863 23.4L 13.1863 3.6ZM 152.158 23.4L 151.619 23.4C 151.559 23.3955 151.499 23.3955 151.439 23.4L 151.187 23.4C 151.092 23.4442 151.004 23.5007 150.924 23.568L 150.804 23.652L 150.504 23.952L 150.396 24.048L 140.446 33.96L 140.291 34.116L 140.039 34.368C 140.017 34.399 139.997 34.4311 139.979 34.464C 139.903 34.5472 139.839 34.64 139.787 34.74C 139.782 34.8119 139.782 34.8841 139.787 34.956C 139.781 35.0239 139.781 35.0921 139.787 35.16L 139.787 35.712C 139.787 35.784 139.787 35.832 139.787 35.832L 139.787 90.6C 139.787 90.9183 139.913 91.2235 140.138 91.4485C 140.363 91.6736 140.668 91.8 140.986 91.8L 173.82 91.8L 173.82 110.4L 19.1801 110.4L 19.1801 91.8L 52.146 91.8C 52.4639 91.8 52.7688 91.6736 52.9936 91.4485C 53.2184 91.2235 53.3447 90.9183 53.3447 90.6L 53.3447 24.6C 53.3447 24.2817 53.2184 23.9765 52.9936 23.7515C 52.7688 23.5264 52.4639 23.4 52.146 23.4L 19.1801 23.4L 19.1801 7.2L 173.82 7.2L 173.82 23.4L 152.158 23.4ZM 146.248 30L 151.043 25.2L 151.043 34.8L 141.393 34.8L 146.248 30ZM 7.19255 30L 11.9876 25.2L 11.9876 34.8L 2.33758 34.8L 7.19255 30ZM 1.79814 36L 11.9876 36C 12.3055 36 12.6104 35.8736 12.8352 35.6485C 13.06 35.4235 13.1863 35.1183 13.1863 34.8L 13.1863 24.6L 52.146 24.6L 52.146 90.6L 1.79814 90.6L 1.79814 36ZM 191.801 120L 191.801 124.8L 1.19876 124.8L 1.19876 120L 83.997 120L 85.5913 122.16L 85.5913 122.232L 85.6512 122.292C 86.0988 122.743 86.7067 122.997 87.3415 123L 105.599 123C 106.233 122.997 106.841 122.743 107.289 122.292L 107.349 122.232L 107.349 122.16L 108.943 120L 191.801 120ZM 31.4194 118.8L 27.8232 118.8L 27.8232 117.6L 31.4194 117.6L 31.4194 118.8ZM 39.559 118.8L 35.9627 118.8L 35.9627 117.6L 39.559 117.6L 39.559 118.8ZM 47.9503 118.8L 44.354 118.8L 44.354 117.6L 47.9503 117.6L 47.9503 118.8ZM 56.3416 118.8L 52.7453 118.8L 52.7453 117.6L 56.3416 117.6L 56.3416 118.8ZM 64.7329 118.8L 61.1366 118.8L 61.1366 117.6L 64.7329 117.6L 64.7329 118.8ZM 122.273 118.8L 69.528 118.8L 69.528 117.6L 122.273 117.6L 122.273 118.8ZM 107.505 120L 106.438 121.452C 106.326 121.563 106.193 121.651 106.047 121.711C 105.901 121.771 105.744 121.801 105.587 121.8L 87.4014 121.8C 87.2437 121.801 87.0873 121.771 86.9412 121.711C 86.7952 121.651 86.6623 121.563 86.5503 121.452L 85.4954 120L 107.505 120ZM 130.665 118.8L 127.068 118.8L 127.068 117.6L 130.665 117.6L 130.665 118.8ZM 139.056 118.8L 135.46 118.8L 135.46 117.6L 139.056 117.6L 139.056 118.8ZM 147.447 118.8L 143.851 118.8L 143.851 117.6L 147.447 117.6L 147.447 118.8ZM 155.839 118.8L 152.242 118.8L 152.242 117.6L 155.839 117.6L 155.839 118.8ZM 164.23 118.8L 160.634 118.8L 160.634 117.6L 164.23 117.6L 164.23 118.8ZM 179.814 118.8L 165.429 118.8L 165.429 117.6C 165.429 117.282 165.302 116.977 165.077 116.751C 164.853 116.526 164.548 116.4 164.23 116.4L 160.634 116.4C 160.316 116.4 160.011 116.526 159.786 116.751C 159.561 116.977 159.435 117.282 159.435 117.6L 159.435 118.8L 157.037 118.8L 157.037 117.6C 157.037 117.282 156.911 116.977 156.686 116.751C 156.461 116.526 156.156 116.4 155.839 116.4L 152.242 116.4C 151.924 116.4 151.619 116.526 151.395 116.751C 151.17 116.977 151.043 117.282 151.043 117.6L 151.043 118.8L 148.646 118.8L 148.646 117.6C 148.646 117.282 148.52 116.977 148.295 116.751C 148.07 116.526 147.765 116.4 147.447 116.4L 143.851 116.4C 143.533 116.4 143.228 116.526 143.003 116.751C 142.778 116.977 142.652 117.282 142.652 117.6L 142.652 118.8L 140.255 118.8L 140.255 117.6C 140.255 117.282 140.128 116.977 139.904 116.751C 139.679 116.526 139.374 116.4 139.056 116.4L 135.46 116.4C 135.142 116.4 134.837 116.526 134.612 116.751C 134.387 116.977 134.261 117.282 134.261 117.6L 134.261 118.8L 131.863 118.8L 131.863 117.6C 131.863 117.282 131.737 116.977 131.512 116.751C 131.287 116.526 130.983 116.4 130.665 116.4L 127.068 116.4C 126.75 116.4 126.445 116.526 126.221 116.751C 125.996 116.977 125.87 117.282 125.87 117.6L 125.87 118.8L 123.472 118.8L 123.472 117.6C 123.472 117.282 123.346 116.977 123.121 116.751C 122.896 116.526 122.591 116.4 122.273 116.4L 69.528 116.4C 69.21 116.4 68.9051 116.526 68.6803 116.751C 68.4555 116.977 68.3292 117.282 68.3292 117.6L 68.3292 118.8L 65.9317 118.8L 65.9317 117.6C 65.9317 117.282 65.8054 116.977 65.5806 116.751C 65.3558 116.526 65.0508 116.4 64.7329 116.4L 61.1366 116.4C 60.8187 116.4 60.5138 116.526 60.289 116.751C 60.0642 116.977 59.9379 117.282 59.9379 117.6L 59.9379 118.8L 57.5404 118.8L 57.5404 117.6C 57.5404 117.282 57.4141 116.977 57.1893 116.751C 56.9645 116.526 56.6595 116.4 56.3416 116.4L 52.7453 116.4C 52.4274 116.4 52.1225 116.526 51.8977 116.751C 51.6729 116.977 51.5466 117.282 51.5466 117.6L 51.5466 118.8L 49.1491 118.8L 49.1491 117.6C 49.1491 117.282 49.0228 116.977 48.798 116.751C 48.5732 116.526 48.2682 116.4 47.9503 116.4L 44.354 116.4C 44.0361 116.4 43.7312 116.526 43.5064 116.751C 43.2816 116.977 43.1553 117.282 43.1553 117.6L 43.1553 118.8L 40.7578 118.8L 40.7578 117.6C 40.7578 117.282 40.6315 116.977 40.4067 116.751C 40.1818 116.526 39.8769 116.4 39.559 116.4L 35.9627 116.4C 35.6448 116.4 35.3399 116.526 35.1151 116.751C 34.8903 116.977 34.764 117.282 34.764 117.6L 34.764 118.8L 32.6182 118.8L 32.6182 117.6C 32.6182 117.282 32.4919 116.977 32.2671 116.751C 32.0423 116.526 31.7374 116.4 31.4194 116.4L 27.8232 116.4C 27.5052 116.4 27.2003 116.526 26.9755 116.751C 26.7507 116.977 26.6244 117.282 26.6244 117.6L 26.6244 118.8L 13.1863 118.8L 13.1863 91.8L 17.9814 91.8L 17.9814 110.4C 17.9814 110.718 18.1077 111.023 18.3325 111.249C 18.5573 111.474 18.8622 111.6 19.1801 111.6L 173.82 111.6C 174.138 111.6 174.443 111.474 174.668 111.249C 174.892 111.023 175.019 110.718 175.019 110.4L 175.019 91.8L 179.814 91.8L 179.814 118.8ZM 191.202 90.6L 140.854 90.6L 140.854 36L 151.043 36C 151.361 36 151.666 35.8736 151.891 35.6485C 152.116 35.4235 152.242 35.1183 152.242 34.8L 152.242 24.6L 191.202 24.6L 191.202 90.6Z"/>
<path id="path3_fill" d="M 7.19255 14.4C 8.45588 14.4008 9.69715 14.0685 10.7914 13.4365C 11.8857 12.8046 12.7944 11.8952 13.4261 10.8L 7.19255 7.2L 7.19255 0C 5.28496 8.52651e-15 3.45551 0.758568 2.10664 2.10883C 0.757778 3.45909 0 5.29044 0 7.2C 0 9.10956 0.757778 10.9409 2.10664 12.2912C 3.45551 13.6414 5.28496 14.4 7.19255 14.4Z"/>
<path id="path4_fill" d="M 7.19255 7.2C 7.19255 5.29044 6.43477 3.45909 5.0859 2.10883C 3.73704 0.758568 1.90758 8.52651e-15 0 0L 0 7.2L 6.23354 10.8C 6.8632 9.70502 7.19395 8.46344 7.19255 7.2Z"/>
<path id="path5_fill" d="M 0.599379 1.2L 25.7733 1.2C 25.9323 1.2 26.0847 1.13679 26.1971 1.02426C 26.3095 0.911743 26.3727 0.75913 26.3727 0.6C 26.3727 0.44087 26.3095 0.288257 26.1971 0.175735C 26.0847 0.0632137 25.9323 0 25.7733 0L 0.599379 0C 0.440414 0 0.287959 0.0632137 0.175554 0.175735C 0.0631482 0.288257 0 0.44087 0 0.6C 0 0.75913 0.0631482 0.911743 0.175554 1.02426C 0.287959 1.13679 0.440414 1.2 0.599379 1.2Z"/>
<path id="path6_fill" d="M 25.7733 0L 0.599379 0C 0.440414 0 0.287959 0.0632137 0.175554 0.175735C 0.0631482 0.288257 0 0.44087 0 0.6C 0 0.75913 0.0631482 0.911743 0.175554 1.02426C 0.287959 1.13679 0.440414 1.2 0.599379 1.2L 25.7733 1.2C 25.9323 1.2 26.0847 1.13679 26.1971 1.02426C 26.3095 0.911743 26.3727 0.75913 26.3727 0.6C 26.3727 0.44087 26.3095 0.288257 26.1971 0.175735C 26.0847 0.0632137 25.9323 0 25.7733 0Z"/>
<path id="path7_fill" d="M 63.3299 39.3158C 63.2734 39.2184 63.1902 39.1393 63.0901 39.0878C 63.0268 38.9931 62.9546 38.9047 62.8744 38.8238L 58.0074 33.9518L 58.0074 1.20385C 58.0074 0.885586 57.8811 0.580361 57.6563 0.355317C 57.4315 0.130273 57.1266 0.00384616 56.8086 0.00384616L 17.2496 0.00384616C 17.1858 -0.00128205 17.1217 -0.00128205 17.0578 0.00384616L 16.866 0.00384616L 16.7581 0.00384616C 16.6723 0.0508515 16.5919 0.107191 16.5184 0.171845L 16.4105 0.243847L 16.1827 0.471845L 16.0029 0.651847L 14.8042 1.85185L 11.064 5.57185L 6.01728 10.6838L 5.87342 10.8278L 5.6097 11.0918C 5.6097 11.0918 5.6097 11.1638 5.54976 11.1878C 5.47898 11.2679 5.41856 11.3566 5.36995 11.4518C 5.36361 11.5277 5.36361 11.604 5.36995 11.6798C 5.36416 11.7477 5.36416 11.816 5.36995 11.8838L 5.36995 12.4358C 5.36995 12.5078 5.36995 12.5558 5.36995 12.5558L 5.36995 33.9518L 0.502988 38.8238C 0.422768 38.9047 0.350509 38.9931 0.287212 39.0878C 0.187131 39.1393 0.10392 39.2184 0.0474637 39.3158C 0.016142 39.3899 1.62395e-06 39.4695 1.62395e-06 39.5498C 1.62395e-06 39.6302 0.016142 39.7098 0.0474637 39.7838C 0.0382579 39.8876 0.0382579 39.9921 0.0474637 40.0958L 0.0474637 72.0038C 0.0486595 72.3395 0.144207 72.668 0.323177 72.9518C 0.484228 73.2076 0.707019 73.4186 0.970997 73.5654C 1.23498 73.7122 1.53164 73.7901 1.83361 73.7918L 61.7715 73.7918C 62.0798 73.7916 62.3829 73.712 62.6516 73.5607C 62.9203 73.4094 63.1456 73.1915 63.3059 72.9278C 63.4686 72.6557 63.5555 72.345 63.5576 72.0278L 63.5576 40.0958C 63.5668 39.992 63.5668 39.8876 63.5576 39.7838C 63.5572 39.6937 63.5365 39.6048 63.4971 39.5238C 63.4577 39.4428 63.4005 39.3717 63.3299 39.3158ZM 1.06641 40.6118L 30.364 56.3918L 1.06641 71.7999L 1.06641 40.6118ZM 31.6347 57.0758L 61.244 72.6038L 2.10932 72.6038L 31.6347 57.0758ZM 32.9174 56.3918L 62.203 40.6118L 62.203 71.8118L 32.9174 56.3918ZM 16.6503 1.80385L 16.6503 11.4038L 7.00026 11.4038L 16.6503 1.80385ZM 6.46082 42.1238L 6.46082 12.6038L 16.6503 12.6038C 16.9682 12.6038 17.2731 12.4774 17.4979 12.2524C 17.7227 12.0273 17.849 11.7221 17.849 11.4038L 17.849 1.20385L 56.8086 1.20385L 56.8086 42.0878L 58.0074 41.4398L 58.0074 35.6558L 61.8075 39.4598L 31.6347 55.7198L 1.462 39.4598L 5.26206 35.6558L 5.26206 41.4878L 6.46082 42.1238Z"/>
<path id="path8_fill" d="M 0.599379 1.2L 24.5745 1.2C 24.7335 1.2 24.886 1.13679 24.9984 1.02426C 25.1108 0.911743 25.1739 0.75913 25.1739 0.6C 25.1739 0.44087 25.1108 0.288257 24.9984 0.175735C 24.886 0.0632137 24.7335 0 24.5745 0L 0.599379 0C 0.440414 0 0.287959 0.0632137 0.175554 0.175735C 0.0631482 0.288257 0 0.44087 0 0.6C 0 0.75913 0.0631482 0.911743 0.175554 1.02426C 0.287959 1.13679 0.440414 1.2 0.599379 1.2Z"/>
<path id="path9_fill" d="M 13.7737 13.98L 5.89789 13.98L 4.51931 17.184C 4.2456 17.7364 4.07498 18.3342 4.01584 18.948C 4.01996 19.1095 4.06232 19.2676 4.13943 19.4095C 4.21654 19.5513 4.3262 19.6729 4.45938 19.764C 5.04457 20.0786 5.70134 20.2358 6.3654 20.22L 6.3654 20.772L 2.19499e-06 20.772L 2.19499e-06 20.22C 0.588686 20.1679 1.15416 19.9655 1.64229 19.632C 2.38071 18.7728 2.95379 17.7841 3.33255 16.716L 10.5251 3.66211e-07L 11.0526 3.66211e-07L 18.0533 16.884C 18.3872 17.8587 18.913 18.7564 19.5997 19.524C 20.1523 19.9631 20.8361 20.204 21.5417 20.208L 21.5417 20.76L 13.534 20.76L 13.534 20.208C 14.1092 20.2327 14.6794 20.0911 15.1763 19.8C 15.3091 19.7038 15.4174 19.5776 15.4924 19.4317C 15.5674 19.2857 15.6069 19.1241 15.6078 18.96C 15.5304 18.2383 15.3276 17.5357 15.0084 16.884L 13.7737 13.98ZM 13.3542 12.876L 9.91372 4.668L 6.37739 12.876L 13.3542 12.876Z"/>
</defs>
</svg>
