<svg width="157" height="133" viewBox="0 0 157 133" version="1.1" xmlns="http://www.w3.org/2000/svg" xmlns:xlink="http://www.w3.org/1999/xlink">
<title>VIOP 2</title>
<desc>Created using Figma</desc>
<g id="Canvas" transform="translate(-8034 -858)">
<g id="VIOP 2">
<g id="Layer 2">
<g id="Layer 1">
<g id="Vector">
<use xlink:href="#path0_fill" transform="translate(8034 865.84)" fill="#FFFFFF"/>
</g>
<g id="Vector">
<use xlink:href="#path1_fill" transform="translate(8040 872)" fill="#FFFFFF"/>
</g>
<g id="Vector">
<use xlink:href="#path2_fill" transform="translate(8083 858)" fill="#FFFFFF"/>
</g>
<g id="Vector">
<use xlink:href="#path3_fill" transform="translate(8049 877.836)" fill="#FFFFFF"/>
</g>
<g id="Vector">
<use xlink:href="#path4_fill" transform="translate(8137 949.84)" fill="#FFFFFF"/>
</g>
<g id="Vector">
<use xlink:href="#path4_fill" transform="translate(8137 957.84)" fill="#FFFFFF"/>
</g>
<g id="Vector">
<use xlink:href="#path4_fill" transform="translate(8137 965.84)" fill="#FFFFFF"/>
</g>
<g id="Vector">
<use xlink:href="#path4_fill" transform="translate(8137 973.84)" fill="#FFFFFF"/>
</g>
<g id="Vector">
<use xlink:href="#path5_fill" transform="translate(8149.32 949.84)" fill="#FFFFFF"/>
</g>
<g id="Vector">
<use xlink:href="#path6_fill" transform="translate(8088.59 933)" fill="#FFFFFF"/>
</g>
<g id="Vector">
<use xlink:href="#path7_fill" transform="translate(8133 921.17)" fill="#FFFFFF"/>
</g>
<g id="Vector">
<use xlink:href="#path8_fill" transform="translate(8153.26 921.17)" fill="#FFFFFF"/>
</g>
<g id="Vector">
<use xlink:href="#path5_fill" transform="translate(8149.32 957.84)" fill="#FFFFFF"/>
</g>
<g id="Vector">
<use xlink:href="#path5_fill" transform="translate(8149.32 965.84)" fill="#FFFFFF"/>
</g>
<g id="Vector">
<use xlink:href="#path5_fill" transform="translate(8149.32 973.84)" fill="#FFFFFF"/>
</g>
<g id="Vector">
<use xlink:href="#path9_fill" transform="translate(8161.49 949.84)" fill="#FFFFFF"/>
</g>
<g id="Vector">
<use xlink:href="#path10_fill" transform="translate(8137 933)" fill="#FFFFFF"/>
</g>
<g id="Vector">
<use xlink:href="#path11_fill" transform="translate(8088.25 921.17)" fill="#FFFFFF"/>
</g>
<g id="Vector">
<use xlink:href="#path12_fill" transform="translate(8100.58 921.17)" fill="#FFFFFF"/>
</g>
<g id="Vector">
<use xlink:href="#path11_fill" transform="translate(8112.75 921.17)" fill="#FFFFFF"/>
</g>
<g id="Vector">
<use xlink:href="#path9_fill" transform="translate(8161.49 957.84)" fill="#FFFFFF"/>
</g>
<g id="Vector">
<use xlink:href="#path9_fill" transform="translate(8161.49 965.84)" fill="#FFFFFF"/>
</g>
<g id="Vector">
<use xlink:href="#path9_fill" transform="translate(8161.49 973.84)" fill="#FFFFFF"/>
</g>
<g id="Vector">
<use xlink:href="#path13_fill" transform="translate(8088.12 872)" fill="#FFFFFF"/>
</g>
<g id="Vector">
<use xlink:href="#path14_stroke" transform="translate(8041.99 929.84)" fill="#FFFFFF"/>
</g>
<g id="Vector">
<use xlink:href="#path15_stroke" transform="translate(8076.99 929.84)" fill="#FFFFFF"/>
</g>
<g id="Vector">
<use xlink:href="#path16_fill" transform="translate(8097.61 957.85)" fill="#FFFFFF"/>
</g>
<g id="Vector">
<use xlink:href="#path17_fill" transform="translate(8088.58 948.877)" fill="#FFFFFF"/>
</g>
<g id="Vector">
<use xlink:href="#path18_stroke" transform="translate(8093.02 967.53)" fill="#FFFFFF"/>
</g>
<g id="Vector">
<use xlink:href="#path19_stroke" transform="translate(8107.25 953.31)" fill="#FFFFFF"/>
</g>
<g id="Vector">
<use xlink:href="#path20_stroke" transform="translate(8107.24 967.53)" fill="#FFFFFF"/>
</g>
<g id="Vector">
<use xlink:href="#path21_stroke" transform="translate(8093.02 953.31)" fill="#FFFFFF"/>
</g>
</g>
</g>
</g>
</g>
<defs>
<path id="path0_fill" d="M 156.82 21.9802L 153.27 1.65024C 153.187 1.18249 152.94 0.759582 152.574 0.457254C 152.207 0.154925 151.745 -0.00708325 151.27 0.000237847L 141 0.000237847L 141 0.110238L 141 1.00024L 151.3 1.00024C 151.537 0.996376 151.767 1.07667 151.95 1.22684C 152.134 1.377 152.257 1.58728 152.3 1.82024L 155.85 22.1002L 155.93 23.1002L 155.99 23.9102L 154 123.02C 154 123.285 153.895 123.54 153.707 123.727C 153.52 123.915 153.265 124.02 153 124.02L 4 124.02C 3.73478 124.02 3.48043 123.915 3.29289 123.727C 3.10536 123.54 3 123.285 3 123.02L 1 23.9302L 1.07 23.1602L 1.14 22.1602L 4.69 1.82024C 4.7326 1.58728 4.85649 1.377 5.03961 1.22684C 5.22274 1.07667 5.45321 0.996376 5.69 1.00024L 50 1.00024L 50 0.110238L 50 0.000237847L 5.68 0.000237847C 5.20498 -0.00708325 4.74287 0.154925 4.37641 0.457254C 4.00995 0.759582 3.76308 1.18249 3.68 1.65024L 0.15 21.9802L 0 23.9002L 2 123.04C 2 123.571 2.21071 124.079 2.58579 124.454C 2.96086 124.83 3.46957 125.04 4 125.04L 153 125.04C 153.53 125.04 154.039 124.83 154.414 124.454C 154.789 124.079 155 123.571 155 123.04L 157 23.9002L 156.82 21.9802Z"/>
<path id="path1_fill" d="M 128.914 8.01521e-05L 50.1243 8.01521e-05C 49.7702 -0.00308979 49.4216 0.0878184 49.1141 0.263514C 48.8066 0.439209 48.5513 0.693391 48.3743 1.00008L 130.664 1.00008C 130.487 0.693391 130.232 0.439209 129.924 0.263514C 129.617 0.0878184 129.268 -0.00308979 128.914 8.01521e-05ZM 4.00428 8.01521e-05C 3.47385 8.01521e-05 2.96514 0.210794 2.59007 0.585867C 2.215 0.96094 2.00428 1.46965 2.00428 2.00008L 0.104282 16.4201C 0.020784 16.976 -0.0126833 17.5382 0.00428235 18.1001L 1.00428 68.0001C 1.00428 68.5305 1.215 69.0392 1.59007 69.4143C 1.96514 69.7894 2.47385 70.0001 3.00428 70.0001L 10.0043 70.0001L 10.0043 69.0001L 3.00428 69.0001C 2.73907 69.0001 2.48471 68.8947 2.29718 68.7072C 2.10964 68.5197 2.00428 68.2653 2.00428 68.0001L 1.00428 18.0601C 0.982404 17.5557 1.00583 17.0503 1.07428 16.5501L 3.00428 2.13008L 3.00428 2.00008C 3.00428 1.73486 3.10964 1.48051 3.29718 1.29297C 3.48471 1.10544 3.73907 1.00008 4.00428 1.00008L 44.1443 1.00008L 44.1443 8.01521e-05L 4.00428 8.01521e-05ZM 144.884 16.4201L 143.004 2.00008C 143.004 1.46965 142.794 0.96094 142.419 0.585867C 142.043 0.210794 141.535 8.01521e-05 141.004 8.01521e-05L 134.874 8.01521e-05L 134.874 1.00008L 141.004 1.00008C 141.27 1.00008 141.524 1.10544 141.711 1.29297C 141.899 1.48051 142.004 1.73486 142.004 2.00008L 142.004 2.13008L 143.894 16.5501C 143.958 17.0574 143.982 17.569 143.964 18.0801L 143.004 68.0001C 143.004 68.2653 142.899 68.5197 142.711 68.7072C 142.524 68.8947 142.27 69.0001 142.004 69.0001L 36.0043 69.0001L 36.0043 70.0001L 142.004 70.0001C 142.535 70.0001 143.043 69.7894 143.419 69.4143C 143.794 69.0392 144.004 68.5305 144.004 68.0001L 145.004 18.1001C 145.009 17.5378 144.969 16.9759 144.884 16.4201Z"/>
<path id="path2_fill" d="M 91.84 15L 91 52C 91 52.2652 90.8946 52.5196 90.7071 52.7071C 90.5196 52.8946 90.2652 53 90 53L 3 53C 2.73478 53 2.48043 52.8946 2.29289 52.7071C 2.10536 52.5196 2 52.2652 2 52L 1.19 15L 0.189999 15L 1 52C 1 52.5304 1.21071 53.0391 1.58578 53.4142C 1.96086 53.7893 2.46957 54 3 54L 90 54C 90.5304 54 91.0391 53.7893 91.4142 53.4142C 91.7893 53.0391 92 52.5304 92 52L 92.8 15L 91.84 15ZM 91.37 1.51C 91.2609 1.07825 91.0108 0.695261 90.6594 0.421734C 90.308 0.148206 89.8753 -0.000212144 89.43 2.27593e-07L 3.54 2.27593e-07C 3.09468 -0.000212144 2.66202 0.148206 2.3106 0.421734C 1.95918 0.695261 1.7091 1.07825 1.6 1.51L 0 7.84L 0 8.84L 0.119999 14L 0.119999 15L 1 52C 1 52.5304 1.21071 53.0391 1.58578 53.4142C 1.96086 53.7893 2.46957 54 3 54L 90 54C 90.5304 54 91.0391 53.7893 91.4142 53.4142C 91.7893 53.0391 92 52.5304 92 52L 92.8 15L 92.8 14L 93 8.84L 93 7.84L 91.37 1.51ZM 91.86 14L 91.86 15L 91 52C 91 52.2652 90.8946 52.5196 90.7071 52.7071C 90.5196 52.8946 90.2652 53 90 53L 3 53C 2.73478 53 2.48043 52.8946 2.29289 52.7071C 2.10536 52.5196 2 52.2652 2 52L 1.19 15L 1.19 14L 1 8.84L 1 7.95L 1 7.84L 2.55 1.76C 2.60475 1.53812 2.73385 1.34169 2.91579 1.20341C 3.09774 1.06513 3.32156 0.993345 3.55 1L 89.44 1C 89.6684 0.993345 89.8923 1.06513 90.0742 1.20341C 90.2561 1.34169 90.3853 1.53812 90.44 1.76L 92 7.84L 92 7.95L 92 8.84L 91.86 14Z"/>
<path id="path3_fill" d="M 21.6805 1.25351C 19.2151 0.38384 16.6145 -0.0394456 14.0005 0.00350949C 11.5937 -0.0373897 9.19422 0.2794 6.88052 0.94351C 4.86765 1.58159 3.11279 2.849 1.87425 4.5592C 0.635702 6.2694 -0.0211005 8.33204 0.000517015 10.4435L 0.000517015 95.6135C 0.000946308 97.8654 0.761459 100.051 2.15891 101.817C 3.55637 103.583 5.50896 104.826 7.70052 105.344C 9.76871 105.802 11.8823 106.023 14.0005 106.004C 16.1224 106.02 18.2394 105.795 20.3105 105.334C 22.5019 104.813 24.4535 103.568 25.8491 101.801C 27.2448 100.033 28.0029 97.8458 28.0005 95.5935L 28.0005 10.5935C 28.0257 8.57786 27.4337 6.60274 26.304 4.93322C 25.1743 3.26371 23.561 1.9797 21.6805 1.25351ZM 27.0005 95.5935C 27.0013 97.6194 26.3186 99.5863 25.0628 101.176C 23.807 102.766 22.0516 103.885 20.0805 104.354C 18.0855 104.803 16.0454 105.021 14.0005 105.004C 11.9566 105.023 9.91702 104.812 7.92052 104.374C 5.94254 103.918 4.17888 102.803 2.92075 101.21C 1.66262 99.6172 0.985261 97.6431 1.00052 95.6135L 1.00052 10.4435C 0.986826 8.54764 1.57756 6.69671 2.68702 5.1593C 3.79647 3.62189 5.36693 2.47796 7.17052 1.89351C 9.39216 1.26807 11.6928 0.968279 14.0005 1.00351C 16.4964 0.954589 18.9813 1.3473 21.3405 2.16351C 23.0253 2.82038 24.4697 3.97541 25.481 5.47447C 26.4922 6.97354 27.0223 8.74535 27.0005 10.5535L 27.0005 95.5935Z"/>
<path id="path4_fill" d="M 7 -3.66211e-06L 2 -3.66211e-06C 1.46957 -3.66211e-06 0.960858 0.210716 0.585785 0.585789C 0.210712 0.960862 0 1.46956 0 2L 0 3C 0 3.53043 0.210712 4.03914 0.585785 4.41421C 0.960858 4.78928 1.46957 5 2 5L 7 5C 7.53043 5 8.03914 4.78928 8.41422 4.41421C 8.78929 4.03914 9 3.53043 9 3L 9 2C 9 1.46956 8.78929 0.960862 8.41422 0.585789C 8.03914 0.210716 7.53043 -3.66211e-06 7 -3.66211e-06ZM 8 3C 8 3.26521 7.89464 3.51957 7.70711 3.7071C 7.51957 3.89464 7.26522 4 7 4L 2 4C 1.73478 4 1.48043 3.89464 1.29289 3.7071C 1.10536 3.51957 1 3.26521 1 3L 1 2C 1 1.73478 1.10536 1.48043 1.29289 1.2929C 1.48043 1.10536 1.73478 0.999996 2 0.999996L 7 0.999996C 7.26522 0.999996 7.51957 1.10536 7.70711 1.2929C 7.89464 1.48043 8 1.73478 8 2L 8 3Z"/>
<path id="path5_fill" d="M 7 -3.66211e-06L 2 -3.66211e-06C 1.46957 -3.66211e-06 0.960857 0.210716 0.585785 0.585789C 0.210712 0.960862 -3.05176e-07 1.46956 -3.05176e-07 2L -3.05176e-07 3C -3.05176e-07 3.53043 0.210712 4.03914 0.585785 4.41421C 0.960857 4.78928 1.46957 5 2 5L 7 5C 7.53043 5 8.03914 4.78928 8.41422 4.41421C 8.78929 4.03914 9 3.53043 9 3L 9 2C 9 1.46956 8.78929 0.960862 8.41422 0.585789C 8.03914 0.210716 7.53043 -3.66211e-06 7 -3.66211e-06ZM 8 3C 8 3.26521 7.89464 3.51957 7.70711 3.7071C 7.51957 3.89464 7.26522 4 7 4L 2 4C 1.73478 4 1.48043 3.89464 1.29289 3.7071C 1.10536 3.51957 1 3.26521 1 3L 1 2C 1 1.73478 1.10536 1.48043 1.29289 1.2929C 1.48043 1.10536 1.73478 0.999996 2 0.999996L 7 0.999996C 7.26522 0.999996 7.51957 1.10536 7.70711 1.2929C 7.89464 1.48043 8 1.73478 8 2L 8 3Z"/>
<path id="path6_fill" d="M 15.67 0L 2 0C 1.46957 0 0.960858 0.210712 0.585785 0.585785C 0.210712 0.960858 1.52588e-07 1.46957 1.52588e-07 2L 1.52588e-07 3C 1.52588e-07 3.53043 0.210712 4.03914 0.585785 4.41422C 0.960858 4.78929 1.46957 5 2 5L 15.67 5C 16.2004 5 16.7091 4.78929 17.0842 4.41422C 17.4593 4.03914 17.67 3.53043 17.67 3L 17.67 2C 17.67 1.46957 17.4593 0.960858 17.0842 0.585785C 16.7091 0.210712 16.2004 0 15.67 0Z"/>
<path id="path7_fill" d="M 15.68 -1.83105e-06L 2 -1.83105e-06C 1.46957 -1.83105e-06 0.960858 0.210714 0.585785 0.585787C 0.210712 0.96086 0 1.46957 0 2L 0 3C 0 3.53043 0.210712 4.03914 0.585785 4.41421C 0.960858 4.78929 1.46957 5 2 5L 15.67 5C 16.2004 5 16.7091 4.78929 17.0842 4.41421C 17.4593 4.03914 17.67 3.53043 17.67 3L 17.67 2C 17.67 1.47129 17.4607 0.964098 17.0878 0.589312C 16.7148 0.214525 16.2087 0.00264169 15.68 -1.83105e-06ZM 16.68 3C 16.68 3.26521 16.5746 3.51957 16.3871 3.70711C 16.1996 3.89464 15.9452 4 15.68 4L 2 4C 1.73478 4 1.48043 3.89464 1.29289 3.70711C 1.10536 3.51957 1 3.26521 1 3L 1 2C 1 1.73478 1.10536 1.48043 1.29289 1.29289C 1.48043 1.10535 1.73478 0.999998 2 0.999998L 15.67 0.999998C 15.9352 0.999998 16.1896 1.10535 16.3771 1.29289C 16.5646 1.48043 16.67 1.73478 16.67 2L 16.68 3Z"/>
<path id="path8_fill" d="M 15.67 -1.83105e-06L 2 -1.83105e-06C 1.46957 -1.83105e-06 0.96086 0.210714 0.585787 0.585787C 0.210714 0.96086 2.13623e-06 1.46957 2.13623e-06 2L 2.13623e-06 3C 2.13623e-06 3.53043 0.210714 4.03914 0.585787 4.41421C 0.96086 4.78929 1.46957 5 2 5L 15.67 5C 16.2004 5 16.7091 4.78929 17.0842 4.41421C 17.4593 4.03914 17.67 3.53043 17.67 3L 17.67 2C 17.67 1.46957 17.4593 0.96086 17.0842 0.585787C 16.7091 0.210714 16.2004 -1.83105e-06 15.67 -1.83105e-06ZM 16.67 3C 16.67 3.26521 16.5646 3.51957 16.3771 3.70711C 16.1896 3.89464 15.9352 4 15.67 4L 2 4C 1.73479 4 1.48043 3.89464 1.29289 3.70711C 1.10536 3.51957 1 3.26521 1 3L 1 2C 1 1.73478 1.10536 1.48043 1.29289 1.29289C 1.48043 1.10535 1.73479 0.999998 2 0.999998L 15.67 0.999998C 15.9352 0.999998 16.1896 1.10535 16.3771 1.29289C 16.5646 1.48043 16.67 1.73478 16.67 2L 16.67 3Z"/>
<path id="path9_fill" d="M 7.00001 -3.66211e-06L 2.00001 -3.66211e-06C 1.46957 -3.66211e-06 0.960863 0.210716 0.58579 0.585789C 0.210718 0.960862 -2.13623e-06 1.46956 -2.13623e-06 2L -2.13623e-06 3C -2.13623e-06 3.53043 0.210718 4.03914 0.58579 4.41421C 0.960863 4.78928 1.46957 5 2.00001 5L 7.00001 5C 7.53044 5 8.03915 4.78928 8.41422 4.41421C 8.78929 4.03914 9.00001 3.53043 9.00001 3L 9.00001 2C 9.00001 1.46956 8.78929 0.960862 8.41422 0.585789C 8.03915 0.210716 7.53044 -3.66211e-06 7.00001 -3.66211e-06ZM 8.00001 3C 8.00001 3.26521 7.89465 3.51957 7.70711 3.7071C 7.51958 3.89464 7.26522 4 7.00001 4L 2.00001 4C 1.73479 4 1.48043 3.89464 1.2929 3.7071C 1.10536 3.51957 1.00001 3.26521 1.00001 3L 1.00001 2C 1.00001 1.73478 1.10536 1.48043 1.2929 1.2929C 1.48043 1.10536 1.73479 0.999996 2.00001 0.999996L 7.00001 0.999996C 7.26522 0.999996 7.51958 1.10536 7.70711 1.2929C 7.89465 1.48043 8.00001 1.73478 8.00001 2L 8.00001 3Z"/>
<path id="path10_fill" d="M 7 0L 2 0C 1.46957 0 0.960858 0.210712 0.585785 0.585785C 0.210712 0.960858 0 1.46957 0 2L 0 3C 0 3.53043 0.210712 4.03914 0.585785 4.41422C 0.960858 4.78929 1.46957 5 2 5L 7 5C 7.53043 5 8.03914 4.78929 8.41422 4.41422C 8.78929 4.03914 9 3.53043 9 3L 9 2C 9 1.46957 8.78929 0.960858 8.41422 0.585785C 8.03914 0.210712 7.53043 0 7 0Z"/>
<path id="path11_fill" d="M 7 -1.83105e-06L 2 -1.83105e-06C 1.46957 -1.83105e-06 0.960858 0.210714 0.585785 0.585787C 0.210712 0.96086 0 1.46957 0 2L 0 3C 0 3.53043 0.210712 4.03914 0.585785 4.41421C 0.960858 4.78929 1.46957 5 2 5L 7 5C 7.53043 5 8.03914 4.78929 8.41422 4.41421C 8.78929 4.03914 9 3.53043 9 3L 9 2C 9 1.46957 8.78929 0.96086 8.41422 0.585787C 8.03914 0.210714 7.53043 -1.83105e-06 7 -1.83105e-06ZM 8 3C 8 3.26521 7.89464 3.51957 7.70711 3.70711C 7.51957 3.89464 7.26522 4 7 4L 2 4C 1.73478 4 1.48043 3.89464 1.29289 3.70711C 1.10536 3.51957 1 3.26521 1 3L 1 2C 1 1.73478 1.10536 1.48043 1.29289 1.29289C 1.48043 1.10535 1.73478 0.999998 2 0.999998L 7 0.999998C 7.26522 0.999998 7.51957 1.10535 7.70711 1.29289C 7.89464 1.48043 8 1.73478 8 2L 8 3Z"/>
<path id="path12_fill" d="M 7 -1.83105e-06L 2 -1.83105e-06C 1.46957 -1.83105e-06 0.96086 0.210714 0.585787 0.585787C 0.210714 0.96086 1.83105e-06 1.46957 1.83105e-06 2L 1.83105e-06 3C 1.83105e-06 3.53043 0.210714 4.03914 0.585787 4.41421C 0.96086 4.78929 1.46957 5 2 5L 7 5C 7.53044 5 8.03914 4.78929 8.41422 4.41421C 8.78929 4.03914 9 3.53043 9 3L 9 2C 9 1.46957 8.78929 0.96086 8.41422 0.585787C 8.03914 0.210714 7.53044 -1.83105e-06 7 -1.83105e-06ZM 8 3C 8 3.26521 7.89465 3.51957 7.70711 3.70711C 7.51957 3.89464 7.26522 4 7 4L 2 4C 1.73479 4 1.48043 3.89464 1.29289 3.70711C 1.10536 3.51957 1 3.26521 1 3L 1 2C 1 1.73478 1.10536 1.48043 1.29289 1.29289C 1.48043 1.10535 1.73479 0.999998 2 0.999998L 7 0.999998C 7.26522 0.999998 7.51957 1.10535 7.70711 1.29289C 7.89465 1.48043 8 1.73478 8 2L 8 3Z"/>
<path id="path13_fill" d="M 82.5409 1.00008C 82.3639 0.693391 82.1085 0.439209 81.8011 0.263514C 81.4936 0.0878184 81.145 -0.00308979 80.7909 8.01521e-05L 2.0009 8.01521e-05C 1.73313 -4.03722e-05 1.46806 0.0536107 1.22142 0.157851C 0.974769 0.262092 0.751567 0.414799 0.565043 0.606918C 0.37852 0.799037 0.232476 1.02666 0.135569 1.27627C 0.0386629 1.52589 -0.00713392 1.79243 0.000899196 2.06008L 0.890899 33.0601C 0.906447 33.5783 1.12264 34.0703 1.49389 34.4322C 1.86514 34.7941 2.36243 34.9977 2.8809 35.0001L 79.8809 35.0001C 80.4011 35.0003 80.9009 34.7979 81.2743 34.4357C 81.6477 34.0735 81.8653 33.58 81.8809 33.0601L 82.7809 2.06008C 82.8003 1.69137 82.7172 1.32449 82.5409 1.00008ZM 80.8809 33.0001C 80.8809 33.2653 80.7755 33.5196 80.588 33.7072C 80.4005 33.8947 80.1461 34.0001 79.8809 34.0001L 2.8809 34.0001C 2.61568 34.0001 2.36133 33.8947 2.17379 33.7072C 1.98626 33.5196 1.8809 33.2653 1.8809 33.0001L 0.980899 2.00008C 0.978809 1.8668 1.00339 1.73444 1.05319 1.6108C 1.10299 1.48715 1.17701 1.37471 1.2709 1.28008C 1.36616 1.18012 1.48109 1.10097 1.60845 1.04761C 1.73581 0.99426 1.87284 0.967862 2.0109 0.97008L 80.8009 0.97008C 80.939 0.967862 81.076 0.99426 81.2033 1.04761C 81.3307 1.10097 81.4456 1.18012 81.5409 1.28008C 81.633 1.37553 81.7052 1.48834 81.7532 1.61195C 81.8013 1.73556 81.8243 1.8675 81.8209 2.00008L 80.8809 33.0001Z"/>
<path id="path14_stroke" d="M -2.28882e-07 0.499996L 7 0.499996L 7 -0.500004L -2.28882e-07 -0.500004L -2.28882e-07 0.499996Z"/>
<path id="path15_stroke" d="M 1.67847e-06 0.499996L 106 0.499996L 106 -0.500004L 1.67847e-06 -0.500004L 1.67847e-06 0.499996Z"/>
<path id="path16_fill" d="M 10.3897 1.90967C 9.84037 1.32017 9.17797 0.847353 8.44197 0.519417C 7.70598 0.191482 6.91147 0.0151456 6.10585 0.000931321C 5.30022 -0.013283 4.49999 0.134916 3.75289 0.436684C 3.00578 0.738452 2.32711 1.18761 1.75736 1.75736C 1.18761 2.32711 0.738454 3.00578 0.436686 3.75288C 0.134918 4.49999 -0.0132808 5.30022 0.000933457 6.10584C 0.0151477 6.91147 0.191484 7.70598 0.519419 8.44197C 0.847355 9.17797 1.32017 9.84037 1.90966 10.3897C 2.45896 10.9792 3.12137 11.452 3.85736 11.7799C 4.59336 12.1079 5.38786 12.2842 6.19348 12.2984C 6.99911 12.3126 7.79935 12.1644 8.54645 11.8626C 9.29356 11.5609 9.97222 11.1117 10.542 10.542C 11.1117 9.97222 11.5609 9.29355 11.8627 8.54645C 12.1644 7.79934 12.3126 6.99911 12.2984 6.19349C 12.2842 5.38787 12.1079 4.59336 11.7799 3.85736C 11.452 3.12137 10.9792 2.45897 10.3897 1.90967Z"/>
<path id="path17_fill" d="M 25.83 4.43297C 23.3549 1.95719 20.0979 0.416323 16.6139 0.072968C 13.13 -0.270387 9.63484 0.605026 6.72406 2.55C 3.81328 4.49498 1.66704 7.38916 0.651108 10.7393C -0.364823 14.0894 -0.187572 17.6882 1.15266 20.9223C 2.49289 24.1564 4.91315 26.8257 8.00097 28.4752C 11.0888 30.1247 14.6531 30.6524 18.0864 29.9684C 21.5197 29.2843 24.6096 27.4308 26.8294 24.7238C 29.0492 22.0168 30.2616 18.6238 30.26 15.123C 30.2662 13.1366 29.8778 11.1687 29.1173 9.3336C 28.3569 7.4985 27.2395 5.83273 25.83 4.43297ZM 25.12 25.123C 22.8108 27.4288 19.7737 28.8629 16.526 29.1812C 13.2782 29.4994 10.0206 28.682 7.3077 26.8683C 4.59485 25.0546 2.59454 22.3566 1.6474 19.2337C 0.700248 16.1109 0.864819 12.7563 2.11309 9.74113C 3.36136 6.72599 5.61614 4.23673 8.4935 2.69724C 11.3709 1.15774 14.6929 0.663185 17.8939 1.29778C 21.0949 1.93238 23.977 3.6569 26.0494 6.17768C 28.1218 8.69847 29.2564 11.8597 29.26 15.123C 29.2648 16.9807 28.9014 18.8209 28.1908 20.5373C 27.4802 22.2537 26.4365 23.8123 25.12 25.123Z"/>
<path id="path18_stroke" d="M 0.71 6.46L 0.356754 6.10614L 0.356446 6.10644L 0.71 6.46ZM 6.46 0.72L 6.81325 1.07386L 6.96 0.927362L 6.96 0.72L 6.46 0.72ZM 6.46 0.709998L 6.10645 0.356445L 5.96 0.502891L 5.96 0.709998L 6.46 0.709998ZM 0.353554 7.52355L 1.06355 6.81355L 0.356446 6.10644L -0.353553 6.81644L 0.353554 7.52355ZM 1.06324 6.81386L 6.81325 1.07386L 6.10676 0.366139L 0.356754 6.10614L 1.06324 6.81386ZM 6.96 0.72L 6.96 0.709998L 5.96 0.709998L 5.96 0.72L 6.96 0.72ZM 6.81356 1.06355L 7.52356 0.353552L 6.81645 -0.353555L 6.10645 0.356445L 6.81356 1.06355Z"/>
<path id="path19_stroke" d="M 0.709999 6.45L 1.06355 6.80356L 1.06355 6.80356L 0.709999 6.45ZM 6.45 0.709997L 6.09645 0.356441L 6.09644 0.356443L 6.45 0.709997ZM 0.353553 7.51355L 1.06355 6.80356L 0.356446 6.09645L -0.353553 6.80645L 0.353553 7.51355ZM 1.06355 6.80356L 6.80355 1.06355L 6.09644 0.356443L 0.356445 6.09645L 1.06355 6.80356ZM 6.80355 1.06355L 7.51356 0.353553L 6.80645 -0.353558L 6.09645 0.356441L 6.80355 1.06355Z"/>
<path id="path20_stroke" d="M 6.46 6.46L 6.10644 6.81355L 6.10645 6.81355L 6.46 6.46ZM 0.719999 0.72L 0.366446 1.07355L 0.366446 1.07355L 0.719999 0.72ZM 7.52356 6.81644L 6.81355 6.10644L 6.10645 6.81355L 6.81645 7.52355L 7.52356 6.81644ZM 6.81355 6.10644L 1.07355 0.366447L 0.366446 1.07355L 6.10644 6.81355L 6.81355 6.10644ZM 1.07355 0.366447L 0.353551 -0.353555L -0.353556 0.353552L 0.366446 1.07355L 1.07355 0.366447Z"/>
<path id="path21_stroke" d="M 6.46 6.46L 6.81356 6.10645L 6.81356 6.10644L 6.46 6.46ZM 0.71 0.709997L 0.356446 1.06355L 0.356446 1.06355L 0.71 0.709997ZM 7.51356 6.80645L 6.81356 6.10645L 6.10645 6.81355L 6.80645 7.51355L 7.51356 6.80645ZM 6.81356 6.10644L 1.06355 0.356443L 0.356446 1.06355L 6.10645 6.81355L 6.81356 6.10644ZM 1.06355 0.356443L 0.353554 -0.353556L -0.353553 0.353551L 0.356446 1.06355L 1.06355 0.356443Z"/>
</defs>
</svg>
