<svg width="136" height="110" viewBox="0 0 136 110" version="1.1" xmlns="http://www.w3.org/2000/svg" xmlns:xlink="http://www.w3.org/1999/xlink">
<title>calendar</title>
<desc>Created using Figma</desc>
<g id="Canvas" transform="translate(-39915 4540)">
<g id="calendar">
<g id="Rectangle 73">
<mask id="mask0_outline_ins">
<use xlink:href="#path0_fill" fill="white" transform="translate(39921 -4519)"/>
</mask>
<g mask="url(#mask0_outline_ins)">
<use xlink:href="#path1_stroke_2x" transform="translate(39921 -4519)" fill="#F99531"/>
</g>
</g>
<g id="Rectangle 73">
<use xlink:href="#path2_fill" transform="translate(39921 -4492.88)" fill="#FFFFFF"/>
<mask id="mask1_outline_ins">
<use xlink:href="#path2_fill" fill="white" transform="translate(39921 -4492.88)"/>
</mask>
<g mask="url(#mask1_outline_ins)">
<use xlink:href="#path3_stroke_2x" transform="translate(39921 -4492.88)" fill="#F99531"/>
</g>
</g>
<g id="Rectangle 73">
<use xlink:href="#path4_fill" transform="translate(39918 -4492.88)" fill="#FFFFFF"/>
<mask id="mask2_outline_ins">
<use xlink:href="#path4_fill" fill="white" transform="translate(39918 -4492.88)"/>
</mask>
<g mask="url(#mask2_outline_ins)">
<use xlink:href="#path5_stroke_2x" transform="translate(39918 -4492.88)" fill="#F99531"/>
</g>
</g>
<g id="Rectangle 73">
<use xlink:href="#path6_fill" transform="translate(39915 -4536)" fill="#FFFFFF"/>
<mask id="mask3_outline_ins">
<use xlink:href="#path6_fill" fill="white" transform="translate(39915 -4536)"/>
</mask>
<g mask="url(#mask3_outline_ins)">
<use xlink:href="#path7_stroke_2x" transform="translate(39915 -4536)" fill="#F99531"/>
</g>
</g>
<g id="Line 6">
<use xlink:href="#path8_stroke" transform="translate(40017 -4516)" fill="#F99531"/>
</g>
<g id="Line 6">
<use xlink:href="#path9_stroke" transform="translate(40017.5 -4513.5)" fill="#F99531"/>
</g>
<g id="Union">
<use xlink:href="#path10_fill" transform="translate(39933 -4540)" fill="#F99531"/>
</g>
<g id="10">
<use xlink:href="#path11_fill" transform="translate(39948 -4512)" fill="#F99531"/>
<use xlink:href="#path12_fill" transform="translate(39948 -4512)" fill="#F99531"/>
</g>
<g id="Ellipse 5">
<use xlink:href="#path13_fill" transform="translate(39931 -4518)" fill="#F99531"/>
</g>
<g id="Ellipse 6">
<use xlink:href="#path14_fill" transform="translate(39997 -4488)" fill="#F99531"/>
</g>
<g id="Vector 16">
<use xlink:href="#path15_stroke" transform="translate(40008 -4475)" fill="#FFFFFF"/>
</g>
</g>
</g>
<defs>
<path id="path0_fill" d="M 0.209061 6.20213C 0.0947568 2.81112 2.81272 0 6.20566 0L 117.794 0C 121.187 0 123.905 2.81112 123.791 6.20213L 121.195 83.2021C 121.086 86.4353 118.434 89 115.199 89L 8.80116 89C 5.56613 89 2.91355 86.4353 2.80457 83.2021L 0.209061 6.20213Z"/>
<path id="path1_stroke_2x" d="M 121.195 83.2021L 120.196 83.1684L 121.195 83.2021ZM 123.791 6.20213L 122.792 6.16844L 123.791 6.20213ZM 6.20566 1L 117.794 1L 117.794 -1L 6.20566 -1L 6.20566 1ZM 122.792 6.16844L 120.196 83.1684L 122.195 83.2358L 124.79 6.23582L 122.792 6.16844ZM 115.199 88L 8.80116 88L 8.80116 90L 115.199 90L 115.199 88ZM 3.804 83.1684L 1.20849 6.16844L -0.790372 6.23582L 1.80513 83.2358L 3.804 83.1684ZM 6.20566 -1C 2.24723 -1 -0.923726 2.27964 -0.790372 6.23582L 1.20849 6.16844C 1.11324 3.3426 3.37821 1 6.20566 1L 6.20566 -1ZM 117.794 1C 120.622 1 122.887 3.3426 122.792 6.16844L 124.79 6.23582C 124.924 2.27964 121.753 -1 117.794 -1L 117.794 1ZM 120.196 83.1684C 120.105 85.8628 117.895 88 115.199 88L 115.199 90C 118.973 90 122.068 87.0079 122.195 83.2358L 120.196 83.1684ZM 8.80116 88C 6.1053 88 3.89482 85.8628 3.804 83.1684L 1.80513 83.2358C 1.93228 87.0079 5.02696 90 8.80116 90L 8.80116 88Z"/>
<path id="path2_fill" d="M 0 0L 124 0L 124 53.9783C 124 57.292 121.314 59.9783 118 59.9783L 6 59.9783C 2.68629 59.9783 0 57.292 0 53.9783L 0 0Z"/>
<path id="path3_stroke_2x" d="M 0 0L 0 -1L -1 -1L -1 0L 0 0ZM 124 0L 125 0L 125 -1L 124 -1L 124 0ZM 0 1L 124 1L 124 -1L 0 -1L 0 1ZM 123 0L 123 53.9783L 125 53.9783L 125 0L 123 0ZM 118 58.9783L 6 58.9783L 6 60.9783L 118 60.9783L 118 58.9783ZM 1 53.9783L 1 0L -1 0L -1 53.9783L 1 53.9783ZM 123 53.9783C 123 56.7397 120.761 58.9783 118 58.9783L 118 60.9783C 121.866 60.9783 125 57.8443 125 53.9783L 123 53.9783ZM 6 58.9783C 3.23858 58.9783 1 56.7397 1 53.9783L -1 53.9783C -1 57.8443 2.13401 60.9783 6 60.9783L 6 58.9783Z"/>
<path id="path4_fill" d="M 3 0L 127 0L 129.668 50.7612C 129.849 54.1939 127.114 57.0761 123.676 57.0761L 6.32365 57.0761C 2.88622 57.0761 0.151495 54.1939 0.331922 50.7612L 3 0Z"/>
<path id="path5_stroke_2x" d="M 3 0L 3 -1L 2.05118 -1L 2.00138 -0.052489L 3 0ZM 127 0L 127.999 -0.052489L 127.949 -1L 127 -1L 127 0ZM 129.668 50.7612L 128.669 50.8136L 129.668 50.7612ZM 3 1L 127 1L 127 -1L 3 -1L 3 1ZM 126.001 0.052489L 128.669 50.8136L 130.667 50.7087L 127.999 -0.052489L 126.001 0.052489ZM 123.676 56.0761L 6.32365 56.0761L 6.32365 58.0761L 123.676 58.0761L 123.676 56.0761ZM 1.33054 50.8136L 3.99862 0.052489L 2.00138 -0.052489L -0.6667 50.7087L 1.33054 50.8136ZM 128.669 50.8136C 128.82 53.6742 126.541 56.0761 123.676 56.0761L 123.676 58.0761C 127.687 58.0761 130.877 54.7135 130.667 50.7087L 128.669 50.8136ZM 6.32365 56.0761C 3.45912 56.0761 1.18019 53.6742 1.33054 50.8136L -0.6667 50.7087C -0.877198 54.7135 2.31331 58.0761 6.32365 58.0761L 6.32365 56.0761Z"/>
<path id="path6_fill" d="M 5.65178 5.62957C 5.84748 2.46576 8.47047 0 11.6403 0L 124.36 0C 127.53 0 130.153 2.46576 130.348 5.62957L 135.606 90.6296C 135.82 94.0824 133.077 97 129.617 97L 6.3826 97C 2.9232 97 0.180471 94.0824 0.394047 90.6296L 5.65178 5.62957Z"/>
<path id="path7_stroke_2x" d="M 135.606 90.6296L 136.604 90.5678L 135.606 90.6296ZM 130.348 5.62957L 129.35 5.69131L 130.348 5.62957ZM 11.6403 1L 124.36 1L 124.36 -1L 11.6403 -1L 11.6403 1ZM 129.35 5.69131L 134.608 90.6913L 136.604 90.5678L 131.346 5.56784L 129.35 5.69131ZM 129.617 96L 6.3826 96L 6.3826 98L 129.617 98L 129.617 96ZM 1.39214 90.6913L 6.64987 5.69131L 4.65369 5.56784L -0.604045 90.5678L 1.39214 90.6913ZM 11.6403 -1C 7.94216 -1 4.882 1.87672 4.65369 5.56784L 6.64987 5.69131C 6.81295 3.0548 8.99878 1 11.6403 1L 11.6403 -1ZM 124.36 1C 127.001 1 129.187 3.0548 129.35 5.69131L 131.346 5.56784C 131.118 1.87672 128.058 -1 124.36 -1L 124.36 1ZM 134.608 90.6913C 134.786 93.5686 132.5 96 129.617 96L 129.617 98C 133.653 98 136.853 94.5961 136.604 90.5678L 134.608 90.6913ZM 6.3826 96C 3.49976 96 1.21416 93.5686 1.39214 90.6913L -0.604045 90.5678C -0.853217 94.5961 2.34663 98 6.3826 98L 6.3826 96Z"/>
<path id="path8_stroke" d="M 0.5 -1C 0.223858 -1 0 -0.776142 0 -0.5C 0 -0.223858 0.223858 0 0.5 0L 0.5 -1ZM 16.5 0C 16.7761 0 17 -0.223858 17 -0.5C 17 -0.776142 16.7761 -1 16.5 -1L 16.5 0ZM 0.5 0L 16.5 0L 16.5 -1L 0.5 -1L 0.5 0Z"/>
<path id="path9_stroke" d="M 0 -0.5C -0.276142 -0.5 -0.5 -0.276142 -0.5 0C -0.5 0.276142 -0.276142 0.5 0 0.5L 0 -0.5ZM 9.5 0.5C 9.77614 0.5 10 0.276142 10 0C 10 -0.276142 9.77614 -0.5 9.5 -0.5L 9.5 0.5ZM 0 0.5L 9.5 0.5L 9.5 -0.5L 0 -0.5L 0 0.5Z"/>
<path id="path10_fill" fill-rule="evenodd" d="M 1.5 0C 0.671875 0 0 0.671631 0 1.5L 0 7.5C 0 8.32837 0.671875 9 1.5 9C 2.32812 9 3 8.32837 3 7.5L 3 1.5C 3 0.671631 2.32812 0 1.5 0ZM 15.5 0C 14.6719 0 14 0.671631 14 1.5L 14 7.5C 14 8.32837 14.6719 9 15.5 9C 16.3281 9 17 8.32837 17 7.5L 17 1.5C 17 0.671631 16.3281 0 15.5 0ZM 28 1.5C 28 0.671631 28.6719 0 29.5 0C 30.3281 0 31 0.671631 31 1.5L 31 7.5C 31 8.32837 30.3281 9 29.5 9C 28.6719 9 28 8.32837 28 7.5L 28 1.5ZM 43.5 0C 42.6719 0 42 0.671631 42 1.5L 42 7.5C 42 8.32837 42.6719 9 43.5 9C 44.3281 9 45 8.32837 45 7.5L 45 1.5C 45 0.671631 44.3281 0 43.5 0ZM 56 1.5C 56 0.671631 56.6719 0 57.5 0C 58.3281 0 59 0.671631 59 1.5L 59 7.5C 59 8.32837 58.3281 9 57.5 9C 56.6719 9 56 8.32837 56 7.5L 56 1.5ZM 71.5 0C 70.6719 0 70 0.671631 70 1.5L 70 7.5C 70 8.32837 70.6719 9 71.5 9C 72.3281 9 73 8.32837 73 7.5L 73 1.5C 73 0.671631 72.3281 0 71.5 0ZM 84 1.5C 84 0.671631 84.6719 0 85.5 0C 86.3281 0 87 0.671631 87 1.5L 87 7.5C 87 8.32837 86.3281 9 85.5 9C 84.6719 9 84 8.32837 84 7.5L 84 1.5ZM 99.5 0C 98.6719 0 98 0.671631 98 1.5L 98 7.5C 98 8.32837 98.6719 9 99.5 9C 100.328 9 101 8.32837 101 7.5L 101 1.5C 101 0.671631 100.328 0 99.5 0Z"/>
<path id="path11_fill" d="M 19.0455 50.3186L 12.8204 50.3186L 12.8204 8.75551L 0 13.6954L 0 7.93788L 18.5408 0.715431L 19.0455 0.715431L 19.0455 50.3186Z"/>
<path id="path12_fill" d="M 63 31.3427C 63 34.4997 62.6411 37.3046 61.9232 39.7575C 61.2054 42.1877 60.1735 44.2432 58.8275 45.9238C 57.4815 47.5818 55.8327 48.8424 53.881 49.7054C 51.9294 50.5685 49.6973 51 47.1848 51C 44.6948 51 42.4627 50.5685 40.4886 49.7054C 38.537 48.8424 36.8769 47.5818 35.5085 45.9238C 34.1401 44.2432 33.0858 42.1877 32.3455 39.7575C 31.6276 37.3046 31.2687 34.4997 31.2687 31.3427L 31.2687 19.7255C 31.2687 16.5685 31.6276 13.7749 32.3455 11.3447C 33.0633 8.89178 34.0953 6.82498 35.4412 5.14429C 36.8096 3.46359 38.4697 2.19172 40.4213 1.32866C 42.3954 0.442886 44.6275 0 47.1175 0C 49.63 0 51.8621 0.442886 53.8137 1.32866C 55.7878 2.19172 57.4479 3.46359 58.7938 5.14429C 60.1622 6.82498 61.2054 8.89178 61.9232 11.3447C 62.6411 13.7749 63 16.5685 63 19.7255L 63 31.3427ZM 37.5275 30.0822L 56.6066 15.2625C 56.2477 11.9693 55.2943 9.47094 53.7464 7.76754C 52.221 6.04142 50.0114 5.17836 47.1175 5.17836C 43.8423 5.17836 41.4196 6.30261 39.8493 8.5511C 38.3014 10.7769 37.5275 14.0361 37.5275 18.3287L 37.5275 30.0822ZM 56.7412 21.2926L 37.6957 36.0441C 38.0771 39.2465 39.0529 41.688 40.6232 43.3687C 42.1935 45.0494 44.3807 45.8898 47.1848 45.8898C 50.4825 45.8898 52.894 44.7542 54.4194 42.483C 55.9673 40.2118 56.7412 36.9412 56.7412 32.6713L 56.7412 21.2926Z"/>
<path id="path13_fill" d="M 8 4C 8 6.20914 6.20914 8 4 8C 1.79086 8 0 6.20914 0 4C 0 1.79086 1.79086 0 4 0C 6.20914 0 8 1.79086 8 4Z"/>
<path id="path14_fill" d="M 37 18.5C 37 28.7173 28.7173 37 18.5 37C 8.28273 37 0 28.7173 0 18.5C 0 8.28273 8.28273 0 18.5 0C 28.7173 0 37 8.28273 37 18.5Z"/>
<path id="path15_stroke" d="M 0.353553 4.64645C 0.158291 4.45118 -0.158291 4.45118 -0.353553 4.64645C -0.548816 4.84171 -0.548816 5.15829 -0.353553 5.35355L 0.353553 4.64645ZM 16.3855 0.318441C 16.5614 0.105546 16.5313 -0.209611 16.3184 -0.385481C 16.1055 -0.561351 15.7904 -0.531336 15.6145 -0.318441L 16.3855 0.318441ZM 7.20042 10.6521L 7.5859 10.9706L 7.20042 10.6521ZM -0.353553 5.35355L 5.3688 11.0759L 6.0759 10.3688L 0.353553 4.64645L -0.353553 5.35355ZM 7.5859 10.9706L 16.3855 0.318441L 15.6145 -0.318441L 6.81494 10.3337L 7.5859 10.9706ZM 5.3688 11.0759C 5.99431 11.7014 7.02251 11.6526 7.5859 10.9706L 6.81494 10.3337C 6.62714 10.561 6.28441 10.5773 6.0759 10.3688L 5.3688 11.0759Z"/>
</defs>
</svg>
