<svg width="142" height="116" viewBox="0 0 142 116" version="1.1" xmlns="http://www.w3.org/2000/svg" xmlns:xlink="http://www.w3.org/1999/xlink">
<title>camera 2</title>
<desc>Created using Figma</desc>
<g id="Canvas" transform="translate(-7902 -1228)">
<g id="camera 2">
<g id="Layer 2">
<g id="Layer 1">
<g id="Vector">
<use xlink:href="#path0_fill" transform="translate(7902 1228)" fill="#4F5362"/>
</g>
<g id="Vector">
<use xlink:href="#path1_fill" transform="translate(7958.41 1294)" fill="#4F5362"/>
</g>
<g id="Vector">
<use xlink:href="#path2_fill" transform="translate(7966.21 1310.29)" fill="#4F5362"/>
</g>
<g id="Vector">
<use xlink:href="#path3_fill" transform="translate(7969.44 1313.52)" fill="#4F5362"/>
</g>
<g id="Vector">
<use xlink:href="#path4_fill" transform="translate(7951.11 1300.8)" fill="#4F5362"/>
</g>
<g id="Vector">
<use xlink:href="#path5_fill" transform="translate(7951.11 1309.46)" fill="#4F5362"/>
</g>
<g id="Vector">
<use xlink:href="#path6_fill" transform="translate(7951.11 1317.77)" fill="#4F5362"/>
</g>
<g id="Vector">
<use xlink:href="#path4_fill" transform="translate(7990.61 1300.8)" fill="#4F5362"/>
</g>
<g id="Vector">
<use xlink:href="#path5_fill" transform="translate(7990.61 1309.46)" fill="#4F5362"/>
</g>
<g id="Vector">
<use xlink:href="#path6_fill" transform="translate(7990.61 1317.77)" fill="#4F5362"/>
</g>
</g>
</g>
</g>
</g>
<defs>
<path id="path0_fill" d="M 71 0L 0 0L 7.57 45.7L 8.51 51.35C 8.61833 51.994 8.88269 52.6017 9.28 53.12L 15 60.59C 15.3737 61.0786 15.855 61.4744 16.4065 61.7467C 16.958 62.019 17.5649 62.1604 18.18 62.16L 19.6 62.16C 19.6 62.75 19.6 63.35 19.6 63.95C 19.6 70.6993 20.9294 77.3825 23.5122 83.618C 26.0951 89.8535 29.8808 95.5193 34.6532 100.292C 39.4257 105.064 45.0915 108.85 51.327 111.433C 57.5625 114.016 64.2457 115.345 70.995 115.345C 77.7443 115.345 84.4275 114.016 90.663 111.433C 96.8985 108.85 102.564 105.064 107.337 100.292C 112.109 95.5193 115.895 89.8535 118.478 83.618C 121.061 77.3825 122.39 70.6993 122.39 63.95C 122.39 63.35 122.39 62.76 122.39 62.16L 123.96 62.16C 124.551 62.1394 125.131 61.9879 125.656 61.7164C 126.182 61.445 126.641 61.0602 127 60.59L 132.7 53.12C 133.097 52.6017 133.362 51.994 133.47 51.35L 142 0L 71 0ZM 71 1L 140.82 1L 133.51 45.13L 8.49 45.13L 1.18 1L 71 1ZM 9.35 50.35L 8.65 46.12L 132.79 46.12L 132.09 50.35L 9.35 50.35ZM 25.15 62.35L 116.85 62.35C 116.85 62.88 116.85 63.35 116.85 63.89C 116.672 75.9395 111.761 87.4352 103.177 95.8933C 94.5928 104.351 83.0258 109.093 70.975 109.093C 58.9242 109.093 47.3572 104.351 38.7733 95.8933C 30.1894 87.4352 25.2779 75.9395 25.1 63.89C 25.13 63.37 25.13 62.86 25.15 62.33L 25.15 62.35ZM 70.94 114.35C 57.5875 114.334 44.7859 109.026 35.3405 99.5877C 25.8952 90.1499 20.5765 77.3524 20.55 64C 20.55 63.42 20.55 62.83 20.55 62.21L 24.14 62.21C 24.14 62.78 24.14 63.34 24.14 63.92C 24.3199 76.2334 29.3376 87.9817 38.1088 96.6257C 46.88 105.27 58.7002 110.115 71.015 110.115C 83.3298 110.115 95.15 105.27 103.921 96.6257C 112.692 87.9817 117.71 76.2334 117.89 63.92C 117.89 63.35 117.89 62.78 117.89 62.21L 121.37 62.21C 121.37 62.82 121.37 63.41 121.37 64C 121.344 77.3594 116.019 90.1628 106.565 99.6018C 97.1113 109.041 84.2994 114.345 70.94 114.35ZM 126.24 60C 125.959 60.3676 125.598 60.6653 125.183 60.87C 124.769 61.0747 124.312 61.1808 123.85 61.18L 18.15 61.18C 17.6876 61.1808 17.2313 61.0747 16.8168 60.87C 16.4022 60.6653 16.0405 60.3676 15.76 60L 10.06 52.53C 9.80094 52.1828 9.62013 51.7837 9.53 51.36L 132.46 51.36C 132.37 51.7837 132.189 52.1828 131.93 52.53L 126.24 60Z"/>
<path id="path1_fill" d="M 14.53 40.8511C 22.53 40.8511 29.06 38.7111 29.06 31.8511L 29.06 12.3811C 29.0326 10.7009 28.638 9.04702 27.9039 7.53548C 27.1697 6.02394 26.1137 4.69132 24.81 3.63107C 21.9204 1.24358 18.2781 -0.042544 14.53 0.00107407C 6.53 0.00107407 -1.52588e-07 5.54107 -1.52588e-07 12.3811L -1.52588e-07 31.8811C -1.52588e-07 38.7111 6.51 40.8511 14.53 40.8511ZM 14.59 13.0011C 16.5948 13.0051 18.5533 13.6038 20.2176 14.7215C 21.8819 15.8393 23.1771 17.4257 23.9393 19.28C 24.7015 21.1342 24.8963 23.173 24.4991 25.138C 24.1019 27.1031 23.1305 28.9061 21.708 30.3188C 20.2855 31.7315 18.4758 32.6903 16.5081 33.0739C 14.5403 33.4575 12.503 33.2486 10.654 32.4736C 8.80509 31.6986 7.22767 30.3925 6.12148 28.7205C 5.0153 27.0485 4.43011 25.0858 4.44 23.0811C 4.45323 20.3996 5.52908 17.8328 7.43171 15.9433C 9.33435 14.0538 11.9085 12.9957 14.59 13.0011Z"/>
<path id="path2_fill" d="M 6.79001 13.58C 8.13294 13.58 9.44572 13.1818 10.5623 12.4357C 11.6789 11.6896 12.5492 10.6291 13.0631 9.38842C 13.5771 8.14771 13.7115 6.78247 13.4495 5.46534C 13.1875 4.1482 12.5409 2.93835 11.5913 1.98875C 10.6417 1.03915 9.4318 0.392468 8.11467 0.130474C 6.79754 -0.131519 5.4323 0.00293827 4.19159 0.516857C 2.95088 1.03078 1.89043 1.90107 1.14433 3.01768C 0.398237 4.13429 6.47068e-06 5.44707 6.47068e-06 6.79C -0.0013102 7.68205 0.173419 8.56559 0.514182 9.38998C 0.854945 10.2144 1.35504 10.9634 1.98582 11.5942C 2.61659 12.225 3.36564 12.7251 4.19003 13.0658C 5.01443 13.4066 5.89796 13.5813 6.79001 13.58ZM 6.79001 1C 7.93516 1 9.0546 1.33958 10.0068 1.9758C 10.9589 2.61201 11.701 3.51628 12.1393 4.57427C 12.5775 5.63225 12.6922 6.79642 12.4688 7.91957C 12.2453 9.04272 11.6939 10.0744 10.8842 10.8842C 10.0744 11.6939 9.04273 12.2453 7.91958 12.4687C 6.79643 12.6922 5.63226 12.5775 4.57427 12.1393C 3.51629 11.701 2.61201 10.9589 1.9758 10.0068C 1.33959 9.05459 1.00001 7.93516 1.00001 6.79C 1.00001 5.2544 1.61003 3.78169 2.69586 2.69586C 3.7817 1.61002 5.2544 1 6.79001 1Z"/>
<path id="path3_fill" d="M 3.56 7.12C 5.52613 7.12 7.12 5.52614 7.12 3.56C 7.12 1.59387 5.52613 -3.35693e-06 3.56 -3.35693e-06C 1.59387 -3.35693e-06 2.44141e-06 1.59387 2.44141e-06 3.56C 2.44141e-06 5.52614 1.59387 7.12 3.56 7.12Z"/>
<path id="path4_fill" d="M 2.03 4.06C 3.15114 4.06 4.06 3.15114 4.06 2.03C 4.06 0.908864 3.15114 3.05176e-06 2.03 3.05176e-06C 0.908861 3.05176e-06 0 0.908864 0 2.03C 0 3.15114 0.908861 4.06 2.03 4.06Z"/>
<path id="path5_fill" d="M 2.03 4.06C 3.15114 4.06 4.06 3.15114 4.06 2.03C 4.06 0.90886 3.15114 0 2.03 0C 0.908861 0 0 0.90886 0 2.03C 0 3.15114 0.908861 4.06 2.03 4.06Z"/>
<path id="path6_fill" d="M 2.03 4.06C 3.15114 4.06 4.06 3.15114 4.06 2.03C 4.06 0.908865 3.15114 -3.35693e-06 2.03 -3.35693e-06C 0.908861 -3.35693e-06 0 0.908865 0 2.03C 0 3.15114 0.908861 4.06 2.03 4.06Z"/>
</defs>
</svg>
