<svg width="85" height="74" viewBox="0 0 85 74" version="1.1" xmlns="http://www.w3.org/2000/svg" xmlns:xlink="http://www.w3.org/1999/xlink">
<title>Group</title>
<desc>Created using Figma</desc>
<g id="Canvas" transform="translate(-26804 5128)">
<g id="Group">
<g id="Vector">
<use xlink:href="#path0_fill" transform="translate(26804 -5128)" fill="#F99531"/>
</g>
</g>
</g>
<defs>
<path id="path0_fill" d="M 82.9182 2.09002C 81.5312 0.69657 79.8644 1.37851e-07 77.9158 1.37851e-07L 7.08328 1.37851e-07C 5.13542 1.37851e-07 3.46837 0.696726 2.08044 2.09002C 0.693272 3.48425 0 5.15886 0 7.11555L 0 66.8848C 0 68.8415 0.693272 70.5164 2.08044 71.9104C 3.46837 73.3037 5.13542 74 7.08328 74L 77.9169 74C 79.8644 74 81.5316 73.3037 82.9188 71.9104C 84.3058 70.5165 85 68.8416 85 66.8848L 85 7.11555C 85 5.15886 84.3058 3.48425 82.9182 2.09002ZM 16.9998 65.462C 16.9998 66.2327 16.7201 66.9002 16.1592 67.4631C 15.5985 68.0265 14.9346 68.3086 14.1667 68.3086L 8.50053 68.3086C 7.73329 68.3086 7.06871 68.0265 6.50801 67.4631C 5.94762 66.9003 5.66666 66.2329 5.66666 65.462L 5.66666 59.7697C 5.66666 58.999 5.94762 58.3315 6.50801 57.768C 7.06871 57.2052 7.73329 56.9231 8.50053 56.9231L 14.1663 56.9231C 14.9341 56.9231 15.5981 57.2052 16.1588 57.768C 16.7196 58.3314 16.9998 58.9988 16.9998 59.7697L 16.9998 65.462ZM 16.9998 48.3845C 16.9998 49.1552 16.7201 49.8232 16.1592 50.3856C 15.5985 50.9484 14.9346 51.2311 14.1667 51.2311L 8.50053 51.2311C 7.73329 51.2311 7.06871 50.9485 6.50801 50.3856C 5.94762 49.8233 5.66666 49.1554 5.66666 48.3845L 5.66666 42.6916C 5.66666 41.9208 5.94762 41.254 6.50801 40.6905C 7.06871 40.1276 7.73329 39.8456 8.50053 39.8456L 14.1663 39.8456C 14.9341 39.8456 15.5981 40.1276 16.1588 40.6905C 16.7196 41.2539 16.9998 41.9207 16.9998 42.6916L 16.9998 48.3845ZM 16.9998 31.3075C 16.9998 32.0788 16.7201 32.746 16.1592 33.3091C 15.5985 33.8724 14.9346 34.1542 14.1667 34.1542L 8.50053 34.1542C 7.73329 34.1542 7.06871 33.8724 6.50801 33.3091C 5.94762 32.746 5.66666 32.0788 5.66666 31.3075L 5.66666 25.6156C 5.66666 24.8443 5.94762 24.1772 6.50801 23.6141C 7.06871 23.0507 7.73329 22.7689 8.50053 22.7689L 14.1663 22.7689C 14.9341 22.7689 15.5981 23.0507 16.1588 23.6141C 16.7196 24.1778 16.9998 24.8449 16.9998 25.6156L 16.9998 31.3075ZM 16.9998 14.2312C 16.9998 15.002 16.7201 15.6692 16.1592 16.2328C 15.5985 16.7959 14.9346 17.0777 14.1667 17.0777L 8.50053 17.0777C 7.73329 17.0777 7.06871 16.7959 6.50801 16.2328C 5.94762 15.6688 5.66666 15.0026 5.66666 14.2312L 5.66666 8.53906C 5.66666 7.76772 5.94762 7.1009 6.50801 6.53751C 7.06871 5.97427 7.73329 5.69266 8.50053 5.69266L 14.1663 5.69266C 14.9341 5.69266 15.5981 5.97443 16.1588 6.53751C 16.7196 7.10153 16.9998 7.76835 16.9998 8.53906L 16.9998 14.2312ZM 62.3331 65.462C 62.3331 66.2327 62.0529 66.9002 61.492 67.4631C 60.9312 68.0265 60.2667 68.3086 59.4993 68.3086L 25.4999 68.3086C 24.7325 68.3086 24.0688 68.0265 23.5078 67.4631C 22.9473 66.9003 22.6668 66.2329 22.6668 65.462L 22.6668 42.6927C 22.6668 41.923 22.9473 41.2551 23.5078 40.6916C 24.0688 40.1286 24.7325 39.8466 25.4999 39.8466L 59.4995 39.8466C 60.2667 39.8466 60.9312 40.1286 61.4922 40.6916C 62.053 41.255 62.3332 41.9229 62.3332 42.6927L 62.3332 65.462L 62.3331 65.462ZM 62.3331 31.3075C 62.3331 32.0788 62.0529 32.746 61.492 33.3091C 60.9312 33.8724 60.2667 34.1542 59.4993 34.1542L 25.4999 34.1542C 24.7325 34.1542 24.0688 33.8724 23.5078 33.3091C 22.9473 32.746 22.6668 32.0788 22.6668 31.3075L 22.6668 8.53859C 22.6668 7.76726 22.9473 7.10044 23.5078 6.53704C 24.0688 5.97396 24.7325 5.69219 25.4999 5.69219L 59.4995 5.69219C 60.2667 5.69219 60.9312 5.97396 61.4922 6.53704C 62.053 7.10106 62.3332 7.76788 62.3332 8.53859L 62.3332 31.3075L 62.3331 31.3075ZM 79.3327 65.462C 79.3327 66.2327 79.0525 66.9002 78.4921 67.4631C 77.9307 68.0265 77.2664 68.3086 76.499 68.3086L 70.8328 68.3086C 70.0656 68.3086 69.4007 68.0265 68.8408 67.4631C 68.2793 66.9003 67.9991 66.2329 67.9991 65.462L 67.9991 59.7697C 67.9991 58.999 68.2793 58.3315 68.8408 57.768C 69.4005 57.2052 70.0654 56.9231 70.8328 56.9231L 76.499 56.9231C 77.2662 56.9231 77.9305 57.2052 78.4921 57.768C 79.0525 58.3314 79.3327 58.9988 79.3327 59.7697L 79.3327 65.462ZM 79.3327 48.3845C 79.3327 49.1552 79.0525 49.8232 78.4921 50.3856C 77.9307 50.9484 77.2664 51.2311 76.499 51.2311L 70.8328 51.2311C 70.0656 51.2311 69.4007 50.9485 68.8408 50.3856C 68.2793 49.8233 67.9991 49.1554 67.9991 48.3845L 67.9991 42.6916C 67.9991 41.9208 68.2793 41.254 68.8408 40.6905C 69.4005 40.1276 70.0654 39.8456 70.8328 39.8456L 76.499 39.8456C 77.2662 39.8456 77.9305 40.1276 78.4921 40.6905C 79.0525 41.2539 79.3327 41.9207 79.3327 42.6916L 79.3327 48.3845ZM 79.3327 31.3075C 79.3327 32.0788 79.0525 32.746 78.4921 33.3091C 77.9307 33.8724 77.2664 34.1542 76.499 34.1542L 70.8328 34.1542C 70.0656 34.1542 69.4007 33.8724 68.8408 33.3091C 68.2793 32.746 67.9991 32.0788 67.9991 31.3075L 67.9991 25.6156C 67.9991 24.8443 68.2793 24.1772 68.8408 23.6141C 69.4005 23.0507 70.0654 22.7689 70.8328 22.7689L 76.499 22.7689C 77.2662 22.7689 77.9305 23.0507 78.4921 23.6141C 79.0525 24.1778 79.3327 24.8449 79.3327 25.6156L 79.3327 31.3075ZM 79.3327 14.2312C 79.3327 15.002 79.0525 15.6688 78.4921 16.2328C 77.9307 16.7959 77.2664 17.0777 76.499 17.0777L 70.8328 17.0777C 70.0656 17.0777 69.4007 16.7965 68.8408 16.2328C 68.2793 15.6688 67.9991 15.0026 67.9991 14.2312L 67.9991 8.53906C 67.9991 7.76772 68.2793 7.1009 68.8408 6.53751C 69.4005 5.97427 70.0654 5.69266 70.8328 5.69266L 76.499 5.69266C 77.2662 5.69266 77.9305 5.97443 78.4921 6.53751C 79.0525 7.10153 79.3327 7.76835 79.3327 8.53906L 79.3327 14.2312Z"/>
</defs>
</svg>
