<svg width="191" height="124" viewBox="0 0 191 124" version="1.1" xmlns="http://www.w3.org/2000/svg" xmlns:xlink="http://www.w3.org/1999/xlink">
<title>card</title>
<desc>Created using Figma</desc>
<g id="Canvas" transform="translate(-39460 4551)">
<g id="card">
<g id="Icon card">
<g id="Rectangle 55">
<mask id="mask0_outline_ins">
<use xlink:href="#path0_fill" fill="white" transform="translate(39470 -4537)"/>
</mask>
<g mask="url(#mask0_outline_ins)">
<use xlink:href="#path1_stroke_2x" transform="translate(39470 -4537)" fill="#F99531"/>
</g>
</g>
<g id="Vector 12">
<use xlink:href="#path2_fill" transform="translate(39640 -4485)" fill="#F99531"/>
</g>
<g id="Forward">
<g id="Rectangle 55">
<mask id="mask1_outline_ins">
<use xlink:href="#path3_fill" fill="white" transform="translate(39460 -4551)"/>
</mask>
<g mask="url(#mask1_outline_ins)">
<use xlink:href="#path4_stroke_2x" transform="translate(39460 -4551)" fill="#F99531"/>
</g>
</g>
<g id="Subtract">
<use xlink:href="#path5_fill" transform="translate(39593 -4515)" fill="#F99531"/>
</g>
<g id="Ellipse 3">
<use xlink:href="#path6_fill" transform="translate(39480 -4531)" fill="#F99531"/>
</g>
<g id="Ellipse 3">
<use xlink:href="#path6_fill" transform="translate(39490 -4531)" fill="#F99531"/>
</g>
<g id="Union">
<use xlink:href="#path7_fill" transform="translate(39480 -4483)" fill="#F99531"/>
</g>
<g id="Union">
<use xlink:href="#path7_fill" transform="translate(39518 -4483)" fill="#F99531"/>
</g>
<g id="Union">
<use xlink:href="#path7_fill" transform="translate(39556 -4483)" fill="#F99531"/>
</g>
<g id="Union">
<use xlink:href="#path7_fill" transform="translate(39594 -4483)" fill="#F99531"/>
</g>
</g>
</g>
<g id="01/17">
<use xlink:href="#path8_fill" transform="translate(39518 -4465)" fill="#F99531"/>
<use xlink:href="#path9_fill" transform="translate(39518 -4465)" fill="#F99531"/>
<use xlink:href="#path10_fill" transform="translate(39518 -4465)" fill="#F99531"/>
<use xlink:href="#path11_fill" transform="translate(39518 -4465)" fill="#F99531"/>
<use xlink:href="#path12_fill" transform="translate(39518 -4465)" fill="#F99531"/>
</g>
<g id="Line 2">
<use xlink:href="#path13_stroke" transform="translate(39480 -4463)" fill="#F99531"/>
</g>
<g id="Line 2">
<use xlink:href="#path14_stroke" transform="translate(39480.5 -4459.5)" fill="#F99531"/>
</g>
</g>
</g>
<defs>
<path id="path0_fill" d="M 181 104L 181 6C 181 2.68629 178.314 0 175 0L 169 0L 169 90C 169 92.7614 166.761 95 164 95L 0 95L 0 104C 0 107.314 2.68629 110 6 110L 175 110C 178.314 110 181 107.314 181 104Z"/>
<path id="path1_stroke_2x" d="M 0 95L 0 94L -1 94L -1 95L 0 95ZM 169 0L 169 -1L 168 -1L 168 0L 169 0ZM 180 6L 180 104L 182 104L 182 6L 180 6ZM 175 109L 6 109L 6 111L 175 111L 175 109ZM 1 104L 1 95L -1 95L -1 104L 1 104ZM 169 1L 175 1L 175 -1L 169 -1L 169 1ZM 168 0L 168 90L 170 90L 170 0L 168 0ZM 164 94L 0 94L 0 96L 164 96L 164 94ZM 182 6C 182 2.13401 178.866 -1 175 -1L 175 1C 177.761 1 180 3.23858 180 6L 182 6ZM 180 104C 180 106.761 177.761 109 175 109L 175 111C 178.866 111 182 107.866 182 104L 180 104ZM 6 109C 3.23858 109 1 106.761 1 104L -1 104C -1 107.866 2.13401 111 6 111L 6 109ZM 168 90C 168 92.2091 166.209 94 164 94L 164 96C 167.314 96 170 93.3137 170 90L 168 90Z"/>
<path id="path2_fill" d="M 10 0L 0 0L 0 31L 10 31L 10 0Z"/>
<path id="path3_fill" d="M 0 6C 0 2.68629 2.68629 0 6 0L 174 0C 177.314 0 180 2.68629 180 6L 180 104C 180 107.314 177.314 110 174 110L 6 110C 2.68629 110 0 107.314 0 104L 0 6Z"/>
<path id="path4_stroke_2x" d="M 6 1L 174 1L 174 -1L 6 -1L 6 1ZM 179 6L 179 104L 181 104L 181 6L 179 6ZM 174 109L 6 109L 6 111L 174 111L 174 109ZM 1 104L 1 6L -1 6L -1 104L 1 104ZM 6 -1C 2.13401 -1 -1 2.13401 -1 6L 1 6C 1 3.23858 3.23858 1 6 1L 6 -1ZM 174 1C 176.761 1 179 3.23858 179 6L 181 6C 181 2.13401 177.866 -1 174 -1L 174 1ZM 179 104C 179 106.761 176.761 109 174 109L 174 111C 177.866 111 181 107.866 181 104L 179 104ZM 6 109C 3.23858 109 1 106.761 1 104L -1 104C -1 107.866 2.13401 111 6 111L 6 109Z"/>
<path id="path5_fill" fill-rule="evenodd" d="M 17.5 20L 25 20C 26.1055 20 27 19.1045 27 18L 27 15.5L 17.5 15.5L 17.5 20ZM 16.5 20L 16.5 15L 16.5 10L 16.5 5L 16.5 0L 6.15625 0C 5.62109 0 5.10547 0.21582 4.73047 0.598877L 0.574219 4.83325C 0.207031 5.20703 0 5.71021 0 6.23438L 0 10.5L 9 10.5C 10.3789 10.5 11.5 11.6194 11.5 13L 11.5 15L 11.5 20L 16.5 20ZM 10.5 20L 10.5 15.5L 0 15.5L 0 18C 0 19.1045 0.894531 20 2 20L 10.5 20ZM 0 14.5L 10.5 14.5L 10.5 13C 10.5 12.1716 9.82812 11.5 9 11.5L 0 11.5L 0 14.5ZM 17.5 0L 25 0C 26.1055 0 27 0.895508 27 2L 27 4.5L 17.5 4.5L 17.5 0ZM 27 5.5L 17.5 5.5L 17.5 9.5L 27 9.5L 27 5.5ZM 27 10.5L 17.5 10.5L 17.5 14.5L 27 14.5L 27 10.5Z"/>
<path id="path6_fill" d="M 18 9C 18 13.9706 13.9706 18 9 18C 4.02944 18 0 13.9706 0 9C 0 4.02944 4.02944 0 9 0C 13.9706 0 18 4.02944 18 9Z"/>
<path id="path7_fill" fill-rule="evenodd" d="M 2.5 5C 3.87891 5 5 3.88062 5 2.5C 5 1.11938 3.87891 0 2.5 0C 1.12109 0 0 1.11938 0 2.5C 0 3.88062 1.12109 5 2.5 5ZM 9.5 5C 10.8789 5 12 3.88062 12 2.5C 12 1.11938 10.8789 0 9.5 0C 8.12109 0 7 1.11938 7 2.5C 7 3.88062 8.12109 5 9.5 5ZM 19 2.5C 19 3.88062 17.8789 5 16.5 5C 15.1211 5 14 3.88062 14 2.5C 14 1.11938 15.1211 0 16.5 0C 17.8789 0 19 1.11938 19 2.5ZM 23.5 5C 24.8789 5 26 3.88062 26 2.5C 26 1.11938 24.8789 0 23.5 0C 22.1211 0 21 1.11938 21 2.5C 21 3.88062 22.1211 5 23.5 5Z"/>
<path id="path8_fill" d="M 3.87334 4.03308C 3.87334 4.44382 3.8284 4.80649 3.73851 5.1211C 3.65135 5.43279 3.52469 5.69496 3.35853 5.90762C 3.19237 6.11735 2.98944 6.27611 2.74974 6.38389C 2.51004 6.49168 2.24038 6.54557 1.94076 6.54557C 1.64385 6.54557 1.37555 6.49168 1.13585 6.38389C 0.896153 6.27611 0.691862 6.11735 0.522983 5.90762C 0.356827 5.69496 0.227443 5.43279 0.134831 5.1211C 0.0449438 4.80649 0 4.44382 0 4.03308L 0 2.51248C 0 2.10175 0.0449438 1.74053 0.134831 1.42884C 0.224719 1.11423 0.352741 0.85206 0.518897 0.642322C 0.687777 0.429671 0.890705 0.269455 1.12768 0.161673C 1.36738 0.053891 1.63568 0 1.93258 0C 2.23221 0 2.50187 0.053891 2.74157 0.161673C 2.98127 0.269455 3.1842 0.429671 3.35036 0.642322C 3.51924 0.85206 3.64862 1.11423 3.73851 1.42884C 3.8284 1.74053 3.87334 2.10175 3.87334 2.51248L 3.87334 4.03308ZM 0.980592 3.63546L 2.88458 2.11923C 2.86279 1.68519 2.7729 1.36475 2.61491 1.15793C 2.45965 0.94819 2.23221 0.843321 1.93258 0.843321C 1.61389 0.843321 1.37555 0.964211 1.21757 1.20599C 1.05958 1.44777 0.980592 1.81918 0.980592 2.32022L 0.980592 3.63546ZM 2.89275 2.9407L 0.988764 4.45693C 1.03779 5.29005 1.35512 5.70662 1.94076 5.70662C 2.57542 5.70662 2.89275 5.20995 2.89275 4.2166L 2.89275 2.9407Z"/>
<path id="path9_fill" d="M 7.72217 6.45381L 6.73749 6.45381L 6.73749 1.38077L 5.21757 1.97503L 5.21757 1.05743L 7.66088 0.0917603L 7.72217 0.0917603L 7.72217 6.45381Z"/>
<path id="path10_fill" d="M 11.3136 7L 10.4229 7L 12.7763 0.0917603L 13.667 0.0917603L 11.3136 7Z"/>
<path id="path11_fill" d="M 17.7732 6.45381L 16.7886 6.45381L 16.7886 1.38077L 15.2686 1.97503L 15.2686 1.05743L 17.712 0.0917603L 17.7732 0.0917603L 17.7732 6.45381Z"/>
<path id="path12_fill" d="M 24 0.672909L 21.618 6.45381L 20.5884 6.45381L 22.9704 0.961298L 19.8856 0.961298L 19.8856 0.0917603L 24 0.0917603L 24 0.672909Z"/>
<path id="path13_stroke" d="M 0.5 -1C 0.223858 -1 0 -0.776142 0 -0.5C 0 -0.223858 0.223858 0 0.5 0L 0.5 -1ZM 24.5 0C 24.7761 0 25 -0.223858 25 -0.5C 25 -0.776142 24.7761 -1 24.5 -1L 24.5 0ZM 0.5 0L 24.5 0L 24.5 -1L 0.5 -1L 0.5 0Z"/>
<path id="path14_stroke" d="M 0 -0.5C -0.276142 -0.5 -0.5 -0.276142 -0.5 0C -0.5 0.276142 -0.276142 0.5 0 0.5L 0 -0.5ZM 13 0.5C 13.2761 0.5 13.5 0.276142 13.5 0C 13.5 -0.276142 13.2761 -0.5 13 -0.5L 13 0.5ZM 0 0.5L 13 0.5L 13 -0.5L 0 -0.5L 0 0.5Z"/>
</defs>
</svg>
