<svg width="197" height="129" viewBox="0 0 197 129" version="1.1" xmlns="http://www.w3.org/2000/svg" xmlns:xlink="http://www.w3.org/1999/xlink">
<title>internet for home</title>
<desc>Created using Figma</desc>
<g id="Canvas" transform="translate(-9373 -1385)">
<g id="internet for home">
<g id="Layer 2">
<g id="Layer 1">
<g id="Vector">
<use xlink:href="#path0_fill" transform="translate(9373 1506.63)" fill="#FFFFFF"/>
</g>
<g id="Vector">
<use xlink:href="#path1_fill" transform="translate(9513.11 1408.96)" fill="#FFFFFF"/>
</g>
<g id="Vector">
<use xlink:href="#path2_fill" transform="translate(9513.1 1408.96)" fill="#FFFFFF"/>
</g>
<g id="Vector">
<use xlink:href="#path3_fill" transform="translate(9522.89 1437.21)" fill="#FFFFFF"/>
</g>
<g id="Vector">
<use xlink:href="#path4_fill" transform="translate(9523.5 1448.55)" fill="#FFFFFF"/>
</g>
<g id="Vector">
<use xlink:href="#path5_fill" transform="translate(9522.6 1447.95)" fill="#FFFFFF"/>
</g>
<g id="Vector">
<use xlink:href="#path6_fill" transform="translate(9539.41 1442.74)" fill="#FFFFFF"/>
</g>
<g id="Vector">
<use xlink:href="#path7_fill" transform="translate(9538.8 1442.13)" fill="#FFFFFF"/>
</g>
<g id="Vector">
<use xlink:href="#path8_fill" transform="translate(9373 1385)" fill="#FFFFFF"/>
</g>
<g id="Vector">
<use xlink:href="#path9_stroke" transform="translate(9384.62 1507.24)" fill="#FFFFFF"/>
</g>
<g id="Vector">
<use xlink:href="#path10_fill" transform="translate(9391.35 1391.14)" fill="#FFFFFF"/>
</g>
<g id="Vector">
<use xlink:href="#path11_fill" transform="translate(9408.48 1504.17)" fill="#FFFFFF"/>
</g>
<g id="Vector">
<use xlink:href="#path11_fill" transform="translate(9417.05 1504.17)" fill="#FFFFFF"/>
</g>
<g id="Vector">
<use xlink:href="#path11_fill" transform="translate(9425.61 1504.17)" fill="#FFFFFF"/>
</g>
<g id="Vector">
<use xlink:href="#path11_fill" transform="translate(9434.18 1504.17)" fill="#FFFFFF"/>
</g>
<g id="Vector">
<use xlink:href="#path11_fill" transform="translate(9501.48 1504.17)" fill="#FFFFFF"/>
</g>
<g id="Vector">
<use xlink:href="#path11_fill" transform="translate(9510.04 1504.17)" fill="#FFFFFF"/>
</g>
<g id="Vector">
<use xlink:href="#path11_fill" transform="translate(9518.61 1504.17)" fill="#FFFFFF"/>
</g>
<g id="Vector">
<use xlink:href="#path11_fill" transform="translate(9527.17 1504.17)" fill="#FFFFFF"/>
</g>
<g id="Vector">
<use xlink:href="#path12_fill" transform="translate(9442.75 1504.17)" fill="#FFFFFF"/>
</g>
<g id="Vector">
<use xlink:href="#path13_fill" transform="translate(9374.17 1408.96)" fill="#FFFFFF"/>
</g>
<g id="Vector">
<use xlink:href="#path14_fill" transform="translate(9374.19 1408.96)" fill="#FFFFFF"/>
</g>
<g id="Vector">
<use xlink:href="#path15_fill" transform="translate(9384.62 1437.83)" fill="#FFFFFF"/>
</g>
<g id="Vector">
<use xlink:href="#path16_fill" transform="translate(9384.01 1437.21)" fill="#FFFFFF"/>
</g>
<g id="Vector">
<use xlink:href="#path17_fill" transform="translate(9443.99 1408.96)" fill="#FFFFFF"/>
</g>
<g id="Vector">
<use xlink:href="#path18_fill" transform="translate(9443.97 1408.96)" fill="#FFFFFF"/>
</g>
<g id="Vector">
<use xlink:href="#path19_fill" transform="translate(9462.72 1434.39)" fill="#FFFFFF"/>
</g>
<g id="Vector">
<use xlink:href="#path20_fill" transform="translate(9462.16 1433.07)" fill="#FFFFFF"/>
</g>
</g>
</g>
</g>
</g>
<defs>
<path id="path0_fill" d="M 195.776 1.22859L 195.776 6.14288L 1.2236 6.14288L 1.2236 1.22859L 85.7378 1.22859L 87.3652 3.44002L 87.3652 3.51374L 87.4264 3.57517C 87.8832 4.0366 88.5037 4.29728 89.1517 4.30002L 107.787 4.30002C 108.435 4.29728 109.056 4.0366 109.512 3.57517L 109.574 3.51374L 109.574 3.44002L 111.201 1.22859L 195.776 1.22859ZM 195.776 2.05347e-05L 111.238 2.05347e-05C 111.077 -0.000914277 110.917 0.0300736 110.768 0.0912129C 110.619 0.152352 110.483 0.242442 110.369 0.356307L 108.644 2.70287C 108.529 2.81674 108.394 2.90683 108.245 2.96797C 108.096 3.02911 107.936 3.0601 107.775 3.05916L 89.2129 3.05916C 89.0518 3.0601 88.8922 3.02911 88.7431 2.96797C 88.594 2.90683 88.4584 2.81674 88.3441 2.70287L 86.6188 0.356307C 86.5045 0.242442 86.3689 0.152352 86.2198 0.0912129C 86.0707 0.0300736 85.9111 -0.000914277 85.7501 2.05347e-05L 1.2236 2.05347e-05C 0.899083 2.05347e-05 0.587855 0.129458 0.358385 0.35986C 0.128915 0.590262 3.31127e-16 0.902754 0 1.22859L 2.37733e-16 6.14288C 4.16032e-16 6.46872 0.128915 6.78121 0.358385 7.01161C 0.587855 7.24201 0.899083 7.37145 1.2236 7.37145L 195.776 7.37145C 196.101 7.37145 196.412 7.24201 196.642 7.01161C 196.871 6.78121 197 6.46872 197 6.14288L 197 1.22859C 197 0.902754 196.871 0.590262 196.642 0.35986C 196.412 0.129458 196.101 2.05347e-05 195.776 2.05347e-05Z"/>
<path id="path1_fill" d="M 52.6027 1.22857L 52.6027 68.8L 1.21139 68.8L 1.21139 12.212L 6.7176 6.75714L 12.2116 1.26543L 52.5905 1.26543L 52.6027 1.22857ZM 52.5905 0.036858L 12.2116 0.036858C 12.0505 0.0359232 11.8909 0.0669134 11.7418 0.128053C 11.5927 0.189192 11.4571 0.279277 11.3428 0.393142L 5.84884 5.88486L 0.354869 11.3766C 0.241464 11.4914 0.151739 11.6275 0.0908467 11.7772C 0.0299546 11.9269 -0.000907965 12.0872 2.30655e-05 12.2489L 2.30655e-05 68.8C 2.30655e-05 69.1258 0.128937 69.4383 0.358407 69.6687C 0.587877 69.8991 0.899106 70.0286 1.22363 70.0286L 52.6149 70.0286C 52.9394 70.0286 53.2507 69.8991 53.4801 69.6687C 53.7096 69.4383 53.8385 69.1258 53.8385 68.8L 53.8385 1.22857C 53.8385 0.902734 53.7096 0.590241 53.4801 0.359839C 53.2507 0.129437 52.9394 0 52.6149 0L 52.5905 0.036858Z"/>
<path id="path2_fill" d="M 11.6289 1.84286L 11.6289 11.6714L 1.77893 11.6714L 11.6289 1.84286ZM 12.7669 0.024572C 12.4256 0.0134127 12.0842 0.0464464 11.7513 0.122858C 11.4558 0.314439 11.1847 0.541337 10.9437 0.798571L 0.787811 10.9466C 0.527017 11.1829 0.296814 11.4512 0.102596 11.7451C 0.0197567 12.1491 -0.0131234 12.5617 0.00470578 12.9737L 11.6289 12.9737C 11.9534 12.9737 12.2647 12.8443 12.4941 12.6139C 12.7236 12.3835 12.8525 12.071 12.8525 11.7451L 12.8525 0L 12.7669 0.024572Z"/>
<path id="path3_fill" d="M 33.0373 1.22857L 33.0373 23.3429L 1.2236 23.3429L 1.2236 1.22857L 33.0373 1.22857ZM 33.0373 0L 1.2236 0C 0.899083 0 0.587854 0.129437 0.358384 0.359839C 0.128914 0.590241 0 0.902734 0 1.22857L 0 23.3429C 0 23.6687 0.128914 23.9812 0.358384 24.2116C 0.587854 24.442 0.899083 24.5714 1.2236 24.5714L 33.0373 24.5714C 33.3618 24.5714 33.673 24.442 33.9025 24.2116C 34.132 23.9812 34.2609 23.6687 34.2609 23.3429L 34.2609 1.22857C 34.2609 0.902734 34.132 0.590241 33.9025 0.359839C 33.673 0.129437 33.3618 0 33.0373 0Z"/>
<path id="path4_fill" d="M 0.611801 12.6174C 0.449541 12.6174 0.293927 12.5527 0.179192 12.4375C 0.064457 12.3223 0 12.1661 0 12.0031L 0 6.16743L 7.8433 0.233426C 7.90665 0.162236 7.98384 0.104808 8.07011 0.0646655C 8.15638 0.0245233 8.24992 0.0025169 8.34498 -5.62395e-07C 8.425 0.000467346 8.5041 0.0170154 8.57765 0.0486654C 8.6512 0.0803154 8.7177 0.126429 8.77323 0.184287L 16.4452 7.88743C 16.7894 8.23254 17.2559 8.42638 17.7422 8.42638C 18.2286 8.42638 18.6951 8.23254 19.0393 7.88743L 23.9337 4.20172C 23.997 4.13053 24.0742 4.07309 24.1605 4.03295C 24.2467 3.99281 24.3403 3.9708 24.4353 3.96828C 24.5154 3.96875 24.5945 3.9853 24.668 4.01695C 24.7416 4.0486 24.8081 4.09471 24.8636 4.15257L 33.0373 10.4551L 33.0373 12.0031C 33.0373 12.1661 32.9728 12.3223 32.8581 12.4375C 32.7433 12.5527 32.5877 12.6174 32.4255 12.6174L 0.611801 12.6174Z"/>
<path id="path5_fill" d="M 9.2382 1.21631L 16.9102 8.91945C 17.3564 9.36873 17.9583 9.62731 18.5901 9.64104C 19.2219 9.65478 19.8344 9.42263 20.2996 8.99317L 25.194 5.24602L 25.2674 5.24602L 33.1107 11.3889L 33.1107 12.6174L 1.29702 12.6174L 1.29702 7.07659L 8.89559 1.32688L 8.95677 1.32688L 9.2382 1.21631ZM 8.95677 0.0983059C 8.79574 0.0973711 8.6361 0.128364 8.48702 0.189503C 8.33794 0.250642 8.20234 0.340727 8.08801 0.454593L 2.6139e-06 6.59745L 2.6139e-06 12.7403C 2.6139e-06 13.0661 0.128917 13.3786 0.358387 13.609C 0.587857 13.8394 0.899086 13.9689 1.22361 13.9689L 33.0373 13.9689C 33.3618 13.9689 33.673 13.8394 33.9025 13.609C 34.1319 13.3786 34.2609 13.0661 34.2609 12.7403L 34.2609 10.7623L 25.9526 4.26316C 25.7234 4.03434 25.4132 3.90591 25.09 3.90591C 24.7667 3.90591 24.4566 4.03434 24.2273 4.26316L 19.2228 8.05945C 18.9935 8.28827 18.6834 8.41671 18.3602 8.41671C 18.0369 8.41671 17.7268 8.28827 17.4975 8.05945L 9.82552 0.356305C 9.71119 0.242439 9.57561 0.152354 9.42653 0.091215C 9.27745 0.0300756 9.11781 -0.000912215 8.95677 2.25968e-05L 8.95677 0.0983059Z"/>
<path id="path6_fill" d="M 2.75311 5.52857C 4.2736 5.52857 5.50621 4.29096 5.50621 2.76429C 5.50621 1.23761 4.2736 0 2.75311 0C 1.23261 0 0 1.23761 0 2.76429C 0 4.29096 1.23261 5.52857 2.75311 5.52857Z"/>
<path id="path7_fill" d="M 3.36491 1.22857C 3.78842 1.22857 4.20241 1.35467 4.55455 1.59091C 4.90668 1.82716 5.18115 2.16294 5.34322 2.5558C 5.50529 2.94866 5.54769 3.38096 5.46506 3.79802C 5.38244 4.21507 5.17851 4.59817 4.87905 4.89885C 4.57958 5.19954 4.19804 5.4043 3.78266 5.48726C 3.36729 5.57022 2.93674 5.52764 2.54547 5.36491C 2.1542 5.20219 1.81976 4.92661 1.58447 4.57305C 1.34918 4.21948 1.2236 3.8038 1.2236 3.37857C 1.2236 2.80836 1.4492 2.26149 1.85077 1.85829C 2.25234 1.45509 2.797 1.22857 3.36491 1.22857ZM 3.36491 0C 2.69939 0 2.04882 0.19815 1.49547 0.569393C 0.942112 0.940635 0.510827 1.46829 0.256145 2.08565C 0.00146291 2.703 -0.0651776 3.38232 0.0646581 4.0377C 0.194494 4.69308 0.514962 5.29508 0.985553 5.76758C 1.45614 6.24008 2.05572 6.56186 2.70845 6.69222C 3.36117 6.82259 4.03775 6.75568 4.65261 6.49996C 5.26746 6.24425 5.79299 5.81121 6.16273 5.2556C 6.53247 4.7 6.72982 4.04679 6.72982 3.37857C 6.72982 2.48252 6.37531 1.62317 5.74426 0.989563C 5.11322 0.355958 4.25734 0 3.36491 0Z"/>
<path id="path8_fill" d="M 195.776 121.629L 184.764 121.629L 184.764 93.3714L 183.54 93.3714L 183.54 122.857L 195.776 122.857L 195.776 127.771L 1.2236 127.771L 1.2236 122.857L 13.4596 122.857L 13.4596 93.3714L 12.236 93.3714L 12.236 121.629L 1.2236 121.629C 0.899083 121.629 0.587855 121.758 0.358385 121.988C 0.128915 122.219 3.31127e-16 122.531 0 122.857L 2.37733e-16 127.771C 4.16032e-16 128.097 0.128915 128.41 0.358385 128.64C 0.587855 128.871 0.899083 129 1.2236 129L 195.776 129C 196.101 129 196.412 128.871 196.642 128.64C 196.871 128.41 197 128.097 197 127.771L 197 122.857C 197 122.531 196.871 122.219 196.642 121.988C 196.412 121.758 196.101 121.629 195.776 121.629ZM 13.4596 24.5714L 13.4596 3.68571C 13.4596 3.03404 13.7175 2.40906 14.1764 1.94825C 14.6353 1.48745 15.2578 1.22857 15.9068 1.22857L 181.093 1.22857C 181.742 1.22857 182.365 1.48745 182.824 1.94825C 183.283 2.40906 183.54 3.03404 183.54 3.68571L 183.54 24.5714L 184.764 24.5714L 184.764 3.68571C 184.764 2.7082 184.377 1.77073 183.689 1.07952C 183 0.388315 182.067 7.84293e-16 181.093 2.04598e-16L 15.9068 0C 14.9333 8.86592e-16 13.9996 0.388315 13.3112 1.07952C 12.6228 1.77073 12.236 2.7082 12.236 3.68571L 12.236 24.5714L 13.4596 24.5714Z"/>
<path id="path9_stroke" d="M 0 -0.5C -0.276142 -0.5 -0.5 -0.276142 -0.5 0C -0.5 0.276142 -0.276142 0.5 0 0.5L 0 -0.5ZM 172.528 0.5C 172.804 0.5 173.028 0.276142 173.028 0C 173.028 -0.276142 172.804 -0.5 172.528 -0.5L 172.528 0.5ZM 0 0.5L 172.528 0.5L 172.528 -0.5L 0 -0.5L 0 0.5Z"/>
<path id="path10_fill" d="M 159.068 106.886L 1.2236 106.886L 1.2236 87.2286L 0 87.2286L 0 106.886C 0 107.212 0.128915 107.524 0.358385 107.754C 0.587855 107.985 0.899083 108.114 1.2236 108.114L 159.068 108.114C 159.393 108.114 159.704 107.985 159.934 107.754C 160.163 107.524 160.292 107.212 160.292 106.886L 160.292 87.2286L 159.068 87.2286L 159.068 106.886ZM 159.068 0L 1.2236 0C 0.899083 0 0.587855 0.129439 0.358385 0.35984C 0.128915 0.590242 0 0.902734 0 1.22857L 0 18.4286L 1.2236 18.4286L 1.2236 1.22857L 159.068 1.22857L 159.068 18.4286L 160.292 18.4286L 160.292 1.22857C 160.292 0.902734 160.163 0.590242 159.934 0.35984C 159.704 0.129439 159.393 0 159.068 0Z"/>
<path id="path11_fill" d="M 4.89441 1.22857L 4.89441 2.45714L 1.2236 2.45714L 1.2236 1.22857L 4.89441 1.22857ZM 4.89441 0L 1.2236 0C 0.899083 0 0.587854 0.129437 0.358384 0.359839C 0.128914 0.590241 0 0.902734 0 1.22857L 0 3.68571L 6.11801 3.68571L 6.11801 1.22857C 6.11801 0.902734 5.9891 0.590241 5.75963 0.359839C 5.53016 0.129437 5.21893 0 4.89441 0Z"/>
<path id="path12_fill" d="M 55.0621 1.22857L 55.0621 2.45714L 1.2236 2.45714L 1.2236 1.22857L 55.0621 1.22857ZM 55.0621 0L 1.2236 0C 0.899083 0 0.587854 0.129437 0.358384 0.359839C 0.128914 0.590241 0 0.902734 0 1.22857L 0 3.68571L 56.2857 3.68571L 56.2857 1.22857C 56.2857 0.902734 56.1568 0.590241 55.9273 0.359839C 55.6979 0.129437 55.3866 0 55.0621 0Z"/>
<path id="path13_fill" d="M 52.6639 1.22857L 52.6639 68.8L 1.27257 68.8L 1.27257 12.212L 6.7176 6.75714L 12.2116 1.26543L 52.6639 1.26543L 52.6639 1.22857ZM 52.6639 0.036858L 12.285 0.036858C 12.124 0.0359232 11.9643 0.0669134 11.8152 0.128053C 11.6662 0.189192 11.5306 0.279277 11.4162 0.393142L 5.84884 5.848L 0.354865 11.352C 0.24146 11.4668 0.151739 11.6029 0.090847 11.7526C 0.0299549 11.9023 -0.000910605 12.0626 2.04254e-05 12.2243L 2.04254e-05 68.8C 2.04254e-05 69.1258 0.128935 69.4383 0.358405 69.6687C 0.587875 69.8991 0.899104 70.0286 1.22362 70.0286L 52.6639 70.0286C 52.9884 70.0286 53.2996 69.8991 53.5291 69.6687C 53.7586 69.4383 53.8875 69.1258 53.8875 68.8L 53.8875 1.22857C 53.8875 0.902734 53.7586 0.590241 53.5291 0.359839C 53.2996 0.129437 52.9884 0 52.6639 0L 52.6639 0.036858Z"/>
<path id="path14_fill" d="M 11.6129 1.84286L 11.6129 11.6714L 1.75067 11.6714L 11.6007 1.84286L 11.6129 1.84286ZM 12.7386 0.024572C 12.3973 0.0134127 12.056 0.0464464 11.723 0.122858C 11.4276 0.314439 11.1564 0.541337 10.9155 0.798571L 0.771791 10.922C 0.496876 11.1401 0.250237 11.3918 0.0376296 11.6714C -0.0125432 12.0794 -0.0125432 12.492 0.0376296 12.9L 11.6619 12.9C 11.9864 12.9 12.2976 12.7706 12.5271 12.5402C 12.7565 12.3098 12.8855 11.9973 12.8855 11.6714L 12.8855 0L 12.7386 0.024572Z"/>
<path id="path15_fill" d="M 32.4255 0L 0.611801 0C 0.449541 0 0.293927 0.0647187 0.179192 0.17992C 0.064457 0.295121 0 0.451367 0 0.614286L 0 22.7286C 0 22.8915 0.064457 23.0477 0.179192 23.1629C 0.293927 23.2781 0.449541 23.3429 0.611801 23.3429L 32.4255 23.3429C 32.5877 23.3429 32.7433 23.2781 32.8581 23.1629C 32.9728 23.0477 33.0373 22.8915 33.0373 22.7286L 33.0373 0.614286C 33.0373 0.451367 32.9728 0.295121 32.8581 0.17992C 32.7433 0.0647187 32.5877 0 32.4255 0ZM 4.95559 4.91429L 4.95559 7.37143L 1.28478 7.37143L 1.28478 4.91429L 4.95559 4.91429ZM 1.28478 3.68571L 1.28478 1.22857L 4.95559 1.22857L 4.95559 3.68571L 1.28478 3.68571ZM 4.95559 8.6L 4.95559 11.0571L 1.28478 11.0571L 1.28478 8.6L 4.95559 8.6ZM 4.95559 12.2857L 4.95559 14.7429L 1.28478 14.7429L 1.28478 12.2857L 4.95559 12.2857ZM 4.95559 15.9714L 4.95559 18.4286L 1.28478 18.4286L 1.28478 15.9714L 4.95559 15.9714ZM 4.95559 19.6571L 4.95559 22.1143L 1.28478 22.1143L 1.28478 19.6571L 4.95559 19.6571ZM 12.9702 14.9149L 12.9702 8.428C 12.9693 8.38132 12.9805 8.33521 13.0027 8.29417C 13.0249 8.25313 13.0572 8.21855 13.0967 8.19381C 13.1361 8.16907 13.1812 8.155 13.2277 8.15298C 13.2741 8.15096 13.3203 8.16106 13.3617 8.18229L 19.8224 11.4257C 19.8656 11.4504 19.9016 11.4861 19.9266 11.5293C 19.9516 11.5724 19.9648 11.6215 19.9648 11.6714C 19.9648 11.7214 19.9516 11.7704 19.9266 11.8136C 19.9016 11.8567 19.8656 11.8925 19.8224 11.9171L 13.3617 15.1606C 13.3203 15.1818 13.2741 15.1919 13.2277 15.1899C 13.1812 15.1879 13.1361 15.1738 13.0967 15.149C 13.0572 15.1243 13.0249 15.0897 13.0027 15.0487C 12.9805 15.0076 12.9693 14.9615 12.9702 14.9149ZM 31.8748 8.6L 31.8748 11.0571L 28.204 11.0571L 28.204 8.6L 31.8748 8.6ZM 28.204 7.37143L 28.204 4.91429L 31.8748 4.91429L 31.8748 7.37143L 28.204 7.37143ZM 31.8748 12.2857L 31.8748 14.7429L 28.204 14.7429L 28.204 12.2857L 31.8748 12.2857ZM 31.8748 15.9714L 31.8748 18.4286L 28.204 18.4286L 28.204 15.9714L 31.8748 15.9714ZM 31.8748 19.6571L 31.8748 22.1143L 28.204 22.1143L 28.204 19.6571L 31.8748 19.6571ZM 31.8748 3.68571L 28.204 3.68571L 28.204 1.22857L 31.8748 1.22857L 31.8748 3.68571Z"/>
<path id="path16_fill" d="M 33.0373 0L 1.2236 0C 0.899083 0 0.587855 0.129437 0.358385 0.359839C 0.128915 0.590241 0 0.902734 0 1.22857L 0 23.3429C 0 23.6687 0.128915 23.9812 0.358385 24.2116C 0.587855 24.442 0.899083 24.5714 1.2236 24.5714L 33.0373 24.5714C 33.3618 24.5714 33.673 24.442 33.9025 24.2116C 34.132 23.9812 34.2609 23.6687 34.2609 23.3429L 34.2609 1.22857C 34.2609 0.902734 34.132 0.590241 33.9025 0.359839C 33.673 0.129437 33.3618 0 33.0373 0ZM 1.2236 1.22857L 33.0373 1.22857L 33.0373 23.3429L 1.2236 23.3429L 1.2236 1.22857Z"/>
<path id="path17_fill" d="M 52.5905 1.22859L 52.5905 68.8L 1.19915 68.8L 1.19915 12.212L 6.69313 6.75716L 12.2116 1.22859L 52.5905 1.22859ZM 52.5905 2.05347e-05L 12.2116 2.05347e-05C 12.0505 -0.000914277 11.8909 0.0300759 11.7418 0.0912153C 11.5927 0.152355 11.4572 0.242442 11.3428 0.356307L 5.84884 5.84802L 0.354867 11.3397C 0.241462 11.4545 0.151741 11.5907 0.0908493 11.7404C 0.0299572 11.89 -0.000910019 12.0503 2.10118e-05 12.212L 2.10118e-05 68.8C 2.10118e-05 69.1259 0.128935 69.4383 0.358405 69.6687C 0.587875 69.8991 0.899104 70.0286 1.22362 70.0286L 52.6149 70.0286C 52.9394 70.0286 53.2507 69.8991 53.4801 69.6687C 53.7096 69.4383 53.8385 69.1259 53.8385 68.8L 53.8385 1.22859C 53.8385 0.902754 53.7096 0.590262 53.4801 0.35986C 53.2507 0.129458 52.9394 2.05347e-05 52.6149 2.05347e-05L 52.5905 2.05347e-05Z"/>
<path id="path18_fill" d="M 11.6266 1.84286L 11.6266 11.6714L 1.77662 11.6714L 11.6266 1.84286ZM 12.7646 0.024572C 12.4232 0.0134127 12.0819 0.0464464 11.749 0.122858C 11.4535 0.314439 11.1824 0.541337 10.9414 0.798571L 0.785499 10.9466C 0.524705 11.1829 0.294502 11.4512 0.100284 11.7451C 0.0232903 12.125 -0.00956084 12.5125 0.00239395 12.9L 11.6266 12.9C 11.9511 12.9 12.2624 12.7706 12.4918 12.5402C 12.7213 12.3098 12.8502 11.9973 12.8502 11.6714L 12.8502 0L 12.7646 0.024572Z"/>
<path id="path19_fill" d="M 3.55641 25.4314C 3.01924 25.4608 2.48186 25.3777 1.9784 25.1873C 1.47495 24.997 1.01643 24.7036 0.631994 24.3257C 0.384474 24.0363 0.202638 23.6963 0.0991043 23.3293C -0.0044297 22.9623 -0.0271792 22.577 0.0324313 22.2003C 0.240444 20.2837 2.47964 18.7234 4.92684 18.7234C 6.05797 18.7071 7.18921 18.7482 8.31623 18.8463L 8.43858 18.8463C 8.7631 18.8463 9.07433 18.7169 9.3038 18.4864C 9.53327 18.256 9.66219 17.9436 9.66219 17.6177L 9.66219 9.37326e-07L 9.82125 0.147428C 9.82125 0.147428 15.2418 5.23371 16.1718 7.69086C 16.4827 9.31473 16.3081 10.9947 15.6701 12.5191C 16.0739 10.3937 15.976 7.12571 11.5955 4.92657L 10.7145 4.48428L 10.7145 20.8243C 10.7145 22.6426 7.67995 24.51 4.8779 25.2594C 4.44598 25.3704 4.00223 25.4281 3.55641 25.4314Z"/>
<path id="path20_fill" d="M 10.8557 2.752C 12.5276 4.35569 14.0663 6.09375 15.4565 7.94886C 14.6202 6.99905 13.6002 6.22994 12.4586 5.68828L 10.8557 4.87743L 10.8557 2.752ZM 10.6844 19.7431L 10.6844 22.1389C 10.6844 23.4289 8.12707 25.2594 5.31279 25.9843C 4.91274 26.085 4.50161 26.1345 4.08919 26.1317C 3.64217 26.1551 3.19504 26.0878 2.77455 25.9337C 2.35407 25.7796 1.96886 25.5419 1.64198 25.2349C 1.45318 25.0094 1.3159 24.7452 1.2398 24.4608C 1.16369 24.1764 1.15061 23.8786 1.20148 23.5886C 1.38502 21.9546 3.33056 20.6523 5.54528 20.6523C 6.65195 20.6375 7.75866 20.6786 8.86124 20.7751L 9.05701 20.7751C 9.39909 20.7745 9.7339 20.6759 10.0221 20.4909C 10.3104 20.3059 10.5401 20.0423 10.6844 19.7309L 10.6844 19.7431ZM 10.2439 1.31226e-06C 10.0914 1.31226e-06 9.94511 0.0608341 9.83726 0.169123C 9.72941 0.277412 9.66881 0.424283 9.66881 0.577427L 9.66881 19.006C 9.66881 19.1591 9.60822 19.306 9.50037 19.4143C 9.39252 19.5226 9.24625 19.5834 9.09372 19.5834L 9.03254 19.5834C 7.88534 19.4804 6.7337 19.4353 5.58198 19.4483C 2.65757 19.4483 0.25931 21.2911 0.0268259 23.478C -0.266839 26.1317 1.89894 27.3849 4.15037 27.3849C 4.65772 27.3863 5.16327 27.3244 5.6554 27.2006C 8.65322 26.4389 11.957 24.3626 11.957 22.1634L 11.957 6.78172C 17.5611 9.59514 15.6278 14.1531 15.2362 15.5046C 15.016 16.3891 15.383 16.5489 15.6522 16.5489C 15.7334 16.5604 15.8158 16.5604 15.897 16.5489C 15.897 16.5489 18.3442 11.4503 17.3653 8.82114C 16.3864 6.192 10.819 1.06886 10.819 1.06886L 10.819 0.638859C 10.819 0.485715 10.7584 0.338844 10.6506 0.230555C 10.5427 0.122266 10.3964 0.0614289 10.2439 0.0614289L 10.2439 1.31226e-06Z"/>
</defs>
</svg>
