<svg width="178" height="1" viewBox="0 0 178 1" version="1.1" xmlns="http://www.w3.org/2000/svg" xmlns:xlink="http://www.w3.org/1999/xlink">
<title>Line</title>
<desc>Created using Figma</desc>
<g id="Canvas" transform="translate(-24220 5076)">
<g id="Line">
<use xlink:href="#path0_stroke" transform="translate(24220.5 -5075.5)" fill="#B8B7BC"/>
</g>
</g>
<defs>
<path id="path0_stroke" d="M 0 -0.5C -0.276142 -0.5 -0.5 -0.276142 -0.5 0C -0.5 0.276142 -0.276142 0.5 0 0.5L 0 -0.5ZM 177 0.5C 177.276 0.5 177.5 0.276142 177.5 0C 177.5 -0.276142 177.276 -0.5 177 -0.5L 177 0.5ZM 0.502841 0.5C 0.778983 0.5 1.00284 0.276142 1.00284 0C 1.00284 -0.276142 0.778983 -0.5 0.502841 -0.5L 0.502841 0.5ZM 3.51989 -0.5C 3.24374 -0.5 3.01989 -0.276142 3.01989 0C 3.01989 0.276142 3.24374 0.5 3.51989 0.5L 3.51989 -0.5ZM 4.52557 0.5C 4.80171 0.5 5.02557 0.276142 5.02557 0C 5.02557 -0.276142 4.80171 -0.5 4.52557 -0.5L 4.52557 0.5ZM 7.54261 -0.5C 7.26647 -0.5 7.04261 -0.276142 7.04261 0C 7.04261 0.276142 7.26647 0.5 7.54261 0.5L 7.54261 -0.5ZM 8.5483 0.5C 8.82444 0.5 9.0483 0.276142 9.0483 0C 9.0483 -0.276142 8.82444 -0.5 8.5483 -0.5L 8.5483 0.5ZM 11.5653 -0.5C 11.2892 -0.5 11.0653 -0.276142 11.0653 0C 11.0653 0.276142 11.2892 0.5 11.5653 0.5L 11.5653 -0.5ZM 12.571 0.5C 12.8472 0.5 13.071 0.276142 13.071 0C 13.071 -0.276142 12.8472 -0.5 12.571 -0.5L 12.571 0.5ZM 15.5881 -0.5C 15.3119 -0.5 15.0881 -0.276142 15.0881 0C 15.0881 0.276142 15.3119 0.5 15.5881 0.5L 15.5881 -0.5ZM 16.5938 0.5C 16.8699 0.5 17.0938 0.276142 17.0938 0C 17.0938 -0.276142 16.8699 -0.5 16.5938 -0.5L 16.5938 0.5ZM 19.6108 -0.5C 19.3347 -0.5 19.1108 -0.276142 19.1108 0C 19.1108 0.276142 19.3347 0.5 19.6108 0.5L 19.6108 -0.5ZM 20.6165 0.5C 20.8926 0.5 21.1165 0.276142 21.1165 0C 21.1165 -0.276142 20.8926 -0.5 20.6165 -0.5L 20.6165 0.5ZM 23.6335 -0.5C 23.3574 -0.5 23.1335 -0.276142 23.1335 0C 23.1335 0.276142 23.3574 0.5 23.6335 0.5L 23.6335 -0.5ZM 24.6392 0.5C 24.9153 0.5 25.1392 0.276142 25.1392 0C 25.1392 -0.276142 24.9153 -0.5 24.6392 -0.5L 24.6392 0.5ZM 27.6562 -0.5C 27.3801 -0.5 27.1562 -0.276142 27.1562 0C 27.1562 0.276142 27.3801 0.5 27.6562 0.5L 27.6562 -0.5ZM 28.6619 0.5C 28.9381 0.5 29.1619 0.276142 29.1619 0C 29.1619 -0.276142 28.9381 -0.5 28.6619 -0.5L 28.6619 0.5ZM 31.679 -0.5C 31.4028 -0.5 31.179 -0.276142 31.179 0C 31.179 0.276142 31.4028 0.5 31.679 0.5L 31.679 -0.5ZM 32.6847 0.5C 32.9608 0.5 33.1847 0.276142 33.1847 0C 33.1847 -0.276142 32.9608 -0.5 32.6847 -0.5L 32.6847 0.5ZM 35.7017 -0.5C 35.4256 -0.5 35.2017 -0.276142 35.2017 0C 35.2017 0.276142 35.4256 0.5 35.7017 0.5L 35.7017 -0.5ZM 36.7074 0.5C 36.9835 0.5 37.2074 0.276142 37.2074 0C 37.2074 -0.276142 36.9835 -0.5 36.7074 -0.5L 36.7074 0.5ZM 39.7244 -0.5C 39.4483 -0.5 39.2244 -0.276142 39.2244 0C 39.2244 0.276142 39.4483 0.5 39.7244 0.5L 39.7244 -0.5ZM 40.7301 0.5C 41.0063 0.5 41.2301 0.276142 41.2301 0C 41.2301 -0.276142 41.0063 -0.5 40.7301 -0.5L 40.7301 0.5ZM 43.7472 -0.5C 43.471 -0.5 43.2472 -0.276142 43.2472 0C 43.2472 0.276142 43.471 0.5 43.7472 0.5L 43.7472 -0.5ZM 44.7528 0.5C 45.029 0.5 45.2528 0.276142 45.2528 0C 45.2528 -0.276142 45.029 -0.5 44.7528 -0.5L 44.7528 0.5ZM 47.7699 -0.5C 47.4937 -0.5 47.2699 -0.276142 47.2699 0C 47.2699 0.276142 47.4937 0.5 47.7699 0.5L 47.7699 -0.5ZM 48.7756 0.5C 49.0517 0.5 49.2756 0.276142 49.2756 0C 49.2756 -0.276142 49.0517 -0.5 48.7756 -0.5L 48.7756 0.5ZM 51.7926 -0.5C 51.5165 -0.5 51.2926 -0.276142 51.2926 0C 51.2926 0.276142 51.5165 0.5 51.7926 0.5L 51.7926 -0.5ZM 52.7983 0.5C 53.0744 0.5 53.2983 0.276142 53.2983 0C 53.2983 -0.276142 53.0744 -0.5 52.7983 -0.5L 52.7983 0.5ZM 55.8153 -0.5C 55.5392 -0.5 55.3153 -0.276142 55.3153 0C 55.3153 0.276142 55.5392 0.5 55.8153 0.5L 55.8153 -0.5ZM 56.821 0.5C 57.0972 0.5 57.321 0.276142 57.321 0C 57.321 -0.276142 57.0972 -0.5 56.821 -0.5L 56.821 0.5ZM 59.8381 -0.5C 59.5619 -0.5 59.3381 -0.276142 59.3381 0C 59.3381 0.276142 59.5619 0.5 59.8381 0.5L 59.8381 -0.5ZM 60.8438 0.5C 61.1199 0.5 61.3438 0.276142 61.3438 0C 61.3438 -0.276142 61.1199 -0.5 60.8438 -0.5L 60.8438 0.5ZM 63.8608 -0.5C 63.5847 -0.5 63.3608 -0.276142 63.3608 0C 63.3608 0.276142 63.5847 0.5 63.8608 0.5L 63.8608 -0.5ZM 64.8665 0.5C 65.1426 0.5 65.3665 0.276142 65.3665 0C 65.3665 -0.276142 65.1426 -0.5 64.8665 -0.5L 64.8665 0.5ZM 67.8835 -0.5C 67.6074 -0.5 67.3835 -0.276142 67.3835 0C 67.3835 0.276142 67.6074 0.5 67.8835 0.5L 67.8835 -0.5ZM 68.8892 0.5C 69.1654 0.5 69.3892 0.276142 69.3892 0C 69.3892 -0.276142 69.1654 -0.5 68.8892 -0.5L 68.8892 0.5ZM 71.9062 -0.5C 71.6301 -0.5 71.4062 -0.276142 71.4062 0C 71.4062 0.276142 71.6301 0.5 71.9062 0.5L 71.9062 -0.5ZM 72.9119 0.5C 73.1881 0.5 73.4119 0.276142 73.4119 0C 73.4119 -0.276142 73.1881 -0.5 72.9119 -0.5L 72.9119 0.5ZM 75.929 -0.5C 75.6528 -0.5 75.429 -0.276142 75.429 0C 75.429 0.276142 75.6528 0.5 75.929 0.5L 75.929 -0.5ZM 76.9347 0.5C 77.2108 0.5 77.4347 0.276142 77.4347 0C 77.4347 -0.276142 77.2108 -0.5 76.9347 -0.5L 76.9347 0.5ZM 79.9517 -0.5C 79.6756 -0.5 79.4517 -0.276142 79.4517 0C 79.4517 0.276142 79.6756 0.5 79.9517 0.5L 79.9517 -0.5ZM 80.9574 0.5C 81.2335 0.5 81.4574 0.276142 81.4574 0C 81.4574 -0.276142 81.2335 -0.5 80.9574 -0.5L 80.9574 0.5ZM 83.9744 -0.5C 83.6983 -0.5 83.4744 -0.276142 83.4744 0C 83.4744 0.276142 83.6983 0.5 83.9744 0.5L 83.9744 -0.5ZM 84.9801 0.5C 85.2563 0.5 85.4801 0.276142 85.4801 0C 85.4801 -0.276142 85.2563 -0.5 84.9801 -0.5L 84.9801 0.5ZM 87.9972 -0.5C 87.721 -0.5 87.4972 -0.276142 87.4972 0C 87.4972 0.276142 87.721 0.5 87.9972 0.5L 87.9972 -0.5ZM 89.0028 0.5C 89.279 0.5 89.5028 0.276142 89.5028 0C 89.5028 -0.276142 89.279 -0.5 89.0028 -0.5L 89.0028 0.5ZM 92.0199 -0.5C 91.7437 -0.5 91.5199 -0.276142 91.5199 0C 91.5199 0.276142 91.7437 0.5 92.0199 0.5L 92.0199 -0.5ZM 93.0256 0.5C 93.3017 0.5 93.5256 0.276142 93.5256 0C 93.5256 -0.276142 93.3017 -0.5 93.0256 -0.5L 93.0256 0.5ZM 96.0426 -0.5C 95.7665 -0.5 95.5426 -0.276142 95.5426 0C 95.5426 0.276142 95.7665 0.5 96.0426 0.5L 96.0426 -0.5ZM 97.0483 0.5C 97.3244 0.5 97.5483 0.276142 97.5483 0C 97.5483 -0.276142 97.3244 -0.5 97.0483 -0.5L 97.0483 0.5ZM 100.065 -0.5C 99.7892 -0.5 99.5653 -0.276142 99.5653 0C 99.5653 0.276142 99.7892 0.5 100.065 0.5L 100.065 -0.5ZM 101.071 0.5C 101.347 0.5 101.571 0.276142 101.571 0C 101.571 -0.276142 101.347 -0.5 101.071 -0.5L 101.071 0.5ZM 104.088 -0.5C 103.812 -0.5 103.588 -0.276142 103.588 0C 103.588 0.276142 103.812 0.5 104.088 0.5L 104.088 -0.5ZM 105.094 0.5C 105.37 0.5 105.594 0.276142 105.594 0C 105.594 -0.276142 105.37 -0.5 105.094 -0.5L 105.094 0.5ZM 108.111 -0.5C 107.835 -0.5 107.611 -0.276142 107.611 0C 107.611 0.276142 107.835 0.5 108.111 0.5L 108.111 -0.5ZM 109.116 0.5C 109.393 0.5 109.616 0.276142 109.616 0C 109.616 -0.276142 109.393 -0.5 109.116 -0.5L 109.116 0.5ZM 112.134 -0.5C 111.857 -0.5 111.634 -0.276142 111.634 0C 111.634 0.276142 111.857 0.5 112.134 0.5L 112.134 -0.5ZM 113.139 0.5C 113.415 0.5 113.639 0.276142 113.639 0C 113.639 -0.276142 113.415 -0.5 113.139 -0.5L 113.139 0.5ZM 116.156 -0.5C 115.88 -0.5 115.656 -0.276142 115.656 0C 115.656 0.276142 115.88 0.5 116.156 0.5L 116.156 -0.5ZM 117.162 0.5C 117.438 0.5 117.662 0.276142 117.662 0C 117.662 -0.276142 117.438 -0.5 117.162 -0.5L 117.162 0.5ZM 120.179 -0.5C 119.903 -0.5 119.679 -0.276142 119.679 0C 119.679 0.276142 119.903 0.5 120.179 0.5L 120.179 -0.5ZM 121.185 0.5C 121.461 0.5 121.685 0.276142 121.685 0C 121.685 -0.276142 121.461 -0.5 121.185 -0.5L 121.185 0.5ZM 124.202 -0.5C 123.926 -0.5 123.702 -0.276142 123.702 0C 123.702 0.276142 123.926 0.5 124.202 0.5L 124.202 -0.5ZM 125.207 0.5C 125.484 0.5 125.707 0.276142 125.707 0C 125.707 -0.276142 125.484 -0.5 125.207 -0.5L 125.207 0.5ZM 128.224 -0.5C 127.948 -0.5 127.724 -0.276142 127.724 0C 127.724 0.276142 127.948 0.5 128.224 0.5L 128.224 -0.5ZM 129.23 0.5C 129.506 0.5 129.73 0.276142 129.73 0C 129.73 -0.276142 129.506 -0.5 129.23 -0.5L 129.23 0.5ZM 132.247 -0.5C 131.971 -0.5 131.747 -0.276142 131.747 0C 131.747 0.276142 131.971 0.5 132.247 0.5L 132.247 -0.5ZM 133.253 0.5C 133.529 0.5 133.753 0.276142 133.753 0C 133.753 -0.276142 133.529 -0.5 133.253 -0.5L 133.253 0.5ZM 136.27 -0.5C 135.994 -0.5 135.77 -0.276142 135.77 0C 135.77 0.276142 135.994 0.5 136.27 0.5L 136.27 -0.5ZM 137.276 0.5C 137.552 0.5 137.776 0.276142 137.776 0C 137.776 -0.276142 137.552 -0.5 137.276 -0.5L 137.276 0.5ZM 140.293 -0.5C 140.016 -0.5 139.793 -0.276142 139.793 0C 139.793 0.276142 140.016 0.5 140.293 0.5L 140.293 -0.5ZM 141.298 0.5C 141.574 0.5 141.798 0.276142 141.798 0C 141.798 -0.276142 141.574 -0.5 141.298 -0.5L 141.298 0.5ZM 144.315 -0.5C 144.039 -0.5 143.815 -0.276142 143.815 0C 143.815 0.276142 144.039 0.5 144.315 0.5L 144.315 -0.5ZM 145.321 0.5C 145.597 0.5 145.821 0.276142 145.821 0C 145.821 -0.276142 145.597 -0.5 145.321 -0.5L 145.321 0.5ZM 148.338 -0.5C 148.062 -0.5 147.838 -0.276142 147.838 0C 147.838 0.276142 148.062 0.5 148.338 0.5L 148.338 -0.5ZM 149.344 0.5C 149.62 0.5 149.844 0.276142 149.844 0C 149.844 -0.276142 149.62 -0.5 149.344 -0.5L 149.344 0.5ZM 152.361 -0.5C 152.085 -0.5 151.861 -0.276142 151.861 0C 151.861 0.276142 152.085 0.5 152.361 0.5L 152.361 -0.5ZM 153.366 0.5C 153.643 0.5 153.866 0.276142 153.866 0C 153.866 -0.276142 153.643 -0.5 153.366 -0.5L 153.366 0.5ZM 156.384 -0.5C 156.107 -0.5 155.884 -0.276142 155.884 0C 155.884 0.276142 156.107 0.5 156.384 0.5L 156.384 -0.5ZM 157.389 0.5C 157.665 0.5 157.889 0.276142 157.889 0C 157.889 -0.276142 157.665 -0.5 157.389 -0.5L 157.389 0.5ZM 160.406 -0.5C 160.13 -0.5 159.906 -0.276142 159.906 0C 159.906 0.276142 160.13 0.5 160.406 0.5L 160.406 -0.5ZM 161.412 0.5C 161.688 0.5 161.912 0.276142 161.912 0C 161.912 -0.276142 161.688 -0.5 161.412 -0.5L 161.412 0.5ZM 164.429 -0.5C 164.153 -0.5 163.929 -0.276142 163.929 0C 163.929 0.276142 164.153 0.5 164.429 0.5L 164.429 -0.5ZM 165.435 0.5C 165.711 0.5 165.935 0.276142 165.935 0C 165.935 -0.276142 165.711 -0.5 165.435 -0.5L 165.435 0.5ZM 168.452 -0.5C 168.176 -0.5 167.952 -0.276142 167.952 0C 167.952 0.276142 168.176 0.5 168.452 0.5L 168.452 -0.5ZM 169.457 0.5C 169.734 0.5 169.957 0.276142 169.957 0C 169.957 -0.276142 169.734 -0.5 169.457 -0.5L 169.457 0.5ZM 172.474 -0.5C 172.198 -0.5 171.974 -0.276142 171.974 0C 171.974 0.276142 172.198 0.5 172.474 0.5L 172.474 -0.5ZM 173.48 0.5C 173.756 0.5 173.98 0.276142 173.98 0C 173.98 -0.276142 173.756 -0.5 173.48 -0.5L 173.48 0.5ZM 176.497 -0.5C 176.221 -0.5 175.997 -0.276142 175.997 0C 175.997 0.276142 176.221 0.5 176.497 0.5L 176.497 -0.5ZM 0 0.5L 0.502841 0.5L 0.502841 -0.5L 0 -0.5L 0 0.5ZM 3.51989 0.5L 4.52557 0.5L 4.52557 -0.5L 3.51989 -0.5L 3.51989 0.5ZM 7.54261 0.5L 8.5483 0.5L 8.5483 -0.5L 7.54261 -0.5L 7.54261 0.5ZM 11.5653 0.5L 12.571 0.5L 12.571 -0.5L 11.5653 -0.5L 11.5653 0.5ZM 15.5881 0.5L 16.5938 0.5L 16.5938 -0.5L 15.5881 -0.5L 15.5881 0.5ZM 19.6108 0.5L 20.6165 0.5L 20.6165 -0.5L 19.6108 -0.5L 19.6108 0.5ZM 23.6335 0.5L 24.6392 0.5L 24.6392 -0.5L 23.6335 -0.5L 23.6335 0.5ZM 27.6562 0.5L 28.6619 0.5L 28.6619 -0.5L 27.6562 -0.5L 27.6562 0.5ZM 31.679 0.5L 32.6847 0.5L 32.6847 -0.5L 31.679 -0.5L 31.679 0.5ZM 35.7017 0.5L 36.7074 0.5L 36.7074 -0.5L 35.7017 -0.5L 35.7017 0.5ZM 39.7244 0.5L 40.7301 0.5L 40.7301 -0.5L 39.7244 -0.5L 39.7244 0.5ZM 43.7472 0.5L 44.7528 0.5L 44.7528 -0.5L 43.7472 -0.5L 43.7472 0.5ZM 47.7699 0.5L 48.7756 0.5L 48.7756 -0.5L 47.7699 -0.5L 47.7699 0.5ZM 51.7926 0.5L 52.7983 0.5L 52.7983 -0.5L 51.7926 -0.5L 51.7926 0.5ZM 55.8153 0.5L 56.821 0.5L 56.821 -0.5L 55.8153 -0.5L 55.8153 0.5ZM 59.8381 0.5L 60.8438 0.5L 60.8438 -0.5L 59.8381 -0.5L 59.8381 0.5ZM 63.8608 0.5L 64.8665 0.5L 64.8665 -0.5L 63.8608 -0.5L 63.8608 0.5ZM 67.8835 0.5L 68.8892 0.5L 68.8892 -0.5L 67.8835 -0.5L 67.8835 0.5ZM 71.9062 0.5L 72.9119 0.5L 72.9119 -0.5L 71.9062 -0.5L 71.9062 0.5ZM 75.929 0.5L 76.9347 0.5L 76.9347 -0.5L 75.929 -0.5L 75.929 0.5ZM 79.9517 0.5L 80.9574 0.5L 80.9574 -0.5L 79.9517 -0.5L 79.9517 0.5ZM 83.9744 0.5L 84.9801 0.5L 84.9801 -0.5L 83.9744 -0.5L 83.9744 0.5ZM 87.9972 0.5L 89.0028 0.5L 89.0028 -0.5L 87.9972 -0.5L 87.9972 0.5ZM 92.0199 0.5L 93.0256 0.5L 93.0256 -0.5L 92.0199 -0.5L 92.0199 0.5ZM 96.0426 0.5L 97.0483 0.5L 97.0483 -0.5L 96.0426 -0.5L 96.0426 0.5ZM 100.065 0.5L 101.071 0.5L 101.071 -0.5L 100.065 -0.5L 100.065 0.5ZM 104.088 0.5L 105.094 0.5L 105.094 -0.5L 104.088 -0.5L 104.088 0.5ZM 108.111 0.5L 109.116 0.5L 109.116 -0.5L 108.111 -0.5L 108.111 0.5ZM 112.134 0.5L 113.139 0.5L 113.139 -0.5L 112.134 -0.5L 112.134 0.5ZM 116.156 0.5L 117.162 0.5L 117.162 -0.5L 116.156 -0.5L 116.156 0.5ZM 120.179 0.5L 121.185 0.5L 121.185 -0.5L 120.179 -0.5L 120.179 0.5ZM 124.202 0.5L 125.207 0.5L 125.207 -0.5L 124.202 -0.5L 124.202 0.5ZM 128.224 0.5L 129.23 0.5L 129.23 -0.5L 128.224 -0.5L 128.224 0.5ZM 132.247 0.5L 133.253 0.5L 133.253 -0.5L 132.247 -0.5L 132.247 0.5ZM 136.27 0.5L 137.276 0.5L 137.276 -0.5L 136.27 -0.5L 136.27 0.5ZM 140.293 0.5L 141.298 0.5L 141.298 -0.5L 140.293 -0.5L 140.293 0.5ZM 144.315 0.5L 145.321 0.5L 145.321 -0.5L 144.315 -0.5L 144.315 0.5ZM 148.338 0.5L 149.344 0.5L 149.344 -0.5L 148.338 -0.5L 148.338 0.5ZM 152.361 0.5L 153.366 0.5L 153.366 -0.5L 152.361 -0.5L 152.361 0.5ZM 156.384 0.5L 157.389 0.5L 157.389 -0.5L 156.384 -0.5L 156.384 0.5ZM 160.406 0.5L 161.412 0.5L 161.412 -0.5L 160.406 -0.5L 160.406 0.5ZM 164.429 0.5L 165.435 0.5L 165.435 -0.5L 164.429 -0.5L 164.429 0.5ZM 168.452 0.5L 169.457 0.5L 169.457 -0.5L 168.452 -0.5L 168.452 0.5ZM 172.474 0.5L 173.48 0.5L 173.48 -0.5L 172.474 -0.5L 172.474 0.5ZM 176.497 0.5L 177 0.5L 177 -0.5L 176.497 -0.5L 176.497 0.5Z"/>
</defs>
</svg>
