<svg width="202" height="62" viewBox="0 0 202 62" version="1.1" xmlns="http://www.w3.org/2000/svg" xmlns:xlink="http://www.w3.org/1999/xlink">
<title>Logo SVG Black</title>
<desc>Created using Figma</desc>
<g id="Canvas" transform="translate(-31870 5352)">
<g id="Logo SVG Black">
<g id="Layer 2">
<g id="Layer 1">
<g id="Vector">
<use xlink:href="#path0_fill" transform="translate(31870 -5351.14)" fill="#F7931E"/>
</g>
<g id="Vector">
<use xlink:href="#path1_fill" transform="translate(31943.3 -5327.4)" fill="#231F20"/>
</g>
</g>
</g>
</g>
</g>
<defs>
<path id="path0_fill" fill-rule="evenodd" d="M 54.5827 11.9087C 50.4184 32.8684 30.9924 47.3345 11.9459 54.4841C 38.3832 30.1887 34.6096 18.8359 1.11644 23.8729C 14.5807 13.4987 32.3768 12.2311 43.9654 17.3904C 43.9654 17.3904 50.4073 12.8204 54.5827 11.9087ZM 30.6239 9.5818e-30C 36.6808 -5.18482e-15 42.6016 1.78879 47.6377 5.14018C 52.6738 8.49156 56.5989 13.255 58.9168 18.8281C 61.2346 24.4013 61.8411 30.5338 60.6595 36.4502C 59.4778 42.3667 56.5612 47.8012 52.2783 52.0667C 47.9955 56.3322 42.5388 59.2371 36.5984 60.4139C 30.6579 61.5908 24.5005 60.9868 18.9047 58.6783C 13.3089 56.3698 8.52607 52.4606 5.16107 47.4449C 1.79606 42.4292 3.22269e-15 36.5323 0 30.5C 2.47899e-15 22.4109 3.22644 14.6531 8.96955 8.93324C 14.7127 3.21338 22.502 9.13515e-15 30.6239 9.87584e-16L 30.6239 9.5818e-30Z"/>
<path id="path1_fill" fill-rule="evenodd" d="M 6.81028 3.9918L 11.7226 3.9918C 13.4531 3.9918 14.5584 4.24754 14.6142 6.13781C 14.6142 7.57218 14.6142 9.01768 14.6142 10.4632C 14.4691 12.2089 13.2856 12.2756 11.7338 12.2978L 5.25843 12.2978C 6.43186 10.3671 6.97775 8.12246 6.82145 5.87094L 6.81028 3.9918ZM -2.04426e-06 12.2756L -2.04426e-06 16.2896L 13.3303 16.2896C 17.0927 16.1785 18.9125 14.6774 19.2028 10.8857C 19.2028 9.03992 19.2028 7.18301 19.2028 5.3261C 18.8678 1.59005 16.9699 0.122312 13.308 0.0222394L 0.0223315 0.0222394L 0.0223315 3.9918L 2.25521 3.9918L 2.25521 5.87094C 2.32212 7.03389 2.1573 8.19852 1.77024 9.29773C 1.38319 10.3969 0.78155 11.409 -2.04426e-06 12.2756ZM 35.313 4.35873L 35.313 16.2896L 39.9239 16.2896L 39.9239 0.0111199L 33.002 0.0111199L 25.7116 11.942L 25.7116 0.0111199L 21.1007 0.0111199L 21.1007 16.2896L 28.1566 16.2896L 35.313 4.35873ZM 44.0324 0.0111199L 44.0324 3.83613L 46.4104 3.83613L 40.337 16.2896L 45.4726 16.2896L 47.2589 12.409L 55.074 12.409L 56.8603 16.2896L 62.0182 16.2896L 55.688 3.19121C 55.2191 2.22384 54.4264 0.0222394 52.4169 0.0222394L 44.0324 0.0111199ZM 53.2653 8.59515L 49.1122 8.59515L 51.2334 4.26978L 53.2653 8.59515ZM 104.912 16.4676L 109.378 16.4676L 109.378 4.05851L 114.39 4.05851L 114.39 16.4564L 118.856 16.4564L 118.856 3.98068L 123.322 3.98068C 123.448 3.97268 123.575 3.9929 123.692 4.03985C 123.809 4.0868 123.915 4.1593 124 4.25204C 124.086 4.34477 124.15 4.4554 124.187 4.57583C 124.224 4.69625 124.234 4.82343 124.215 4.94805L 124.215 16.4564L 128.681 16.4564L 128.681 4.56999C 128.702 3.96539 128.596 3.36308 128.372 2.80099C 128.147 2.23891 127.808 1.72923 127.376 1.30409C 126.944 0.87894 126.428 0.547535 125.861 0.330747C 125.294 0.113959 124.688 0.0164876 124.081 0.0444762L 102.891 0.0444762L 102.891 4.00292L 104.901 4.00292L 104.912 16.4676ZM 67.1315 0.0111199L 60.2319 0.0111199L 60.2319 3.83613L 62.5318 3.83613L 62.5318 16.2896L 67.1427 16.2896L 67.1427 9.86274L 77.2576 9.86274L 77.2576 16.2896L 81.8685 16.2896L 81.8685 0.0111199L 77.2576 0.0111199L 77.2576 5.89318L 67.1315 5.89318L 67.1315 0.0111199ZM 85.2625 10.0184L 96.7395 10.0184C 96.7395 11.9976 96.159 12.4646 94.2387 12.4869C 90.186 12.4869 88.1429 12.4869 84.1014 12.4869L 84.1014 16.4676L 95.2658 16.4676C 98.6151 16.4008 100.77 15.6225 101.272 12.0199C 101.417 10.0406 101.339 8.05031 101.339 6.05997C 101.261 2.44623 100.334 0.500364 96.5274 0.0667151C 96.0027 0.0667151 95.4109 0.0667157 94.9309 4.24164e-07L 84.3135 4.24164e-07L 84.3135 4.05851C 88.4109 3.95844 90.5321 4.05851 94.6294 4.05851C 96.5497 4.12523 96.7172 4.57 96.7172 6.47138L 85.2179 6.47138L 85.2625 10.0184Z"/>
</defs>
</svg>
