<svg width="122" height="37" viewBox="0 0 122 37" version="1.1" xmlns="http://www.w3.org/2000/svg" xmlns:xlink="http://www.w3.org/1999/xlink">
<title>Logo white small</title>
<desc>Created using Figma</desc>
<g id="Canvas" transform="translate(-31861 968)">
<g id="Logo white small">
<g id="Vector">
<use xlink:href="#path0_fill" transform="translate(31861 -968)" fill="#F7931E"/>
</g>
<g id="Vector">
<use xlink:href="#path1_fill" transform="translate(31905.3 -952.973)" fill="#FFFFFF"/>
</g>
</g>
</g>
<defs>
<path id="path0_fill" fill-rule="evenodd" d="M 32.9499 7.22329C 30.4361 19.9366 18.7091 28.7111 7.21138 33.0478C 23.1708 18.3112 20.8928 11.4251 0.673961 14.4803C 8.80193 8.18775 19.5449 7.41888 26.5406 10.5483C 26.5406 10.5483 30.4293 7.77634 32.9499 7.22329ZM 18.4867 5.81191e-30C 22.1431 -3.14489e-15 25.7173 1.08501 28.7574 3.11781C 31.7976 5.15062 34.167 8.03992 35.5663 11.4204C 36.9655 14.8008 37.3316 18.5205 36.6183 22.1092C 35.9049 25.6978 34.1443 28.9942 31.5588 31.5815C 28.9734 34.1687 25.6794 35.9307 22.0933 36.6445C 18.5072 37.3583 14.7902 36.992 11.4122 35.5918C 8.03416 34.1915 5.14693 31.8204 3.11558 28.778C 1.08423 25.7357 1.94544e-15 22.1589 0 18.5C 1.49649e-15 13.5935 1.9477 8.88795 5.41464 5.41852C 8.88158 1.9491 13.5838 5.541e-15 18.4867 5.99027e-16L 18.4867 5.81191e-30Z"/>
<path id="path1_fill" fill-rule="evenodd" d="M 4.11116 2.42125L 7.07659 2.42125C 8.12123 2.42125 8.78845 2.57638 8.82215 3.72293C 8.82215 4.59296 8.82215 5.46974 8.82215 6.34652C 8.73453 7.40539 8.02013 7.44586 7.08333 7.45935L 3.17435 7.45935C 3.88272 6.28824 4.21226 4.92674 4.1179 3.56106L 4.11116 2.42125ZM -1.23406e-06 7.44586L -1.23406e-06 9.8806L 8.04709 9.8806C 10.3183 9.81316 11.4169 8.90266 11.5921 6.6028C 11.5921 5.48323 11.5921 4.35691 11.5921 3.23059C 11.3899 0.964454 10.2442 0.0741894 8.03361 0.0134894L 0.0134809 0.0134894L 0.0134809 2.42125L 1.3614 2.42125L 1.3614 3.56106C 1.40179 4.26645 1.3023 4.97287 1.06864 5.63961C 0.834989 6.30634 0.471798 6.92022 -1.23406e-06 7.44586ZM 21.3174 2.64382L 21.3174 9.8806L 24.1008 9.8806L 24.1008 0.00674485L 19.9223 0.00674485L 15.5213 7.24353L 15.5213 0.00674485L 12.7379 0.00674485L 12.7379 9.8806L 16.9973 9.8806L 21.3174 2.64382ZM 26.581 0.00674485L 26.581 2.32683L 28.0165 2.32683L 24.3502 9.8806L 27.4504 9.8806L 28.5288 7.52679L 33.2465 7.52679L 34.3248 9.8806L 37.4385 9.8806L 33.6172 1.93565C 33.3341 1.34889 32.8556 0.0134894 31.6425 0.0134894L 26.581 0.00674485ZM 32.1547 5.21345L 29.6475 5.21345L 30.9281 2.58986L 32.1547 5.21345ZM 63.3321 9.98851L 66.0279 9.98851L 66.0279 2.46172L 69.054 2.46172L 69.054 9.98177L 71.7499 9.98177L 71.7499 2.41451L 74.4457 2.41451C 74.5219 2.40966 74.5982 2.42192 74.6691 2.4504C 74.74 2.47888 74.8036 2.52285 74.8552 2.5791C 74.9069 2.63535 74.9454 2.70246 74.9678 2.7755C 74.9903 2.84855 74.9961 2.92569 74.9849 3.00127L 74.9849 9.98177L 77.6807 9.98177L 77.6807 2.77196C 77.6932 2.40524 77.6297 2.0399 77.4941 1.69896C 77.3585 1.35803 77.1539 1.04888 76.893 0.791003C 76.6321 0.533128 76.3207 0.332111 75.9784 0.200617C 75.6361 0.0691226 75.2703 0.0100007 74.904 0.0269773L 62.1122 0.0269773L 62.1122 2.428L 63.3254 2.428L 63.3321 9.98851ZM 40.5253 0.00674485L 36.3602 0.00674485L 36.3602 2.32683L 37.7485 2.32683L 37.7485 9.8806L 40.532 9.8806L 40.532 5.98232L 46.6381 5.98232L 46.6381 9.8806L 49.4215 9.8806L 49.4215 0.00674485L 46.6381 0.00674485L 46.6381 3.57455L 40.5253 3.57455L 40.5253 0.00674485ZM 51.4704 6.07674L 58.3987 6.07674C 58.3987 7.27725 58.0482 7.56052 56.889 7.574C 54.4426 7.574 53.2092 7.574 50.7695 7.574L 50.7695 9.98851L 57.5091 9.98851C 59.531 9.94805 60.8317 9.47594 61.135 7.29074C 61.2226 6.09023 61.1754 4.88297 61.1754 3.67572C 61.1282 1.48378 60.5689 0.3035 58.2706 0.0404665C 57.9539 0.0404665 57.5967 0.0404669 57.3069 2.5728e-07L 50.8975 2.5728e-07L 50.8975 2.46172C 53.371 2.40102 54.6515 2.46172 57.1249 2.46172C 58.2841 2.50219 58.3852 2.77196 58.3852 3.92526L 51.4434 3.92526L 51.4704 6.07674Z"/>
</defs>
</svg>
