<svg width="67" height="74" viewBox="0 0 67 74" version="1.1" xmlns="http://www.w3.org/2000/svg" xmlns:xlink="http://www.w3.org/1999/xlink">
<title>media</title>
<desc>Created using Figma</desc>
<g id="Canvas" transform="translate(-27256 4846)">
<g id="media">
<g id="VLC media Player">
<g id="&#60;Group&#62;">
<g id="&#60;Group&#62;">
<g id="&#60;Path&#62;">
<use xlink:href="#path0_fill" transform="translate(27283.4 -4846)" fill="#F99531"/>
<mask id="mask0_outline_ins">
<use xlink:href="#path0_fill" fill="white" transform="translate(27283.4 -4846)"/>
</mask>
<g mask="url(#mask0_outline_ins)">
<use xlink:href="#path1_stroke_2x" transform="translate(27283.4 -4846)" fill="#F99531"/>
</g>
</g>
<g id="&#60;Path&#62;">
<use xlink:href="#path2_fill" transform="translate(27275.3 -4821.89)" fill="#F99531"/>
<mask id="mask1_outline_ins">
<use xlink:href="#path2_fill" fill="white" transform="translate(27275.3 -4821.89)"/>
</mask>
<g mask="url(#mask1_outline_ins)">
<use xlink:href="#path3_stroke_2x" transform="translate(27275.3 -4821.89)" fill="#F99531"/>
</g>
</g>
</g>
<g id="&#60;Path&#62;">
<use xlink:href="#path4_fill" transform="translate(27256 -4797.75)" fill="#F99531"/>
<mask id="mask2_outline_ins">
<use xlink:href="#path4_fill" fill="white" transform="translate(27256 -4797.75)"/>
</mask>
<g mask="url(#mask2_outline_ins)">
<use xlink:href="#path5_stroke_2x" transform="translate(27256 -4797.75)" fill="#F99531"/>
</g>
</g>
</g>
</g>
</g>
</g>
<defs>
<path id="path0_fill" d="M 6.09532 9.62672C 8.05492 9.63395 10.0072 9.38511 11.9034 8.88643L 9.95675 2.28818C 9.75189 1.60397 9.32705 1.00799 8.74924 0.59422C 8.17142 0.180448 7.47348 -0.0275805 6.76548 0.00293666L 5.13794 0.00293666C 4.42994 -0.0275805 3.732 0.180448 3.15419 0.59422C 2.57637 1.00799 2.15153 1.60397 1.94667 2.28818L 4.86949e-07 8.88643C 1.98914 9.41056 4.03967 9.65961 6.09532 9.62672Z"/>
<path id="path1_stroke_2x" d="M 11.9034 8.88643L 12.4121 10.8207C 12.9351 10.6831 13.38 10.3397 13.6456 9.86865C 13.9112 9.39762 13.9747 8.83912 13.8217 8.32048L 11.9034 8.88643ZM 9.95675 2.28818L 11.875 1.72224L 11.8727 1.71452L 9.95675 2.28818ZM 6.76548 0.00293666L 6.76548 2.00294C 6.7942 2.00294 6.82292 2.00232 6.85161 2.00108L 6.76548 0.00293666ZM 5.13794 0.00293666L 5.05181 2.00108C 5.0805 2.00232 5.10922 2.00294 5.13794 2.00294L 5.13794 0.00293666ZM 1.94667 2.28818L 0.0306938 1.71451L 0.0284144 1.72224L 1.94667 2.28818ZM 4.86949e-07 8.88643L -1.91826 8.32048C -2.07122 8.83896 -2.0078 9.39729 -1.74242 9.86824C -1.47705 10.3392 -1.03234 10.6827 -0.509606 10.8204L 4.86949e-07 8.88643ZM 6.08793 11.6267C 8.17793 11.6302 10.3888 11.3484 12.4121 10.8207L 11.3947 6.9522C 9.62562 7.42185 7.93192 7.63774 6.1027 7.62673L 6.08793 11.6267ZM 13.8217 8.32048L 11.875 1.72224L 8.03849 2.85412L 9.98516 9.45237L 13.8217 8.32048ZM 11.8727 1.71452C 11.5483 0.724861 10.7428 -0.404695 9.91366 -1.03186L 7.58481 2.2203C 7.91132 2.42068 7.95546 2.48308 8.04079 2.86184L 11.8727 1.71452ZM 9.91366 -1.03186C 9.05135 -1.61558 7.71946 -2.0124 6.67936 -1.99521L 6.85161 2.00108C 7.22751 1.95724 7.29148 1.97648 7.58481 2.2203L 9.91366 -1.03186ZM 6.76548 -1.99706L 5.13794 -1.99706L 5.13794 2.00294L 6.76548 2.00294L 6.76548 -1.99706ZM 5.22406 -1.99521C 4.18396 -2.0124 2.85207 -1.61558 1.98976 -1.03186L 4.31861 2.2203C 4.61194 1.97648 4.67591 1.95724 5.05181 2.00108L 5.22406 -1.99521ZM 1.98976 -1.03186C 1.16063 -0.404695 0.355101 0.724861 0.0307093 1.71452L 3.86263 2.86184C 3.94796 2.48308 3.9921 2.42068 4.31861 2.2203L 1.98976 -1.03186ZM 0.0284144 1.72224L -1.91826 8.32048L 1.91826 9.45237L 3.86493 2.85412L 0.0284144 1.72224ZM -0.509606 10.8204C 1.61289 11.3749 3.93486 11.6569 6.12731 11.6265L 6.06332 7.62697C 4.14449 7.66235 2.36539 7.44627 0.509607 6.95244L -0.509606 10.8204Z"/>
<path id="path2_fill" d="M 14.233 1.60933C 10.725 1.61176 7.23749 1.06894 3.89335 0L -1.21737e-07 13.293C 0.638253 15.7714 6.73357 17.7026 14.233 17.7026C 21.7325 17.7026 27.8278 15.7714 28.4661 13.293L 24.5727 0C 21.2286 1.06894 17.7411 1.61176 14.233 1.60933Z"/>
<path id="path3_stroke_2x" d="M 3.89335 0L 4.50229 -1.90504C 3.98896 -2.06913 3.43113 -2.01911 2.95519 -1.76631C 2.47924 -1.51352 2.12545 -1.07935 1.97398 -0.562156L 3.89335 0ZM -1.21737e-07 13.293L -1.91937 12.7309C -2.0206 13.0765 -2.02662 13.4431 -1.93681 13.7918L -1.21737e-07 13.293ZM 28.4661 13.293L 30.4029 13.7918C 30.4927 13.4431 30.4867 13.0765 30.3855 12.7309L 28.4661 13.293ZM 24.5727 0L 26.4921 -0.562156C 26.3406 -1.07935 25.9869 -1.51352 25.5109 -1.76631C 25.035 -2.01911 24.4771 -2.06913 23.9638 -1.90504L 24.5727 0ZM 14.2317 -0.390672C 10.8785 -0.382339 7.69713 -0.877521 4.50229 -1.90504L 3.2844 1.90504C 6.77784 3.01541 10.5714 3.60585 14.2344 3.60933L 14.2317 -0.390672ZM 1.97398 -0.562156L -1.91937 12.7309L 1.91937 13.8552L 5.81272 0.562156L 1.97398 -0.562156ZM -1.93681 13.7918C -1.60327 15.087 -0.64842 16.0267 0.313539 16.6812C 1.24137 17.3031 2.56473 17.9013 3.94803 18.3365C 6.64477 19.1708 10.3423 19.6976 14.233 19.7026L 14.233 15.7026C 10.6243 15.7076 7.52445 15.2688 5.1391 14.5179C 3.98135 14.1605 3.19249 13.8112 2.56359 13.374C 1.99446 13.0082 1.93985 12.5991 1.9368 12.7943L -1.93681 13.7918ZM 14.233 19.7026C 18.1238 19.6976 21.8213 19.1708 24.5181 18.3365C 25.9014 17.9013 27.2247 17.3031 28.1525 16.6812C 29.1145 16.0267 30.0694 15.087 30.4029 13.7918L 26.5293 12.7943C 26.5262 12.5991 26.4716 13.0082 25.9025 13.374C 25.2736 13.8112 24.4847 14.1605 23.327 14.5179C 20.9416 15.2688 17.8418 15.7076 14.233 15.7026L 14.233 19.7026ZM 30.3855 12.7309L 26.4921 -0.562156L 22.6534 0.562156L 26.5467 13.8552L 30.3855 12.7309ZM 23.9638 -1.90504C 20.769 -0.877521 17.5876 -0.382339 14.2344 -0.390672L 14.2317 3.60933C 17.8947 3.60585 21.6882 3.01541 25.1817 1.90504L 23.9638 -1.90504Z"/>
<path id="path4_fill" d="M 66.7689 20.2132L 59.8439 2.05994C 59.6125 1.45504 59.2053 0.934732 58.6757 0.567167C 58.1462 0.199602 57.5189 0.00191528 56.876 5.71748e-15L 52.2806 5.71748e-15C 52.5292 0.499633 52.6602 1.05033 52.6635 1.60933C 52.6635 6.05107 44.079 9.65597 33.5159 9.65597C 22.9529 9.65597 14.3684 6.05107 14.3684 1.60933C 14.3717 1.05033 14.5027 0.499633 14.7513 5.71748e-15L 10.1878 5.71748e-15C 9.54494 0.00191528 8.91765 0.199602 8.38808 0.567167C 7.8585 0.934732 7.45134 1.45504 7.21991 2.05994L 0.262956 20.2132C 0.0302667 20.8325 -0.0497167 21.4996 0.0298896 22.1571C 0.109496 22.8145 0.346307 23.4426 0.719942 23.9873C 1.09358 24.532 1.59284 24.9769 2.17477 25.2839C 2.7567 25.5908 3.40387 25.7505 4.06056 25.7492L 62.9713 25.7492C 63.6253 25.7453 64.2687 25.5818 64.8464 25.2727C 65.4241 24.9636 65.9191 24.518 66.2891 23.9741C 66.6591 23.4302 66.8931 22.804 66.9711 22.1491C 67.0491 21.4942 66.9688 20.83 66.737 20.2132L 66.7689 20.2132Z"/>
<path id="path5_stroke_2x" d="M 66.7689 20.2132L 66.7689 22.2132C 67.4269 22.2132 68.0428 21.8895 68.416 21.3477C 68.7892 20.8058 68.8721 20.1151 68.6376 19.5003L 66.7689 20.2132ZM 59.8439 2.05994L 61.7125 1.34709L 61.7118 1.34529L 59.8439 2.05994ZM 56.876 5.71748e-15L 56.882 -2L 56.876 -2L 56.876 5.71748e-15ZM 52.2806 5.71748e-15L 52.2806 -2C 51.5881 -2 50.945 -1.64182 50.5803 -1.05315C 50.2157 -0.464484 50.1815 0.270911 50.49 0.890869L 52.2806 5.71748e-15ZM 52.6635 1.60933L 54.6636 1.60933L 54.6635 1.5974L 52.6635 1.60933ZM 14.3684 1.60933L 12.3684 1.5974L 12.3684 1.60933L 14.3684 1.60933ZM 14.7513 5.71748e-15L 16.5419 0.890869C 16.8504 0.270911 16.8162 -0.464484 16.4516 -1.05315C 16.0869 -1.64182 15.4437 -2 14.7513 -2L 14.7513 5.71748e-15ZM 10.1878 5.71748e-15L 10.1878 -2.00001L 10.1818 -1.99999L 10.1878 5.71748e-15ZM 7.21991 2.05994L 9.08747 2.77565L 9.08788 2.77459L 7.21991 2.05994ZM 0.262956 20.2132L -1.60464 19.4974L -1.60928 19.5098L 0.262956 20.2132ZM 4.06056 25.7492L 4.06056 23.7492L 4.05675 23.7492L 4.06056 25.7492ZM 62.9713 25.7492L 62.9713 27.7493L 62.9834 27.7492L 62.9713 25.7492ZM 66.737 20.2132L 66.737 18.2132C 66.0808 18.2132 65.4664 18.535 65.0928 19.0745C 64.7192 19.6139 64.634 20.3023 64.8648 20.9166L 66.737 20.2132ZM 68.6376 19.5003L 61.7125 1.34709L 57.9752 2.77279L 64.9003 20.926L 68.6376 19.5003ZM 61.7118 1.34529C 61.3533 0.470481 60.5784 -0.519389 59.8161 -1.07586L 57.5353 2.21019C 57.8322 2.38885 57.8716 2.43959 57.9759 2.77459L 61.7118 1.34529ZM 59.8161 -1.07586C 59.0269 -1.59603 57.8259 -1.97437 56.882 -1.99999L 56.8701 1.99999C 57.2118 1.9782 57.2654 1.99523 57.5353 2.21019L 59.8161 -1.07586ZM 56.876 -2L 52.2806 -2L 52.2806 2L 56.876 2L 56.876 -2ZM 50.49 0.890869C 50.6488 1.18099 50.6745 1.28934 50.6636 1.62125L 54.6635 1.5974C 54.6459 0.811324 54.4095 -0.181725 54.0712 -0.890869L 50.49 0.890869ZM 50.6635 1.60933C 50.6635 2.02812 50.4696 2.60505 49.7483 3.32095C 48.9492 4.13239 47.8684 4.79206 46.2762 5.45443C 43.0088 6.83936 38.6117 7.66462 33.5159 7.65597L 33.5159 11.656C 38.9833 11.6473 44.16 10.6701 47.8256 9.14217C 49.6999 8.3481 51.4255 7.27372 52.5661 6.16C 53.7844 4.95074 54.6635 3.41141 54.6635 1.60933L 50.6635 1.60933ZM 33.5159 7.65597C 28.4202 7.66462 24.0231 6.83936 20.7557 5.45443C 19.1635 4.79206 18.0827 4.13239 17.2836 3.32095C 16.5623 2.60505 16.3684 2.02812 16.3684 1.60933L 12.3684 1.60933C 12.3684 3.41141 13.2475 4.95074 14.4658 6.16C 15.6064 7.27372 17.332 8.3481 19.2063 9.14217C 22.8719 10.6701 28.0486 11.6473 33.5159 11.656L 33.5159 7.65597ZM 16.3683 1.62125C 16.3574 1.28933 16.3831 1.18099 16.5419 0.890869L 12.9607 -0.890869C 12.6224 -0.18172 12.386 0.811329 12.3684 1.5974L 16.3683 1.62125ZM 14.7513 -2L 10.1878 -2L 10.1878 2L 14.7513 2L 14.7513 -2ZM 10.1818 -1.99999C 9.23789 -1.97437 8.0369 -1.59603 7.24769 -1.07586L 9.52846 2.21019C 9.7984 1.99523 9.85199 1.9782 10.1938 1.99999L 10.1818 -1.99999ZM 7.24769 -1.07586C 6.48536 -0.519391 5.71046 0.470479 5.35195 1.34529L 9.08788 2.77459C 9.19221 2.43959 9.23165 2.38885 9.52846 2.21019L 7.24769 -1.07586ZM 5.35236 1.34422L -1.6046 19.4974L 2.13051 20.9289L 9.08747 2.77565L 5.35236 1.34422ZM -1.60928 19.5098C -1.91272 20.3584 -2.04972 21.5008 -1.95561 22.3975L 2.01539 21.9167C 1.95028 21.4985 1.97325 21.3067 2.13519 20.9165L -1.60928 19.5098ZM -1.95561 22.3975C -1.83293 23.291 -1.42685 24.3678 -0.929317 25.1186L 2.3692 22.8559C 2.11946 22.5175 2.05192 22.3381 2.01539 21.9167L -1.95561 22.3975ZM -0.929317 25.1186C -0.407322 25.8538 0.452617 26.6201 1.24174 27.0529L 3.10781 23.5148C 2.73307 23.3338 2.59448 23.2101 2.3692 22.8559L -0.929317 25.1186ZM 1.24174 27.0529C 2.04533 27.46 3.1644 27.7361 4.06437 27.7492L 4.05675 23.7492C 3.64334 23.7649 3.46808 23.7216 3.10781 23.5148L 1.24174 27.0529ZM 4.06056 27.7492L 62.9713 27.7492L 62.9713 23.7492L 4.06056 23.7492L 4.06056 27.7492ZM 62.9834 27.7492C 63.8796 27.7291 64.9921 27.4464 65.7899 27.0361L 63.9029 23.5092C 63.5453 23.7172 63.3711 23.7615 62.9593 23.7493L 62.9834 27.7492ZM 65.7899 27.0361C 66.5733 26.6005 67.4259 25.8332 67.9428 25.0989L 64.6354 22.8492C 64.4124 23.2028 64.275 23.3266 63.9029 23.5092L 65.7899 27.0361ZM 67.9428 25.0989C 68.4354 24.3492 68.8367 23.2757 68.957 22.3856L 64.9851 21.9126C 64.9495 22.3324 64.8828 22.5111 64.6354 22.8492L 67.9428 25.0989ZM 68.957 22.3856C 69.0491 21.4924 68.9115 20.3548 68.6092 19.5097L 64.8648 20.9166C 65.026 21.3051 65.0491 21.496 64.9851 21.9126L 68.957 22.3856ZM 66.737 22.2132L 66.7689 22.2132L 66.7689 18.2132L 66.737 18.2132L 66.737 22.2132Z"/>
</defs>
</svg>
