<svg width="24" height="32" viewBox="0 0 24 32" version="1.1" xmlns="http://www.w3.org/2000/svg" xmlns:xlink="http://www.w3.org/1999/xlink">
<title>Group</title>
<desc>Created using Figma</desc>
<g id="Canvas" transform="translate(-32094 2122)">
<g id="Group">
<g id="Rectangle 54">
<mask id="mask0_outline_ins">
<use xlink:href="#path0_fill" fill="white" transform="translate(32094 -2122)"/>
</mask>
<g mask="url(#mask0_outline_ins)">
<use xlink:href="#path1_stroke_2x" transform="translate(32094 -2122)" fill="#F99531"/>
</g>
</g>
<g id="PDF">
<use xlink:href="#path2_fill" transform="translate(32099 -2107)" fill="#F99531"/>
<use xlink:href="#path3_fill" transform="translate(32099 -2107)" fill="#F99531"/>
<use xlink:href="#path4_fill" transform="translate(32099 -2107)" fill="#F99531"/>
</g>
</g>
</g>
<defs>
<path id="path0_fill" d="M 22 32L 2 32C 0.895431 32 0 31.1046 0 30L 0 2C 0 0.895431 0.895431 0 2 0L 17 0L 24 7.5L 24 30C 24 31.1046 23.1046 32 22 32Z"/>
<path id="path1_stroke_2x" d="M 16.5 0L 16.5 5.5L 17.5 5.5L 17.5 0L 16.5 0ZM 19 8L 24 8L 24 7L 19 7L 19 8ZM 16.5 5.5C 16.5 6.88071 17.6193 8 19 8L 19 7C 18.1716 7 17.5 6.32843 17.5 5.5L 16.5 5.5ZM 17 0L 17.7311 -0.682318L 17.4346 -1L 17 -1L 17 0ZM 24 7.5L 25 7.5L 25 7.10584L 24.7311 6.81768L 24 7.5ZM 22 31L 2 31L 2 33L 22 33L 22 31ZM 1 30L 1 2L -1 2L -1 30L 1 30ZM 2 1L 17 1L 17 -1L 2 -1L 2 1ZM 23 7.5L 23 30L 25 30L 25 7.5L 23 7.5ZM 16.2689 0.682318L 23.2689 8.18232L 24.7311 6.81768L 17.7311 -0.682318L 16.2689 0.682318ZM 1 2C 1 1.44772 1.44772 1 2 1L 2 -1C 0.343146 -1 -1 0.343146 -1 2L 1 2ZM 22 33C 23.6569 33 25 31.6569 25 30L 23 30C 23 30.5523 22.5523 31 22 31L 22 33ZM 2 31C 1.44771 31 1 30.5523 1 30L -1 30C -1 31.6569 0.343146 33 2 33L 2 31Z"/>
<path id="path2_fill" d="M 0 5L 0 0L 2.32065 0C 2.57251 0 2.8038 0.0492957 3.01454 0.147887C 3.23041 0.241784 3.41545 0.368545 3.56964 0.528169C 3.72384 0.683099 3.84463 0.861502 3.93201 1.06338C 4.01938 1.26056 4.06307 1.46009 4.06307 1.66197C 4.06307 1.87324 4.02195 2.07981 3.93972 2.28169C 3.85748 2.47887 3.74183 2.65493 3.59277 2.80986C 3.44372 2.96479 3.26382 3.0892 3.05309 3.1831C 2.84235 3.277 2.61106 3.32394 2.3592 3.32394L 1.06395 3.32394L 1.06395 5L 0 5ZM 1.06395 2.47183L 2.29752 2.47183C 2.49284 2.47183 2.65475 2.39906 2.78324 2.25352C 2.91688 2.10798 2.9837 1.9108 2.9837 1.66197C 2.9837 1.53521 2.96314 1.42254 2.92202 1.32394C 2.8809 1.22066 2.82693 1.1338 2.76011 1.06338C 2.6933 0.992958 2.61363 0.941314 2.52111 0.908451C 2.43373 0.870892 2.34378 0.852113 2.25127 0.852113L 1.06395 0.852113L 1.06395 2.47183Z"/>
<path id="path3_fill" d="M 4.80358 5L 4.80358 0L 6.79271 0C 7.23988 0 7.63051 0.0657277 7.9646 0.197183C 8.30383 0.328639 8.58653 0.507042 8.81268 0.732394C 9.03884 0.957746 9.20845 1.223 9.32153 1.52817C 9.43461 1.82864 9.49114 2.15023 9.49114 2.49296C 9.49114 2.87324 9.4269 3.21831 9.2984 3.52817C 9.17504 3.83333 8.99514 4.09624 8.75871 4.3169C 8.52228 4.53286 8.23701 4.70188 7.90292 4.82394C 7.57397 4.94131 7.2039 5 6.79271 5L 4.80358 5ZM 8.41948 2.49296C 8.41948 2.25352 8.3835 2.03286 8.31154 1.83099C 8.23958 1.62911 8.13422 1.4554 7.99544 1.30986C 7.85666 1.16432 7.68448 1.05164 7.47888 0.971831C 7.27843 0.892019 7.0497 0.852113 6.79271 0.852113L 5.86753 0.852113L 5.86753 4.14789L 6.79271 4.14789C 7.05484 4.14789 7.28614 4.10563 7.48659 4.02113C 7.69219 3.93662 7.8618 3.8216 7.99544 3.67606C 8.13422 3.52582 8.23958 3.34977 8.31154 3.14789C 8.3835 2.94601 8.41948 2.7277 8.41948 2.49296Z"/>
<path id="path4_fill" d="M 10.3224 5L 10.3224 0L 14 0L 14 0.852113L 11.3864 0.852113L 11.3864 2.14084L 13.5605 2.14084L 13.5605 2.92958L 11.3864 2.92958L 11.3864 5L 10.3224 5Z"/>
</defs>
</svg>
