<svg width="112" height="149" viewBox="0 0 112 149" version="1.1" xmlns="http://www.w3.org/2000/svg" xmlns:xlink="http://www.w3.org/1999/xlink">
<title>Layer 2</title>
<desc>Created using Figma</desc>
<g id="Canvas" transform="translate(-9415 -1742)">
<g id="Layer 2">
<g id="Layer 1">
<g id="Vector">
<use xlink:href="#path0_fill" transform="translate(9415 1822.1)" fill="#FFFFFF"/>
</g>
<g id="Vector">
<use xlink:href="#path1_fill" transform="translate(9415.52 1822.11)" fill="#FFFFFF"/>
</g>
<g id="Vector">
<use xlink:href="#path2_fill" transform="translate(9419.63 1879.66)" fill="#FFFFFF"/>
</g>
<g id="Vector">
<use xlink:href="#path3_fill" transform="translate(9425.94 1841.54)" fill="#FFFFFF"/>
</g>
<g id="Vector">
<use xlink:href="#path4_fill" transform="translate(9422.94 1838.8)" fill="#FFFFFF"/>
</g>
<g id="Vector">
<use xlink:href="#path5_fill" transform="translate(9430.05 1742)" fill="#FFFFFF"/>
</g>
<g id="Vector">
<use xlink:href="#path6_fill" transform="translate(9444.41 1803.84)" fill="#FFFFFF"/>
</g>
<g id="Vector">
<use xlink:href="#path7_fill" transform="translate(9441.45 1748.07)" fill="#FFFFFF"/>
</g>
<g id="Vector">
<use xlink:href="#path8_fill" transform="translate(9435.42 1774.11)" fill="#FFFFFF"/>
</g>
<g id="Vector">
<use xlink:href="#path9_fill" transform="translate(9436.77 1823.61)" fill="#FFFFFF"/>
</g>
<g id="Vector">
<use xlink:href="#path10_fill" transform="translate(9446.79 1823.61)" fill="#FFFFFF"/>
</g>
<g id="Vector">
<use xlink:href="#path11_fill" transform="translate(9457.11 1823.65)" fill="#FFFFFF"/>
</g>
<g id="Vector">
<use xlink:href="#path12_fill" transform="translate(9436.77 1832)" fill="#FFFFFF"/>
</g>
<g id="Vector">
<use xlink:href="#path13_fill" transform="translate(9446.79 1832)" fill="#FFFFFF"/>
</g>
<g id="Vector">
<use xlink:href="#path14_fill" transform="translate(9456.76 1832)" fill="#FFFFFF"/>
</g>
<g id="Vector">
<use xlink:href="#path9_fill" transform="translate(9436.77 1840.39)" fill="#FFFFFF"/>
</g>
<g id="Vector">
<use xlink:href="#path10_fill" transform="translate(9446.79 1840.39)" fill="#FFFFFF"/>
</g>
<g id="Vector">
<use xlink:href="#path11_fill" transform="translate(9457.11 1840.43)" fill="#FFFFFF"/>
</g>
<g id="Vector">
<use xlink:href="#path15_fill" transform="translate(9436.76 1848.76)" fill="#FFFFFF"/>
</g>
<g id="Vector">
<use xlink:href="#path16_fill" transform="translate(9446.78 1848.76)" fill="#FFFFFF"/>
</g>
<g id="Vector">
<use xlink:href="#path17_fill" transform="translate(9456.75 1848.76)" fill="#FFFFFF"/>
</g>
<g id="Vector">
<use xlink:href="#path18_fill" transform="matrix(0.706106 -0.708107 0.706106 0.708107 9436.66 1803.67)" fill="#FFFFFF"/>
</g>
<g id="Vector">
<use xlink:href="#path19_fill" transform="matrix(-0.706106 -0.708107 0.706106 -0.708107 9441.29 1820.65)" fill="#FFFFFF"/>
</g>
<g id="Vector">
<use xlink:href="#path20_fill" transform="matrix(-0.706106 -0.708107 0.706106 -0.708107 9461.61 1806.93)" fill="#FFFFFF"/>
</g>
<g id="Vector">
<use xlink:href="#path21_fill" transform="matrix(0.706106 -0.708107 0.706106 0.708107 9456.97 1817.38)" fill="#FFFFFF"/>
</g>
<g id="Vector">
<use xlink:href="#path22_fill" transform="translate(9490.81 1845.01)" fill="#FFFFFF"/>
</g>
</g>
</g>
</g>
<defs>
<path id="path0_fill" d="M 98.4957 61.1615L 13.5154 61.1615C 11.5915 61.1639 9.68921 60.7551 7.9352 59.9624C 6.18119 59.1697 4.61576 58.0113 3.34321 56.5643C 2.08492 55.1325 1.14556 53.4482 0.587788 51.6235C 0.0300178 49.7989 -0.133336 47.8759 0.108623 45.983L 5.26165 5.45845C 5.45912 3.95498 6.19472 2.57472 7.33147 1.57467C 8.46822 0.574624 9.92865 0.0229453 11.4408 0.0223676L 17.3635 0.0223676L 17.3635 1.1409L 11.452 1.1409C 10.2085 1.14142 9.00778 1.59576 8.0739 2.41908C 7.14002 3.2424 6.53686 4.37842 6.37702 5.61504L 1.21284 46.1284C 0.991568 47.8634 1.14174 49.6258 1.65335 51.2981C 2.16495 52.9703 3.02623 54.514 4.17974 55.8261C 5.34653 57.1523 6.7815 58.2143 8.38923 58.9414C 9.99696 59.6684 11.7406 60.044 13.5043 60.0429L 98.4957 60.0429C 100.259 60.044 102.003 59.6684 103.611 58.9414C 105.219 58.2143 106.653 57.1523 107.82 55.8261C 108.974 54.514 109.835 52.9703 110.347 51.2981C 110.858 49.6258 111.008 47.8634 110.787 46.1284L 105.623 5.59267C 105.463 4.35605 104.86 3.22003 103.926 2.39671C 102.992 1.57339 101.791 1.11906 100.548 1.11854L 53.7023 1.11854L 53.7023 6.82699e-07L 100.548 6.82699e-07C 102.06 0.000578403 103.521 0.552248 104.657 1.5523C 105.794 2.55235 106.53 3.93261 106.727 5.43608L 111.891 45.9718C 112.133 47.8647 111.97 49.7877 111.412 51.6123C 110.854 53.437 109.915 55.1213 108.657 56.5531C 107.387 58.0007 105.823 59.1604 104.071 59.955C 102.319 60.7496 100.419 61.1609 98.4957 61.1615Z"/>
<path id="path1_fill" d="M 97.5362 56.3542L 13.437 56.3542C 11.462 56.3753 9.50537 55.9719 7.69881 55.1712C 5.89225 54.3705 4.27765 53.1911 2.96366 51.7123C 1.83913 50.4528 1.00128 48.9631 0.50822 47.3464C 0.0151611 45.7298 -0.1213 44.0249 0.108302 42.3501L 4.77056 5.04699C 5.02417 3.60694 5.78553 2.30629 6.91577 1.38229C 8.046 0.458292 9.46979 -0.0274796 10.9274 0.0135886L 16.8501 0.0135886L 16.8501 1.13212L 10.9274 1.13212C 9.74006 1.09044 8.57717 1.47726 7.65002 2.22231C 6.72288 2.96736 6.09299 4.02121 5.87478 5.19241L 1.21252 42.4508C 1.0051 43.9677 1.12909 45.5116 1.57592 46.9756C 2.02274 48.4396 2.7817 49.7887 3.80019 50.9293C 5.00556 52.297 6.48967 53.3892 8.15221 54.1321C 9.81475 54.875 11.617 55.2514 13.437 55.2356L 97.5362 55.2356C 99.3529 55.257 101.153 54.8876 102.815 54.1525C 104.478 53.4174 105.964 52.3336 107.173 50.974C 108.192 49.8334 108.95 48.4844 109.397 47.0204C 109.844 45.5563 109.968 44.0124 109.761 42.4955L 105.087 5.18122C 104.871 4.01094 104.244 2.95729 103.319 2.21208C 102.393 1.46687 101.232 1.07966 100.046 1.12094L 53.2001 1.12094L 53.2001 0.00240937L 100.046 0.00240937C 101.503 -0.0386588 102.927 0.447104 104.057 1.3711C 105.188 2.2951 105.949 3.59576 106.203 5.03581L 110.876 42.3054C 111.104 43.9784 110.967 45.6811 110.474 47.2957C 109.981 48.9103 109.144 50.3982 108.021 51.6563C 106.711 53.1468 105.096 54.3375 103.288 55.1481C 101.479 55.9586 99.5174 56.3699 97.5362 56.3542Z"/>
<path id="path2_fill" d="M 90.8249 11.3419L 10.9864 11.3419C 8.04236 11.2603 5.24642 10.0291 3.19427 7.9105C 1.14212 5.79194 -0.00402192 2.95355 1.07118e-05 -3.4135e-07L 1.11538 -3.4135e-07C 1.10841 2.65783 2.13611 5.21344 3.97972 7.12287C 5.82334 9.03229 8.33728 10.1447 10.9864 10.2234L 90.8249 10.2234C 96.4018 10.2234 100.674 6.26379 100.674 0.995495L 101.789 0.995495C 101.8 6.89017 97.0821 11.3419 90.8249 11.3419Z"/>
<path id="path3_fill" d="M 24.6053 25.9724C 11.0312 25.9724 0.000175746 17.9077 0.000175746 8.00871C -0.0102379 5.95021 0.443501 3.91598 1.32747 2.05811L 2.33131 2.53908C 1.50179 4.23889 1.06706 6.10508 1.05978 7.99752C 1.05978 17.2925 11.6001 24.8426 24.5496 24.8426C 37.499 24.8426 48.0393 17.2814 48.0393 7.99752C 48.0219 5.3557 47.1966 2.78287 45.6747 0.626383L 46.6005 -2.38945e-06C 48.2538 2.34286 49.1493 5.13858 49.1659 8.00871C 49.2216 17.9077 38.1348 25.9724 24.6053 25.9724Z"/>
<path id="path4_fill" d="M 28.1297 33.8804C 12.626 33.8804 -1.27644e-07 25.3795 -1.27644e-07 14.9212C -1.27644e-07 9.44043 3.50227 4.23925 9.60337 0.648753L 10.1722 1.61069C 4.41688 4.9663 1.11537 9.85429 1.11537 14.9212C 1.11537 24.7532 13.2283 32.7619 28.1297 32.7619C 43.0311 32.7619 55.1441 24.7644 55.1441 14.9212C 55.1441 9.48517 51.441 4.39584 44.9719 0.984308L 45.4961 1.02405e-06C 52.3333 3.61287 56.2595 9.06013 56.2595 14.9212C 56.2595 25.3795 43.6446 33.8804 28.1297 33.8804Z"/>
<path id="path5_fill" d="M 20.4942 121.171C 12.3408 121.171 7.80128 118.296 5.42553 115.891C 3.58756 113.991 2.54233 111.458 2.50325 108.811L 0.00481227 13.6349C -0.0428547 11.8624 0.264002 10.0983 0.907274 8.44666C 1.55055 6.79502 2.5172 5.28933 3.75019 4.01844C 4.98319 2.74754 6.45754 1.7372 8.08624 1.04703C 9.71494 0.356863 11.465 0.000849348 13.2331 2.48365e-16L 27.9003 0C 29.6713 0.000724006 31.4242 0.357778 33.0552 1.05002C 34.6862 1.74227 36.1621 2.75564 37.3955 4.03013C 38.629 5.30463 39.5949 6.81434 40.2362 8.4699C 40.8774 10.1255 41.1809 11.8932 41.1286 13.6685L 38.3402 108.889C 38.2842 111.674 37.1337 114.323 35.1391 116.26C 32.7856 118.498 28.3465 121.171 20.4942 121.171ZM 13.2331 1.11853C 11.6143 1.11945 10.0121 1.44546 8.52095 2.07733C 7.02979 2.7092 5.67992 3.63414 4.55095 4.79758C 3.42198 5.96103 2.53677 7.33942 1.94754 8.85146C 1.35831 10.3635 1.077 11.9786 1.12019 13.6014L 3.62978 108.777C 3.66016 111.143 4.5897 113.407 6.2286 115.108C 8.45935 117.345 12.7312 120.052 20.4942 120.052C 27.9672 120.052 32.1499 117.547 34.3472 115.444C 36.1384 113.712 37.173 111.339 37.2248 108.845L 40.0133 13.6238C 40.0595 11.9991 39.7804 10.3816 39.1926 8.86696C 38.6047 7.35231 37.72 5.97123 36.5907 4.80538C 35.4614 3.63954 34.1105 2.71258 32.6178 2.07933C 31.1252 1.44607 29.521 1.11937 27.9003 1.11853L 13.2331 1.11853Z"/>
<path id="path6_fill" d="M 6.07879 0L 6.06763 0C 2.71657 0 0 2.72427 0 6.08483L 0 6.09602C 0 9.45657 2.71657 12.1808 6.06763 12.1808L 6.07879 12.1808C 9.42985 12.1808 12.1464 9.45657 12.1464 6.09602L 12.1464 6.08483C 12.1464 2.72427 9.42985 0 6.07879 0Z"/>
<path id="path7_fill" d="M 9.0903 18.2097C 7.29414 18.212 5.53769 17.6798 4.04316 16.6807C 2.54864 15.6816 1.38321 14.2604 0.694319 12.5969C 0.00542927 10.9334 -0.17596 9.10237 0.1731 7.33546C 0.52216 5.56855 1.38598 3.94518 2.65528 2.67072C 3.92457 1.39626 5.5423 0.527993 7.30379 0.175772C 9.06527 -0.176449 10.8914 0.00320342 12.551 0.692C 14.2106 1.3808 15.6293 2.54778 16.6274 4.04531C 17.6255 5.54284 18.1583 7.30362 18.1583 9.10487C 18.1553 11.5168 17.1994 13.8292 15.4998 15.5358C 13.8001 17.2423 11.4954 18.2038 9.0903 18.2097ZM 9.0903 1.11853C 7.51474 1.11632 5.97393 1.58283 4.66283 2.45903C 3.35173 3.33523 2.32926 4.58175 1.72479 6.04087C 1.12032 7.49999 0.961019 9.10612 1.26704 10.6561C 1.57306 12.206 2.33066 13.6301 3.44397 14.7481C 4.55727 15.8661 5.97626 16.6279 7.52139 16.9369C 9.06651 17.246 10.6683 17.0885 12.1242 16.4843C 13.58 15.8802 14.8244 14.8566 15.7 13.543C 16.5756 12.2294 17.0429 10.6849 17.0429 9.10487C 17.04 6.9896 16.2015 4.96165 14.7111 3.46488C 13.2206 1.96812 11.1996 1.12445 9.0903 1.11853Z"/>
<path id="path8_fill" d="M 28.1632 20.6929L 1.9519 20.6929C 1.43423 20.6929 0.937753 20.4867 0.5717 20.1196C 0.205646 19.7525 -5.95674e-07 19.2546 -5.95674e-07 18.7355L -5.95674e-07 1.95743C -5.95674e-07 1.43829 0.205646 0.94041 0.5717 0.573319C 0.937753 0.206229 1.43423 -1.02405e-06 1.9519 -1.02405e-06L 28.1632 -1.02405e-06C 28.6809 -1.02405e-06 29.1773 0.206229 29.5434 0.573319C 29.9094 0.94041 30.1151 1.43829 30.1151 1.95743L 30.1151 18.7355C 30.1151 19.2546 29.9094 19.7525 29.5434 20.1196C 29.1773 20.4867 28.6809 20.6929 28.1632 20.6929ZM 1.9519 1.11853C 1.73004 1.11853 1.51727 1.20692 1.36039 1.36424C 1.20351 1.52157 1.11537 1.73494 1.11537 1.95743L 1.11537 18.7355C 1.11537 18.9579 1.20351 19.1713 1.36039 19.3286C 1.51727 19.486 1.73004 19.5744 1.9519 19.5744L 28.1632 19.5744C 28.3851 19.5744 28.5978 19.486 28.7547 19.3286C 28.9116 19.1713 28.9997 18.9579 28.9997 18.7355L 28.9997 1.95743C 28.9997 1.73494 28.9116 1.52157 28.7547 1.36424C 28.5978 1.20692 28.3851 1.11853 28.1632 1.11853L 1.9519 1.11853Z"/>
<path id="path9_fill" d="M 4.80726 5.7269L 2.85536 5.7269C 2.09807 5.7269 1.3718 5.42521 0.836314 4.88821C 0.300831 4.35121 5.10578e-07 3.62288 5.10578e-07 2.86344C 5.10578e-07 2.10401 0.300831 1.37569 0.836314 0.838687C 1.3718 0.301686 2.09807 -1.02405e-06 2.85536 -1.02405e-06L 4.80726 -1.02405e-06C 5.56603 -1.02405e-06 6.29372 0.302275 6.83025 0.840325C 7.36677 1.37837 7.66819 2.10813 7.66819 2.86904C 7.66819 3.62996 7.36677 4.35971 6.83025 4.89776C 6.29372 5.43581 5.56603 5.73808 4.80726 5.73808L 4.80726 5.7269ZM 2.85536 1.16328C 2.39241 1.16328 1.94841 1.34771 1.62106 1.67599C 1.2937 2.00428 1.1098 2.44952 1.1098 2.91379C 1.1098 3.37805 1.2937 3.8233 1.62106 4.15158C 1.94841 4.47986 2.39241 4.66429 2.85536 4.66429L 4.80726 4.66429C 5.26873 4.66429 5.7113 4.48045 6.03761 4.15322C 6.36392 3.82598 6.54724 3.38215 6.54724 2.91937C 6.54724 2.45659 6.36392 2.01277 6.03761 1.68553C 5.7113 1.3583 5.26873 1.17446 4.80726 1.17446L 2.85536 1.16328Z"/>
<path id="path10_fill" d="M 4.80726 5.7269L 2.85536 5.7269C 2.09807 5.7269 1.3718 5.42521 0.836315 4.88821C 0.300832 4.35121 7.92521e-15 3.62288 3.9626e-15 2.86344C 3.9626e-15 2.10401 0.300832 1.37569 0.836315 0.838687C 1.3718 0.301686 2.09807 -1.02405e-06 2.85536 -1.02405e-06L 4.80726 -1.02405e-06C 5.56603 -1.02405e-06 6.29372 0.302275 6.83025 0.840325C 7.36678 1.37837 7.66819 2.10813 7.66819 2.86904C 7.66819 3.62996 7.36678 4.35971 6.83025 4.89776C 6.29372 5.43581 5.56603 5.73808 4.80726 5.73808L 4.80726 5.7269ZM 2.85536 1.16328C 2.3924 1.16328 1.94842 1.34771 1.62106 1.67599C 1.2937 2.00428 1.1098 2.44952 1.1098 2.91379C 1.1098 3.37805 1.2937 3.8233 1.62106 4.15158C 1.94842 4.47986 2.3924 4.66429 2.85536 4.66429L 4.80726 4.66429C 5.26873 4.66429 5.7113 4.48045 6.03761 4.15322C 6.36392 3.82598 6.54724 3.38215 6.54724 2.91937C 6.54724 2.45659 6.36392 2.01277 6.03761 1.68553C 5.7113 1.3583 5.26873 1.17446 4.80726 1.17446L 2.85536 1.16328Z"/>
<path id="path11_fill" d="M 4.49566 5.68216L 2.49914 5.68216C 1.80898 5.59513 1.17423 5.25846 0.714071 4.73534C 0.253914 4.21222 -1.87079e-06 3.53864 -1.87079e-06 2.84108C -1.87079e-06 2.14351 0.253914 1.46994 0.714071 0.946819C 1.17423 0.423702 1.80898 0.0870252 2.49914 0L 4.45104 0C 5.20981 0 5.93749 0.302276 6.47402 0.840326C 7.01055 1.37838 7.31197 2.10813 7.31197 2.86904C 7.31197 3.62996 7.01055 4.35971 6.47402 4.89776C 5.93749 5.43581 5.20981 5.73808 4.45104 5.73808L 4.49566 5.68216ZM 2.49914 1.11853C 2.03618 1.11853 1.5922 1.30297 1.26484 1.63125C 0.937483 1.95953 0.753577 2.40478 0.753577 2.86904C 0.753577 3.33331 0.937483 3.77855 1.26484 4.10684C 1.5922 4.43512 2.03618 4.61954 2.49914 4.61954L 4.45104 4.61954C 4.91251 4.61954 5.35508 4.43571 5.68139 4.10848C 6.0077 3.78124 6.19102 3.33741 6.19102 2.87463C 6.19102 2.41185 6.0077 1.96803 5.68139 1.64079C 5.35508 1.31356 4.91251 1.12972 4.45104 1.12972L 2.49914 1.11853Z"/>
<path id="path12_fill" d="M 4.80726 5.7269L 2.85536 5.7269C 2.09807 5.7269 1.3718 5.42521 0.836314 4.88821C 0.300831 4.35121 5.10578e-07 3.62288 5.10578e-07 2.86344C 5.10578e-07 2.10401 0.300831 1.37569 0.836314 0.838687C 1.3718 0.301686 2.09807 -1.02405e-06 2.85536 -1.02405e-06L 4.80726 -1.02405e-06C 5.56603 -9.78695e-07 6.29372 0.302275 6.83025 0.840325C 7.36677 1.37837 7.66819 2.10813 7.66819 2.86904C 7.66819 3.62996 7.36677 4.35971 6.83025 4.89776C 6.29372 5.43581 5.56603 5.73808 4.80726 5.73808L 4.80726 5.7269ZM 2.85536 1.11853C 2.39241 1.11853 1.94841 1.30297 1.62106 1.63125C 1.2937 1.95953 1.1098 2.40478 1.1098 2.86904C 1.1098 3.33331 1.2937 3.77855 1.62106 4.10684C 1.94841 4.43512 2.39241 4.61954 2.85536 4.61954L 4.80726 4.61954C 5.26873 4.61954 5.7113 4.43571 6.03761 4.10847C 6.36392 3.78124 6.54724 3.33741 6.54724 2.87463C 6.54724 2.41185 6.36392 1.96802 6.03761 1.64079C 5.7113 1.31356 5.26873 1.12972 4.80726 1.12972L 2.85536 1.11853Z"/>
<path id="path13_fill" d="M 4.80726 5.7269L 2.85536 5.7269C 2.09807 5.7269 1.3718 5.42521 0.836315 4.88821C 0.300832 4.35121 7.92521e-15 3.62288 3.9626e-15 2.86344C 3.9626e-15 2.10401 0.300832 1.37569 0.836315 0.838687C 1.3718 0.301686 2.09807 -1.02405e-06 2.85536 -1.02405e-06L 4.80726 -1.02405e-06C 5.18297 -1.04651e-06 5.55499 0.0742117 5.90209 0.218394C 6.2492 0.362577 6.56458 0.57391 6.83025 0.840325C 7.09591 1.10674 7.30664 1.42302 7.45042 1.77111C 7.5942 2.1192 7.66819 2.49227 7.66819 2.86904C 7.66819 3.24581 7.5942 3.61889 7.45042 3.96698C 7.30664 4.31506 7.09591 4.63135 6.83025 4.89776C 6.56458 5.16418 6.2492 5.37551 5.90209 5.51969C 5.55499 5.66387 5.18297 5.73808 4.80726 5.73808L 4.80726 5.7269ZM 2.85536 1.11853C 2.3924 1.11853 1.94842 1.30297 1.62106 1.63125C 1.2937 1.95953 1.1098 2.40478 1.1098 2.86904C 1.1098 3.33331 1.2937 3.77855 1.62106 4.10684C 1.94842 4.43512 2.3924 4.61954 2.85536 4.61954L 4.80726 4.61954C 5.26873 4.61954 5.7113 4.43571 6.03761 4.10847C 6.36392 3.78124 6.54724 3.33741 6.54724 2.87463C 6.54724 2.41185 6.36392 1.96802 6.03761 1.64079C 5.7113 1.31356 5.26873 1.12972 4.80726 1.12972L 2.85536 1.11853Z"/>
<path id="path14_fill" d="M 4.85188 5.7269L 2.85536 5.7269C 2.09807 5.7269 1.3718 5.42521 0.836316 4.88821C 0.300833 4.35121 -1.53173e-06 3.62288 -1.53173e-06 2.86344C -1.53173e-06 2.10401 0.300833 1.37569 0.836316 0.838687C 1.3718 0.301686 2.09807 -1.02405e-06 2.85536 -1.02405e-06L 4.80726 -1.02405e-06C 5.56603 -9.78695e-07 6.29372 0.302275 6.83025 0.840325C 7.36677 1.37837 7.66819 2.10813 7.66819 2.86904C 7.66819 3.62996 7.36677 4.35971 6.83025 4.89776C 6.29372 5.43581 5.56603 5.73808 4.80726 5.73808L 4.85188 5.7269ZM 2.85536 1.11853C 2.39241 1.11853 1.94842 1.30297 1.62106 1.63125C 1.2937 1.95953 1.1098 2.40478 1.1098 2.86904C 1.1098 3.33331 1.2937 3.77855 1.62106 4.10684C 1.94842 4.43512 2.39241 4.61954 2.85536 4.61954L 4.80726 4.61954C 5.26873 4.61954 5.71131 4.43571 6.03762 4.10847C 6.36393 3.78124 6.54725 3.33741 6.54725 2.87463C 6.54725 2.41185 6.36393 1.96802 6.03762 1.64079C 5.71131 1.31356 5.26873 1.12972 4.80726 1.12972L 2.85536 1.11853Z"/>
<path id="path15_fill" d="M 4.81284 5.73808L 2.86093 5.73808C 2.10217 5.73808 1.37448 5.43581 0.837949 4.89776C 0.301419 4.35971 -6.8077e-07 3.62996 -6.8077e-07 2.86904C -6.8077e-07 2.10812 0.301419 1.37837 0.837949 0.840323C 1.37448 0.302273 2.10217 -3.4135e-06 2.86093 -3.4135e-06L 4.81284 -3.4135e-06C 5.5716 -3.4135e-06 6.29929 0.302273 6.83582 0.840323C 7.37235 1.37837 7.67377 2.10812 7.67377 2.86904C 7.67377 3.62996 7.37235 4.35971 6.83582 4.89776C 6.29929 5.43581 5.5716 5.73808 4.81284 5.73808ZM 2.86093 1.11853C 2.39798 1.11853 1.95399 1.30296 1.62664 1.63125C 1.29928 1.95953 1.11537 2.40478 1.11537 2.86904C 1.11537 3.3333 1.29928 3.77855 1.62664 4.10683C 1.95399 4.43512 2.39798 4.61955 2.86093 4.61955L 4.81284 4.61955C 5.27431 4.61955 5.71688 4.43571 6.04319 4.10847C 6.3695 3.78124 6.55282 3.33741 6.55282 2.87463C 6.55282 2.41185 6.3695 1.96803 6.04319 1.6408C 5.71688 1.31356 5.27431 1.12972 4.81284 1.12972L 2.86093 1.11853Z"/>
<path id="path16_fill" d="M 4.81284 5.73808L 2.86093 5.73808C 2.10217 5.73808 1.37448 5.43581 0.837948 4.89776C 0.301419 4.35971 9.36059e-07 3.62996 9.36059e-07 2.86904C 9.36059e-07 2.10812 0.301419 1.37837 0.837948 0.840323C 1.37448 0.302273 2.10217 -3.4135e-06 2.86093 -3.4135e-06L 4.81284 -3.4135e-06C 5.57161 -3.4135e-06 6.29929 0.302273 6.83582 0.840323C 7.37235 1.37837 7.67377 2.10812 7.67377 2.86904C 7.67377 3.62996 7.37235 4.35971 6.83582 4.89776C 6.29929 5.43581 5.57161 5.73808 4.81284 5.73808ZM 2.86093 1.11853C 2.39798 1.11853 1.95399 1.30296 1.62664 1.63125C 1.29928 1.95953 1.11537 2.40478 1.11537 2.86904C 1.11537 3.3333 1.29928 3.77855 1.62664 4.10683C 1.95399 4.43512 2.39798 4.61955 2.86093 4.61955L 4.81284 4.61955C 5.27431 4.61955 5.71688 4.43571 6.04319 4.10847C 6.3695 3.78124 6.55282 3.33741 6.55282 2.87463C 6.55282 2.41185 6.3695 1.96803 6.04319 1.6408C 5.71688 1.31356 5.27431 1.12972 4.81284 1.12972L 2.86093 1.11853Z"/>
<path id="path17_fill" d="M 4.85745 5.73808L 2.86093 5.73808C 2.10217 5.73808 1.37448 5.43581 0.837949 4.89776C 0.30142 4.35971 1.53173e-06 3.62996 1.53173e-06 2.86904C 1.53173e-06 2.10812 0.30142 1.37837 0.837949 0.840323C 1.37448 0.302273 2.10217 -3.4135e-06 2.86093 -3.4135e-06L 4.81284 -3.4135e-06C 5.5716 -3.4135e-06 6.29929 0.302273 6.83582 0.840323C 7.37235 1.37837 7.67377 2.10812 7.67377 2.86904C 7.67377 3.62996 7.37235 4.35971 6.83582 4.89776C 6.29929 5.43581 5.5716 5.73808 4.81284 5.73808L 4.85745 5.73808ZM 2.86093 1.12972C 2.39798 1.12972 1.95399 1.31415 1.62664 1.64243C 1.29928 1.97072 1.11538 2.41596 1.11538 2.88023C 1.11538 3.34449 1.29928 3.78974 1.62664 4.11802C 1.95399 4.44631 2.39798 4.63073 2.86093 4.63073L 4.81284 4.63073C 5.27431 4.63073 5.71688 4.4469 6.04319 4.11966C 6.3695 3.79243 6.55282 3.3486 6.55282 2.88582C 6.55282 2.42304 6.3695 1.97921 6.04319 1.65198C 5.71688 1.32474 5.27431 1.14091 4.81284 1.14091L 2.86093 1.12972Z"/>
<path id="path18_fill" d="M 4.26677 0L 2.30093 0C 1.03016 0 0 1.03016 0 2.30093C 0 3.5717 1.03016 4.60186 2.30093 4.60186L 4.26677 4.60186C 5.53754 4.60186 6.5677 3.5717 6.5677 2.30093C 6.5677 1.03016 5.53754 0 4.26677 0Z"/>
<path id="path19_fill" d="M 4.26677 0L 2.30093 0C 1.03016 0 0 1.03016 0 2.30092C 0 3.57169 1.03016 4.60186 2.30093 4.60186L 4.26677 4.60186C 5.53754 4.60186 6.5677 3.57169 6.5677 2.30092C 6.5677 1.03016 5.53754 0 4.26677 0Z"/>
<path id="path20_fill" d="M 4.2556 0L 2.30093 0C 1.03016 0 0 1.03016 0 2.30093C 0 3.5717 1.03016 4.60186 2.30093 4.60186L 4.2556 4.60186C 5.52637 4.60186 6.55653 3.5717 6.55653 2.30093C 6.55653 1.03016 5.52637 0 4.2556 0Z"/>
<path id="path21_fill" d="M 4.2556 0L 2.30093 0C 1.03016 0 0 1.03016 0 2.30092C 0 3.57169 1.03016 4.60186 2.30093 4.60186L 4.2556 4.60186C 5.52637 4.60186 6.55653 3.57169 6.55653 2.30092C 6.55653 1.03016 5.52637 0 4.2556 0Z"/>
<path id="path22_fill" d="M 9.94913 14.2054C 4.46149 14.2054 1.36154e-06 11.0176 1.36154e-06 7.1027C 1.36154e-06 3.18783 4.46149 -4.0962e-06 9.94913 -4.0962e-06C 15.4368 -4.0962e-06 19.8983 3.18783 19.8983 7.1027C 19.8983 11.0176 15.4368 14.2054 9.94913 14.2054ZM 9.94913 1.10735C 5.07495 1.10735 1.11538 3.79183 1.11538 7.09151C 1.11538 10.3912 5.07495 13.0757 9.94913 13.0757C 14.8233 13.0757 18.7829 10.3912 18.7829 7.09151C 18.7829 3.79183 14.8233 1.10735 9.94913 1.10735Z"/>
</defs>
</svg>
