<svg width="81" height="140" viewBox="0 0 81 140" version="1.1" xmlns="http://www.w3.org/2000/svg" xmlns:xlink="http://www.w3.org/1999/xlink">
<title>Phone</title>
<desc>Created using Figma</desc>
<g id="Canvas" transform="translate(-39460 4210)">
<g id="Phone">
<g id="pay Sberbank online">
<g id="Rectangle 72">
<mask id="mask0_outline_ins">
<use xlink:href="#path0_fill" fill="white" transform="translate(39463 -4192)"/>
</mask>
<g mask="url(#mask0_outline_ins)">
<use xlink:href="#path1_stroke_2x" transform="translate(39463 -4192)" fill="#F99531"/>
</g>
</g>
<g id="Rectangle 63">
<mask id="mask1_outline_ins">
<use xlink:href="#path2_fill" fill="white" transform="translate(39460 -4210)"/>
</mask>
<g mask="url(#mask1_outline_ins)">
<use xlink:href="#path3_stroke_2x" transform="translate(39460 -4210)" fill="#F99531"/>
</g>
</g>
<g id="Ellipse 7">
<mask id="mask2_outline_ins">
<use xlink:href="#path4_fill" fill="white" transform="translate(39494 -4089)"/>
</mask>
<g mask="url(#mask2_outline_ins)">
<use xlink:href="#path5_stroke_2x" transform="translate(39494 -4089)" fill="#F99531"/>
</g>
</g>
<g id="Line 3">
<use xlink:href="#path6_stroke" transform="translate(39493 -4199)" fill="#F99531"/>
</g>
<g id="Ellipse 8">
<mask id="mask3_outline_ins">
<use xlink:href="#path7_fill" fill="white" transform="translate(39488 -4201)"/>
</mask>
<g mask="url(#mask3_outline_ins)">
<use xlink:href="#path8_stroke_2x" transform="translate(39488 -4201)" fill="#F99531"/>
</g>
</g>
<g id="Ellipse 9">
<use xlink:href="#path9_fill" transform="translate(39474 -4170)" fill="#F99531"/>
</g>
<g id="Sb_logo">
<g id="path2248">
<use xlink:href="#path10_fill" transform="matrix(-1 0 0 1 39514 -4155)" fill="#FFFFFF"/>
</g>
</g>
</g>
</g>
</g>
<defs>
<path id="path0_fill" d="M 0 0L 75 0L 75 101L 0 101L 0 0Z"/>
<path id="path1_stroke_2x" d="M 0 0L 0 -1L -1 -1L -1 0L 0 0ZM 75 0L 76 0L 76 -1L 75 -1L 75 0ZM 75 101L 75 102L 76 102L 76 101L 75 101ZM 0 101L -1 101L -1 102L 0 102L 0 101ZM 0 1L 75 1L 75 -1L 0 -1L 0 1ZM 74 0L 74 101L 76 101L 76 0L 74 0ZM 75 100L 0 100L 0 102L 75 102L 75 100ZM 1 101L 1 0L -1 0L -1 101L 1 101Z"/>
<path id="path2_fill" d="M 0 10C 0 4.47715 4.47715 0 10 0L 71 0C 76.5229 0 81 4.47715 81 10L 81 130C 81 135.523 76.5229 140 71 140L 10 140C 4.47715 140 0 135.523 0 130L 0 10Z"/>
<path id="path3_stroke_2x" d="M 10 1L 71 1L 71 -1L 10 -1L 10 1ZM 80 10L 80 130L 82 130L 82 10L 80 10ZM 71 139L 10 139L 10 141L 71 141L 71 139ZM 1 130L 1 10L -1 10L -1 130L 1 130ZM 10 -1C 3.92487 -1 -1 3.92487 -1 10L 1 10C 1 5.02944 5.02944 1 10 1L 10 -1ZM 71 1C 75.9706 1 80 5.02944 80 10L 82 10C 82 3.92487 77.0751 -1 71 -1L 71 1ZM 80 130C 80 134.971 75.9706 139 71 139L 71 141C 77.0751 141 82 136.075 82 130L 80 130ZM 10 139C 5.02944 139 1 134.971 1 130L -1 130C -1 136.075 3.92487 141 10 141L 10 139Z"/>
<path id="path4_fill" d="M 14 7C 14 10.866 10.866 14 7 14C 3.13401 14 0 10.866 0 7C 0 3.13401 3.13401 0 7 0C 10.866 0 14 3.13401 14 7Z"/>
<path id="path5_stroke_2x" d="M 13 7C 13 10.3137 10.3137 13 7 13L 7 15C 11.4183 15 15 11.4183 15 7L 13 7ZM 7 13C 3.68629 13 1 10.3137 1 7L -1 7C -1 11.4183 2.58172 15 7 15L 7 13ZM 1 7C 1 3.68629 3.68629 1 7 1L 7 -1C 2.58172 -1 -1 2.58172 -1 7L 1 7ZM 7 1C 10.3137 1 13 3.68629 13 7L 15 7C 15 2.58172 11.4183 -1 7 -1L 7 1Z"/>
<path id="path6_stroke" d="M 0.5 -1C 0.223858 -1 0 -0.776142 0 -0.5C 0 -0.223858 0.223858 0 0.5 0L 0.5 -1ZM 14.5 0C 14.7761 0 15 -0.223858 15 -0.5C 15 -0.776142 14.7761 -1 14.5 -1L 14.5 0ZM 0.5 0L 14.5 0L 14.5 -1L 0.5 -1L 0.5 0Z"/>
<path id="path7_fill" d="M 3 1.5C 3 2.32843 2.32843 3 1.5 3C 0.671573 3 0 2.32843 0 1.5C 0 0.671573 0.671573 0 1.5 0C 2.32843 0 3 0.671573 3 1.5Z"/>
<path id="path8_stroke_2x" d="M 2 1.5C 2 1.77614 1.77614 2 1.5 2L 1.5 4C 2.88071 4 4 2.88071 4 1.5L 2 1.5ZM 1.5 2C 1.22386 2 1 1.77614 1 1.5L -1 1.5C -1 2.88071 0.119288 4 1.5 4L 1.5 2ZM 1 1.5C 1 1.22386 1.22386 1 1.5 1L 1.5 -1C 0.119288 -1 -1 0.119288 -1 1.5L 1 1.5ZM 1.5 1C 1.77614 1 2 1.22386 2 1.5L 4 1.5C 4 0.119288 2.88071 -1 1.5 -1L 1.5 1Z"/>
<path id="path9_fill" d="M 54 27C 54 41.9117 41.9117 54 27 54C 12.0883 54 0 41.9117 0 27C 0 12.0883 12.0883 0 27 0C 41.9117 0 54 12.0883 54 27Z"/>
<path id="path10_fill" d="M 10.7471 23.856C 8.54817 23.4442 6.26053 22.3661 4.65508 20.985C 2.14781 18.8281 0.66124 16.193 0.174038 13.0421C -0.0596183 11.5309 -0.0586388 11.0107 0.180828 9.43796C 0.359748 8.26287 0.945635 6.21325 1.10262 6.21325C 1.1405 6.21325 1.49643 6.40662 1.89358 6.64298C 2.29073 6.87933 2.81765 7.18431 3.06451 7.32072C 3.47886 7.54967 8.05485 10.1571 11.5212 12.1395C 12.3285 12.6011 13.021 12.969 13.0601 12.9571C 13.0992 12.9451 14.17 12.3444 15.4396 11.6221C 16.7091 10.8998 19.1329 9.52094 20.8256 8.55788C 22.5184 7.59481 24.1264 6.66845 24.399 6.49929C 24.6716 6.33013 24.9401 6.23925 24.9957 6.29733C 25.0513 6.35541 25.2416 6.85954 25.4186 7.4176C 27.0861 12.6764 25.0829 18.4692 20.486 21.6817C 19.3308 22.4889 17.4536 23.3469 16.1393 23.6683C 14.7098 24.0179 12.0973 24.1088 10.7471 23.856ZM 8.77115 9.04334C 6.51414 7.7505 4.01829 6.32309 3.22481 5.87131C 2.43133 5.41954 1.78212 4.99754 1.78212 4.93353C 1.78212 4.86953 1.92905 4.58765 2.10862 4.30713L 2.43513 3.79709L 2.846 4.04584C 4.34619 4.95411 12.9013 9.78828 13.0149 9.79185C 13.0919 9.79428 14.1018 9.25416 15.259 8.59158C 22.0089 4.72706 23.2557 4.0249 23.4624 3.97157C 23.7331 3.90177 24.468 4.88997 24.2765 5.06627C 24.067 5.25915 13.307 11.2998 13.0879 11.3475C 12.9707 11.3731 11.0282 10.3362 8.77115 9.04334ZM 11.9771 7.7347C 11.1137 7.23168 7.92502 5.40848 4.17112 3.27145L 3.29003 2.76985L 3.80636 2.26069L 4.32269 1.75152L 6.4828 2.98477C 7.67086 3.66306 9.62967 4.78193 10.8357 5.47115L 13.0285 6.72429L 14.9394 5.63369C 15.9903 5.03386 17.9272 3.92301 19.2436 3.16513C 20.56 2.40725 21.6902 1.78716 21.7553 1.78716C 21.8204 1.78716 22.0755 2.00894 22.3222 2.28001L 22.7709 2.77286L 18.2717 5.33157C 15.7971 6.73886 13.5993 7.98975 13.3878 8.11133L 13.003 8.33237L 11.9771 7.7347ZM 9.12776 3.00701C 7.13742 1.884 5.50718 0.928426 5.50501 0.883512C 5.50283 0.838598 5.78616 0.621434 6.13463 0.400925L 6.76821 0L 9.62914 1.63441C 11.2027 2.53333 12.6174 3.33446 12.773 3.41469C 13.0242 3.54422 13.4037 3.36293 16.1614 1.79589C 18.8399 0.273867 19.3036 0.0502108 19.5333 0.169362C 19.6798 0.245343 19.8286 0.34167 19.8638 0.383422C 19.8991 0.425175 20.0334 0.516243 20.1623 0.585795C 20.2911 0.655348 20.4029 0.769162 20.4106 0.838714C 20.4303 1.01582 13.317 5.06621 13.003 5.05666C 12.862 5.05236 11.1181 4.13002 9.12776 3.00701Z"/>
</defs>
</svg>
