<svg width="24" height="24" viewBox="0 0 24 24" version="1.1" xmlns="http://www.w3.org/2000/svg" xmlns:xlink="http://www.w3.org/1999/xlink">
<title>Group</title>
<desc>Created using Figma</desc>
<g id="Canvas" transform="translate(-32895 1126)">
<g id="Group">
<g id="Rectangle 39">
<use xlink:href="#path0_fill" transform="translate(32895 -1126)" fill="#222328"/>
</g>
<g id="i">
<use xlink:href="#path1_fill" transform="translate(32906 -1120)" fill="#FFFFFF"/>
</g>
<g id="i">
<use xlink:href="#path1_fill" transform="matrix(6.12323e-17 1 -1 6.12323e-17 32913.5 -1115)" fill="#FFFFFF"/>
</g>
</g>
</g>
<defs>
<path id="path0_fill" d="M 0 12C 0 5.37258 5.37258 0 12 0C 18.6274 0 24 5.37258 24 12C 24 18.6274 18.6274 24 12 24C 5.37258 24 0 18.6274 0 12Z"/>
<path id="path1_fill" d="M 1 12.5C 0.447715 12.5 0 12.0523 0 11.5L 0 1C 0 0.447715 0.447715 0 1 0C 1.55228 0 2 0.447715 2 1L 2 11.5C 2 12.0523 1.55228 12.5 1 12.5Z"/>
</defs>
</svg>
