<svg width="36" height="36" viewBox="0 0 36 36" version="1.1" xmlns="http://www.w3.org/2000/svg" xmlns:xlink="http://www.w3.org/1999/xlink">
<title>repeat</title>
<desc>Created using Figma</desc>
<g id="Canvas" transform="translate(-30173 -605)">
<g id="repeat">
<g id="Page-1">
<g id="Artboard">
<g id="Group-2">
<g id="Oval-2">
<use xlink:href="#path0_stroke" transform="matrix(0.707107 0.707107 -0.707107 0.707107 30191 607)" fill="#FFFFFF"/>
</g>
<g id="Group">
<g id="Path-2">
<use xlink:href="#path1_stroke" transform="translate(30179.9 619.97)" fill="#FFFFFF"/>
</g>
<g id="Path-2-Copy">
<use xlink:href="#path2_stroke" transform="matrix(-1 0 0 1 30179.9 620.175)" fill="#FFFFFF"/>
</g>
</g>
</g>
</g>
</g>
</g>
</g>
<defs>
<path id="path0_stroke" d="M 11.3137 21.6274C 10.7614 21.6274 10.3137 22.0751 10.3137 22.6274C 10.3137 23.1797 10.7614 23.6274 11.3137 23.6274L 11.3137 21.6274ZM 19.4948 19.1285L 20.2178 19.8193L 19.4948 19.1285ZM 19.1887 3.19065L 18.4926 3.90857L 19.1887 3.19065ZM 3.12858 3.5032L 2.40521 2.81274L 3.12858 3.5032ZM 3.04698 20.4401C 3.4562 20.811 4.0886 20.7799 4.45949 20.3707C 4.83037 19.9614 4.79929 19.329 4.39007 18.9582L 3.04698 20.4401ZM 11.3137 23.6274C 14.8153 23.6274 17.9769 22.1645 20.2178 19.8193L 18.7718 18.4376C 16.8926 20.4043 14.2468 21.6274 11.3137 21.6274L 11.3137 23.6274ZM 20.2178 19.8193C 22.3292 17.6096 23.6274 14.6122 23.6274 11.3137L 21.6274 11.3137C 21.6274 14.0772 20.5418 16.5851 18.7718 18.4376L 20.2178 19.8193ZM 23.6274 11.3137C 23.6274 7.84489 22.1918 4.70963 19.8849 2.47274L 18.4926 3.90857C 20.4271 5.78435 21.6274 8.40798 21.6274 11.3137L 23.6274 11.3137ZM 19.8849 2.47274C 17.6691 0.324185 14.645 -1 11.3137 -1L 11.3137 1C 14.1046 1 16.6349 2.10723 18.4926 3.90857L 19.8849 2.47274ZM 11.3137 -1C 7.80979 -1 4.64632 0.464815 2.40521 2.81274L 3.85195 4.19366C 5.73135 2.22468 8.37868 1 11.3137 1L 11.3137 -1ZM 2.40521 2.81274C 0.296455 5.02199 -1 8.01751 -1 11.3137L 1 11.3137C 1 8.55209 2.08408 6.04578 3.85195 4.19366L 2.40521 2.81274ZM -1 11.3137C -1 14.9329 0.562668 18.1885 3.04698 20.4401L 4.39007 18.9582C 2.30643 17.0697 1 14.345 1 11.3137L -1 11.3137Z"/>
<path id="path1_stroke" d="M -0.707107 3.48922C -1.09763 3.87974 -1.09763 4.51291 -0.707107 4.90343C -0.316583 5.29396 0.316582 5.29396 0.707107 4.90343L -0.707107 3.48922ZM 4.90343 0.707107C 5.29396 0.316583 5.29396 -0.316582 4.90343 -0.707107C 4.51291 -1.09763 3.87974 -1.09763 3.48922 -0.707107L 4.90343 0.707107ZM 0.707107 4.90343L 4.90343 0.707107L 3.48922 -0.707107L -0.707107 3.48922L 0.707107 4.90343Z"/>
<path id="path2_stroke" d="M -0.707107 3.28448C -1.09763 3.675 -1.09763 4.30816 -0.707107 4.69869C -0.316583 5.08921 0.316583 5.08921 0.707107 4.69869L -0.707107 3.28448ZM 4.69869 0.707107C 5.08921 0.316583 5.08921 -0.316583 4.69869 -0.707107C 4.30816 -1.09763 3.675 -1.09763 3.28448 -0.707107L 4.69869 0.707107ZM 0.707107 4.69869L 4.69869 0.707107L 3.28448 -0.707107L -0.707107 3.28448L 0.707107 4.69869Z"/>
</defs>
</svg>
