<svg width="179" height="148" viewBox="0 0 179 148" version="1.1" xmlns="http://www.w3.org/2000/svg" xmlns:xlink="http://www.w3.org/1999/xlink">
<title>Layer 2</title>
<desc>Created using Figma</desc>
<g id="Canvas" transform="translate(-8343 -1204)">
<g id="Layer 2">
<g id="Layer 1">
<g id="Vector">
<use xlink:href="#path0_fill" transform="translate(8400.11 1338.17)" fill="#FFFFFF"/>
<use xlink:href="#path0_fill" transform="translate(8400.11 1338.17)" fill="#F99531"/>
<use xlink:href="#path0_fill" transform="translate(8400.11 1338.17)" fill="#4F5362"/>
</g>
<g id="Vector">
<use xlink:href="#path1_fill" transform="translate(8429.01 1310.65)" fill="#FFFFFF"/>
<use xlink:href="#path1_fill" transform="translate(8429.01 1310.65)" fill="#F99531"/>
<use xlink:href="#path1_fill" transform="translate(8429.01 1310.65)" fill="#4F5362"/>
</g>
<g id="Vector">
<use xlink:href="#path2_fill" transform="translate(8422.37 1301.96)" fill="#FFFFFF"/>
<use xlink:href="#path2_fill" transform="translate(8422.37 1301.96)" fill="#F99531"/>
<use xlink:href="#path2_fill" transform="translate(8422.37 1301.96)" fill="#4F5362"/>
</g>
<g id="Vector">
<use xlink:href="#path3_fill" transform="translate(8415.83 1293.72)" fill="#FFFFFF"/>
<use xlink:href="#path3_fill" transform="translate(8415.83 1293.72)" fill="#F99531"/>
<use xlink:href="#path3_fill" transform="translate(8415.83 1293.72)" fill="#4F5362"/>
</g>
<g id="Vector">
<use xlink:href="#path4_fill" transform="translate(8409.22 1284.08)" fill="#FFFFFF"/>
<use xlink:href="#path4_fill" transform="translate(8409.22 1284.08)" fill="#F99531"/>
<use xlink:href="#path4_fill" transform="translate(8409.22 1284.08)" fill="#4F5362"/>
</g>
<g id="Vector">
<use xlink:href="#path5_fill" transform="translate(8343 1204)" fill="#FFFFFF"/>
<use xlink:href="#path5_fill" transform="translate(8343 1204)" fill="#F99531"/>
<use xlink:href="#path5_fill" transform="translate(8343 1204)" fill="#4F5362"/>
</g>
</g>
</g>
</g>
<defs>
<path id="path0_fill" d="M 64.17 4L 64.17 -1.83105e-06L -1.52588e-06 -1.83105e-06L -1.52588e-06 4L 64.17 4ZM 49.17 3L 43.26 3L 43.26 0.999998L 49.17 0.999998L 49.17 3ZM 50.17 0.999998L 56.08 0.999998L 56.08 3L 50.17 3L 50.17 0.999998ZM 42.26 3L 36.33 3L 36.33 0.999998L 42.24 0.999998L 42.26 3ZM 35.35 3L 29.41 3L 29.41 0.999998L 35.32 0.999998L 35.35 3ZM 28.44 3L 22.5 3L 22.5 0.999998L 28.41 0.999998L 28.44 3ZM 21.53 3L 15.58 3L 15.58 0.999998L 21.5 0.999998L 21.53 3ZM 14.62 3L 8.67 3L 8.67 0.999998L 14.58 0.999998L 14.62 3ZM 63.21 3L 57.11 3L 57.11 0.999998L 63.21 0.999998L 63.21 3ZM 1.04 0.999998L 7.71 0.999998L 7.71 3L 0.999998 3L 1.04 0.999998Z"/>
<path id="path1_fill" d="M 1.42109e-14 3.15C 1.42109e-14 3.77301 0.184742 4.38203 0.530869 4.90005C 0.876995 5.41806 1.36896 5.8218 1.94455 6.06022C 2.52014 6.29864 3.15349 6.36102 3.76453 6.23947C 4.37557 6.11793 4.93685 5.81792 5.37739 5.37739C 5.81792 4.93685 6.11793 4.37558 6.23947 3.76454C 6.36101 3.1535 6.29864 2.52013 6.06022 1.94454C 5.8218 1.36896 5.41806 0.876997 4.90005 0.53087C 4.38203 0.184744 3.77301 1.52588e-06 3.15 1.52588e-06C 2.31538 0.00263858 1.5157 0.335355 0.925529 0.925523C 0.335361 1.51569 0.00263705 2.31538 1.42109e-14 3.15Z"/>
<path id="path2_fill" d="M 18.3118 6.51641C 18.6082 6.51615 18.898 6.42803 19.1444 6.26319C 19.3909 6.09835 19.5829 5.86418 19.6963 5.59026C 19.8098 5.31633 19.8395 5.01494 19.7817 4.72414C 19.7239 4.43334 19.5813 4.16618 19.3718 3.95641C 18.1197 2.70221 16.6327 1.70721 14.9957 1.02833C 13.3587 0.349443 11.6039 7.69882e-07 9.83177 7.69882e-07C 8.0596 7.69882e-07 6.30482 0.349443 4.66784 1.02833C 3.03086 1.70721 1.54381 2.70221 0.29177 3.95641C 0.0777457 4.24731 -0.0241385 4.60567 0.00483576 4.96566C 0.0338101 5.32565 0.191697 5.66311 0.449492 5.91604C 0.707288 6.16897 1.04769 6.32039 1.40816 6.34251C 1.76864 6.36462 2.12499 6.25593 2.41176 6.03641C 3.38594 5.06159 4.54266 4.28828 5.81582 3.76067C 7.08897 3.23307 8.45362 2.96151 9.83177 2.96151C 11.2099 2.96151 12.5746 3.23307 13.8477 3.76067C 15.1209 4.28828 16.2776 5.06159 17.2518 6.03641C 17.3876 6.18299 17.5513 6.30095 17.7333 6.38338C 17.9154 6.46581 18.112 6.51104 18.3118 6.51641Z"/>
<path id="path3_fill" d="M 31.2826 9.16465C 31.5791 9.16439 31.8688 9.07628 32.1152 8.91144C 32.3617 8.7466 32.5537 8.51243 32.6672 8.2385C 32.7806 7.96457 32.8103 7.66318 32.7525 7.37238C 32.6947 7.08158 32.5521 6.81442 32.3426 6.60465C 28.1038 2.37526 22.3605 -1.81581e-06 16.3726 -1.81581e-06C 10.3847 -1.81581e-06 4.64134 2.37526 0.402585 6.60465C 0.137625 6.889 -0.0066229 7.26509 0.000233537 7.65369C 0.00708997 8.04229 0.164517 8.41307 0.439343 8.68789C 0.714169 8.96272 1.08494 9.12014 1.47354 9.127C 1.86214 9.13385 2.23823 8.98961 2.52258 8.72465C 6.19883 5.05707 11.1797 2.99736 16.3726 2.99736C 21.5655 2.99736 26.5463 5.05707 30.2226 8.72465C 30.5036 9.00604 30.8849 9.1643 31.2826 9.16465Z"/>
<path id="path4_fill" d="M 2.49258 11.4702C 7.93064 6.03536 15.3043 2.98238 22.9926 2.98238C 30.6809 2.98238 38.0545 6.03536 43.4926 11.4702C 43.7769 11.7352 44.153 11.8794 44.5416 11.8725C 44.9302 11.8657 45.301 11.7083 45.5758 11.4334C 45.8507 11.1586 46.0081 10.7878 46.0149 10.3992C 46.0218 10.0106 45.8775 9.63454 45.6126 9.35019C 39.6133 3.36273 31.4835 -7.13181e-07 23.0076 -7.13181e-07C 14.5316 -7.13181e-07 6.40192 3.36273 0.402584 9.35019C 0.137624 9.63454 -0.00662351 10.0106 0.000232927 10.3992C 0.00708936 10.7878 0.164517 11.1586 0.439343 11.4334C 0.714169 11.7083 1.08494 11.8657 1.47354 11.8725C 1.86214 11.8794 2.23824 11.7352 2.52259 11.4702L 2.49258 11.4702Z"/>
<path id="path5_fill" d="M 178.241 8.58C 178.245 8.54679 178.245 8.51321 178.241 8.48L 176.761 5.17C 176.738 5.1173 176.704 5.07009 176.661 5.03142C 176.619 4.99275 176.568 4.96351 176.514 4.94558C 176.459 4.92766 176.401 4.92146 176.344 4.92739C 176.286 4.93332 176.231 4.95125 176.181 4.98L 173.871 6.33L 173.111 6.86L 130.211 37.19C 130.1 37.2683 130.018 37.3823 129.98 37.5131C 129.942 37.644 129.949 37.784 130.001 37.91L 130.661 39.47L 125.811 43.25L 125.761 43.36C 125.443 44.0503 125.331 44.8178 125.44 45.5701C 125.548 46.3224 125.871 47.0274 126.371 47.6L 126.531 47.75C 126.245 48.0676 126.006 48.4245 125.821 48.81L 125.821 52.17L 95.8212 52.17L 95.8212 49L 95.8212 48.8C 95.5353 48.2127 95.13 47.6916 94.6312 47.27C 94.9051 46.6411 95.0152 45.953 94.9512 45.27L 94.9512 44.76L 97.2112 41.76L 95.1012 0L 89.4912 0L 86.4912 41.55L 86.4912 41.72L 88.4912 44.79L 88.4912 45.26C 88.4228 45.9259 88.5296 46.5981 88.8012 47.21C 88.277 47.654 87.8657 48.2161 87.6012 48.85L 87.6012 52.18L 52.8212 52.18L 52.8212 49L 52.8212 48.8C 52.6364 48.4145 52.3973 48.0576 52.1112 47.74L 52.2712 47.59C 52.771 47.0174 53.0945 46.3125 53.2027 45.5601C 53.311 44.8078 53.1993 44.0403 52.8812 43.35L 52.8312 43.24L 47.9812 39.46L 48.6412 37.9C 48.6932 37.774 48.7007 37.634 48.6625 37.5031C 48.6243 37.3723 48.5427 37.2583 48.4312 37.18L 4.78116 6.34L 2.46116 5C 2.41128 4.97125 2.3559 4.95332 2.29863 4.94739C 2.24136 4.94146 2.18348 4.94766 2.12876 4.96558C 2.07405 4.98351 2.02372 5.01275 1.98106 5.05142C 1.9384 5.09009 1.90436 5.1373 1.88116 5.19L 0.401158 8.48C 0.396975 8.5132 0.396975 8.5468 0.401158 8.58L 0.0111579 10.71C -0.00371931 10.7725 -0.00371931 10.8375 0.0111579 10.9L 0.421158 12.18C 0.452199 12.2729 0.516246 12.3512 0.601158 12.4L 41.0912 47.82C 41.1819 47.899 41.2944 47.9488 41.4138 47.9631C 41.5333 47.9774 41.6543 47.9554 41.7612 47.9L 44.6712 46.35L 45.7512 47.28C 45.2689 47.7102 44.8895 48.2434 44.6412 48.84L 44.6412 52.17L 34.5312 52.17L 11.5312 70.84L 14.5312 142.17L 25.5312 147.72L 152.861 147.72L 163.861 142.17L 166.861 70.84L 143.861 52.17L 134.011 52.17L 134.011 49L 134.011 48.83C 133.763 48.2334 133.383 47.7002 132.901 47.27L 133.981 46.35L 136.891 47.9C 136.998 47.9554 137.119 47.9774 137.238 47.9631C 137.358 47.9488 137.47 47.899 137.561 47.82L 178.011 12.4C 178.096 12.3512 178.16 12.2729 178.191 12.18L 178.601 10.9C 178.616 10.8375 178.616 10.7725 178.601 10.71L 178.241 8.58ZM 94.0812 44.19L 92.1712 44.62L 92.7012 7.89L 94.0112 7L 94.3612 6.31L 96.1112 41.42L 94.0812 44.19ZM 94.1512 1L 94.3112 4.27L 93.3112 6.27L 92.3112 6.99L 91.2512 6.12L 90.2512 4.2L 90.4212 1L 94.1512 1ZM 90.0112 6.14L 90.2912 6.68L 91.6612 7.85L 91.1312 44.63L 89.3112 44.2L 87.5112 41.46L 90.0112 6.14ZM 89.4912 45.27L 91.6112 45.77L 91.9112 45.7L 93.9112 45.26C 93.9369 45.7532 93.8965 46.2475 93.7912 46.73C 93.1309 46.386 92.3956 46.2108 91.6512 46.22C 90.9591 46.2066 90.2737 46.3574 89.6512 46.66C 89.5183 46.2059 89.4809 45.7293 89.5412 45.26L 89.4912 45.27ZM 88.5712 49.11C 88.8994 48.4166 89.4577 47.8583 90.1512 47.53L 90.3812 47.46C 90.7721 47.3143 91.1841 47.2332 91.6012 47.22C 91.7311 47.213 91.8613 47.213 91.9912 47.22C 92.2887 47.279 92.58 47.3661 92.8612 47.48C 93.0249 47.5421 93.1918 47.5955 93.3612 47.64C 93.9591 47.9832 94.4505 48.485 94.7812 49.09L 94.7812 52L 88.6112 52L 88.5712 49.11ZM 44.5612 44.93L 3.92116 10.88L 5.21116 7.88L 47.5512 37.82L 44.5612 44.93ZM 1.34116 8.82L 2.52116 6.18L 4.24116 7.18L 4.38116 7.28L 2.91116 10.71L 1.91116 11.46L 1.31116 11.46L 1.01116 10.73L 1.34116 8.82ZM 41.5412 46.89L 2.21116 12.47L 3.30116 11.66L 43.8512 45.66L 41.5412 46.89ZM 45.3512 45.62L 47.5312 40.43L 52.0112 43.88C 52.2141 44.376 52.2767 44.9182 52.1921 45.4473C 52.1074 45.9765 51.8787 46.4721 51.5312 46.88L 51.3712 47.04C 51.2057 46.918 51.032 46.8077 50.8512 46.71C 50.2514 46.3398 49.5555 46.1554 48.8512 46.18L 48.6712 46.18C 47.9765 46.1747 47.2907 46.3359 46.6712 46.65L 45.3512 45.62ZM 45.6112 49.12C 45.8722 48.5586 46.2843 48.0808 46.8012 47.74C 47.3904 47.4353 48.0385 47.2613 48.7012 47.23C 49.3232 47.2308 49.9339 47.3964 50.4712 47.71L 50.5212 47.71C 51.0572 48.0506 51.4977 48.5221 51.8012 49.08L 51.8012 52L 45.6112 52L 45.6112 49.12ZM 152.261 146.73L 26.1312 146.73L 35.3912 53.18L 143.461 53.18L 152.261 146.73ZM 12.5512 71.29L 34.3412 53.61L 25.1612 146.41L 15.5112 141.54L 12.5512 71.29ZM 162.891 141.54L 153.241 146.41L 144.541 54L 165.841 71.29L 162.891 141.54ZM 174.361 7.18L 176.081 6.18L 177.261 8.82L 177.571 10.74L 177.341 11.47L 176.741 11.47L 175.741 10.72L 174.271 7.29L 174.361 7.18ZM 173.361 7.87L 174.651 10.87L 134.011 44.93L 131.011 37.81L 173.361 7.87ZM 133.011 52L 126.801 52L 126.801 49.12C 127.085 48.5705 127.501 48.0999 128.011 47.75L 128.071 47.75C 128.605 47.4377 129.212 47.2721 129.831 47.27C 130.493 47.3035 131.141 47.4773 131.731 47.78C 132.275 48.0939 132.718 48.5549 133.011 49.11L 133.011 52ZM 130.011 46.17L 129.831 46.17C 129.127 46.1454 128.431 46.3298 127.831 46.7C 127.65 46.7977 127.477 46.908 127.311 47.03L 127.151 46.87C 126.802 46.4632 126.572 45.9675 126.487 45.4379C 126.402 44.9083 126.466 44.3655 126.671 43.87L 131.111 40.41L 133.291 45.6L 132.011 46.68C 131.392 46.3659 130.706 46.2047 130.011 46.21L 130.011 46.17ZM 137.111 46.84L 134.801 45.61L 175.351 11.61L 176.441 12.42L 137.111 46.84Z"/>
</defs>
</svg>
