<svg width="178" height="150" viewBox="0 0 178 150" version="1.1" xmlns="http://www.w3.org/2000/svg" xmlns:xlink="http://www.w3.org/1999/xlink">
<title>server</title>
<desc>Created using Figma</desc>
<g id="Canvas" transform="translate(-34374 4365)">
<g id="server">
<g id="Layer 2">
<g id="Layer 1">
<g id="Vector">
<use xlink:href="#path0_fill" transform="translate(34406.1 -4348.06)" fill="#4F5362"/>
<use xlink:href="#path0_fill" transform="translate(34406.1 -4348.06)" fill="#F99531"/>
</g>
<g id="Vector">
<use xlink:href="#path1_fill" transform="translate(34406.1 -4341.49)" fill="#4F5362"/>
<use xlink:href="#path1_fill" transform="translate(34406.1 -4341.49)" fill="#F99531"/>
</g>
<g id="Vector">
<use xlink:href="#path2_fill" transform="translate(34416 -4348.06)" fill="#4F5362"/>
<use xlink:href="#path2_fill" transform="translate(34416 -4348.06)" fill="#F99531"/>
</g>
<g id="Vector">
<use xlink:href="#path3_fill" transform="translate(34416 -4341.49)" fill="#4F5362"/>
<use xlink:href="#path3_fill" transform="translate(34416 -4341.49)" fill="#F99531"/>
</g>
<g id="Vector">
<use xlink:href="#path4_fill" transform="translate(34411.2 -4344.56)" fill="#4F5362"/>
<use xlink:href="#path4_fill" transform="translate(34411.2 -4344.56)" fill="#F99531"/>
</g>
<g id="Vector">
<use xlink:href="#path0_fill" transform="translate(34426.1 -4348.06)" fill="#4F5362"/>
<use xlink:href="#path0_fill" transform="translate(34426.1 -4348.06)" fill="#F99531"/>
</g>
<g id="Vector">
<use xlink:href="#path1_fill" transform="translate(34426.1 -4341.49)" fill="#4F5362"/>
<use xlink:href="#path1_fill" transform="translate(34426.1 -4341.49)" fill="#F99531"/>
</g>
<g id="Vector">
<use xlink:href="#path5_fill" transform="translate(34421.3 -4344.56)" fill="#4F5362"/>
<use xlink:href="#path5_fill" transform="translate(34421.3 -4344.56)" fill="#F99531"/>
</g>
<g id="Vector">
<use xlink:href="#path6_fill" transform="translate(34436 -4348.06)" fill="#4F5362"/>
<use xlink:href="#path6_fill" transform="translate(34436 -4348.06)" fill="#F99531"/>
</g>
<g id="Vector">
<use xlink:href="#path7_fill" transform="translate(34436 -4341.49)" fill="#4F5362"/>
<use xlink:href="#path7_fill" transform="translate(34436 -4341.49)" fill="#F99531"/>
</g>
<g id="Vector">
<use xlink:href="#path8_fill" transform="translate(34431.2 -4344.56)" fill="#4F5362"/>
<use xlink:href="#path8_fill" transform="translate(34431.2 -4344.56)" fill="#F99531"/>
</g>
<g id="Vector">
<use xlink:href="#path9_fill" transform="translate(34445.6 -4348.06)" fill="#4F5362"/>
<use xlink:href="#path9_fill" transform="translate(34445.6 -4348.06)" fill="#F99531"/>
</g>
<g id="Vector">
<use xlink:href="#path10_fill" transform="translate(34445.6 -4341.49)" fill="#4F5362"/>
<use xlink:href="#path10_fill" transform="translate(34445.6 -4341.49)" fill="#F99531"/>
</g>
<g id="Vector">
<use xlink:href="#path11_fill" transform="translate(34440.7 -4344.56)" fill="#4F5362"/>
<use xlink:href="#path11_fill" transform="translate(34440.7 -4344.56)" fill="#F99531"/>
</g>
<g id="Vector">
<use xlink:href="#path12_fill" transform="translate(34455.4 -4348.06)" fill="#4F5362"/>
<use xlink:href="#path12_fill" transform="translate(34455.4 -4348.06)" fill="#F99531"/>
</g>
<g id="Vector">
<use xlink:href="#path13_fill" transform="translate(34455.4 -4341.49)" fill="#4F5362"/>
<use xlink:href="#path13_fill" transform="translate(34455.4 -4341.49)" fill="#F99531"/>
</g>
<g id="Vector">
<use xlink:href="#path14_fill" transform="translate(34455.4 -4330.19)" fill="#4F5362"/>
<use xlink:href="#path14_fill" transform="translate(34455.4 -4330.19)" fill="#F99531"/>
</g>
<g id="Vector">
<use xlink:href="#path15_fill" transform="translate(34450.7 -4344.56)" fill="#4F5362"/>
<use xlink:href="#path15_fill" transform="translate(34450.7 -4344.56)" fill="#F99531"/>
</g>
<g id="Vector">
<use xlink:href="#path16_fill" transform="translate(34498.7 -4348.06)" fill="#4F5362"/>
<use xlink:href="#path16_fill" transform="translate(34498.7 -4348.06)" fill="#F99531"/>
</g>
<g id="Vector">
<use xlink:href="#path17_fill" transform="translate(34498.7 -4341.49)" fill="#4F5362"/>
<use xlink:href="#path17_fill" transform="translate(34498.7 -4341.49)" fill="#F99531"/>
</g>
<g id="Vector">
<use xlink:href="#path18_fill" transform="translate(34506.5 -4348.06)" fill="#4F5362"/>
<use xlink:href="#path18_fill" transform="translate(34506.5 -4348.06)" fill="#F99531"/>
</g>
<g id="Vector">
<use xlink:href="#path19_fill" transform="translate(34506.5 -4341.49)" fill="#4F5362"/>
<use xlink:href="#path19_fill" transform="translate(34506.5 -4341.49)" fill="#F99531"/>
</g>
<g id="Vector">
<use xlink:href="#path20_fill" transform="translate(34502.8 -4344.56)" fill="#4F5362"/>
<use xlink:href="#path20_fill" transform="translate(34502.8 -4344.56)" fill="#F99531"/>
</g>
<g id="Vector">
<use xlink:href="#path21_fill" transform="translate(34404.9 -4329.9)" fill="#4F5362"/>
<use xlink:href="#path21_fill" transform="translate(34404.9 -4329.9)" fill="#F99531"/>
</g>
<g id="Vector">
<use xlink:href="#path22_fill" transform="translate(34426.2 -4329.9)" fill="#4F5362"/>
<use xlink:href="#path22_fill" transform="translate(34426.2 -4329.9)" fill="#F99531"/>
</g>
<g id="Vector">
<use xlink:href="#path23_fill" transform="translate(34509.2 -4330.19)" fill="#4F5362"/>
<use xlink:href="#path23_fill" transform="translate(34509.2 -4330.19)" fill="#F99531"/>
</g>
<g id="Vector">
<use xlink:href="#path24_fill" transform="translate(34498.7 -4330.9)" fill="#4F5362"/>
<use xlink:href="#path24_fill" transform="translate(34498.7 -4330.9)" fill="#F99531"/>
</g>
<g id="Vector">
<use xlink:href="#path25_fill" transform="translate(34503.2 -4330.9)" fill="#4F5362"/>
<use xlink:href="#path25_fill" transform="translate(34503.2 -4330.9)" fill="#F99531"/>
</g>
<g id="Vector">
<use xlink:href="#path26_fill" transform="translate(34509.2 -4318.33)" fill="#4F5362"/>
<use xlink:href="#path26_fill" transform="translate(34509.2 -4318.33)" fill="#F99531"/>
</g>
<g id="Vector">
<use xlink:href="#path27_fill" transform="translate(34498.7 -4319.04)" fill="#4F5362"/>
<use xlink:href="#path27_fill" transform="translate(34498.7 -4319.04)" fill="#F99531"/>
</g>
<g id="Vector">
<use xlink:href="#path28_fill" transform="translate(34503.2 -4319.04)" fill="#4F5362"/>
<use xlink:href="#path28_fill" transform="translate(34503.2 -4319.04)" fill="#F99531"/>
</g>
<g id="Vector">
<use xlink:href="#path29_fill" transform="translate(34509.2 -4307.03)" fill="#4F5362"/>
<use xlink:href="#path29_fill" transform="translate(34509.2 -4307.03)" fill="#F99531"/>
</g>
<g id="Vector">
<use xlink:href="#path30_fill" transform="translate(34498.7 -4307.74)" fill="#4F5362"/>
<use xlink:href="#path30_fill" transform="translate(34498.7 -4307.74)" fill="#F99531"/>
</g>
<g id="Vector">
<use xlink:href="#path31_fill" transform="translate(34503.2 -4307.74)" fill="#4F5362"/>
<use xlink:href="#path31_fill" transform="translate(34503.2 -4307.74)" fill="#F99531"/>
</g>
<g id="Vector">
<use xlink:href="#path32_fill" transform="translate(34509.2 -4295.02)" fill="#4F5362"/>
<use xlink:href="#path32_fill" transform="translate(34509.2 -4295.02)" fill="#F99531"/>
</g>
<g id="Vector">
<use xlink:href="#path33_fill" transform="translate(34498.7 -4295.73)" fill="#4F5362"/>
<use xlink:href="#path33_fill" transform="translate(34498.7 -4295.73)" fill="#F99531"/>
</g>
<g id="Vector">
<use xlink:href="#path34_fill" transform="translate(34503.2 -4295.73)" fill="#4F5362"/>
<use xlink:href="#path34_fill" transform="translate(34503.2 -4295.73)" fill="#F99531"/>
</g>
<g id="Vector">
<use xlink:href="#path35_fill" transform="translate(34509.2 -4283.01)" fill="#4F5362"/>
<use xlink:href="#path35_fill" transform="translate(34509.2 -4283.01)" fill="#F99531"/>
</g>
<g id="Vector">
<use xlink:href="#path36_fill" transform="translate(34498.7 -4283.72)" fill="#4F5362"/>
<use xlink:href="#path36_fill" transform="translate(34498.7 -4283.72)" fill="#F99531"/>
</g>
<g id="Vector">
<use xlink:href="#path37_fill" transform="translate(34503.2 -4283.72)" fill="#4F5362"/>
<use xlink:href="#path37_fill" transform="translate(34503.2 -4283.72)" fill="#F99531"/>
</g>
<g id="Vector">
<use xlink:href="#path26_fill" transform="translate(34509.2 -4271.58)" fill="#4F5362"/>
<use xlink:href="#path26_fill" transform="translate(34509.2 -4271.58)" fill="#F99531"/>
</g>
<g id="Vector">
<use xlink:href="#path27_fill" transform="translate(34498.7 -4272.29)" fill="#4F5362"/>
<use xlink:href="#path27_fill" transform="translate(34498.7 -4272.29)" fill="#F99531"/>
</g>
<g id="Vector">
<use xlink:href="#path28_fill" transform="translate(34503.2 -4272.29)" fill="#4F5362"/>
<use xlink:href="#path28_fill" transform="translate(34503.2 -4272.29)" fill="#F99531"/>
</g>
<g id="Vector">
<use xlink:href="#path38_fill" transform="translate(34509.2 -4260.14)" fill="#4F5362"/>
<use xlink:href="#path38_fill" transform="translate(34509.2 -4260.14)" fill="#F99531"/>
</g>
<g id="Vector">
<use xlink:href="#path39_fill" transform="translate(34498.7 -4260.85)" fill="#4F5362"/>
<use xlink:href="#path39_fill" transform="translate(34498.7 -4260.85)" fill="#F99531"/>
</g>
<g id="Vector">
<use xlink:href="#path40_fill" transform="translate(34503.2 -4260.85)" fill="#4F5362"/>
<use xlink:href="#path40_fill" transform="translate(34503.2 -4260.85)" fill="#F99531"/>
</g>
<g id="Vector">
<use xlink:href="#path41_fill" transform="translate(34455.4 -4318.47)" fill="#4F5362"/>
<use xlink:href="#path41_fill" transform="translate(34455.4 -4318.47)" fill="#F99531"/>
</g>
<g id="Vector">
<use xlink:href="#path42_fill" transform="translate(34404.9 -4318.18)" fill="#4F5362"/>
<use xlink:href="#path42_fill" transform="translate(34404.9 -4318.18)" fill="#F99531"/>
</g>
<g id="Vector">
<use xlink:href="#path43_fill" transform="translate(34426.2 -4318.18)" fill="#4F5362"/>
<use xlink:href="#path43_fill" transform="translate(34426.2 -4318.18)" fill="#F99531"/>
</g>
<g id="Vector">
<use xlink:href="#path44_fill" transform="translate(34455.4 -4307.03)" fill="#4F5362"/>
<use xlink:href="#path44_fill" transform="translate(34455.4 -4307.03)" fill="#F99531"/>
</g>
<g id="Vector">
<use xlink:href="#path45_fill" transform="translate(34404.9 -4306.74)" fill="#4F5362"/>
<use xlink:href="#path45_fill" transform="translate(34404.9 -4306.74)" fill="#F99531"/>
</g>
<g id="Vector">
<use xlink:href="#path46_fill" transform="translate(34426.2 -4306.74)" fill="#4F5362"/>
<use xlink:href="#path46_fill" transform="translate(34426.2 -4306.74)" fill="#F99531"/>
</g>
<g id="Vector">
<use xlink:href="#path47_fill" transform="translate(34455.4 -4295.02)" fill="#4F5362"/>
<use xlink:href="#path47_fill" transform="translate(34455.4 -4295.02)" fill="#F99531"/>
</g>
<g id="Vector">
<use xlink:href="#path48_fill" transform="translate(34404.9 -4294.73)" fill="#4F5362"/>
<use xlink:href="#path48_fill" transform="translate(34404.9 -4294.73)" fill="#F99531"/>
</g>
<g id="Vector">
<use xlink:href="#path49_fill" transform="translate(34426.2 -4294.73)" fill="#4F5362"/>
<use xlink:href="#path49_fill" transform="translate(34426.2 -4294.73)" fill="#F99531"/>
</g>
<g id="Vector">
<use xlink:href="#path50_fill" transform="translate(34455.4 -4283.01)" fill="#4F5362"/>
<use xlink:href="#path50_fill" transform="translate(34455.4 -4283.01)" fill="#F99531"/>
</g>
<g id="Vector">
<use xlink:href="#path51_fill" transform="translate(34404.9 -4282.72)" fill="#4F5362"/>
<use xlink:href="#path51_fill" transform="translate(34404.9 -4282.72)" fill="#F99531"/>
</g>
<g id="Vector">
<use xlink:href="#path52_fill" transform="translate(34426.2 -4282.72)" fill="#4F5362"/>
<use xlink:href="#path52_fill" transform="translate(34426.2 -4282.72)" fill="#F99531"/>
</g>
<g id="Vector">
<use xlink:href="#path53_fill" transform="translate(34455.4 -4271.58)" fill="#4F5362"/>
<use xlink:href="#path53_fill" transform="translate(34455.4 -4271.58)" fill="#F99531"/>
</g>
<g id="Vector">
<use xlink:href="#path54_fill" transform="translate(34404.9 -4271.29)" fill="#4F5362"/>
<use xlink:href="#path54_fill" transform="translate(34404.9 -4271.29)" fill="#F99531"/>
</g>
<g id="Vector">
<use xlink:href="#path55_fill" transform="translate(34426.2 -4271.29)" fill="#4F5362"/>
<use xlink:href="#path55_fill" transform="translate(34426.2 -4271.29)" fill="#F99531"/>
</g>
<g id="Vector">
<use xlink:href="#path56_fill" transform="translate(34455.4 -4260.14)" fill="#4F5362"/>
<use xlink:href="#path56_fill" transform="translate(34455.4 -4260.14)" fill="#F99531"/>
</g>
<g id="Vector">
<use xlink:href="#path57_fill" transform="translate(34404.9 -4259.85)" fill="#4F5362"/>
<use xlink:href="#path57_fill" transform="translate(34404.9 -4259.85)" fill="#F99531"/>
</g>
<g id="Vector">
<use xlink:href="#path58_fill" transform="translate(34426.2 -4259.85)" fill="#4F5362"/>
<use xlink:href="#path58_fill" transform="translate(34426.2 -4259.85)" fill="#F99531"/>
</g>
<g id="Vector">
<use xlink:href="#path59_fill" transform="translate(34394 -4226.12)" fill="#4F5362"/>
<use xlink:href="#path59_fill" transform="translate(34394 -4226.12)" fill="#F99531"/>
</g>
<g id="Vector">
<use xlink:href="#path60_fill" transform="translate(34387.9 -4232.48)" fill="#4F5362"/>
<use xlink:href="#path60_fill" transform="translate(34387.9 -4232.48)" fill="#F99531"/>
</g>
<g id="Vector">
<use xlink:href="#path61_fill" transform="translate(34510.7 -4226.12)" fill="#4F5362"/>
<use xlink:href="#path61_fill" transform="translate(34510.7 -4226.12)" fill="#F99531"/>
</g>
<g id="Vector">
<use xlink:href="#path62_fill" transform="translate(34374 -4365)" fill="#4F5362"/>
<use xlink:href="#path62_fill" transform="translate(34374 -4365)" fill="#F99531"/>
</g>
</g>
</g>
</g>
</g>
<defs>
<path id="path0_fill" d="M 1.29 2.58C 2.00245 2.58 2.58 2.00245 2.58 1.29C 2.58 0.577552 2.00245 0 1.29 0C 0.577551 0 0 0.577552 0 1.29C 0 2.00245 0.577551 2.58 1.29 2.58Z"/>
<path id="path1_fill" d="M 1.29 2.58C 2.00245 2.58 2.58 2.00245 2.58 1.29C 2.58 0.577552 2.00245 0 1.29 0C 0.577551 0 0 0.577552 0 1.29C 0 2.00245 0.577551 2.58 1.29 2.58Z"/>
<path id="path2_fill" d="M 1.29 2.58C 2.00245 2.58 2.58 2.00245 2.58 1.29C 2.58 0.577552 2.00245 0 1.29 0C 0.577555 0 0 0.577552 0 1.29C 0 2.00245 0.577555 2.58 1.29 2.58Z"/>
<path id="path3_fill" d="M 1.29 2.58C 2.00245 2.58 2.58 2.00245 2.58 1.29C 2.58 0.577552 2.00245 0 1.29 0C 0.577555 0 0 0.577552 0 1.29C 0 2.00245 0.577555 2.58 1.29 2.58Z"/>
<path id="path4_fill" d="M 1.29 2.58C 2.00245 2.58 2.58 2.00245 2.58 1.29C 2.58 0.577552 2.00245 0 1.29 0C 0.577553 0 0 0.577552 0 1.29C 0 2.00245 0.577553 2.58 1.29 2.58Z"/>
<path id="path5_fill" d="M 1.29 2.58C 2.00245 2.58 2.58 2.00245 2.58 1.29C 2.58 0.577552 2.00245 0 1.29 0C 0.577554 0 0 0.577552 0 1.29C 0 2.00245 0.577554 2.58 1.29 2.58Z"/>
<path id="path6_fill" d="M 1.29 2.58C 2.00245 2.58 2.58 2.00245 2.58 1.29C 2.58 0.577552 2.00245 0 1.29 0C 0.577551 0 0 0.577552 0 1.29C 0 2.00245 0.577551 2.58 1.29 2.58Z"/>
<path id="path7_fill" d="M 1.29 2.58C 2.00245 2.58 2.58 2.00245 2.58 1.29C 2.58 0.577552 2.00245 0 1.29 0C 0.577551 0 0 0.577552 0 1.29C 0 2.00245 0.577551 2.58 1.29 2.58Z"/>
<path id="path8_fill" d="M 1.29 2.58C 2.00245 2.58 2.58 2.00245 2.58 1.29C 2.58 0.577552 2.00245 0 1.29 0C 0.577553 0 0 0.577552 0 1.29C 0 2.00245 0.577553 2.58 1.29 2.58Z"/>
<path id="path9_fill" d="M 1.29 2.58C 2.00244 2.58 2.58 2.00245 2.58 1.29C 2.58 0.577552 2.00244 0 1.29 0C 0.577549 0 3.05176e-06 0.577552 3.05176e-06 1.29C 3.05176e-06 2.00245 0.577549 2.58 1.29 2.58Z"/>
<path id="path10_fill" d="M 1.29 2.58C 2.00244 2.58 2.58 2.00245 2.58 1.29C 2.58 0.577552 2.00244 0 1.29 0C 0.577549 0 3.05176e-06 0.577552 3.05176e-06 1.29C 3.05176e-06 2.00245 0.577549 2.58 1.29 2.58Z"/>
<path id="path11_fill" d="M 1.29 2.58C 2.00245 2.58 2.58 2.00245 2.58 1.29C 2.58 0.577552 2.00245 0 1.29 0C 0.577551 0 -2.13623e-06 0.577552 -2.13623e-06 1.29C -2.13623e-06 2.00245 0.577551 2.58 1.29 2.58Z"/>
<path id="path12_fill" d="M 1.29 2.58C 2.00245 2.58 2.58 2.00245 2.58 1.29C 2.58 0.577552 2.00245 0 1.29 0C 0.577551 0 -2.74658e-06 0.577552 -2.74658e-06 1.29C -2.74658e-06 2.00245 0.577551 2.58 1.29 2.58Z"/>
<path id="path13_fill" d="M 1.29 2.58C 2.00245 2.58 2.58 2.00245 2.58 1.29C 2.58 0.577552 2.00245 0 1.29 0C 0.577551 0 -2.74658e-06 0.577552 -2.74658e-06 1.29C -2.74658e-06 2.00245 0.577551 2.58 1.29 2.58Z"/>
<path id="path14_fill" d="M 1.29 2.58C 2.00245 2.58 2.58 2.00245 2.58 1.29C 2.58 0.577551 2.00245 0 1.29 0C 0.577551 0 -2.74658e-06 0.577551 -2.74658e-06 1.29C -2.74658e-06 2.00245 0.577551 2.58 1.29 2.58Z"/>
<path id="path15_fill" d="M 1.29 2.58C 2.00245 2.58 2.58 2.00245 2.58 1.29C 2.58 0.577552 2.00245 0 1.29 0C 0.577553 0 0 0.577552 0 1.29C 0 2.00245 0.577553 2.58 1.29 2.58Z"/>
<path id="path16_fill" d="M 1.02 2.58C 1.58333 2.58 2.04 2.00245 2.04 1.29C 2.04 0.577552 1.58333 0 1.02 0C 0.456669 0 2.44141e-06 0.577552 2.44141e-06 1.29C 2.44141e-06 2.00245 0.456669 2.58 1.02 2.58Z"/>
<path id="path17_fill" d="M 1.02 2.58C 1.58333 2.58 2.04 2.00245 2.04 1.29C 2.04 0.577552 1.58333 0 1.02 0C 0.456669 0 2.44141e-06 0.577552 2.44141e-06 1.29C 2.44141e-06 2.00245 0.456669 2.58 1.02 2.58Z"/>
<path id="path18_fill" d="M 1.02 2.58C 1.58333 2.58 2.04 2.00245 2.04 1.29C 2.04 0.577552 1.58333 0 1.02 0C 0.45667 0 -4.27246e-06 0.577552 -4.27246e-06 1.29C -4.27246e-06 2.00245 0.45667 2.58 1.02 2.58Z"/>
<path id="path19_fill" d="M 1.02 2.58C 1.58333 2.58 2.04 2.00245 2.04 1.29C 2.04 0.577552 1.58333 0 1.02 0C 0.45667 0 -4.27246e-06 0.577552 -4.27246e-06 1.29C -4.27246e-06 2.00245 0.45667 2.58 1.02 2.58Z"/>
<path id="path20_fill" d="M 1.02 2.58C 1.58333 2.58 2.04001 2.00245 2.04001 1.29C 2.04001 0.577552 1.58333 0 1.02 0C 0.456673 0 0 0.577552 0 1.29C 0 2.00245 0.456673 2.58 1.02 2.58Z"/>
<path id="path21_fill" d="M 11.35 0L 1 0C 0.447715 0 0 0.447714 0 0.999998L 0 2.43C 0 2.98228 0.447715 3.43 1 3.43L 11.35 3.43C 11.9023 3.43 12.35 2.98228 12.35 2.43L 12.35 0.999998C 12.35 0.447714 11.9023 0 11.35 0Z"/>
<path id="path22_fill" d="M 11.35 0L 1 0C 0.447716 0 0 0.447714 0 0.999998L 0 2.43C 0 2.98228 0.447716 3.43 1 3.43L 11.35 3.43C 11.9023 3.43 12.35 2.98228 12.35 2.43L 12.35 0.999998C 12.35 0.447714 11.9023 0 11.35 0Z"/>
<path id="path23_fill" d="M 0.359998 2.58C 0.55882 2.58 0.719998 2.00245 0.719998 1.29C 0.719998 0.577551 0.55882 0 0.359998 0C 0.161175 0 -3.05176e-06 0.577551 -3.05176e-06 1.29C -3.05176e-06 2.00245 0.161175 2.58 0.359998 2.58Z"/>
<path id="path24_fill" d="M 1.61 0L 1 0C 0.447718 0 2.44141e-06 0.447714 2.44141e-06 0.999998L 2.44141e-06 2.43C 2.44141e-06 2.98228 0.447718 3.43 1 3.43L 1.61 3.43C 2.16229 3.43 2.61 2.98228 2.61 2.43L 2.61 0.999998C 2.61 0.447714 2.16229 0 1.61 0Z"/>
<path id="path25_fill" d="M 1.61 0L 0.999997 0C 0.447712 0 -3.05176e-06 0.447714 -3.05176e-06 0.999998L -3.05176e-06 2.43C -3.05176e-06 2.98228 0.447712 3.43 0.999997 3.43L 1.61 3.43C 2.16228 3.43 2.61 2.98228 2.61 2.43L 2.61 0.999998C 2.61 0.447714 2.16228 0 1.61 0Z"/>
<path id="path26_fill" d="M 0.359998 2.58C 0.55882 2.58 0.719998 2.00245 0.719998 1.29C 0.719998 0.577552 0.55882 0 0.359998 0C 0.161175 0 -3.05176e-06 0.577552 -3.05176e-06 1.29C -3.05176e-06 2.00245 0.161175 2.58 0.359998 2.58Z"/>
<path id="path27_fill" d="M 1.61 0L 1 0C 0.447718 0 2.44141e-06 0.447714 2.44141e-06 0.999999L 2.44141e-06 2.43C 2.44141e-06 2.98228 0.447718 3.43 1 3.43L 1.61 3.43C 2.16229 3.43 2.61 2.98228 2.61 2.43L 2.61 0.999999C 2.61 0.447714 2.16229 0 1.61 0Z"/>
<path id="path28_fill" d="M 1.61 0L 0.999997 0C 0.447712 0 -3.05176e-06 0.447714 -3.05176e-06 0.999999L -3.05176e-06 2.43C -3.05176e-06 2.98228 0.447712 3.43 0.999997 3.43L 1.61 3.43C 2.16228 3.43 2.61 2.98228 2.61 2.43L 2.61 0.999999C 2.61 0.447714 2.16228 0 1.61 0Z"/>
<path id="path29_fill" d="M 0.359998 2.58C 0.55882 2.58 0.719998 2.00245 0.719998 1.29C 0.719998 0.577551 0.55882 0 0.359998 0C 0.161175 0 -3.05176e-06 0.577551 -3.05176e-06 1.29C -3.05176e-06 2.00245 0.161175 2.58 0.359998 2.58Z"/>
<path id="path30_fill" d="M 1.61 0L 1 0C 0.447718 0 2.44141e-06 0.447714 2.44141e-06 0.999998L 2.44141e-06 2.43C 2.44141e-06 2.98228 0.447718 3.43 1 3.43L 1.61 3.43C 2.16229 3.43 2.61 2.98228 2.61 2.43L 2.61 0.999998C 2.61 0.447714 2.16229 0 1.61 0Z"/>
<path id="path31_fill" d="M 1.61 0L 0.999997 0C 0.447712 0 -3.05176e-06 0.447714 -3.05176e-06 0.999998L -3.05176e-06 2.43C -3.05176e-06 2.98228 0.447712 3.43 0.999997 3.43L 1.61 3.43C 2.16228 3.43 2.61 2.98228 2.61 2.43L 2.61 0.999998C 2.61 0.447714 2.16228 0 1.61 0Z"/>
<path id="path32_fill" d="M 0.359998 2.58C 0.55882 2.58 0.719998 2.00244 0.719998 1.29C 0.719998 0.577549 0.55882 3.35693e-06 0.359998 3.35693e-06C 0.161175 3.35693e-06 -3.05176e-06 0.577549 -3.05176e-06 1.29C -3.05176e-06 2.00244 0.161175 2.58 0.359998 2.58Z"/>
<path id="path33_fill" d="M 1.61 -3.35693e-06L 1 -3.35693e-06C 0.447718 -3.35693e-06 2.44141e-06 0.447712 2.44141e-06 0.999997L 2.44141e-06 2.43C 2.44141e-06 2.98228 0.447718 3.43 1 3.43L 1.61 3.43C 2.16229 3.43 2.61 2.98228 2.61 2.43L 2.61 0.999997C 2.61 0.447712 2.16229 -3.35693e-06 1.61 -3.35693e-06Z"/>
<path id="path34_fill" d="M 1.61 -3.35693e-06L 0.999997 -3.35693e-06C 0.447712 -3.35693e-06 -3.05176e-06 0.447712 -3.05176e-06 0.999997L -3.05176e-06 2.43C -3.05176e-06 2.98228 0.447712 3.43 0.999997 3.43L 1.61 3.43C 2.16228 3.43 2.61 2.98228 2.61 2.43L 2.61 0.999997C 2.61 0.447712 2.16228 -3.35693e-06 1.61 -3.35693e-06Z"/>
<path id="path35_fill" d="M 0.359998 2.58C 0.55882 2.58 0.719998 2.00245 0.719998 1.29C 0.719998 0.577551 0.55882 -2.13623e-06 0.359998 -2.13623e-06C 0.161175 -2.13623e-06 -3.05176e-06 0.577551 -3.05176e-06 1.29C -3.05176e-06 2.00245 0.161175 2.58 0.359998 2.58Z"/>
<path id="path36_fill" d="M 1.61 0L 1 0C 0.447718 0 2.44141e-06 0.447714 2.44141e-06 0.999999L 2.44141e-06 2.43C 2.44141e-06 2.98228 0.447718 3.43 1 3.43L 1.61 3.43C 2.16229 3.43 2.61 2.98228 2.61 2.43L 2.61 0.999999C 2.61 0.447714 2.16229 0 1.61 0Z"/>
<path id="path37_fill" d="M 1.61 0L 0.999997 0C 0.447712 0 -3.05176e-06 0.447714 -3.05176e-06 0.999999L -3.05176e-06 2.43C -3.05176e-06 2.98228 0.447712 3.43 0.999997 3.43L 1.61 3.43C 2.16228 3.43 2.61 2.98228 2.61 2.43L 2.61 0.999999C 2.61 0.447714 2.16228 0 1.61 0Z"/>
<path id="path38_fill" d="M 0.359998 2.58C 0.55882 2.58 0.719998 2.00245 0.719998 1.29C 0.719998 0.577554 0.55882 0 0.359998 0C 0.161175 0 -3.05176e-06 0.577554 -3.05176e-06 1.29C -3.05176e-06 2.00245 0.161175 2.58 0.359998 2.58Z"/>
<path id="path39_fill" d="M 1.61 0L 1 0C 0.447718 0 2.44141e-06 0.447717 2.44141e-06 1L 2.44141e-06 2.43C 2.44141e-06 2.98229 0.447718 3.43 1 3.43L 1.61 3.43C 2.16229 3.43 2.61 2.98229 2.61 2.43L 2.61 1C 2.61 0.447717 2.16229 0 1.61 0Z"/>
<path id="path40_fill" d="M 1.61 0L 0.999997 0C 0.447712 0 -3.05176e-06 0.447717 -3.05176e-06 1L -3.05176e-06 2.43C -3.05176e-06 2.98229 0.447712 3.43 0.999997 3.43L 1.61 3.43C 2.16228 3.43 2.61 2.98229 2.61 2.43L 2.61 1C 2.61 0.447717 2.16228 0 1.61 0Z"/>
<path id="path41_fill" d="M 1.29 2.58C 2.00245 2.58 2.58 2.00245 2.58 1.29C 2.58 0.577552 2.00245 0 1.29 0C 0.577551 0 -2.74658e-06 0.577552 -2.74658e-06 1.29C -2.74658e-06 2.00245 0.577551 2.58 1.29 2.58Z"/>
<path id="path42_fill" d="M 11.35 0L 1 0C 0.447715 0 0 0.447715 0 1L 0 2.43C 0 2.98228 0.447715 3.43 1 3.43L 11.35 3.43C 11.9023 3.43 12.35 2.98228 12.35 2.43L 12.35 1C 12.35 0.447715 11.9023 0 11.35 0Z"/>
<path id="path43_fill" d="M 11.35 0L 1 0C 0.447716 0 0 0.447715 0 1L 0 2.43C 0 2.98228 0.447716 3.43 1 3.43L 11.35 3.43C 11.9023 3.43 12.35 2.98228 12.35 2.43L 12.35 1C 12.35 0.447715 11.9023 0 11.35 0Z"/>
<path id="path44_fill" d="M 1.29 2.58C 2.00245 2.58 2.58 2.00245 2.58 1.29C 2.58 0.577551 2.00245 0 1.29 0C 0.577551 0 -2.74658e-06 0.577551 -2.74658e-06 1.29C -2.74658e-06 2.00245 0.577551 2.58 1.29 2.58Z"/>
<path id="path45_fill" d="M 11.35 0L 1 0C 0.447715 0 0 0.447714 0 0.999998L 0 2.43C 0 2.98228 0.447715 3.43 1 3.43L 11.35 3.43C 11.9023 3.43 12.35 2.98228 12.35 2.43L 12.35 0.999998C 12.35 0.447714 11.9023 0 11.35 0Z"/>
<path id="path46_fill" d="M 11.35 0L 1 0C 0.447716 0 0 0.447714 0 0.999998L 0 2.43C 0 2.98228 0.447716 3.43 1 3.43L 11.35 3.43C 11.9023 3.43 12.35 2.98228 12.35 2.43L 12.35 0.999998C 12.35 0.447714 11.9023 0 11.35 0Z"/>
<path id="path47_fill" d="M 1.29 2.58C 2.00245 2.58 2.58 2.00244 2.58 1.29C 2.58 0.577549 2.00245 3.35693e-06 1.29 3.35693e-06C 0.577551 3.35693e-06 -2.74658e-06 0.577549 -2.74658e-06 1.29C -2.74658e-06 2.00244 0.577551 2.58 1.29 2.58Z"/>
<path id="path48_fill" d="M 11.35 -3.35693e-06L 1 -3.35693e-06C 0.447715 -3.35693e-06 0 0.447712 0 0.999997L 0 2.43C 0 2.98228 0.447715 3.43 1 3.43L 11.35 3.43C 11.9023 3.43 12.35 2.98228 12.35 2.43L 12.35 0.999997C 12.35 0.447712 11.9023 -3.35693e-06 11.35 -3.35693e-06Z"/>
<path id="path49_fill" d="M 11.35 -3.35693e-06L 1 -3.35693e-06C 0.447716 -3.35693e-06 0 0.447712 0 0.999997L 0 2.43C 0 2.98228 0.447716 3.43 1 3.43L 11.35 3.43C 11.9023 3.43 12.35 2.98228 12.35 2.43L 12.35 0.999997C 12.35 0.447712 11.9023 -3.35693e-06 11.35 -3.35693e-06Z"/>
<path id="path50_fill" d="M 1.29 2.58C 2.00245 2.58 2.58 2.00245 2.58 1.29C 2.58 0.577551 2.00245 -2.13623e-06 1.29 -2.13623e-06C 0.577551 -2.13623e-06 -2.74658e-06 0.577551 -2.74658e-06 1.29C -2.74658e-06 2.00245 0.577551 2.58 1.29 2.58Z"/>
<path id="path51_fill" d="M 11.35 0L 1 0C 0.447715 0 0 0.447714 0 0.999999L 0 2.43C 0 2.98228 0.447715 3.43 1 3.43L 11.35 3.43C 11.9023 3.43 12.35 2.98228 12.35 2.43L 12.35 0.999999C 12.35 0.447714 11.9023 0 11.35 0Z"/>
<path id="path52_fill" d="M 11.35 0L 1 0C 0.447716 0 0 0.447714 0 0.999999L 0 2.43C 0 2.98228 0.447716 3.43 1 3.43L 11.35 3.43C 11.9023 3.43 12.35 2.98228 12.35 2.43L 12.35 0.999999C 12.35 0.447714 11.9023 0 11.35 0Z"/>
<path id="path53_fill" d="M 1.29 2.58C 2.00245 2.58 2.58 2.00245 2.58 1.29C 2.58 0.577552 2.00245 0 1.29 0C 0.577551 0 -2.74658e-06 0.577552 -2.74658e-06 1.29C -2.74658e-06 2.00245 0.577551 2.58 1.29 2.58Z"/>
<path id="path54_fill" d="M 11.35 0L 1 0C 0.447715 0 0 0.447714 0 0.999999L 0 2.43C 0 2.98228 0.447715 3.43 1 3.43L 11.35 3.43C 11.9023 3.43 12.35 2.98228 12.35 2.43L 12.35 0.999999C 12.35 0.447714 11.9023 0 11.35 0Z"/>
<path id="path55_fill" d="M 11.35 0L 1 0C 0.447716 0 0 0.447714 0 0.999999L 0 2.43C 0 2.98228 0.447716 3.43 1 3.43L 11.35 3.43C 11.9023 3.43 12.35 2.98228 12.35 2.43L 12.35 0.999999C 12.35 0.447714 11.9023 0 11.35 0Z"/>
<path id="path56_fill" d="M 1.29 2.58C 2.00245 2.58 2.58 2.00245 2.58 1.29C 2.58 0.577554 2.00245 0 1.29 0C 0.577551 0 -2.74658e-06 0.577554 -2.74658e-06 1.29C -2.74658e-06 2.00245 0.577551 2.58 1.29 2.58Z"/>
<path id="path57_fill" d="M 11.35 0L 1 0C 0.447715 0 0 0.447717 0 1L 0 2.43C 0 2.98229 0.447715 3.43 1 3.43L 11.35 3.43C 11.9023 3.43 12.35 2.98229 12.35 2.43L 12.35 1C 12.35 0.447717 11.9023 0 11.35 0Z"/>
<path id="path58_fill" d="M 11.35 0L 1 0C 0.447716 0 0 0.447717 0 1L 0 2.43C 0 2.98229 0.447716 3.43 1 3.43L 11.35 3.43C 11.9023 3.43 12.35 2.98229 12.35 2.43L 12.35 1C 12.35 0.447717 11.9023 0 11.35 0Z"/>
<path id="path59_fill" d="M 2.21998 4.88293e-06C 1.78048 9.34179e-06 1.35087 0.130455 0.985579 0.374837C 0.620288 0.619219 0.335755 0.966527 0.168026 1.37276C 0.00029771 1.779 -0.0430783 2.22588 0.0433945 2.65679C 0.129867 3.0877 0.342297 3.48324 0.653771 3.79331C 0.965245 4.10338 1.36175 4.31402 1.79304 4.39855C 2.22433 4.48308 2.67101 4.43769 3.07649 4.26813C 3.48196 4.09857 3.82798 3.81247 4.07071 3.44608C 4.31344 3.07969 4.44196 2.64949 4.43998 2.21C 4.43733 1.62295 4.20228 1.06086 3.78623 0.646688C 3.37019 0.232517 2.80703 -1.07291e-06 2.21998 4.88293e-06ZM 2.21998 3.43C 1.97869 3.43 1.74281 3.35844 1.54218 3.22439C 1.34156 3.09033 1.18519 2.8998 1.09285 2.67687C 1.00051 2.45394 0.976347 2.20865 1.02342 1.97199C 1.07049 1.73533 1.18669 1.51795 1.35731 1.34733C 1.52793 1.17671 1.74531 1.06052 1.98197 1.01345C 2.21863 0.966374 2.46393 0.990521 2.68685 1.08286C 2.90978 1.1752 3.10032 1.33157 3.23437 1.5322C 3.36843 1.73283 3.43998 1.9687 3.43998 2.21C 3.43998 2.53356 3.31144 2.84387 3.08265 3.07267C 2.85386 3.30146 2.54354 3.43 2.21998 3.43Z"/>
<path id="path60_fill" d="M 124.987 5.05532e-06C 123.514 0.00279318 122.066 0.385226 120.784 1.1104C 119.502 1.83558 118.428 2.87901 117.667 4.14L 15.5967 4.14C 14.4453 2.28095 12.6165 0.942055 10.4965 0.406011C 8.37644 -0.130033 6.13106 0.178711 4.23438 1.26706C 2.33771 2.35542 0.938161 4.13821 0.331223 6.23905C -0.275716 8.33989 -0.0425498 10.5944 0.981494 12.5265C 2.00554 14.4587 3.74032 15.9173 5.81959 16.5945C 7.89886 17.2716 10.1599 17.1143 12.1254 16.1557C 14.0908 15.1971 15.6069 13.5123 16.3535 11.4569C 17.1001 9.40159 17.0188 7.13655 16.1267 5.14L 117.127 5.14C 116.388 6.83144 116.215 8.71616 116.634 10.5138C 117.052 12.3114 118.04 13.9258 119.45 15.1168C 120.86 16.3079 122.617 17.0119 124.459 17.1241C 126.302 17.2364 128.131 16.7508 129.675 15.7398C 131.219 14.7287 132.396 13.2461 133.029 11.5126C 133.663 9.77914 133.72 7.88736 133.192 6.11876C 132.664 4.35016 131.58 2.79925 130.099 1.69678C 128.619 0.594316 126.822 -0.000783605 124.977 5.05532e-06L 124.987 5.05532e-06ZM 8.26673 16.15C 6.76755 16.15 5.30203 15.7054 4.05551 14.8725C 2.80898 14.0396 1.83744 12.8558 1.26373 11.4707C 0.690013 10.0857 0.539904 8.5616 0.832379 7.09122C 1.12486 5.62085 1.84678 4.27022 2.90686 3.21013C 3.96695 2.15005 5.31757 1.42813 6.78795 1.13566C 8.25832 0.84318 9.78241 0.993279 11.1675 1.56699C 12.5525 2.1407 13.7364 3.11226 14.5693 4.35879C 15.4022 5.60531 15.8467 7.07081 15.8467 8.57C 15.8441 10.5795 15.0446 12.506 13.6237 13.9269C 12.2027 15.3479 10.2763 16.1474 8.26673 16.15ZM 124.987 16.15C 123.488 16.15 122.022 15.7054 120.776 14.8725C 119.529 14.0396 118.557 12.8558 117.984 11.4707C 117.41 10.0857 117.26 8.5616 117.552 7.09122C 117.845 5.62085 118.567 4.27022 119.627 3.21013C 120.687 2.15005 122.038 1.42813 123.508 1.13566C 124.978 0.84318 126.502 0.993279 127.887 1.56699C 129.273 2.1407 130.456 3.11226 131.289 4.35879C 132.122 5.60531 132.567 7.07081 132.567 8.57C 132.564 10.5795 131.765 12.506 130.344 13.9269C 128.923 15.3479 126.996 16.1474 124.987 16.15Z"/>
<path id="path61_fill" d="M 2.21997 4.88293e-06C 1.78047 9.34179e-06 1.35087 0.130455 0.985582 0.374837C 0.620291 0.619219 0.33576 0.966527 0.168031 1.37276C 0.000302747 1.779 -0.0430752 2.22588 0.0433976 2.65679C 0.12987 3.0877 0.342291 3.48324 0.653764 3.79331C 0.965238 4.10338 1.36175 4.31402 1.79305 4.39855C 2.22434 4.48308 2.67102 4.43769 3.07649 4.26813C 3.48197 4.09857 3.82798 3.81247 4.07071 3.44608C 4.31344 3.07969 4.44195 2.64949 4.43997 2.21C 4.43733 1.62295 4.20227 1.06086 3.78623 0.646688C 3.37018 0.232517 2.80702 -1.07291e-06 2.21997 4.88293e-06ZM 2.21997 3.43C 1.97868 3.43 1.7428 3.35844 1.54218 3.22439C 1.34155 3.09033 1.18519 2.8998 1.09285 2.67687C 1.00051 2.45394 0.97635 2.20865 1.02342 1.97199C 1.0705 1.73533 1.18668 1.51795 1.3573 1.34733C 1.52792 1.17671 1.74531 1.06052 1.98197 1.01345C 2.21862 0.966374 2.46392 0.990521 2.68685 1.08286C 2.90977 1.1752 3.10032 1.33157 3.23438 1.5322C 3.36843 1.73283 3.43997 1.9687 3.43997 2.21C 3.43997 2.53356 3.31144 2.84387 3.08264 3.07267C 2.85385 3.30146 2.54354 3.43 2.21997 3.43Z"/>
<path id="path62_fill" d="M 174.58 84.35C 173.793 84.3508 173.03 84.6242 172.421 85.1236C 171.812 85.6231 171.395 86.3179 171.24 87.09C 160.79 86.84 158.93 95.64 158.92 95.69L 150.14 127L 141.63 127L 141.63 3.5C 141.63 2.57174 141.261 1.6815 140.605 1.02513C 139.949 0.368749 139.058 3.60822e-16 138.13 0L 22.9 0C 21.9717 4.44089e-16 21.0815 0.368749 20.4251 1.02513C 19.7687 1.6815 19.4 2.57174 19.4 3.5L 19.4 127L 0 127L 0 132.29L 164.5 132.29L 164.5 127L 151.18 127L 159.9 96C 159.97 95.66 161.7 88 171.22 88.18C 171.29 88.8339 171.547 89.4535 171.962 89.9639C 172.377 90.4743 172.93 90.8534 173.556 91.0555C 174.182 91.2575 174.853 91.2738 175.488 91.1023C 176.122 90.9308 176.694 90.5789 177.133 90.0892C 177.572 89.5996 177.859 88.9931 177.96 88.3434C 178.062 87.6937 177.972 87.0285 177.703 86.4286C 177.434 85.8286 176.997 85.3195 176.444 84.963C 175.892 84.6065 175.248 84.4179 174.59 84.42L 174.58 84.35ZM 138.13 1C 138.793 1 139.429 1.26339 139.898 1.73223C 140.367 2.20107 140.63 2.83696 140.63 3.5L 140.63 30.88L 137.63 30.88L 137.63 14.7C 137.627 14.1395 137.403 13.6028 137.006 13.2074C 136.608 12.812 136.071 12.59 135.51 12.59L 123.7 12.59C 123.139 12.59 122.602 12.812 122.204 13.2074C 121.807 13.6028 121.583 14.1395 121.58 14.7L 121.58 30.88L 118 30.88L 118 3.93C 118.015 2.85689 117.638 1.81515 116.94 1L 138.13 1ZM 118 112.08L 118 101.65L 140.64 101.65L 140.64 112.09L 118 112.08ZM 140.64 113.08L 140.64 127L 118 127L 118 113.08L 140.64 113.08ZM 118 100.65L 118 90.21L 140.64 90.21L 140.64 100.65L 118 100.65ZM 118 89.21L 118 78.77L 140.64 78.77L 140.64 89.21L 118 89.21ZM 118 77.77L 118 66.19L 140.64 66.19L 140.64 77.77L 118 77.77ZM 118 65.19L 118 54.75L 140.64 54.75L 140.64 65.19L 118 65.19ZM 118 53.75L 118 43.32L 140.64 43.32L 140.64 53.75L 118 53.75ZM 118 42.31L 118 31.88L 140.64 31.88L 140.64 42.32L 118 42.31ZM 122.6 30.87L 122.6 14.7C 122.603 14.4047 122.722 14.1224 122.932 13.9145C 123.141 13.7066 123.425 13.59 123.72 13.59L 135.53 13.59C 135.825 13.59 136.109 13.7066 136.318 13.9145C 136.528 14.1224 136.647 14.4047 136.65 14.7L 136.65 30.88L 122.6 30.87ZM 114.89 1C 116.05 1 116.99 2.31 116.99 3.93L 116.99 127L 98.17 127L 98.17 113.08L 98.24 113.08L 98.24 112.08L 98.17 112.08L 98.17 101.65L 98.24 101.65L 98.24 100.65L 98.17 100.65L 98.17 90.21L 98.24 90.21L 98.24 89.21L 98.17 89.21L 98.17 78.77L 98.24 78.77L 98.24 77.77L 98.17 77.77L 98.17 66.19L 98.24 66.19L 98.24 65.19L 98.17 65.19L 98.17 54.75L 98.24 54.75L 98.24 53.75L 98.17 53.75L 98.17 43.32L 98.24 43.32L 98.24 42.32L 98.17 42.32L 98.17 31.88L 98.24 31.88L 98.24 30.88L 98.17 30.88L 98.17 3.5C 98.1693 3.0336 98.0752 2.57207 97.8931 2.14268C 97.7111 1.71329 97.4448 1.32474 97.11 1L 114.89 1ZM 20.4 3.5C 20.4 2.83696 20.6634 2.20107 21.1322 1.73223C 21.6011 1.26339 22.237 1 22.9 1L 94.67 1L 94.92 1L 95.31 1.11C 95.6267 1.22082 95.9182 1.39378 96.1671 1.61873C 96.4161 1.84368 96.6177 2.1161 96.76 2.42C 96.9667 2.8184 97.0731 3.26119 97.07 3.71L 97.07 30.88L 93.59 30.88L 93.59 14.7C 93.5873 14.1395 93.3628 13.6028 92.9655 13.2074C 92.5683 12.812 92.0305 12.59 91.47 12.59L 26.08 12.59C 25.5264 12.6004 24.9989 12.827 24.6102 13.2213C 24.2215 13.6156 24.0025 14.1463 24 14.7L 24 30.88L 20.5 30.88L 20.5 31.88L 97.06 31.88L 97.06 42.32L 20.47 42.32L 20.47 43.32L 97.06 43.32L 97.06 53.75L 20.47 53.75L 20.47 54.75L 97.06 54.75L 97.06 65.19L 20.47 65.19L 20.47 66.19L 97.06 66.19L 97.06 77.77L 20.47 77.77L 20.47 78.77L 97.06 78.77L 97.06 89.21L 20.47 89.21L 20.47 90.21L 97.06 90.21L 97.06 100.65L 20.47 100.65L 20.47 101.65L 97.06 101.65L 97.06 112.09L 20.47 112.09L 20.47 113.09L 97.06 113.09L 97.06 127L 87.87 127L 87.87 119.52C 87.87 119.077 87.6941 118.652 87.3809 118.339C 87.0677 118.026 86.6429 117.85 86.2 117.85L 30.93 117.85C 30.4871 117.85 30.0623 118.026 29.7491 118.339C 29.4359 118.652 29.26 119.077 29.26 119.52L 29.26 127L 20.4 127L 20.4 3.5ZM 92.6 14.7L 92.6 30.88L 25 30.88L 25 14.7C 25.0026 14.4047 25.1218 14.1224 25.3316 13.9145C 25.5413 13.7066 25.8247 13.59 26.12 13.59L 91.48 13.59C 91.7736 13.5926 92.0544 13.7104 92.262 13.918C 92.4696 14.1256 92.5874 14.4064 92.59 14.7L 92.6 14.7ZM 86.87 119.47L 86.87 127L 30.26 127L 30.26 119.52C 30.26 119.342 30.3306 119.172 30.4562 119.046C 30.5819 118.921 30.7523 118.85 30.93 118.85L 86.21 118.85C 86.3776 118.852 86.5384 118.917 86.6606 119.032C 86.7828 119.146 86.8575 119.303 86.87 119.47ZM 163.5 128L 163.5 131.29L 1 131.29L 1 128L 163.5 128ZM 174.58 90.21C 174.105 90.208 173.642 90.0659 173.248 89.8016C 172.854 89.5373 172.547 89.1626 172.365 88.7244C 172.183 88.2862 172.134 87.804 172.225 87.3382C 172.316 86.8725 172.542 86.444 172.876 86.1064C 173.209 85.7688 173.635 85.5372 174.099 85.4405C 174.564 85.3439 175.047 85.3865 175.487 85.5631C 175.928 85.7397 176.306 86.0424 176.575 86.4332C 176.844 86.824 176.992 87.2856 177 87.76C 176.999 88.0765 176.935 88.3896 176.813 88.6815C 176.69 88.9734 176.512 89.2383 176.287 89.4612C 176.062 89.6841 175.796 89.8605 175.503 89.9804C 175.21 90.1003 174.896 90.1613 174.58 90.16L 174.58 90.21Z"/>
</defs>
</svg>
