<svg width="18" height="23" viewBox="0 0 18 23" version="1.1" xmlns="http://www.w3.org/2000/svg" xmlns:xlink="http://www.w3.org/1999/xlink">
<title>sign in icon</title>
<desc>Created using Figma</desc>
<g id="Canvas" transform="translate(-34607 -66)">
<g id="sign in icon">
<g id="Rectangle 14">
<use xlink:href="#path0_fill" transform="translate(34607 75)" fill="#B8B7BC"/>
</g>
<g id="Vector 2">
<use xlink:href="#path1_stroke" transform="translate(34611 67)" fill="#B8B7BC"/>
</g>
<g id="Rectangle 15">
<use xlink:href="#path2_fill" transform="translate(34614 79)" fill="#FFFFFF"/>
</g>
<g id="Vector 3">
<use xlink:href="#path3_fill" transform="translate(34614 82.5)" fill="#FFFFFF"/>
</g>
</g>
</g>
<defs>
<path id="path0_fill" d="M 0 3C 0 1.34315 1.34315 0 3 0L 15 0C 16.6569 0 18 1.34315 18 3L 18 11C 18 12.6569 16.6569 14 15 14L 3 14C 1.34315 14 0 12.6569 0 11L 0 3Z"/>
<path id="path1_stroke" d="M 0 4L -0.490461 3.9028L -0.500001 3.95094L -0.5 4.00001L 0 4ZM 10 3.95833L 10.5 3.95833L 10.5 3.90926L 10.4905 3.86112L 10 3.95833ZM 0.500057 7.99999L 0.5 3.99999L -0.5 4.00001L -0.499943 8.00001L 0.500057 7.99999ZM 0.490461 4.0972C 0.688352 3.08275 1.06246 2.22297 1.78937 1.56623C 2.47518 0.933348 3.49059 0.5 4.99991 0.5L 4.99991 -0.5C 3.28666 -0.5 2.01383 -0.00164285 1.11119 0.83133C 0.249642 1.64045 -0.264926 2.78066 -0.490461 3.9028L 0.490461 4.0972ZM 4.99991 0.5C 6.51226 0.5 7.52821 0.924748 8.21316 1.54781C 8.93909 2.19397 9.31192 3.04203 9.50954 4.05555L 10.4905 3.86112C 10.2646 2.73805 9.74866 1.60695 8.88606 0.80808C 7.98247 -0.0138762 6.71011 -0.5 4.99991 -0.5L 4.99991 0.5ZM 9.5 3.95833L 9.5 8L 10.5 8L 10.5 3.95833L 9.5 3.95833Z"/>
<path id="path2_fill" d="M 0 2C 0 0.895431 0.895431 0 2 0C 3.10457 0 4 0.895431 4 2C 4 3.10457 3.10457 4 2 4C 0.895431 4 0 3.10457 0 2Z"/>
<path id="path3_fill" d="M 0 2.5L 1 0L 3 0L 4 2.5L 0 2.5Z"/>
</defs>
</svg>
