<svg width="48" height="48" viewBox="0 0 48 48" version="1.1" xmlns="http://www.w3.org/2000/svg" xmlns:xlink="http://www.w3.org/1999/xlink">
<title>Group</title>
<desc>Created using Figma</desc>
<g id="Canvas" transform="translate(-26440 -963)">
<g id="Group">
<g id="Rectangle 13">
<use xlink:href="#path0_fill" transform="translate(26440 963)" fill="#FFFFFF"/>
</g>
<g id="speed">
<g id="Layer 2">
<g id="Layer 1">
<g id="Vector" opacity="0.5">
<use xlink:href="#path1_fill" transform="translate(26442 987.18)" fill="#F99531"/>
</g>
<g id="Vector" opacity="0.75">
<use xlink:href="#path2_fill" transform="translate(26449 965)" fill="#F99531"/>
</g>
<g id="Vector" opacity="0.75">
<use xlink:href="#path3_fill" transform="translate(26464.7 965)" fill="#F99531"/>
</g>
<g id="Vector" opacity="0.5">
<use xlink:href="#path4_fill" transform="translate(26442 971.572)" fill="#F99531"/>
</g>
<g id="Vector">
<use xlink:href="#path5_fill" transform="translate(26475 987.18)" fill="#F99531"/>
</g>
<g id="Vector" opacity="0.95">
<use xlink:href="#path6_fill" transform="translate(26474.7 971.752)" fill="#F99531"/>
</g>
<g id="Vector">
<use xlink:href="#path7_fill" transform="translate(26461 983.497)" fill="#222328"/>
</g>
<g id="Vector">
<use xlink:href="#path8_fill" transform="matrix(0.92645 -0.376418 0.376418 0.92645 26456.9 971.959)" fill="#FF5052"/>
</g>
</g>
</g>
</g>
</g>
</g>
<defs>
<path id="path0_fill" d="M 0 24C 0 10.7452 10.7452 0 24 0C 37.2548 0 48 10.7452 48 24C 48 37.2548 37.2548 48 24 48C 10.7452 48 0 37.2548 0 24Z"/>
<path id="path1_fill" d="M 10.4811 10.39C 10.8629 10.0095 10.8714 9.39701 10.5309 8.97912C 8.67202 6.6973 7.54498 3.90994 7.29698 0.981582C 7.25094 0.437931 6.80967 7.33029e-15 6.26407 7.33029e-15L 1.01076 7.33029e-15C 0.454291 7.33029e-15 0.00249592 0.454572 0.0342624 1.01013C 0.309658 5.82651 2.17852 10.4178 5.34777 14.0644C 5.71557 14.4875 6.36232 14.4942 6.75949 14.0984L 10.4811 10.39Z"/>
<path id="path2_fill" d="M 4.46119 10.2942C 4.83651 10.6686 5.43667 10.682 5.85375 10.3547C 8.0933 8.5977 10.7982 7.52777 13.6368 7.27568C 14.1783 7.22759 14.6132 6.78715 14.6132 6.24354L 14.6132 1.01419C 14.6132 0.456397 14.1565 0.00410042 13.5997 0.0376535C 8.88457 0.3218 4.38679 2.11751 0.77932 5.15566C 0.345121 5.52134 0.334424 6.17786 0.736331 6.57875L 4.46119 10.2942Z"/>
<path id="path3_fill" d="M -1.57973e-07 0L -1.57973e-07 6.26656C -1.57973e-07 6.80094 0.420794 7.23724 0.951898 7.29633C 3.75279 7.60795 6.40543 8.71601 8.59203 10.4877C 9.0088 10.8254 9.61768 10.817 9.99765 10.4384L 13.7187 6.73048C 14.1178 6.33275 14.1111 5.6821 13.6843 5.31412C 9.88036 2.03369 5.04933 0.150288 -1.57973e-07 1.4279e-15C -1.57973e-07 1.40512e-15 -1.57973e-07 7.65602e-16 -1.57973e-07 0Z"/>
<path id="path4_fill" d="M 6.29693 14.5772C 6.82935 14.5772 7.26472 14.1593 7.32645 13.6305C 7.66178 10.7576 8.84355 8.04729 10.7216 5.84282C 11.0771 5.42556 11.0756 4.8003 10.6873 4.41338L 6.97108 0.710212C 6.57816 0.318681 5.93976 0.320292 5.56923 0.733073C 2.37721 4.28911 0.441412 8.79021 0.0584819 13.5454C 0.0131161 14.1088 0.468275 14.5772 1.03345 14.5772L 6.29693 14.5772Z"/>
<path id="path5_fill" d="M 4.7368 0C 4.19086 0 3.74944 0.438441 3.7038 0.982473C 3.46438 3.83658 2.3895 6.55915 0.612619 8.81097C 0.282711 9.22905 0.296049 9.83258 0.673301 10.2085L 4.40311 13.9252C 4.80342 14.3241 5.45636 14.3136 5.82199 13.8827C 8.8937 10.2626 10.7 5.74295 10.9666 1.00931C 10.9979 0.454043 10.5462 0 9.99008 0L 4.7368 0Z"/>
<path id="path6_fill" d="M 0.690808 4.42344C 0.306515 4.80637 0.300643 5.42374 0.646833 5.84144C 2.44606 8.01234 3.57946 10.6551 3.91029 13.4516C 3.97277 13.9797 4.40784 14.3966 4.93963 14.3966L 10.2035 14.3966C 10.7691 14.3966 11.2244 13.9275 11.1783 13.3637C 10.7965 8.6947 8.91701 4.27037 5.81832 0.747055C 5.4495 0.327691 4.80583 0.322916 4.41023 0.717121L 0.690808 4.42344Z"/>
<path id="path7_fill" d="M 3.10588 6.18988C 4.82121 6.18988 6.21176 4.80423 6.21176 3.09494C 6.21176 1.38565 4.82121 0 3.10588 0C 1.39055 0 0 1.38565 0 3.09494C 0 4.80423 1.39055 6.18988 3.10588 6.18988Z"/>
<path id="path8_fill" d="M 1.25364 26.1574C 0.528934 26.1574 -0.024947 25.719 0.000935342 24.61L 0.911993 0.943983C 0.911993 0.428159 0.943052 2.61472e-05 1.27435 2.61472e-05C 1.60564 2.61472e-05 1.62635 0.453951 1.6367 0.969774L 2.54776 24.5996C 2.57364 25.719 1.97835 26.1574 1.25364 26.1574Z"/>
</defs>
</svg>
