<svg width="298" height="91" viewBox="0 0 298 91" version="1.1" xmlns="http://www.w3.org/2000/svg" xmlns:xlink="http://www.w3.org/1999/xlink">
<title>Logo</title>
<desc>Created using Figma</desc>
<g id="Canvas" transform="translate(-5652 -1335)">
<g id="Logo">
<g id="Vector">
<use xlink:href="#path0_fill" transform="translate(5652 1335)" fill="#F7931E"/>
</g>
<g id="Vector">
<use xlink:href="#path1_fill" transform="translate(5653.9 1352.75)" fill="#FFFFFF"/>
</g>
<g id="Vector">
<use xlink:href="#path2_fill" transform="translate(5760.16 1370.41)" fill="#FFFFFF"/>
</g>
</g>
</g>
<defs>
<path id="path0_fill" fill-rule="evenodd" d="M 80.5232 17.7654C 74.3798 49.0332 45.7215 70.6137 17.6232 81.2796C 56.6248 45.0355 51.0579 28.0995 1.64703 35.6137C 21.5102 20.1374 47.7638 18.2464 64.86 25.9431C 64.86 25.9431 74.3633 19.1256 80.5232 17.7654ZM 45.178 1.42942e-29C 54.1133 -7.73473e-15 62.848 2.66853 70.2775 7.66813C 77.707 12.6677 83.4976 19.7739 86.917 28.0879C 90.3364 36.4019 91.2311 45.5505 89.4879 54.3766C 87.7447 63.2027 83.4419 71.3101 77.1236 77.6733C 70.8054 84.0366 62.7554 88.3701 53.9918 90.1257C 45.2281 91.8813 36.1443 90.9803 27.8891 87.5365C 19.6339 84.0927 12.5781 78.2609 7.61386 70.7784C 2.64964 63.296 4.75428e-15 54.499 0 45.5C 3.65714e-15 33.4326 4.75981 21.8595 13.2323 13.3266C 21.7048 4.79374 33.196 1.36279e-14 45.178 1.47328e-15L 45.178 1.42942e-29Z"/>
<path id="path1_fill" fill-rule="evenodd" d="M 78.6264 0C 72.4829 31.2678 44.0745 52.8043 15.9762 63.4702C 54.9778 27.2261 49.4108 10.2901 0 17.8043C 19.8632 2.32805 46.1168 0.437058 63.2129 8.13374C 63.2129 8.13374 72.4665 1.36019 78.6264 0Z"/>
<path id="path2_fill" fill-rule="evenodd" d="M 10.0469 5.95498L 17.2938 5.95498C 19.8467 5.95498 21.4772 6.33649 21.5596 9.1564C 21.5596 11.2962 21.5596 13.4526 21.5596 15.609C 21.3455 18.2133 19.5996 18.3128 17.3103 18.346L 7.7575 18.346C 9.4886 15.4657 10.2939 12.1171 10.0633 8.75829L 10.0469 5.95498ZM -3.0158e-06 18.3128L -3.0158e-06 24.3009L 19.6655 24.3009C 25.216 24.1351 27.9007 21.8957 28.3289 16.2393C 28.3289 13.4858 28.3289 10.7156 28.3289 7.9455C 27.8348 2.37204 25.0348 0.182466 19.6326 0.0331767L 0.0329446 0.0331767L 0.0329446 5.95498L 3.327 5.95498L 3.327 8.75829C 3.42571 10.4932 3.18256 12.2306 2.61155 13.8704C 2.04055 15.5102 1.15298 17.02 -3.0158e-06 18.3128ZM 52.0955 6.50237L 52.0955 24.3009L 58.8977 24.3009L 58.8977 0.0165887L 48.6861 0.0165887L 37.931 17.8152L 37.931 0.0165887L 31.1288 0.0165887L 31.1288 24.3009L 41.538 24.3009L 52.0955 6.50237ZM 64.9588 0.0165887L 64.9588 5.72275L 68.4669 5.72275L 59.5071 24.3009L 67.0835 24.3009L 69.7187 18.5118L 81.2479 18.5118L 83.8831 24.3009L 91.4924 24.3009L 82.1538 4.76066C 81.462 3.31753 80.2926 0.0331767 77.328 0.0331767L 64.9588 0.0165887ZM 78.5797 12.8223L 72.4528 12.8223L 75.5821 6.36967L 78.5797 12.8223ZM 154.771 24.5663L 161.359 24.5663L 161.359 6.0545L 168.754 6.0545L 168.754 24.5498L 175.343 24.5498L 175.343 5.93839L 181.931 5.93839C 182.117 5.92646 182.303 5.95662 182.477 6.02667C 182.65 6.09671 182.805 6.20486 182.932 6.3432C 183.058 6.48154 183.152 6.64658 183.207 6.82623C 183.261 7.00589 183.276 7.19561 183.248 7.38151L 183.248 24.5498L 189.836 24.5498L 189.836 6.81753C 189.867 5.91559 189.712 5.01705 189.38 4.17853C 189.049 3.34001 188.549 2.57968 187.911 1.94544C 187.274 1.31121 186.513 0.816814 185.676 0.493409C 184.84 0.170004 183.946 0.0245963 183.051 0.0663497L 151.79 0.0663497L 151.79 5.97156L 154.755 5.97156L 154.771 24.5663ZM 99.0358 0.0165887L 88.8572 0.0165887L 88.8572 5.72275L 92.25 5.72275L 92.25 24.3009L 99.0523 24.3009L 99.0523 14.7133L 113.974 14.7133L 113.974 24.3009L 120.777 24.3009L 120.777 0.0165887L 113.974 0.0165887L 113.974 8.79147L 99.0358 8.79147L 99.0358 0.0165887ZM 125.784 14.9455L 142.715 14.9455C 142.715 17.8981 141.859 18.5948 139.026 18.628C 133.047 18.628 130.033 18.628 124.071 18.628L 124.071 24.5663L 140.541 24.5663C 145.482 24.4668 148.661 23.3057 149.402 17.9313C 149.616 14.9787 149.501 12.0095 149.501 9.04028C 149.385 3.64929 148.018 0.746445 142.402 0.0995258C 141.628 0.0995258 140.755 0.0995267 140.047 6.3277e-07L 124.384 6.3277e-07L 124.384 6.0545C 130.428 5.90521 133.557 6.0545 139.602 6.0545C 142.435 6.15403 142.682 6.81753 142.682 9.65403L 125.718 9.65403L 125.784 14.9455Z"/>
</defs>
</svg>
