<svg width="82" height="79" viewBox="0 0 82 79" version="1.1" xmlns="http://www.w3.org/2000/svg" xmlns:xlink="http://www.w3.org/1999/xlink">
<title>Subtract</title>
<desc>Created using Figma</desc>
<g id="Canvas" transform="translate(-26800 4847)">
<g id="Subtract">
<use xlink:href="#path0_fill" transform="translate(26800 -4847)" fill="#F99531"/>
</g>
</g>
<defs>
<path id="path0_fill" fill-rule="evenodd" d="M 17.0274 1.10596C 8.73635 1.82031 2.08792 7.98779 1.14651 16.2568C 0.408229 22.7449 -0.183568 31.0518 0.0527605 40.0728C 0.265651 48.2102 0.814479 55.7666 1.40042 61.9312C 2.27542 71.1235 9.76956 78.0598 18.9942 78.4731C 25.3731 78.7588 33.0977 79 41 79C 48.9785 79 56.7754 78.7542 63.1895 78.4648C 72.3301 78.0525 79.7637 71.2285 80.6289 62.1199C 81.2031 56.0581 81.7383 48.519 81.9473 40.0728C 82.1797 30.6667 81.6074 22.3862 80.8809 16.0173C 79.9512 7.86084 73.377 1.83569 65.1992 1.12549C 58.4414 0.538818 49.8321 0 41 0C 32.2657 0 23.75 0.526855 17.0274 1.10596ZM 62.8907 22C 59.1602 40.8501 41.7598 53.8601 24.6992 60.29C 48.3809 38.4399 45 28.23 15 32.76C 27.0606 23.4299 43 22.29 53.3809 26.9299C 53.3809 26.9299 59.1504 22.8201 62.8907 22Z"/>
</defs>
</svg>
