<svg width="117" height="160" viewBox="0 0 117 160" version="1.1" xmlns="http://www.w3.org/2000/svg" xmlns:xlink="http://www.w3.org/1999/xlink">
<title>Terminal</title>
<desc>Created using Figma</desc>
<g id="Canvas" transform="translate(-39917 4210)">
<g id="Terminal">
<g id="Pay Terminal icon">
<g id="Rectangle 53">
<mask id="mask0_outline_ins">
<use xlink:href="#path0_fill" fill="white" transform="translate(39925 -4210)"/>
</mask>
<g mask="url(#mask0_outline_ins)">
<use xlink:href="#path1_stroke_2x" transform="translate(39925 -4210)" fill="#F99531"/>
</g>
</g>
<g id="Rectangle 53">
<mask id="mask1_outline_ins">
<use xlink:href="#path2_fill" fill="white" transform="translate(39925 -4210)"/>
</mask>
<g mask="url(#mask1_outline_ins)">
<use xlink:href="#path3_stroke_2x" transform="translate(39925 -4210)" fill="#F99531"/>
</g>
</g>
<g id="Vector 13">
<use xlink:href="#path4_stroke" transform="translate(39925 -4137.5)" fill="#F99531"/>
</g>
<g id="Rectangle 58">
<use xlink:href="#path5_fill" transform="translate(39940 -4195)" fill="#F99531"/>
</g>
<g id="Ellipse 10">
<use xlink:href="#path6_fill" transform="translate(39970 -4187)" fill="#FFFFFF"/>
</g>
<g id="Rectangle 60">
<mask id="mask2_outline_ins">
<use xlink:href="#path7_fill" fill="white" transform="translate(39935 -4200)"/>
</mask>
<g mask="url(#mask2_outline_ins)">
<use xlink:href="#path8_stroke_2x" transform="translate(39935 -4200)" fill="#F99531"/>
</g>
</g>
<g id="Rectangle 59">
<mask id="mask3_outline_ins">
<use xlink:href="#path9_fill" fill="white" transform="translate(39917 -4054)"/>
</mask>
<g mask="url(#mask3_outline_ins)">
<use xlink:href="#path10_stroke_2x" transform="translate(39917 -4054)" fill="#F99531"/>
</g>
</g>
<g id="Rectangle 61">
<use xlink:href="#path11_fill" transform="translate(39987 -4113)" fill="#F99531"/>
</g>
<g id="Line 7">
<use xlink:href="#path12_stroke" transform="translate(39987 -4105)" fill="#F99531"/>
</g>
<g id="Rectangle 62">
<mask id="mask4_outline_ins">
<use xlink:href="#path13_fill" fill="white" transform="translate(39935 -4125)"/>
</mask>
<g mask="url(#mask4_outline_ins)">
<use xlink:href="#path14_stroke_2x" transform="translate(39935 -4125)" fill="#F99531"/>
</g>
</g>
</g>
<g id="Line 5">
<use xlink:href="#path15_stroke" transform="translate(39964 -4171)" fill="#FFFFFF"/>
</g>
<g id="Line 5">
<use xlink:href="#path15_stroke" transform="translate(39964 -4168)" fill="#FFFFFF"/>
</g>
<g id="Rectangle 70">
<use xlink:href="#path16_fill" transform="translate(39970 -4164)" fill="#FFFFFF"/>
</g>
</g>
</g>
<defs>
<path id="path0_fill" d="M 0 2C 0 0.895431 0.895431 0 2 0L 98 0C 99.1046 0 100 0.895431 100 2L 100 157L 0 157L 0 2Z"/>
<path id="path1_stroke_2x" d="M 100 157L 100 158L 101 158L 101 157L 100 157ZM 0 157L -1 157L -1 158L 0 158L 0 157ZM 2 1L 98 1L 98 -1L 2 -1L 2 1ZM 99 2L 99 157L 101 157L 101 2L 99 2ZM 100 156L 0 156L 0 158L 100 158L 100 156ZM 1 157L 1 2L -1 2L -1 157L 1 157ZM 2 -1C 0.343146 -1 -1 0.343146 -1 2L 1 2C 1 1.44772 1.44772 1 2 1L 2 -1ZM 98 1C 98.5523 1 99 1.44772 99 2L 101 2C 101 0.343146 99.6569 -1 98 -1L 98 1Z"/>
<path id="path2_fill" d="M 0 2C 0 0.895431 0.895431 0 2 0L 98 0C 99.1046 0 100 0.895431 100 2L 100 73L 0 73L 0 2Z"/>
<path id="path3_stroke_2x" d="M 100 73L 100 74L 101 74L 101 73L 100 73ZM 0 73L -1 73L -1 74L 0 74L 0 73ZM 2 1L 98 1L 98 -1L 2 -1L 2 1ZM 99 2L 99 73L 101 73L 101 2L 99 2ZM 100 72L 0 72L 0 74L 100 74L 100 72ZM 1 73L 1 2L -1 2L -1 73L 1 73ZM 2 -1C 0.343146 -1 -1 0.343146 -1 2L 1 2C 1 1.44772 1.44772 1 2 1L 2 -1ZM 98 1C 98.5523 1 99 1.44772 99 2L 101 2C 101 0.343146 99.6569 -1 98 -1L 98 1Z"/>
<path id="path4_stroke" d="M 0 0.5L 99.5 0.5L 99.5 -0.5L 0 -0.5L 0 0.5Z"/>
<path id="path5_fill" d="M 0 1C 0 0.447715 0.447715 0 1 0L 69 0C 69.5523 0 70 0.447715 70 1L 70 41C 70 41.5523 69.5523 42 69 42L 1 42C 0.447715 42 0 41.5523 0 41L 0 1Z"/>
<path id="path6_fill" d="M 10 5C 10 7.76142 7.76142 10 5 10C 2.23858 10 0 7.76142 0 5C 0 2.23858 2.23858 0 5 0C 7.76142 0 10 2.23858 10 5Z"/>
<path id="path7_fill" d="M 0 2C 0 0.895431 0.895431 0 2 0L 78 0C 79.1046 0 80 0.895431 80 2L 80 50.8901C 80 51.9116 79.2301 52.769 78.2145 52.8785L 40.2145 56.9769C 40.0719 56.9922 39.9281 56.9922 39.7855 56.9769L 1.78554 52.8785C 0.769871 52.769 0 51.9116 0 50.8901L 0 2Z"/>
<path id="path8_stroke_2x" d="M 40.2145 56.9769L 40.3217 57.9711L 40.2145 56.9769ZM 78.2145 52.8785L 78.3217 53.8728L 78.2145 52.8785ZM 1.78554 52.8785L 1.67831 53.8728L 1.78554 52.8785ZM 39.7855 56.9769L 39.6783 57.9711L 39.7855 56.9769ZM 2 1L 78 1L 78 -1L 2 -1L 2 1ZM 79 2L 79 50.8901L 81 50.8901L 81 2L 79 2ZM 1 50.8901L 1 2L -1 2L -1 50.8901L 1 50.8901ZM 78.1072 51.8843L 40.1072 55.9826L 40.3217 57.9711L 78.3217 53.8728L 78.1072 51.8843ZM 39.8928 55.9826L 1.89277 51.8843L 1.67831 53.8728L 39.6783 57.9711L 39.8928 55.9826ZM 2 -1C 0.343146 -1 -1 0.343146 -1 2L 1 2C 1 1.44772 1.44772 1 2 1L 2 -1ZM 78 1C 78.5523 1 79 1.44772 79 2L 81 2C 81 0.343146 79.6569 -1 78 -1L 78 1ZM 79 50.8901C 79 51.4008 78.6151 51.8295 78.1072 51.8843L 78.3217 53.8728C 79.8452 53.7084 81 52.4224 81 50.8901L 79 50.8901ZM -1 50.8901C -1 52.4224 0.154806 53.7084 1.67831 53.8728L 1.89277 51.8843C 1.38494 51.8295 1 51.4008 1 50.8901L -1 50.8901ZM 40.1072 55.9826C 40.0182 55.9937 39.9818 55.9937 39.8928 55.9826L 39.6783 57.9711C 39.8744 57.9908 40.1256 57.9908 40.3217 57.9711L 40.1072 55.9826Z"/>
<path id="path9_fill" d="M 0 2C 0 0.89543 0.89543 0 2 0L 115 0C 116.105 0 117 0.895431 117 2C 117 3.10457 116.105 4 115 4L 2 4C 0.89543 4 0 3.10457 0 2Z"/>
<path id="path10_stroke_2x" d="M 2 1L 115 1L 115 -1L 2 -1L 2 1ZM 115 3L 2 3L 2 5L 115 5L 115 3ZM 2 -1C 0.343146 -1 -1 0.343146 -1 2L 1 2C 1 1.44772 1.44772 1 2 1L 2 -1ZM 115 1C 115.552 1 116 1.44772 116 2L 118 2C 118 0.343146 116.657 -1 115 -1L 115 1ZM 116 2C 116 2.55228 115.552 3 115 3L 115 5C 116.657 5 118 3.65685 118 2L 116 2ZM 2 3C 1.44772 3 1 2.55228 1 2L -1 2C -1 3.65685 0.343145 5 2 5L 2 3Z"/>
<path id="path11_fill" d="M 0 1.5C 0 0.671573 0.671573 0 1.5 0L 18.5 0C 19.3284 0 20 0.671573 20 1.5C 20 2.32843 19.3284 3 18.5 3L 1.5 3C 0.671573 3 0 2.32843 0 1.5Z"/>
<path id="path12_stroke" d="M 0.5 -1C 0.223858 -1 0 -0.776142 0 -0.5C 0 -0.223858 0.223858 0 0.5 0L 0.5 -1ZM 19.5 0C 19.7761 0 20 -0.223858 20 -0.5C 20 -0.776142 19.7761 -1 19.5 -1L 19.5 0ZM 0.5 0L 19.5 0L 19.5 -1L 0.5 -1L 0.5 0Z"/>
<path id="path13_fill" d="M 0 2C 0 0.895431 0.895431 0 2 0L 78 0C 79.1046 0 80 0.895431 80 2L 80 72L 0 72L 0 2Z"/>
<path id="path14_stroke_2x" d="M 80 72L 80 73L 81 73L 81 72L 80 72ZM 0 72L -1 72L -1 73L 0 73L 0 72ZM 2 1L 78 1L 78 -1L 2 -1L 2 1ZM 79 2L 79 72L 81 72L 81 2L 79 2ZM 80 71L 0 71L 0 73L 80 73L 80 71ZM 1 72L 1 2L -1 2L -1 72L 1 72ZM 2 -1C 0.343146 -1 -1 0.343146 -1 2L 1 2C 1 1.44772 1.44772 1 2 1L 2 -1ZM 78 1C 78.5523 1 79 1.44772 79 2L 81 2C 81 0.343146 79.6569 -1 78 -1L 78 1Z"/>
<path id="path15_stroke" d="M 0.5 -1C 0.223858 -1 0 -0.776142 0 -0.5C 0 -0.223858 0.223858 0 0.5 0L 0.5 -1ZM 21.5 0C 21.7761 0 22 -0.223858 22 -0.5C 22 -0.776142 21.7761 -1 21.5 -1L 21.5 0ZM 0.5 0L 21.5 0L 21.5 -1L 0.5 -1L 0.5 0Z"/>
<path id="path16_fill" d="M 0 1C 0 0.447715 0.447715 0 1 0L 9 0C 9.55229 0 10 0.447716 10 1C 10 1.55228 9.55229 2 9 2L 1 2C 0.447715 2 0 1.55228 0 1Z"/>
</defs>
</svg>
