<svg width="196" height="140" viewBox="0 0 196 140" version="1.1" xmlns="http://www.w3.org/2000/svg" xmlns:xlink="http://www.w3.org/1999/xlink">
<title>Tv2</title>
<desc>Created using Figma</desc>
<g id="Canvas" transform="translate(-10062 -1385)">
<g id="Tv2">
<g id="Layer 2">
<g id="Layer 1">
<g id="Vector">
<use xlink:href="#path0_fill" transform="translate(10062 1385)" fill="#FFFFFF"/>
</g>
<g id="Vector">
<use xlink:href="#path1_fill" transform="translate(10065.6 1388.52)" fill="#FFFFFF"/>
</g>
<g id="Vector">
<use xlink:href="#path2_fill" transform="translate(10084.5 1421.36)" fill="#FFFFFF"/>
</g>
<g id="Vector">
<use xlink:href="#path3_fill" transform="translate(10093.3 1421.36)" fill="#FFFFFF"/>
</g>
<g id="Vector">
<use xlink:href="#path4_fill" transform="translate(10098.8 1446.45)" fill="#FFFFFF"/>
</g>
<g id="Vector">
<use xlink:href="#path5_fill" transform="translate(10083.7 1440.43)" fill="#FFFFFF"/>
</g>
<g id="Vector">
<use xlink:href="#path6_fill" transform="translate(10134.4 1441.03)" fill="#FFFFFF"/>
</g>
<g id="Vector">
<use xlink:href="#path7_fill" transform="translate(10139.6 1450.9)" fill="#FFFFFF"/>
</g>
<g id="Vector">
<use xlink:href="#path8_fill" transform="translate(10165.7 1454.59)" fill="#FFFFFF"/>
</g>
<g id="Vector">
<use xlink:href="#path9_fill" transform="translate(10161.3 1454.61)" fill="#FFFFFF"/>
</g>
<g id="Vector">
<use xlink:href="#path10_fill" transform="translate(10156.6 1454.69)" fill="#FFFFFF"/>
</g>
<g id="Vector">
<use xlink:href="#path11_fill" transform="translate(10152.2 1454.59)" fill="#FFFFFF"/>
</g>
<g id="Vector">
<use xlink:href="#path12_fill" transform="translate(10147.6 1454.55)" fill="#FFFFFF"/>
</g>
<g id="Vector">
<use xlink:href="#path13_fill" transform="translate(10143.5 1454.59)" fill="#FFFFFF"/>
</g>
<g id="Vector">
<use xlink:href="#path14_fill" transform="translate(10184 1441.03)" fill="#FFFFFF"/>
</g>
<g id="Vector">
<use xlink:href="#path15_fill" transform="translate(10188.2 1448.25)" fill="#FFFFFF"/>
</g>
<g id="Vector">
<use xlink:href="#path16_fill" transform="translate(10084 1403.4)" fill="#FFFFFF"/>
</g>
<g id="Vector">
<use xlink:href="#path17_fill" transform="translate(10224.2 1403.3)" fill="#FFFFFF"/>
</g>
<g id="Vector">
<use xlink:href="#path18_fill" transform="translate(10217.5 1403.4)" fill="#FFFFFF"/>
</g>
<g id="Vector">
<use xlink:href="#path19_fill" transform="translate(10242.7 1455.32)" fill="#FFFFFF"/>
</g>
</g>
</g>
</g>
</g>
<defs>
<path id="path0_fill" d="M 194.673 0.00603023L 194.588 0.00603023C 185.092 0.727649 137.633 5.11749 97.9336 5.11749C 57.9203 5.11749 10.7635 0.727649 1.29114 0.00603023L 1.20667 0.00603023C 0.886644 0.00603023 0.579722 0.132743 0.353427 0.358292C 0.127131 0.583842 3.26546e-16 0.889752 0 1.20873L 2.34443e-16 126.506C 4.10276e-16 126.825 0.127131 127.131 0.353427 127.356C 0.579722 127.582 0.886644 127.708 1.20667 127.708L 1.29114 127.708C 10.1602 127.095 52.8282 123.583 89.1973 123.054L 89.1973 126.361L 89.1973 127.708L 88.9198 127.841C 84.9722 129.412 80.8658 130.553 76.672 131.244C 61.2628 131.918 50.4993 133.433 23.2888 136.765C 22.9945 136.8 22.7236 136.942 22.5277 137.164C 22.3319 137.386 22.2248 137.672 22.2269 137.967L 22.2269 138.797C 22.2269 139.116 22.3541 139.422 22.5804 139.648C 22.8066 139.873 23.1136 140 23.4336 140L 23.5422 140C 31.7234 139.29 64.5691 135.514 98.0422 135.514C 131.515 135.514 164.409 139.29 172.554 140C 172.874 140 173.181 139.873 173.408 139.648C 173.634 139.422 173.761 139.116 173.761 138.797L 173.761 137.967C 173.763 137.67 173.654 137.383 173.456 137.161C 173.257 136.938 172.984 136.797 172.687 136.765C 145.489 133.433 134.725 131.954 119.316 131.244C 115.123 130.551 111.016 129.41 107.068 127.841L 106.791 127.708L 106.791 126.133L 106.791 123.054C 141.784 123.607 185.743 127.107 194.709 127.708L 194.793 127.708C 195.113 127.708 195.42 127.582 195.647 127.356C 195.873 127.131 196 126.825 196 126.506L 196 1.20873C 196.001 1.04014 195.966 0.873252 195.898 0.718901C 195.83 0.56455 195.73 0.426181 195.605 0.312773C 195.48 0.199366 195.332 0.113452 195.172 0.060608C 195.011 0.00776358 194.841 -0.0108312 194.673 0.00603023ZM 106.441 128.911C 108.348 129.833 110.33 130.593 112.365 131.184C 107.539 131.064 102.374 130.98 97.7164 130.98C 93.4689 130.98 88.2682 131.076 83.4294 131.184C 85.4718 130.591 87.4616 129.831 89.3783 128.911L 106.441 128.911ZM 172.554 138.833C 163.951 138.076 131.383 134.335 97.9336 134.335C 64.4846 134.335 31.9286 138.076 23.325 138.833L 23.325 138.004C 47.2533 135.057 55.7121 133.554 70.2043 132.796L 70.8317 132.796C 76.2859 132.615 88.9318 132.219 97.7285 132.219C 107.382 132.219 119.449 132.591 124.83 132.784L 125.156 132.784L 125.723 132.784C 140.203 133.554 148.65 135.057 172.542 137.992L 172.554 138.833ZM 90.3437 127.708L 90.3437 126.361L 90.3437 123.042L 97.8854 123.042L 105.427 123.042L 105.427 126.169L 105.427 127.708L 90.3437 127.708ZM 106.682 121.851L 106.465 121.851C 103.557 121.851 100.697 121.779 97.9336 121.779C 60.3337 121.779 12.7666 125.712 1.20667 126.506L 1.20667 1.20873C 12.4287 2.06264 58.3065 6.32019 97.9457 6.32019C 137.319 6.32019 183.414 2.06264 194.673 1.20873L 194.673 126.506C 183.704 125.784 141.181 122.393 106.682 121.851Z"/>
<path id="path1_fill" d="M 188.639 9.17585e-08C 186.359 0.144324 136.933 5.20768 94.3136 5.20768C 51.4043 5.20768 2.28061 0.0962159 0 9.17585e-08L 0 120.667C 2.26855 120.534 53.6366 115.856 94.3136 115.856C 132.782 115.856 186.383 120.534 188.639 120.667L 188.639 84.5857L 188.639 61.7946L 188.639 59.8101L 188.639 52.7142L 188.639 9.17585e-08ZM 180.748 59.8222L 180.748 63.5866L 173.87 63.5866L 173.87 71.4643L 173.87 78.8729L 175.076 78.8729L 186.129 78.8729C 186.533 78.8831 186.936 78.863 187.336 78.8128L 187.336 83.371L 169.236 83.371C 169.184 83.371 169.132 83.3607 169.084 83.3408C 169.035 83.3208 168.991 83.2916 168.954 83.2547C 168.917 83.2179 168.888 83.1741 168.868 83.126C 168.848 83.0778 168.838 83.0262 168.838 82.9741L 168.838 54.3018C 168.841 54.1986 168.884 54.1007 168.959 54.0289C 169.033 53.957 169.132 53.9169 169.236 53.9169L 187.336 53.9169L 187.336 58.6074L 180.651 58.6074L 180.748 59.8222ZM 187.396 71.6447L 187.396 73.7253C 187.133 73.4307 186.987 73.0498 186.986 72.655C 187.008 72.2862 187.153 71.9351 187.396 71.6567L 187.396 71.6447ZM 187.396 119.368L 186.54 119.368C 141.893 116.361 116.842 114.701 94.2774 114.701C 70.3732 114.701 45.3347 116.361 1.89448 119.38L 1.17047 119.38L 1.17047 1.29891L 1.77381 1.29891C 43.9712 4.61836 69.0459 6.41038 94.3136 6.41038C 119.581 6.41038 144.475 4.61836 186.805 1.29891L 187.433 1.29891L 187.433 52.7142L 169.333 52.7142C 168.909 52.7142 168.503 52.8811 168.202 53.1785C 167.901 53.4759 167.731 53.8796 167.728 54.3018L 167.728 82.95C 167.731 83.3733 167.901 83.7783 168.201 84.0776C 168.501 84.3769 168.908 84.5465 169.333 84.5496L 187.433 84.5496L 187.396 119.368ZM 187.396 61.7826L 183.994 61.7826C 183.994 62.6846 183.994 63.5746 183.994 64.4646C 184.029 64.5491 184.083 64.6245 184.152 64.6849C 184.221 64.7453 184.303 64.7893 184.392 64.8134C 184.565 64.8257 184.738 64.8257 184.911 64.8134L 185.683 64.8134C 185.683 64.3563 185.683 64.0076 185.683 63.6107C 185.683 63.2138 185.852 63.0574 186.262 63.0574L 186.757 63.0574C 186.97 63.0449 187.183 63.0449 187.396 63.0574L 187.396 69.985L 187.264 70.0812C 186.811 70.3308 186.434 70.6967 186.171 71.1409C 185.908 71.585 185.77 72.0912 185.77 72.6068C 185.77 73.1225 185.908 73.6286 186.171 74.0728C 186.434 74.517 186.811 74.8829 187.264 75.1325L 187.396 75.2287L 187.396 77.5499C 187.003 77.6503 186.595 77.6868 186.19 77.6582L 175.137 77.6582L 175.137 72.0055C 175.607 71.9213 176.211 72.0055 176.476 71.6928C 176.741 71.3801 176.476 70.8629 176.476 70.3939C 176.005 70.3939 175.547 70.3337 175.076 70.3097L 175.076 64.8013L 181.954 64.8013L 181.954 59.8222L 187.433 59.8222L 187.396 61.7826Z"/>
<path id="path2_fill" d="M 5.5145 10.247L 5.5145 2.08067L 8.63978 2.08067L 8.63978 -5.50551e-07L -7.36495e-07 -5.50551e-07L -7.36495e-07 2.08067L 3.13735 2.08067L 3.13735 10.247L 5.5145 10.247Z"/>
<path id="path3_fill" d="M 5.93683 10.247L 9.83439 -5.50551e-07L 7.32451 -5.50551e-07L 4.9353 7.27632L 2.52195 -5.50551e-07L -1.84124e-07 -5.50551e-07L 3.94582 10.247L 5.93683 10.247Z"/>
<path id="path4_fill" d="M 13.7319 0.781755L 1.07394 5.0393C 0.972079 5.08446 0.88206 5.15246 0.810897 5.23799C 0.739734 5.32353 0.689351 5.42428 0.663672 5.53241L 0.181 7.26429L -2.76186e-07 7.90172L -2.76186e-07 8.91199L 4.70603 7.3124L 2.60642 14.9495C 2.22028 16.3928 1.82208 17.836 1.39974 19.2913C 1.39974 19.4476 1.31527 19.5919 1.27907 19.7483L 0.989472 20.7946L 1.91861 20.6383C 2.00166 20.6306 2.08303 20.6103 2.15994 20.5781L 4.45263 19.8806C 4.56151 19.8521 4.66391 19.8031 4.75429 19.7363L 5.49037 19.616L 5.67136 19.616L 6.87804 19.2792L 10.5946 18.2329C 10.7329 18.2057 10.8602 18.1389 10.961 18.0406C 11.0617 17.9423 11.1315 17.8169 11.1617 17.6797C 11.1617 17.4511 11.2945 17.2226 11.3669 16.9701L 13.4061 9.51334C 14.1301 6.94758 14.8461 4.37782 15.554 1.80405L 15.6264 1.55148C 15.6264 1.3831 15.735 1.2027 15.7712 1.02229L 15.9522 1.83517e-07L 14.8904 0.360808L 13.7319 0.781755ZM 3.92169 18.8222L 2.71502 19.1951C 3.07702 17.8881 3.43097 16.5852 3.77689 15.2863L 5.86443 7.68524L 7.07111 7.26429L 3.92169 18.8222ZM 12.2477 9.20064L 10.1964 16.5852L 10.0516 17.0783L 6.54017 18.0645L 6.21437 18.1607C 7.413 13.8711 8.61967 9.58149 9.83439 5.29187L 10.1361 4.19742L 1.47214 7.10794L 1.76174 6.04957L 14.106 1.90026L 14.287 1.84013C 13.6113 4.30966 12.9315 6.76718 12.2477 9.21266L 12.2477 9.20064Z"/>
<path id="path5_fill" d="M 43.7057 2.2022e-06L 2.19615 2.2022e-06C 1.61369 2.2022e-06 1.05509 0.230614 0.643236 0.641114C 0.231379 1.05161 2.46475e-10 1.60838 2.46475e-10 2.18891L 2.46475e-10 30.8372C -8.71267e-06 31.4188 0.230984 31.9768 0.642498 32.3892C 1.05401 32.8016 1.61258 33.0349 2.19615 33.0381L 43.7057 33.0381C 44.2809 33.0224 44.8271 32.7836 45.2283 32.3726C 45.6295 31.9615 45.8538 31.4106 45.8536 30.8372L 45.8536 2.18891C 45.8507 1.61754 45.6249 1.06969 45.2241 0.661205C 44.8233 0.252716 44.2788 0.0156062 43.7057 2.2022e-06ZM 44.6469 30.8372C 44.6469 31.1019 44.5414 31.3558 44.3536 31.543C 44.1658 31.7302 43.911 31.8354 43.6454 31.8354L 2.19615 31.8354C 1.93262 31.8322 1.68096 31.7257 1.49574 31.5388C 1.31052 31.3519 1.20665 31.0998 1.20667 30.8372L 1.20667 2.18891C 1.20667 1.92735 1.31092 1.6765 1.49648 1.49155C 1.68205 1.3066 1.93372 1.2027 2.19615 1.2027L 43.7057 1.2027C 43.9693 1.20268 44.2222 1.30619 44.4097 1.49081C 44.5972 1.67542 44.7041 1.92625 44.7073 2.18891L 44.6469 30.8372Z"/>
<path id="path6_fill" d="M 43.1507 0.000412295L 1.62901 0.000412295C 1.41681 -0.00439572 1.20579 0.0331158 1.00834 0.110743C 0.810898 0.18837 0.631008 0.304542 0.479247 0.452442C 0.327485 0.600342 0.206915 0.776986 0.124615 0.971988C 0.0423147 1.16699 -5.47712e-05 1.37642 5.31398e-08 1.58797L 5.31398e-08 30.2362C -1.19194e-05 30.6584 0.167415 31.0634 0.465783 31.3631C 0.76415 31.6627 1.16926 31.8326 1.59281 31.8358L 43.1507 31.8358C 43.5742 31.8326 43.9793 31.6627 44.2777 31.3631C 44.576 31.0634 44.7435 30.6584 44.7435 30.2362L 44.7435 1.58797C 44.7435 1.16693 44.5756 0.763119 44.2769 0.465394C 43.9782 0.167669 43.5731 0.000412295 43.1507 0.000412295ZM 43.5368 30.2362C 43.5368 30.3394 43.4965 30.4386 43.4244 30.5127C 43.3524 30.5868 43.2542 30.63 43.1507 30.6331L 1.62901 30.6331C 1.5255 30.63 1.42729 30.5868 1.35521 30.5127C 1.28312 30.4386 1.24282 30.3394 1.24287 30.2362L 1.24287 1.58797C 1.24287 1.4859 1.28356 1.38801 1.35597 1.31583C 1.42838 1.24365 1.5266 1.20311 1.62901 1.20311L 43.1507 1.20311C 43.2531 1.20311 43.3513 1.24365 43.4237 1.31583C 43.4961 1.38801 43.5368 1.4859 43.5368 1.58797L 43.5368 30.2362Z"/>
<path id="path7_fill" d="M 33.7989 1.45539C 33.814 1.26834 33.7908 1.08018 33.7307 0.902367C 33.6705 0.72455 33.5747 0.560796 33.449 0.42107C 33.3227 0.285957 33.1694 0.178699 32.999 0.106201C 32.8285 0.0337023 32.6448 -0.00242872 32.4595 0.000127889L 32.2544 0.000127889L 1.3394 0.000127889C 0.983066 0.00329912 0.64241 0.146615 0.391563 0.398887C 0.140716 0.65116 -1.8254e-05 0.99197 -4.04965e-06 1.34715L -4.04965e-06 10.6199C -1.8254e-05 10.9751 0.140716 11.3159 0.391563 11.5682C 0.64241 11.8205 0.983066 11.9638 1.3394 11.967L 32.1096 11.967C 32.3365 12.0001 32.5681 11.9795 32.7855 11.9068C 33.003 11.8342 33.2002 11.7114 33.3612 11.5486C 33.5222 11.3858 33.6424 11.1875 33.7122 10.9697C 33.782 10.752 33.7993 10.5209 33.7627 10.2952C 33.7627 9.09252 33.7627 7.22834 33.7627 5.56861C 33.7989 3.66835 33.7869 1.73201 33.7989 1.45539ZM 32.1578 10.7282L 1.38767 10.7282C 1.3514 10.7252 1.31759 10.7086 1.293 10.6819C 1.2684 10.6551 1.25481 10.6201 1.25494 10.5839L 1.25494 1.33512C 1.25481 1.29884 1.2684 1.26384 1.293 1.2371C 1.31759 1.21035 1.3514 1.19382 1.38767 1.1908L 32.3992 1.1908C 32.5078 1.1908 32.544 1.26296 32.5319 1.38323C 32.5199 1.5035 32.5319 7.39672 32.5319 10.2471C 32.6043 10.7402 32.6043 10.7402 32.1578 10.7402L 32.1578 10.7282Z"/>
<path id="path8_fill" d="M 3.37256 5.02108e-06L 1.65908 5.02108e-06C 1.45976 -0.000370057 1.26116 0.0238655 1.06781 0.0721639C 0.792523 0.13712 0.545922 0.289599 0.365243 0.506567C 0.184564 0.723535 0.0796186 0.993208 0.0662721 1.27486C 0.0226614 1.53949 0.0690376 1.81105 0.198031 2.0464C 0.327024 2.28174 0.531239 2.46737 0.778214 2.57378L 0.87475 2.57378C 0.959217 2.57378 0.983348 2.65796 0.947148 2.74215L 0.850612 2.88648C 0.59721 3.35553 0.33174 3.81255 0.0662721 4.2816C -0.0423286 4.48606 -0.0302611 4.52215 0.199007 4.53417L 0.935079 4.53417C 1.00506 4.53472 1.07337 4.51279 1.12987 4.47164C 1.18638 4.43048 1.22808 4.37228 1.24882 4.30566C 1.40568 3.98093 1.58668 3.6562 1.75562 3.31945C 1.92455 2.98269 1.91249 3.00675 1.99696 2.86243C 2.0512 2.81514 2.11434 2.77909 2.18271 2.75638C 2.25108 2.73366 2.32329 2.72474 2.39515 2.73013C 2.44598 2.71272 2.5012 2.71272 2.55203 2.73013C 2.56217 2.7614 2.56217 2.79507 2.55203 2.82634L 2.55203 3.10296C 2.55203 3.49985 2.55203 3.89674 2.55203 4.30566C 2.55203 4.44998 2.55203 4.51012 2.76923 4.51012L 3.2881 4.51012C 3.63803 4.51012 3.63803 4.51012 3.63803 4.17337L 3.63803 2.24905L 3.63803 0.336759C 3.7225 3.54847e-06 3.7225 5.02108e-06 3.37256 5.02108e-06ZM 2.57616 1.75594C 2.56983 1.78546 2.55508 1.81252 2.53367 1.83386C 2.51226 1.8552 2.4851 1.86991 2.45549 1.87621L 1.62288 1.87621C 1.51076 1.8702 1.40503 1.8223 1.32676 1.74205C 1.24848 1.66181 1.20342 1.55512 1.20055 1.44324C 1.20055 1.16662 1.27295 0.97419 1.53842 0.926082C 1.76716 0.904325 1.99747 0.904325 2.22622 0.926082L 2.45549 0.926082C 2.45549 0.926082 2.53996 0.998242 2.53996 1.04635C 2.58018 1.26284 2.59224 1.49937 2.57616 1.75594Z"/>
<path id="path9_fill" d="M 3.56445 1.45582C 3.56445 1.05892 3.56445 0.650008 3.56445 0.253118C 3.56445 0.0366321 3.56444 0.0125747 3.32311 0.000547692L 2.62324 0.000547692C 2.47844 0.000547692 2.43017 0.0727125 2.43017 0.229063C 2.44649 0.304366 2.44649 0.382271 2.43017 0.457574L 1.2235 2.40594L 1.13903 2.47811C 1.13445 2.43815 1.13445 2.3978 1.13903 2.35784L 1.13903 0.1569C 1.13903 0.0606838 1.13903 0.000547692 0.994227 0.000547692L 0.161629 0.000547692C 0.140565 -0.00128865 0.119346 0.00149703 0.0994776 0.00870502C 0.0796089 0.015913 0.0615667 0.0273686 0.0466157 0.0422703C 0.0316647 0.057172 0.0201713 0.0751594 0.0129394 0.0949626C 0.0057076 0.114766 0.00291271 0.135906 0.00475512 0.1569C -0.00158897 0.236955 -0.00158897 0.317385 0.00475512 0.39744C 0.00475512 1.29946 0.00475512 2.20148 0.00475512 3.11553L 0.00475512 4.31823C 0.00475512 4.46256 0.00476212 4.53472 0.209897 4.53472L 0.837363 4.53472C 0.99423 4.53472 1.0787 4.46255 1.05456 4.29418C 1.05236 4.14502 1.10372 3.99999 1.19937 3.88526L 2.24917 2.22554L 2.39397 1.99703C 2.40042 2.01656 2.40042 2.03763 2.39397 2.05716C 2.39999 2.16131 2.39999 2.26572 2.39397 2.36986L 2.39397 4.35432C 2.39397 4.55877 2.39397 4.5708 2.61117 4.58283L 3.25071 4.58283C 3.49204 4.58283 3.50411 4.58283 3.51618 4.33026C 3.51618 3.62067 3.51618 2.91108 3.51618 2.20149L 3.56445 1.45582Z"/>
<path id="path10_fill" d="M 3.67724 2.81529C 3.5445 2.81529 3.3997 2.81529 3.26696 2.81529L 3.1101 2.81529C 2.9291 2.81529 2.91703 2.81529 2.82049 3.14002C 2.79342 3.21434 2.76117 3.28668 2.72396 3.35651C 2.6657 3.46203 2.58011 3.55005 2.47612 3.61139C 2.37212 3.67273 2.25353 3.70516 2.13269 3.70529C 2.04869 3.71781 1.96329 3.71781 1.87929 3.70529C 1.74316 3.65368 1.62274 3.56786 1.52971 3.45617C 1.43668 3.34448 1.37421 3.21072 1.34836 3.06786C 1.34836 2.80327 1.27595 2.53868 1.23975 2.27408C 1.23975 2.14179 1.23975 2.00948 1.23975 1.88921C 1.24754 1.58368 1.35325 1.28866 1.54142 1.04733C 1.60622 0.969346 1.68728 0.906355 1.77897 0.86274C 1.87065 0.819124 1.97077 0.795928 2.07236 0.79476C 2.192 0.793693 2.30979 0.824311 2.41367 0.883477C 2.51755 0.942643 2.60381 1.02824 2.66363 1.13152C 2.72835 1.26691 2.78085 1.40778 2.82049 1.55246C 2.82049 1.63665 2.82049 1.69678 2.95323 1.69678L 3.6893 1.69678C 3.8341 1.69678 3.8703 1.6126 3.8341 1.45625C 3.78389 1.0859 3.61235 0.742451 3.34613 0.479285C 3.07991 0.21612 2.73393 0.0479732 2.36196 0.000980304L 2.04822 0.000980304C 1.70939 -0.0100198 1.37399 0.0715775 1.07835 0.236933C 0.782703 0.402288 0.538071 0.645103 0.370946 0.939087C 0.012574 1.57512 -0.0908933 2.3228 0.0813465 3.03178C 0.159384 3.49251 0.400942 3.90995 0.761988 4.20799C 1.12303 4.50603 1.57952 4.66483 2.04822 4.65542C 2.44565 4.64916 2.82997 4.51268 3.14183 4.26706C 3.4537 4.02143 3.67577 3.68032 3.77376 3.29637C 3.91857 2.88746 3.95477 2.83935 3.67724 2.81529Z"/>
<path id="path11_fill" d="M 3.30409 2.86364L 3.09895 2.86364C 2.89382 2.86364 2.86969 2.86364 2.77316 3.21242C 2.7483 3.27996 2.71592 3.34451 2.67662 3.40485C 2.61603 3.51193 2.52856 3.60149 2.4228 3.66474C 2.31703 3.72799 2.19659 3.76277 2.07328 3.76567C 1.96426 3.76575 1.85684 3.73954 1.76018 3.68928C 1.66353 3.63901 1.58051 3.56619 1.51822 3.47702C 1.41079 3.3244 1.33302 3.15307 1.28894 2.97189C 1.24892 2.74498 1.22072 2.51616 1.20448 2.28634C 1.20265 1.94924 1.26404 1.61476 1.38548 1.30013C 1.4374 1.15638 1.53238 1.03198 1.65755 0.943788C 1.78273 0.855594 1.93206 0.807854 2.08535 0.807027C 2.23683 0.822009 2.3795 0.884992 2.49243 0.986727C 2.60536 1.08846 2.6826 1.22359 2.71282 1.3723C 2.80935 1.67297 2.83349 1.72108 3.05069 1.72108L 3.19549 1.72108C 3.34029 1.72108 3.48509 1.72108 3.61783 1.72108C 3.75056 1.72108 3.85916 1.63689 3.8109 1.44446C 3.7548 1.05487 3.56354 0.697175 3.27036 0.433519C 2.97717 0.169864 2.60059 0.0169092 2.20602 0.00122195L 1.97675 0.00122195C 1.63342 -0.0114588 1.2937 0.0748384 0.998342 0.249764C 0.702983 0.424689 0.464519 0.680816 0.311542 0.987433C 0.106683 1.39427 -4.48615e-06 1.84317 -4.48615e-06 2.29837C -4.48615e-06 2.75357 0.106683 3.20248 0.311542 3.60931C 0.41985 3.85604 0.585953 4.07328 0.795917 4.24279C 1.00588 4.4123 1.25358 4.52913 1.51822 4.5835C 1.74649 4.61364 1.97775 4.61364 2.20602 4.5835C 2.53673 4.58648 2.86029 4.48757 3.13245 4.30027C 3.4046 4.11298 3.61205 3.84645 3.72642 3.53715C 3.91949 2.94783 4.01602 2.92378 3.30409 2.86364Z"/>
<path id="path12_fill" d="M 2.37029 0.000881137L 2.03243 0.000881137C 1.68613 -0.00973579 1.34368 0.0757266 1.04326 0.247739C 0.74284 0.419752 0.496266 0.671555 0.331022 0.975068C 0.138655 1.34358 0.0273112 1.74872 0.00442308 2.1635C -0.018465 2.57827 0.0476279 2.99315 0.198287 3.38046C 0.323549 3.72851 0.552412 4.03015 0.854292 4.24507C 1.15617 4.45998 1.51669 4.57794 1.88763 4.58316L 2.11689 4.58316C 2.53098 4.58312 2.93335 4.44613 3.26091 4.19365C 3.58847 3.94116 3.82271 3.58747 3.9269 3.18803C 4.07498 2.70904 4.10397 2.20135 4.01137 1.70871C 3.95788 1.28623 3.76945 0.892093 3.47393 0.584553C 3.17841 0.277012 2.79148 0.0723748 2.37029 0.000881137ZM 2.8047 3.0437C 2.78782 3.12197 2.76358 3.19848 2.7323 3.27222C 2.68009 3.41653 2.58763 3.54299 2.46579 3.63673C 2.34395 3.73048 2.19779 3.7876 2.0445 3.8014C 1.89379 3.78408 1.75085 3.72546 1.63156 3.63204C 1.51227 3.53862 1.42131 3.41407 1.36876 3.27222C 1.15984 2.67537 1.13878 2.02916 1.30842 1.42006C 1.36373 1.24242 1.46831 1.08398 1.61009 0.963038C 1.72479 0.856239 1.87547 0.796163 2.03243 0.794661C 2.18241 0.802591 2.32695 0.853273 2.44888 0.940686C 2.5708 1.0281 2.66499 1.14856 2.72023 1.28777C 2.83086 1.60533 2.89191 1.93794 2.90123 2.27398C 2.8771 2.56263 2.8409 2.80316 2.8047 3.0437Z"/>
<path id="path13_fill" d="M 2.75121 0.168636C 2.49768 0.0531635 2.22146 -0.00436412 1.94274 0.000258851L 0.301668 0.000258851C -3.59617e-07 0.000258851 -3.68248e-07 0.000259397 -3.68248e-07 0.324988L -3.68248e-07 4.25781C -3.68248e-07 4.5224 3.68607e-06 4.53443 0.277539 4.54645L 0.880875 4.54645C 1.09808 4.54645 1.11014 4.54645 1.12221 4.29389C 1.13427 4.04132 1.12221 3.82483 1.12221 3.59632C 1.12221 3.36781 1.12221 3.09119 1.12221 2.83863L 1.84621 2.83863C 2.01896 2.85063 2.19233 2.85063 2.36508 2.83863C 2.70578 2.77765 3.01254 2.59506 3.22797 2.325C 3.44339 2.05495 3.55274 1.71592 3.53555 1.37133C 3.54098 1.11557 3.46908 0.864097 3.3292 0.649606C 3.18932 0.435115 2.98793 0.267528 2.75121 0.168636ZM 2.36508 1.67201C 2.32921 1.74673 2.27503 1.81124 2.20754 1.85959C 2.14006 1.90794 2.06144 1.93856 1.97894 1.94863L 1.66521 1.94863L 1.38768 1.94863C 1.07394 1.94863 1.14634 1.94863 1.13428 1.41944L 1.13428 0.998495C 1.13428 0.890252 1.13428 0.842148 1.26701 0.842148L 1.89448 0.842148C 1.99105 0.843891 2.0855 0.870723 2.16849 0.919991C 2.25148 0.96926 2.32012 1.03926 2.36765 1.12307C 2.41518 1.20688 2.43994 1.30161 2.43949 1.39788C 2.43904 1.49415 2.41339 1.58864 2.36508 1.67201Z"/>
<path id="path14_fill" d="M 43.1144 2.2022e-06L 1.59281 2.2022e-06C 1.17037 2.2022e-06 0.765235 0.167259 0.466526 0.464984C 0.167816 0.762709 2.21013e-06 1.16651 2.21013e-06 1.58756L 2.21013e-06 30.2358C -9.76237e-06 30.658 0.167412 31.063 0.46578 31.3627C 0.764148 31.6623 1.16927 31.8322 1.59281 31.8354L 43.1144 31.8354C 43.538 31.8322 43.9431 31.6623 44.2415 31.3627C 44.5398 31.063 44.7073 30.658 44.7073 30.2358L 44.7073 1.58756C 44.7073 1.16651 44.5394 0.762709 44.2407 0.464984C 43.942 0.167259 43.5369 2.2022e-06 43.1144 2.2022e-06ZM 43.5006 30.2358C 43.5006 30.339 43.4603 30.4382 43.3882 30.5123C 43.3162 30.5864 43.2179 30.6296 43.1144 30.6327L 1.59281 30.6327C 1.48931 30.6296 1.3911 30.5864 1.31901 30.5123C 1.24692 30.4382 1.20663 30.339 1.20668 30.2358L 1.20668 1.58756C 1.20668 1.48549 1.24736 1.3876 1.31977 1.31542C 1.39219 1.24324 1.4904 1.2027 1.59281 1.2027L 43.1144 1.2027C 43.2169 1.2027 43.3151 1.24324 43.3875 1.31542C 43.4599 1.3876 43.5006 1.48549 43.5006 1.58756L 43.5006 30.2358Z"/>
<path id="path15_fill" d="M 36.178 4.58454L 35.9125 4.58454L 34.4766 4.76494L 33.7043 4.86115C 33.4951 4.87182 33.2902 4.92413 33.1016 5.01502C 32.913 5.10591 32.7446 5.23352 32.6063 5.39034C 32.5056 5.50489 32.4241 5.63484 32.3649 5.7752C 32.2238 5.59 32.0412 5.44026 31.8317 5.33794C 31.6222 5.23561 31.3916 5.18354 31.1582 5.18588L 30.8928 5.18588L 29.8551 5.30615L 28.8173 5.42642C 28.5012 5.45489 28.2003 5.57478 27.9517 5.77135C 27.703 5.96792 27.5174 6.23261 27.4176 6.5329C 27.2839 6.281 27.0816 6.07177 26.834 5.92923C 26.5864 5.7867 26.3035 5.71664 26.0178 5.72709L 25.7282 5.72709L 24.7629 5.84737L 23.9906 5.94358C 23.7189 5.95928 23.4546 6.0375 23.2183 6.17209C 23.0691 6.13058 22.9147 6.11033 22.7598 6.11196L 22.5064 6.11196L 20.6602 6.32844C 20.4566 6.35201 20.2575 6.40467 20.0689 6.48479C 19.9606 6.47335 19.8514 6.47335 19.7431 6.48479L 19.5259 6.48479L 18.7536 6.58101C 18.7536 5.9957 18.7536 5.41038 18.7536 4.82507C 19.0587 4.75232 19.3328 4.58509 19.5366 4.34741C 19.7404 4.10972 19.8634 3.8138 19.8879 3.50211C 19.8964 3.34988 19.8964 3.1973 19.8879 3.04508C 19.8879 2.53995 19.8879 2.03481 19.8879 1.56576C 19.8978 1.17917 19.7646 0.802467 19.5139 0.507388C 19.3643 0.33757 19.1779 0.203857 18.9689 0.116349C 18.7598 0.0288417 18.5336 -0.0101699 18.3072 0.00225692L 18.0779 0.00225692L 17.8245 0.00225692L 17.4987 0.00225692L 15.8094 0.206713L 13.8907 0.447254C 13.694 0.473423 13.5026 0.530241 13.3236 0.615631L 13.0219 0.615631L 12.5875 0.615631L 10.2587 0.90428C 9.4975 0.980624 8.76544 1.2362 8.12285 1.64995L 7.96598 1.75819C 7.82241 1.6192 7.65232 1.51033 7.46578 1.43803C 7.27924 1.36572 7.08004 1.33145 6.87998 1.33725L 6.72311 1.33725L 6.01117 1.40941L 5.7095 1.40941L 3.57369 1.67401L 1.41375 1.9386C 1.01575 1.96943 0.645523 2.15383 0.381852 2.45257C 0.118181 2.75131 -0.0181197 3.14081 0.00193997 3.53819L 0.00193997 9.07059C -0.00131964 9.27524 0.0367131 9.47844 0.113786 9.66814C 0.190859 9.85784 0.305395 10.0302 0.450594 10.1749C 0.595793 10.3196 0.768695 10.4338 0.959025 10.5106C 1.14935 10.5874 1.35323 10.6253 1.55855 10.6221L 1.79988 10.6221L 3.68229 10.3936C 3.92868 10.3653 4.16677 10.2876 4.38216 10.165C 4.54272 10.2128 4.70936 10.2371 4.8769 10.2372L 5.04584 10.2372L 5.14236 10.2372L 5.26304 10.2372L 6.11978 10.141L 6.11978 15.0119C 6.0818 15.239 6.09666 15.4718 6.16322 15.6922C 6.22978 15.9127 6.34625 16.115 6.50365 16.2835C 6.66105 16.452 6.85518 16.5822 7.07106 16.6641C 7.28694 16.746 7.51881 16.7774 7.74878 16.7558L 8.00218 16.7558L 9.90873 16.5273C 10.1414 16.4962 10.3663 16.4229 10.5724 16.3108C 10.7246 16.3588 10.8834 16.3831 11.043 16.383L 11.2602 16.383L 12.2255 16.2627L 13.215 16.1425C 13.4066 16.1173 13.5936 16.0646 13.7701 15.9861C 13.8944 15.9991 14.0198 15.9991 14.1442 15.9861L 14.4217 15.9861C 14.9888 15.9019 15.556 15.8297 16.1472 15.7696C 16.4932 15.7322 16.8206 15.5942 17.0884 15.3727C 17.321 15.487 17.5774 15.5447 17.8366 15.5411L 18.1262 15.5411L 19.2243 15.3968L 19.7673 15.3246C 19.9924 15.3053 20.2127 15.2484 20.4189 15.1562L 20.7567 15.1562L 21.0222 15.1562L 22.5909 14.9277C 22.7015 15.2136 22.8972 15.459 23.1517 15.631C 23.4062 15.8029 23.7073 15.8933 24.0147 15.8899L 24.2199 15.8899L 24.9198 15.7937L 25.5593 15.7095C 25.8616 15.6865 26.15 15.5732 26.3868 15.3844C 26.6236 15.1956 26.7978 14.9401 26.8866 14.6511L 26.9711 14.3985L 27.1521 14.3985L 29.2517 14.146C 29.5903 14.0994 29.9041 13.943 30.1446 13.701C 30.3958 13.8521 30.6839 13.9312 30.9773 13.9295L 31.2548 13.9295L 32.2563 13.8092L 32.6304 13.8092C 32.7422 14.0958 32.9403 14.341 33.1973 14.5111C 33.4544 14.6811 33.7579 14.7679 34.0663 14.7594L 34.3921 14.7594C 34.9713 14.6752 35.5264 14.603 36.1056 14.5429L 36.166 14.5429C 36.5466 14.4979 36.8965 14.3124 37.1467 14.023C 37.3969 13.7336 37.5291 13.3612 37.5174 12.9794L 37.5174 11.1633C 37.5172 10.926 37.4636 10.6917 37.3605 10.4777C 37.3663 10.3977 37.3663 10.3173 37.3605 10.2372C 37.4169 9.65991 37.4692 9.08262 37.5174 8.50533C 37.5174 7.94006 37.6139 7.36276 37.6622 6.8456C 37.6622 6.68925 37.6622 6.52087 37.7346 6.3525L 37.7346 6.24425L 37.7346 5.82331L 37.6381 5.5948C 37.5217 5.30177 37.3209 5.04954 37.0612 4.86981C 36.8014 4.69007 36.4942 4.59083 36.178 4.58454ZM 7.21784 8.60154C 7.21784 8.87816 7.12131 8.97438 6.84378 9.01046L 5.10616 9.21492L 4.93723 9.21492C 4.68383 9.21492 4.57523 9.10668 4.57523 8.83005L 4.57523 5.41439L 3.95983 5.48656L 3.95983 8.99843C 3.95983 9.27505 3.87536 9.37127 3.58576 9.40735L 1.71541 9.63586L 1.61888 9.63586C 1.38961 9.63586 1.28101 9.51559 1.26894 9.23897L 1.26894 3.7667C 1.26894 3.49008 1.36548 3.39386 1.63095 3.35778L 5.91464 2.82859C 6.22838 2.82859 6.54211 2.7444 6.86791 2.72035L 6.92824 2.72035C 7.15751 2.72035 7.25404 2.84062 7.25404 3.09319L 7.21784 8.60154ZM 13.3236 14.4707C 13.3236 14.7834 13.3236 14.8676 12.9495 14.9157L 11.043 15.1442L 10.9706 15.1442C 10.7655 15.1442 10.6569 15.0119 10.6569 14.7954C 10.6569 14.3384 10.6569 13.8814 10.6569 13.4244L 10.6569 13.1958L 10.1863 13.1958C 10.0656 13.1958 10.0294 13.1958 10.0294 13.3762C 10.0294 13.8573 10.0294 14.3384 10.0294 14.8195C 10.0294 15.3006 10.0294 15.2164 9.65533 15.2645L 7.77291 15.493L 7.74878 15.493C 7.53158 15.493 7.42299 15.3727 7.42299 15.1202L 7.42299 9.67194C 7.42299 9.3833 7.50745 9.28708 7.78498 9.251L 9.65533 9.02249L 9.75187 9.02249C 9.9932 9.02249 10.1018 9.15478 10.1018 9.44343L 10.1018 10.8386L 10.1742 10.8386C 10.7293 10.8386 10.7293 10.8386 10.7293 10.2372C 10.7293 9.88843 10.7293 9.55167 10.7293 9.20289C 10.7293 8.85411 10.8017 8.87816 11.043 8.85411L 13.0099 8.60154C 13.215 8.60154 13.3357 8.73384 13.3357 8.97438L 13.3236 14.4707ZM 13.3236 7.78371C 13.3236 8.16857 13.3236 8.21668 12.8892 8.26479L 11.2119 8.46925L 11.0068 8.46925C 10.9658 8.47271 10.9244 8.4674 10.8856 8.45368C 10.8468 8.43997 10.8113 8.41815 10.7816 8.38969C 10.7519 8.36123 10.7287 8.32679 10.7134 8.28866C 10.6981 8.25053 10.6912 8.20959 10.6931 8.16857C 10.6931 8.03628 10.6931 7.89195 10.6931 7.75965C 10.5965 7.96411 10.4879 8.15654 10.4035 8.361C 10.3725 8.43818 10.3193 8.50448 10.2506 8.55157C 10.1819 8.59865 10.1007 8.62441 10.0173 8.62559L 7.90565 8.89019L 7.74878 8.89019C 7.68996 8.89696 7.63041 8.887 7.57703 8.86146C 7.52365 8.83592 7.47861 8.79585 7.44711 8.74587C 7.4061 8.68328 7.38425 8.61015 7.38425 8.5354C 7.38425 8.46064 7.4061 8.3875 7.44711 8.32492L 8.53312 6.55696L 8.66586 6.32844C 7.45918 5.83534 7.45918 3.6344 8.73825 2.84062C 9.22927 2.52748 9.7873 2.33384 10.3673 2.27535L 12.6961 1.98671L 12.9857 1.98671C 13.0206 1.98509 13.0555 1.99035 13.0883 2.00217C 13.1211 2.01399 13.1513 2.03216 13.1771 2.05562C 13.2029 2.07908 13.2237 2.10737 13.2385 2.13889C 13.2533 2.1704 13.2617 2.20452 13.2633 2.23927C 13.2692 2.29926 13.2692 2.35969 13.2633 2.41968L 13.3236 7.78371ZM 13.6736 2.2513C 13.6736 1.96265 13.7822 1.86644 14.0597 1.83036L 17.6797 1.38536L 18.2589 1.32522L 18.3434 1.32522C 18.5485 1.32522 18.6571 1.45752 18.6571 1.68603C 18.6571 2.17914 18.6571 2.67225 18.6571 3.16535C 18.6632 3.27351 18.6632 3.38192 18.6571 3.49008C 18.6572 3.56778 18.6271 3.64249 18.5731 3.69855C 18.5191 3.7546 18.4454 3.78765 18.3675 3.79076C 18.152 3.83059 17.9345 3.8587 17.7159 3.87494C 17.559 3.87494 17.5108 3.87494 17.5108 4.09143C 17.5108 5.16183 17.5108 6.2202 17.5108 7.2906C 17.5108 7.63939 17.5108 7.71154 17.1126 7.74763L 15.2181 7.98817C 15.013 7.98817 14.8923 7.85587 14.8923 7.61533L 14.8923 4.23575L 14.2166 4.30791L 14.0959 4.30791C 13.8666 4.30791 13.758 4.17562 13.746 3.899L 13.6736 2.2513ZM 19.9965 8.26479L 19.9965 13.6168C 19.9965 13.9776 19.9121 14.0618 19.5621 14.0979C 18.995 14.17 18.4278 14.2302 17.8607 14.3144L 17.7521 14.3144C 17.4987 14.3144 17.3901 14.1941 17.3901 13.9054L 17.3901 12.5223C 17.0643 13.1117 16.7264 13.725 16.4127 14.2903C 16.3703 14.3733 16.3068 14.4437 16.2284 14.4944C 16.15 14.5451 16.0595 14.5742 15.9662 14.5789C 15.375 14.6391 14.7596 14.7112 14.2045 14.7954L 14.0959 14.7954C 13.8425 14.7954 13.7218 14.6631 13.7218 14.3745L 13.7218 8.91424C 13.7218 8.61357 13.8063 8.52938 14.0959 8.48127L 15.9662 8.25276C 16.0101 8.25069 16.0539 8.25818 16.0945 8.27472C 16.1352 8.29125 16.1717 8.31643 16.2016 8.3485C 16.2314 8.38057 16.2539 8.41875 16.2675 8.46038C 16.281 8.50201 16.2853 8.54608 16.28 8.58951C 16.28 9.09465 16.28 9.58776 16.28 10.1049L 16.3886 9.94856L 17.3056 8.30087C 17.3392 8.22791 17.3914 8.16505 17.4571 8.1186C 17.5228 8.07215 17.5995 8.04376 17.6797 8.03627L 19.5742 7.80776L 19.6466 7.80776C 19.6882 7.80607 19.7298 7.81299 19.7686 7.82811C 19.8075 7.84322 19.8427 7.86619 19.8722 7.89558C 19.9017 7.92496 19.9247 7.96011 19.9399 7.99882C 19.9551 8.03753 19.962 8.07895 19.9603 8.12046C 19.9902 8.16551 20.0145 8.21396 20.0327 8.26479L 19.9965 8.26479ZM 25.7041 14.2783C 25.6886 14.341 25.6533 14.3971 25.6033 14.4383C 25.5533 14.4795 25.4913 14.5035 25.4266 14.5068L 24.0268 14.6872C 23.9836 14.6889 23.9404 14.6816 23.9001 14.6659C 23.8599 14.6502 23.8233 14.6263 23.7927 14.5958C 23.7621 14.5653 23.7381 14.5289 23.7223 14.4887C 23.7066 14.4485 23.6993 14.4056 23.701 14.3625L 23.701 13.6048L 22.8443 13.701L 20.8653 13.9415L 20.7205 13.9415C 20.4792 13.9415 20.4068 13.8212 20.4068 13.5085L 20.4068 8.13249C 20.4068 7.77168 20.4068 7.71154 20.8171 7.66344L 22.6391 7.44695L 22.7477 7.44695C 22.9891 7.44695 23.0856 7.56722 23.0856 7.8679L 23.0856 11.2475L 23.158 11.2475C 23.701 11.2475 23.701 11.2475 23.701 10.6461L 23.701 7.71155C 23.701 7.4229 23.7855 7.32668 24.0751 7.30263L 25.861 7.07412L 26.0058 7.07412C 26.2471 7.07412 26.3678 7.18236 26.3678 7.4229L 26.3678 10.8386L 26.5005 10.8386C 26.5517 10.8374 26.6024 10.8487 26.6481 10.8715C 26.6939 10.8943 26.7334 10.9279 26.7631 10.9694C 26.7929 11.0109 26.812 11.0591 26.8188 11.1096C 26.8256 11.1602 26.8199 11.2116 26.8022 11.2595L 25.7041 14.2783ZM 33.0648 12.4381L 31.0617 12.6907L 30.9411 12.6907C 30.748 12.6907 30.6635 12.6065 30.5911 12.39C 30.5187 12.1736 30.5911 12.1615 30.4946 12.0292L 29.5896 12.1375C 29.493 12.1375 29.4327 12.1375 29.4206 12.2938C 29.4086 12.4502 29.4206 12.5464 29.3241 12.6667C 29.3108 12.7348 29.2752 12.7967 29.2227 12.8424C 29.1703 12.8881 29.1041 12.9152 29.0345 12.9192L 26.9711 13.1718L 26.8504 13.1718C 26.5488 13.1718 26.4402 12.9914 26.5608 12.6667L 28.5156 6.92979C 28.5413 6.84398 28.5937 6.76855 28.6654 6.71448C 28.737 6.66041 28.824 6.6305 28.9138 6.62912L 31.0014 6.37655L 31.122 6.37655C 31.291 6.37655 31.3755 6.44871 31.4479 6.64115C 32.0995 8.40911 32.739 10.165 33.3906 11.921C 33.5354 12.2457 33.4147 12.4141 33.0889 12.4502L 33.0648 12.4381ZM 36.2745 12.8591C 36.2796 12.9062 36.2747 12.9539 36.26 12.9991C 36.2453 13.0442 36.2212 13.0857 36.1894 13.1209C 36.1575 13.1561 36.1185 13.1842 36.0749 13.2033C 36.0314 13.2225 35.9843 13.2322 35.9367 13.2319C 35.3454 13.2319 34.73 13.3642 34.1749 13.4484L 34.0181 13.4484C 33.7526 13.4484 33.6681 13.3161 33.6681 12.9794C 33.6681 12.6426 33.6681 11.9571 33.6681 11.4399C 33.6681 11.1753 33.7526 11.0671 34.006 11.031L 35.8884 10.8025L 35.9608 10.8025C 36.0041 10.8024 36.047 10.8112 36.0867 10.8284C 36.1264 10.8456 36.1622 10.8708 36.1917 10.9024C 36.2211 10.934 36.2437 10.9714 36.258 11.0122C 36.2722 11.0529 36.2779 11.0962 36.2745 11.1392L 36.2745 12.8591ZM 36.5521 6.11196C 36.5521 6.30439 36.5521 6.4848 36.4676 6.6652C 36.359 7.80776 36.2625 8.96235 36.1539 10.1049C 36.1539 10.3455 36.0573 10.4296 35.8039 10.4657L 34.1749 10.6702C 34.1359 10.6735 34.0966 10.6688 34.0595 10.6565C 34.0223 10.6443 33.988 10.6246 33.9587 10.5988C 33.9294 10.5729 33.9056 10.5414 33.8889 10.5061C 33.8721 10.4708 33.8627 10.4326 33.8612 10.3936C 33.8612 10.129 33.8009 9.85235 33.7767 9.57573L 33.463 6.50885C 33.463 6.23223 33.5354 6.12399 33.8129 6.09993L 36.0815 5.81128L 36.178 5.81128C 36.2662 5.80368 36.3544 5.82557 36.4287 5.87348C 36.503 5.92139 36.5591 5.99261 36.5883 6.07588L 36.5521 6.11196Z"/>
<path id="path16_fill" d="M 6.0937 0L 1.20667 0C 0.540247 0 0 0.538467 0 1.2027L 0 2.4054C 0 3.06963 0.540247 3.60809 1.20667 3.60809L 6.0937 3.60809C 6.76013 3.60809 7.30037 3.06963 7.30037 2.4054L 7.30037 1.2027C 7.30037 0.538467 6.76013 0 6.0937 0Z"/>
<path id="path17_fill" d="M 10.8601 0L 1.20666 0C 0.540237 0 -8.83794e-06 0.538465 -8.83794e-06 1.2027L -8.83794e-06 2.40539C -8.83794e-06 3.06962 0.540237 3.60809 1.20666 3.60809L 10.8601 3.60809C 11.5265 3.60809 12.0667 3.06962 12.0667 2.40539L 12.0667 1.2027C 12.0667 0.538465 11.5265 0 10.8601 0Z"/>
<path id="path18_fill" d="M 1.81 3.60809C 2.80964 3.60809 3.62001 2.80039 3.62001 1.80405C 3.62001 0.8077 2.80964 0 1.81 0C 0.810362 0 -7.36495e-06 0.8077 -7.36495e-06 1.80405C -7.36495e-06 2.80039 0.810362 3.60809 1.81 3.60809Z"/>
<path id="path19_fill" d="M 3.19768 3.48782L 3.19768 0.0120284L 5.15547e-06 0.0120284L 5.15547e-06 1.5154C 0.181006 1.5154 0.337866 1.57553 0.482667 1.57553L 0.555065 1.57553L 0.796396 1.57553C 1.29113 1.57553 1.42388 1.88823 1.41181 2.4535C 1.41181 3.55998 1.41181 4.70255 1.41181 5.83308C 1.41181 6.96362 1.41181 7.03578 0.205137 7.16807C 0.205137 7.16807 0.120676 7.16808 0.0603425 7.22821L 0.0603425 8.70753L 3.33042 8.70753L 3.33042 5.15957L 5.45416 5.15957L 5.45416 8.76766L 8.65185 8.76766L 8.65185 7.14402L 7.31244 7.14402L 7.31244 2.80229C 7.31244 1.59959 7.31244 1.59959 8.42258 1.59959C 8.50551 1.59397 8.58508 1.56475 8.65185 1.5154L 8.65185 -1.1011e-06L 5.34556 -1.1011e-06L 5.34556 3.47579L 3.19768 3.48782Z"/>
</defs>
</svg>
