<svg width="67" height="96" viewBox="0 0 67 96" version="1.1" xmlns="http://www.w3.org/2000/svg" xmlns:xlink="http://www.w3.org/1999/xlink">
<title>Union</title>
<desc>Created using Figma</desc>
<g id="Canvas" transform="translate(-27256 5138)">
<g id="Union">
<use xlink:href="#path0_fill" transform="translate(27256 -5137.61)" fill="#F99531"/>
</g>
</g>
<defs>
<path id="path0_fill" fill-rule="evenodd" d="M 29.6016 17.8684L 13.9414 43.2505C 13.5293 43.9167 14.0098 44.7756 14.793 44.7756L 26.8223 44.7756C 27.5254 44.7756 28.0098 45.4824 27.7539 46.1379L 21.2344 62.9114C 20.9785 63.5669 21.4629 64.2737 22.166 64.2737L 32.9883 64.2737C 33.666 64.2737 34.1465 64.9329 33.9414 65.5779L 30.4648 76.459C 15.5977 74.9397 4 62.3811 4 47.1133C 4 32.1421 15.1504 19.7759 29.6016 17.8684ZM 32.2129 13.6375C 14.3086 14.314 0 29.043 0 47.1133C 0 64.1663 12.7422 78.2434 29.2246 80.343L 25.0664 93.3586C 24.7109 94.4729 26.2305 95.1875 26.8613 94.2029L 35.6191 80.5474C 53.1328 79.4539 67 64.9028 67 47.1133C 67 30.1873 54.4473 16.1929 38.1426 13.9324L 42.1348 1.30762C 42.4902 0.184082 40.9492 -0.521729 40.3301 0.480957L 32.2129 13.6375ZM 36.916 17.8091L 31.8574 33.8101C 31.6543 34.4548 32.1348 35.1116 32.8105 35.1116L 44.166 35.1116C 44.8828 35.1116 45.3652 35.8425 45.0859 36.502L 37.832 53.6179C 37.5527 54.2773 38.0371 55.0081 38.7539 55.0081L 50.1699 55.0081C 50.9609 55.0081 51.4395 55.8823 51.0117 56.5481L 38.4023 76.2078C 52.3613 73.8728 63 61.7356 63 47.1133C 63 31.9766 51.5996 19.5027 36.916 17.8091Z"/>
</defs>
</svg>
