<svg width="24" height="24" viewBox="0 0 24 24" version="1.1" xmlns="http://www.w3.org/2000/svg" xmlns:xlink="http://www.w3.org/1999/xlink">
<title>Group</title>
<desc>Created using Figma</desc>
<g id="Canvas" transform="translate(-10424 -1136)">
<g id="Group">
<g id="Vector">
<mask id="mask0_outline_ins">
<use xlink:href="#path0_fill" fill="white" transform="translate(10424 1136)"/>
</mask>
<g mask="url(#mask0_outline_ins)">
<use xlink:href="#path1_stroke_2x" transform="translate(10424 1136)" fill="#FFFFFF"/>
</g>
</g>
<g id="Vector">
<use xlink:href="#path2_stroke" transform="matrix(-0.707107 -0.707107 -0.707107 0.707107 10442.5 1143.52)" fill="#FFFFFF"/>
</g>
</g>
</g>
<defs>
<path id="path0_fill" d="M 12 24C 18.6321 24 24 18.6114 24 12C 24 5.36788 18.6114 0 12 0C 5.3886 0 0 5.36788 0 12C 0 18.6114 5.36788 24 12 24Z"/>
<path id="path1_stroke_2x" d="M 12 25C 19.1855 25 25 19.1626 25 12L 23 12C 23 18.0602 18.0787 23 12 23L 12 25ZM 25 12C 25 4.81447 19.1626 -1 12 -1L 12 1C 18.0602 1 23 5.92128 23 12L 25 12ZM 12 -1C 4.83744 -1 -1 4.81447 -1 12L 1 12C 1 5.92128 5.93976 1 12 1L 12 -1ZM -1 12C -1 19.1626 4.81447 25 12 25L 12 23C 5.92128 23 1 18.0602 1 12L -1 12Z"/>
<path id="path2_stroke" d="M 0.532833 0.0199844C 0.54387 -0.255937 0.329138 -0.488563 0.0532167 -0.4996C -0.222705 -0.510638 -0.455331 -0.295906 -0.466368 -0.0199844L 0.532833 0.0199844ZM 0.025351 8.30821L -0.474631 8.3125L 0.025351 8.30821ZM 0.913915 9.29022L 0.858695 9.78716L 0.858696 9.78716L 0.913915 9.29022ZM 6.34189 10.3964C 6.61634 10.4269 6.86355 10.2292 6.89405 9.95471C 6.92454 9.68026 6.72678 9.43305 6.45233 9.40255L 6.34189 10.3964ZM -0.466368 -0.0199844C -0.52556 1.46324 -0.491833 6.30712 -0.474631 8.3125L 0.525333 8.30393C 0.508137 6.29934 0.474304 1.47974 0.532833 0.0199844L -0.466368 -0.0199844ZM 0.858696 9.78716L 6.34189 10.3964L 6.45233 9.40255L 0.969134 8.79327L 0.858696 9.78716ZM -0.474631 8.3125C -0.46811 9.07265 0.105981 9.70352 0.858695 9.78716L 0.969134 8.79327C 0.716784 8.76523 0.527486 8.55499 0.525333 8.30393L -0.474631 8.3125Z"/>
</defs>
</svg>
